/* XPM */
static char * bottom_right_inactive_xpm[] = {
"55 55 3 1",
" 	c None",
".	c #EDECEB",
"+	c #4285F4 s active_color_1",
"                                         ......++++++++",
"                                         ......++++++++",
"                                         ......++++++++",
"                                         ......++++++++",
"                                         ......++++++++",
"                                         ......++++++++",
"                                         ......++++++++",
"                                         ......++++++++",
"                                         ......++++++++",
"                                         ......++++++++",
"                                         ......++++++++",
"                                         ......++++++++",
"                                         ......++++++++",
"                                         ......++++++++",
"                                         ......++++++++",
"                                         ......++++++++",
"                                         ......++++++++",
"                                         ......++++++++",
"                                         ......++++++++",
"                                         ......++++++++",
"                                         ......++++++++",
"                                         ......++++++++",
"                                         ......++++++++",
"                                         ......++++++++",
"                                         ......++++++++",
"                                         ......++++++++",
"                                         ......++++++++",
"                                         ......++++++++",
"                                         ......++++++++",
"                                         ......++++++++",
"                                         ......++++++++",
"                                         ......++++++++",
"                                         ......++++++++",
"                                         ......++++++++",
"                                         ......++++++++",
"                                         ......++++++++",
"                                         ......++++++++",
"                                         ......++++++++",
"                                         ......++++++++",
"                                         ......++++++++",
"                                         ......++++++++",
"...............................................++++++++",
"...............................................++++++++",
"...............................................++++++++",
"...............................................++++++++",
"...............................................++++++++",
"...............................................++++++++",
"+++++++++++++++++++++++++++++++++++++++++++++++++++++++",
"+++++++++++++++++++++++++++++++++++++++++++++++++++++++",
"+++++++++++++++++++++++++++++++++++++++++++++++++++++++",
"+++++++++++++++++++++++++++++++++++++++++++++++++++++++",
"+++++++++++++++++++++++++++++++++++++++++++++++++++++++",
"+++++++++++++++++++++++++++++++++++++++++++++++++++++++",
"+++++++++++++++++++++++++++++++++++++++++++++++++++++++",
"+++++++++++++++++++++++++++++++++++++++++++++++++++++++"};
