/* XPM */
static char * right_inactive_xpm[] = {
"14 55 3 1",
" 	c None",
".	c #EDECEB",
"+	c #4285F4 s active_color_1",
"......++++++++",
"......++++++++",
"......++++++++",
"......++++++++",
"......++++++++",
"......++++++++",
"......++++++++",
"......++++++++",
"......++++++++",
"......++++++++",
"......++++++++",
"......++++++++",
"......++++++++",
"......++++++++",
"......++++++++",
"......++++++++",
"......++++++++",
"......++++++++",
"......++++++++",
"......++++++++",
"......++++++++",
"......++++++++",
"......++++++++",
"......++++++++",
"......++++++++",
"......++++++++",
"......++++++++",
"......++++++++",
"......++++++++",
"......++++++++",
"......++++++++",
"......++++++++",
"......++++++++",
"......++++++++",
"......++++++++",
"......++++++++",
"......++++++++",
"......++++++++",
"......++++++++",
"......++++++++",
"......++++++++",
"......++++++++",
"......++++++++",
"......++++++++",
"......++++++++",
"......++++++++",
"......++++++++",
"......++++++++",
"......++++++++",
"......++++++++",
"......++++++++",
"......++++++++",
"......++++++++",
"......++++++++",
"......++++++++"};
