/* XPM */
static char * stick_toggled_prelight_xpm[] = {
"70 55 14 1",
" 	c None",
".	c #EDECEB",
"+	c #000000",
"@	c #EAE9E8",
"#	c #A9A8A7",
"$	c #4E4D4D",
"%	c #0E0E0E",
"&	c #C8C7C7",
"*	c #101010",
"=	c #191818",
"-	c #7E7D7D",
";	c #C2C1C0",
">	c #E5E4E3",
",	c #E4E3E2",
"                                                                      ",
"                                                                      ",
"                                                                      ",
"                                                                      ",
"                                                                      ",
"                                                                      ",
"......................................................................",
".++++++++++++++++++++++++++++++++++++++++++++++++++++++++++++++++++++.",
".++++++++++++++++++++++++++++++++++++++++++++++++++++++++++++++++++++.",
".++++++++++++++++++++++++++++++++++++++++++++++++++++++++++++++++++++.",
".++++++++++++++++++++++++++++++++++++++++++++++++++++++++++++++++++++.",
".++++++++++++++++++++++++++++++++++++++++++++++++++++++++++++++++++++.",
".++++++++++++++++++++++++++++++++++++++++++++++++++++++++++++++++++++.",
".++++++++++++++++++++++++++++++++++++++++++++++++++++++++++++++++++++.",
".++++++++++++++++++++++++++++++++++++++++++++++++++++++++++++++++++++.",
"......................................................................",
"......................................................................",
"......................................................................",
"..........................@#$%+++++++++++$#@..........................",
".........................&*++++++++++++++++*&.........................",
"........................&++++++++++++++++++++&........................",
".......................@*++++++++++++++++++++*@.......................",
".......................#++++=-;>.......;-=++++#.......................",
".......................$+++=,............,=+++$.......................",
".......................%+++-.@#$%+++++$#@.-+++%.......................",
".......................++++;.#++++++++++#.;++++.......................",
".......................++++>.$++++++++++$.>++++.......................",
".......................++++..%++++++++++%..++++.......................",
".......................++++..++++++++++++..++++.......................",
".......................++++..++++++++++++..++++.......................",
".......................++++..++++++++++++..++++.......................",
".......................++++..++++++++++++..++++.......................",
".......................++++..%++++++++++%..++++.......................",
".......................++++>.$++++++++++$.>++++.......................",
".......................++++;.#++++++++++#.;++++.......................",
".......................%+++-.@#$%+++++$#@.-+++%.......................",
".......................$+++=,............,=+++$.......................",
".......................#++++=-;>.......;-=++++#.......................",
".......................@*++++++++++++++++++++*@.......................",
"........................&++++++++++++++++++++&........................",
".........................&*++++++++++++++++*&.........................",
"..........................@#$%+++++++++++$#@..........................",
"......................................................................",
"......................................................................",
"......................................................................",
"......................................................................",
"......................................................................",
"......................................................................",
"......................................................................",
"......................................................................",
"......................................................................",
"......................................................................",
"......................................................................",
"......................................................................",
"......................................................................"};
