/* XPM */
static char * shade_toggled_pressed_xpm[] = {
"70 55 9 1",
" 	c None",
".	c #EDECEB",
"+	c #000000",
"@	c #FFFFFF",
"#	c #7D7D7C",
"$	c #585A5D",
"%	c #FDFEFF",
"&	c #7E7F7E",
"*	c #FEFEFF",
"                                                                      ",
"                                                                      ",
"                                                                      ",
"                                                                      ",
"                                                                      ",
"                                                                      ",
"......................................................................",
".++++++++++++++++++++++++++++++++++++++++++++++++++++++++++++++++++++.",
".++++++++++++++++++++++++++++++++++++++++++++++++++++++++++++++++++++.",
".++++++++++++++++++++++++++++++++++++++++++++++++++++++++++++++++++++.",
".++++++++++++++++++++++++++++++++++++++++++++++++++++++++++++++++++++.",
".++++++++++++++++++++++++++++++++++++++++++++++++++++++++++++++++++++.",
".++++++++++++++++++++++++++++++++++++++++++++++++++++++++++++++++++++.",
".++++++++++++++++++++++++++++++++++++++++++++++++++++++++++++++++++++.",
".++++++++++++++++++++++++++++++++++++++++++++++++++++++++++++++++++++.",
".++++++++++++++++++++++++++++++++++++++++++++++++++++++++++++++++++++.",
".++++++++++++++++++++++++++++++++++++++++++++++++++++++++++++++++++++.",
".++++++++++++++++++++++++++++++++++++++++++++++++++++++++++++++++++++.",
".++++++++++++++++++++++@@@@@@@@@@@@@@@@@@@@@@@@++++++++++++++++++++++.",
".++++++++++++++++++++++@@@@@@@@@@@@@@@@@@@@@@@@++++++++++++++++++++++.",
".++++++++++++++++++++++@@@@@@@@@@@@@@@@@@@@@@@@++++++++++++++++++++++.",
".++++++++++++++++++++++@@@@@@@@@@@@@@@@@@@@@@@@++++++++++++++++++++++.",
".++++++++++++++++++++++++++++++++++++++++++++++++++++++++++++++++++++.",
".++++++++++++++++++++++++++++++++++++++++++++++++++++++++++++++++++++.",
".++++++++++++++++++++++++++++++++++++++++++++++++++++++++++++++++++++.",
".+++++++++++++++++++++++#$++++++++++++++++++$#+++++++++++++++++++++++.",
".++++++++++++++++++++++@@%$++++++++++++++++$%@@++++++++++++++++++++++.",
".+++++++++++++++++++++#@@@%$++++++++++++++$%@@@&+++++++++++++++++++++.",
".+++++++++++++++++++++$%@@@%$++++++++++++$%@@@%$+++++++++++++++++++++.",
".++++++++++++++++++++++$%@@@%$++++++++++$%@@@%$++++++++++++++++++++++.",
".+++++++++++++++++++++++$%@@@%$++++++++$%@@@%$+++++++++++++++++++++++.",
".++++++++++++++++++++++++$%@@@%$++++++$%@@@%$++++++++++++++++++++++++.",
".+++++++++++++++++++++++++$%@@@%$++++$%@@@%$+++++++++++++++++++++++++.",
".++++++++++++++++++++++++++$%@@@%$++$%@@@%$++++++++++++++++++++++++++.",
".+++++++++++++++++++++++++++$%@@@%$$%@@@%$+++++++++++++++++++++++++++.",
".++++++++++++++++++++++++++++$%@@@**@@@%$++++++++++++++++++++++++++++.",
".+++++++++++++++++++++++++++++$%@@@@@@%$+++++++++++++++++++++++++++++.",
".++++++++++++++++++++++++++++++$*@@@@*$++++++++++++++++++++++++++++++.",
".+++++++++++++++++++++++++++++++$@@@@$+++++++++++++++++++++++++++++++.",
".++++++++++++++++++++++++++++++++$@@$++++++++++++++++++++++++++++++++.",
".+++++++++++++++++++++++++++++++++$$+++++++++++++++++++++++++++++++++.",
".++++++++++++++++++++++++++++++++++++++++++++++++++++++++++++++++++++.",
".++++++++++++++++++++++++++++++++++++++++++++++++++++++++++++++++++++.",
".++++++++++++++++++++++++++++++++++++++++++++++++++++++++++++++++++++.",
".++++++++++++++++++++++++++++++++++++++++++++++++++++++++++++++++++++.",
".++++++++++++++++++++++++++++++++++++++++++++++++++++++++++++++++++++.",
".++++++++++++++++++++++++++++++++++++++++++++++++++++++++++++++++++++.",
".++++++++++++++++++++++++++++++++++++++++++++++++++++++++++++++++++++.",
".++++++++++++++++++++++++++++++++++++++++++++++++++++++++++++++++++++.",
".++++++++++++++++++++++++++++++++++++++++++++++++++++++++++++++++++++.",
".++++++++++++++++++++++++++++++++++++++++++++++++++++++++++++++++++++.",
".++++++++++++++++++++++++++++++++++++++++++++++++++++++++++++++++++++.",
".++++++++++++++++++++++++++++++++++++++++++++++++++++++++++++++++++++.",
".++++++++++++++++++++++++++++++++++++++++++++++++++++++++++++++++++++.",
".++++++++++++++++++++++++++++++++++++++++++++++++++++++++++++++++++++."};
