/* XPM */
static char * stick_toggled_pressed_xpm[] = {
"70 55 15 1",
" 	c None",
".	c #EDECEB",
"+	c #000000",
"@	c #030303",
"#	c #494949",
"$	c #ABABAB",
"%	c #EFEFEF",
"&	c #FFFFFF",
"*	c #272727",
"=	c #EDEDED",
"-	c #E4E4E4",
";	c #777777",
">	c #2E2E2E",
",	c #080808",
"'	c #090909",
"                                                                      ",
"                                                                      ",
"                                                                      ",
"                                                                      ",
"                                                                      ",
"                                                                      ",
"......................................................................",
".++++++++++++++++++++++++++++++++++++++++++++++++++++++++++++++++++++.",
".++++++++++++++++++++++++++++++++++++++++++++++++++++++++++++++++++++.",
".++++++++++++++++++++++++++++++++++++++++++++++++++++++++++++++++++++.",
".++++++++++++++++++++++++++++++++++++++++++++++++++++++++++++++++++++.",
".++++++++++++++++++++++++++++++++++++++++++++++++++++++++++++++++++++.",
".++++++++++++++++++++++++++++++++++++++++++++++++++++++++++++++++++++.",
".++++++++++++++++++++++++++++++++++++++++++++++++++++++++++++++++++++.",
".++++++++++++++++++++++++++++++++++++++++++++++++++++++++++++++++++++.",
".++++++++++++++++++++++++++++++++++++++++++++++++++++++++++++++++++++.",
".++++++++++++++++++++++++++++++++++++++++++++++++++++++++++++++++++++.",
".++++++++++++++++++++++++++++++++++++++++++++++++++++++++++++++++++++.",
".+++++++++++++++++++++++++@#$%&&&&&&&&&&&$#@+++++++++++++++++++++++++.",
".++++++++++++++++++++++++*=&&&&&&&&&&&&&&&&=*++++++++++++++++++++++++.",
".+++++++++++++++++++++++*&&&&&&&&&&&&&&&&&&&&*+++++++++++++++++++++++.",
".++++++++++++++++++++++@=&&&&&&&&&&&&&&&&&&&&=@++++++++++++++++++++++.",
".++++++++++++++++++++++#&&&&-;>,+++++++>;-&&&&#++++++++++++++++++++++.",
".++++++++++++++++++++++$&&&-'++++++++++++'-&&&$++++++++++++++++++++++.",
".++++++++++++++++++++++%&&&;+@#$%&&&&&$#@+;&&&%++++++++++++++++++++++.",
".++++++++++++++++++++++&&&&>+#&&&&&&&&&&#+>&&&&++++++++++++++++++++++.",
".++++++++++++++++++++++&&&&,+$&&&&&&&&&&$+,&&&&++++++++++++++++++++++.",
".++++++++++++++++++++++&&&&++%&&&&&&&&&&%++&&&&++++++++++++++++++++++.",
".++++++++++++++++++++++&&&&++&&&&&&&&&&&&++&&&&++++++++++++++++++++++.",
".++++++++++++++++++++++&&&&++&&&&&&&&&&&&++&&&&++++++++++++++++++++++.",
".++++++++++++++++++++++&&&&++&&&&&&&&&&&&++&&&&++++++++++++++++++++++.",
".++++++++++++++++++++++&&&&++&&&&&&&&&&&&++&&&&++++++++++++++++++++++.",
".++++++++++++++++++++++&&&&++%&&&&&&&&&&%++&&&&++++++++++++++++++++++.",
".++++++++++++++++++++++&&&&,+$&&&&&&&&&&$+,&&&&++++++++++++++++++++++.",
".++++++++++++++++++++++&&&&>+#&&&&&&&&&&#+>&&&&++++++++++++++++++++++.",
".++++++++++++++++++++++%&&&;+@#$%&&&&&$#@+;&&&%++++++++++++++++++++++.",
".++++++++++++++++++++++$&&&-'++++++++++++'-&&&$++++++++++++++++++++++.",
".++++++++++++++++++++++#&&&&-;>,+++++++>;-&&&&#++++++++++++++++++++++.",
".++++++++++++++++++++++@=&&&&&&&&&&&&&&&&&&&&=@++++++++++++++++++++++.",
".+++++++++++++++++++++++*&&&&&&&&&&&&&&&&&&&&*+++++++++++++++++++++++.",
".++++++++++++++++++++++++*=&&&&&&&&&&&&&&&&=*++++++++++++++++++++++++.",
".+++++++++++++++++++++++++@#$%&&&&&&&&&&&$#@+++++++++++++++++++++++++.",
".++++++++++++++++++++++++++++++++++++++++++++++++++++++++++++++++++++.",
".++++++++++++++++++++++++++++++++++++++++++++++++++++++++++++++++++++.",
".++++++++++++++++++++++++++++++++++++++++++++++++++++++++++++++++++++.",
".++++++++++++++++++++++++++++++++++++++++++++++++++++++++++++++++++++.",
".++++++++++++++++++++++++++++++++++++++++++++++++++++++++++++++++++++.",
".++++++++++++++++++++++++++++++++++++++++++++++++++++++++++++++++++++.",
".++++++++++++++++++++++++++++++++++++++++++++++++++++++++++++++++++++.",
".++++++++++++++++++++++++++++++++++++++++++++++++++++++++++++++++++++.",
".++++++++++++++++++++++++++++++++++++++++++++++++++++++++++++++++++++.",
".++++++++++++++++++++++++++++++++++++++++++++++++++++++++++++++++++++.",
".++++++++++++++++++++++++++++++++++++++++++++++++++++++++++++++++++++.",
".++++++++++++++++++++++++++++++++++++++++++++++++++++++++++++++++++++.",
".++++++++++++++++++++++++++++++++++++++++++++++++++++++++++++++++++++."};
