/* XPM */
static char * close_pressed_xpm[] = {
"70 55 10 1",
" 	c None",
".	c #EDECEB",
"+	c #FF0000",
"@	c #FF7D7D",
"#	c #FF5757",
"$	c #FF7E7E",
"%	c #FFFFFF",
"&	c #FFFCFC",
"*	c #FF7F7F",
"=	c #FFFDFD",
"                                                                      ",
"                                                                      ",
"                                                                      ",
"                                                                      ",
"                                                                      ",
"                                                                      ",
"......................................................................",
".++++++++++++++++++++++++++++++++++++++++++++++++++++++++++++++++++++.",
".++++++++++++++++++++++++++++++++++++++++++++++++++++++++++++++++++++.",
".++++++++++++++++++++++++++++++++++++++++++++++++++++++++++++++++++++.",
".++++++++++++++++++++++++++++++++++++++++++++++++++++++++++++++++++++.",
".++++++++++++++++++++++++++++++++++++++++++++++++++++++++++++++++++++.",
".++++++++++++++++++++++++++++++++++++++++++++++++++++++++++++++++++++.",
".++++++++++++++++++++++++++++++++++++++++++++++++++++++++++++++++++++.",
".++++++++++++++++++++++++++++++++++++++++++++++++++++++++++++++++++++.",
".++++++++++++++++++++++++++++++++++++++++++++++++++++++++++++++++++++.",
".++++++++++++++++++++++++++++++++++++++++++++++++++++++++++++++++++++.",
".+++++++++++++++++++++++@#++++++++++++++++++#$+++++++++++++++++++++++.",
".++++++++++++++++++++++%%&#++++++++++++++++#&%%++++++++++++++++++++++.",
".+++++++++++++++++++++$%%%&#++++++++++++++#&%%%*+++++++++++++++++++++.",
".+++++++++++++++++++++#&%%%&#++++++++++++#&%%%&#+++++++++++++++++++++.",
".++++++++++++++++++++++#&%%%&#++++++++++#&%%%&#++++++++++++++++++++++.",
".+++++++++++++++++++++++#&%%%&#++++++++#&%%%&#+++++++++++++++++++++++.",
".++++++++++++++++++++++++#&%%%&#++++++#&%%%&#++++++++++++++++++++++++.",
".+++++++++++++++++++++++++#&%%%&#++++#&%%%&#+++++++++++++++++++++++++.",
".++++++++++++++++++++++++++#&%%%&#++#&%%%&#++++++++++++++++++++++++++.",
".+++++++++++++++++++++++++++#&%%%&##&%%%&#+++++++++++++++++++++++++++.",
".++++++++++++++++++++++++++++#&%%%==%%%&#++++++++++++++++++++++++++++.",
".+++++++++++++++++++++++++++++#&%%%%%%&#+++++++++++++++++++++++++++++.",
".++++++++++++++++++++++++++++++#=%%%%=#++++++++++++++++++++++++++++++.",
".++++++++++++++++++++++++++++++#=%%%%=#++++++++++++++++++++++++++++++.",
".+++++++++++++++++++++++++++++#&%%%%%%&#+++++++++++++++++++++++++++++.",
".++++++++++++++++++++++++++++#&%%%==%%%&#++++++++++++++++++++++++++++.",
".+++++++++++++++++++++++++++#&%%%&##&%%%&#+++++++++++++++++++++++++++.",
".++++++++++++++++++++++++++#&%%%&#++#&%%%&#++++++++++++++++++++++++++.",
".+++++++++++++++++++++++++#&%%%&#++++#&%%%&#+++++++++++++++++++++++++.",
".++++++++++++++++++++++++#&%%%&#++++++#&%%%&#++++++++++++++++++++++++.",
".+++++++++++++++++++++++#&%%%&#++++++++#&%%%&#+++++++++++++++++++++++.",
".++++++++++++++++++++++#&%%%&#++++++++++#&%%%&#++++++++++++++++++++++.",
".+++++++++++++++++++++#&%%%&#++++++++++++#&%%%&#+++++++++++++++++++++.",
".+++++++++++++++++++++$%%%&#++++++++++++++#&%%%*+++++++++++++++++++++.",
".++++++++++++++++++++++%%&#++++++++++++++++#&%%++++++++++++++++++++++.",
".+++++++++++++++++++++++@#++++++++++++++++++#$+++++++++++++++++++++++.",
".++++++++++++++++++++++++++++++++++++++++++++++++++++++++++++++++++++.",
".++++++++++++++++++++++++++++++++++++++++++++++++++++++++++++++++++++.",
".++++++++++++++++++++++++++++++++++++++++++++++++++++++++++++++++++++.",
".++++++++++++++++++++++++++++++++++++++++++++++++++++++++++++++++++++.",
".++++++++++++++++++++++++++++++++++++++++++++++++++++++++++++++++++++.",
".++++++++++++++++++++++++++++++++++++++++++++++++++++++++++++++++++++.",
".++++++++++++++++++++++++++++++++++++++++++++++++++++++++++++++++++++.",
".++++++++++++++++++++++++++++++++++++++++++++++++++++++++++++++++++++.",
".++++++++++++++++++++++++++++++++++++++++++++++++++++++++++++++++++++.",
".++++++++++++++++++++++++++++++++++++++++++++++++++++++++++++++++++++.",
".++++++++++++++++++++++++++++++++++++++++++++++++++++++++++++++++++++.",
".++++++++++++++++++++++++++++++++++++++++++++++++++++++++++++++++++++."};
