/* XPM */
static char * bottom_inactive_xpm[] = {
"55 14 3 1",
" 	c None",
".	c #EDECEB",
"+	c #4285F4 s active_color_1",
".......................................................",
".......................................................",
".......................................................",
".......................................................",
".......................................................",
".......................................................",
"+++++++++++++++++++++++++++++++++++++++++++++++++++++++",
"+++++++++++++++++++++++++++++++++++++++++++++++++++++++",
"+++++++++++++++++++++++++++++++++++++++++++++++++++++++",
"+++++++++++++++++++++++++++++++++++++++++++++++++++++++",
"+++++++++++++++++++++++++++++++++++++++++++++++++++++++",
"+++++++++++++++++++++++++++++++++++++++++++++++++++++++",
"+++++++++++++++++++++++++++++++++++++++++++++++++++++++",
"+++++++++++++++++++++++++++++++++++++++++++++++++++++++"};
