/* XPM */
static char * close_prelight_xpm[] = {
"70 55 10 1",
" 	c None",
".	c #EDECEB",
"+	c #FF0000",
"@	c #797878",
"#	c #9C9B9B",
"$	c #787777",
"%	c #000000",
"&	c #030303",
"*	c #777676",
"=	c #020202",
"                                                                      ",
"                                                                      ",
"                                                                      ",
"                                                                      ",
"                                                                      ",
"                                                                      ",
"......................................................................",
".++++++++++++++++++++++++++++++++++++++++++++++++++++++++++++++++++++.",
".++++++++++++++++++++++++++++++++++++++++++++++++++++++++++++++++++++.",
".++++++++++++++++++++++++++++++++++++++++++++++++++++++++++++++++++++.",
".++++++++++++++++++++++++++++++++++++++++++++++++++++++++++++++++++++.",
".++++++++++++++++++++++++++++++++++++++++++++++++++++++++++++++++++++.",
".++++++++++++++++++++++++++++++++++++++++++++++++++++++++++++++++++++.",
".++++++++++++++++++++++++++++++++++++++++++++++++++++++++++++++++++++.",
".++++++++++++++++++++++++++++++++++++++++++++++++++++++++++++++++++++.",
"......................................................................",
"......................................................................",
"........................@#..................#$........................",
".......................%%&#................#&%%.......................",
"......................$%%%&#..............#&%%%*......................",
"......................#&%%%&#............#&%%%&#......................",
".......................#&%%%&#..........#&%%%&#.......................",
"........................#&%%%&#........#&%%%&#........................",
".........................#&%%%&#......#&%%%&#.........................",
"..........................#&%%%&#....#&%%%&#..........................",
"...........................#&%%%&#..#&%%%&#...........................",
"............................#&%%%&##&%%%&#............................",
".............................#&%%%==%%%&#.............................",
"..............................#&%%%%%%&#..............................",
"...............................#=%%%%=#...............................",
"...............................#=%%%%=#...............................",
"..............................#&%%%%%%&#..............................",
".............................#&%%%==%%%&#.............................",
"............................#&%%%&##&%%%&#............................",
"...........................#&%%%&#..#&%%%&#...........................",
"..........................#&%%%&#....#&%%%&#..........................",
".........................#&%%%&#......#&%%%&#.........................",
"........................#&%%%&#........#&%%%&#........................",
".......................#&%%%&#..........#&%%%&#.......................",
"......................#&%%%&#............#&%%%&#......................",
"......................$%%%&#..............#&%%%*......................",
".......................%%&#................#&%%.......................",
"........................@#..................#$........................",
"......................................................................",
"......................................................................",
"......................................................................",
"......................................................................",
"......................................................................",
"......................................................................",
"......................................................................",
"......................................................................",
"......................................................................",
"......................................................................",
"......................................................................",
"......................................................................"};
