/* XPM */
static char * bottom_right_active_xpm[] = {
"48 48 2 1",
" 	c None",
".	c #4285F4 s active_color_1",
"                                  ..............",
"                                  ..............",
"                                  ..............",
"                                  ..............",
"                                  ..............",
"                                  ..............",
"                                  ..............",
"                                  ..............",
"                                  ..............",
"                                  ..............",
"                                  ..............",
"                                  ..............",
"                                  ..............",
"                                  ..............",
"                                  ..............",
"                                  ..............",
"                                  ..............",
"                                  ..............",
"                                  ..............",
"                                  ..............",
"                                  ..............",
"                                  ..............",
"                                  ..............",
"                                  ..............",
"                                  ..............",
"                                  ..............",
"                                  ..............",
"                                  ..............",
"                                  ..............",
"                                  ..............",
"                                  ..............",
"                                  ..............",
"                                  ..............",
"                                  ..............",
"................................................",
"................................................",
"................................................",
"................................................",
"................................................",
"................................................",
"................................................",
"................................................",
"................................................",
"................................................",
"................................................",
"................................................",
"................................................",
"................................................"};
