/* XPM */
static char * close_active_xpm[] = {
"70 55 8 1",
" 	c None",
".	c #4285F4 s active_color_1",
"+	c #9FC1F9",
"@	c #82AFF8",
"#	c #FFFFFF",
"$	c #FDFEFF",
"%	c #A0C2F9",
"&	c #FEFEFF",
"                                                                      ",
"                                                                      ",
"                                                                      ",
"                                                                      ",
"                                                                      ",
"                                                                      ",
"......................................................................",
"......................................................................",
"......................................................................",
"......................................................................",
"......................................................................",
"......................................................................",
"......................................................................",
"......................................................................",
"......................................................................",
"......................................................................",
"......................................................................",
"........................+@..................@+........................",
".......................##$@................@$##.......................",
"......................+###$@..............@$###%......................",
"......................@$###$@............@$###$@......................",
".......................@$###$@..........@$###$@.......................",
"........................@$###$@........@$###$@........................",
".........................@$###$@......@$###$@.........................",
"..........................@$###$@....@$###$@..........................",
"...........................@$###$@..@$###$@...........................",
"............................@$###$@@$###$@............................",
".............................@$###&&###$@.............................",
"..............................@$######$@..............................",
"...............................@&####&@...............................",
"...............................@&####&@...............................",
"..............................@$######$@..............................",
".............................@$###&&###$@.............................",
"............................@$###$@@$###$@............................",
"...........................@$###$@..@$###$@...........................",
"..........................@$###$@....@$###$@..........................",
".........................@$###$@......@$###$@.........................",
"........................@$###$@........@$###$@........................",
".......................@$###$@..........@$###$@.......................",
"......................@$###$@............@$###$@......................",
"......................+###$@..............@$###%......................",
".......................##$@................@$##.......................",
"........................+@..................@+........................",
"......................................................................",
"......................................................................",
"......................................................................",
"......................................................................",
"......................................................................",
"......................................................................",
"......................................................................",
"......................................................................",
"......................................................................",
"......................................................................",
"......................................................................",
"......................................................................"};
