/* XPM */
static char * shade_prelight_xpm[] = {
"70 55 8 1",
" 	c None",
".	c #EDECEB",
"+	c #000000",
"@	c #9B9895",
"#	c #010100",
"$	c #020100",
"%	c #787878",
"&	c #777676",
"                                                                      ",
"                                                                      ",
"                                                                      ",
"                                                                      ",
"                                                                      ",
"                                                                      ",
"......................................................................",
".++++++++++++++++++++++++++++++++++++++++++++++++++++++++++++++++++++.",
".++++++++++++++++++++++++++++++++++++++++++++++++++++++++++++++++++++.",
".++++++++++++++++++++++++++++++++++++++++++++++++++++++++++++++++++++.",
".++++++++++++++++++++++++++++++++++++++++++++++++++++++++++++++++++++.",
".++++++++++++++++++++++++++++++++++++++++++++++++++++++++++++++++++++.",
".++++++++++++++++++++++++++++++++++++++++++++++++++++++++++++++++++++.",
".++++++++++++++++++++++++++++++++++++++++++++++++++++++++++++++++++++.",
".++++++++++++++++++++++++++++++++++++++++++++++++++++++++++++++++++++.",
"......................................................................",
"......................................................................",
"......................................................................",
".......................++++++++++++++++++++++++.......................",
".......................++++++++++++++++++++++++.......................",
".......................++++++++++++++++++++++++.......................",
".......................++++++++++++++++++++++++.......................",
"......................................................................",
"......................................................................",
"......................................................................",
"..................................@@..................................",
".................................@++@.................................",
"................................@++++@................................",
"...............................@#++++#@...............................",
"..............................@$++++++$@..............................",
".............................@$+++##+++$@.............................",
"............................@$+++$@@$+++$@............................",
"...........................@$+++$@..@$+++$@...........................",
"..........................@$+++$@....@$+++$@..........................",
".........................@$+++$@......@$+++$@.........................",
"........................@$+++$@........@$+++$@........................",
".......................@$+++$@..........@$+++$@.......................",
"......................@$+++$@............@$+++$@......................",
"......................%+++$@..............@$+++&......................",
".......................++$@................@$++.......................",
"........................%@..................@%........................",
"......................................................................",
"......................................................................",
"......................................................................",
"......................................................................",
"......................................................................",
"......................................................................",
"......................................................................",
"......................................................................",
"......................................................................",
"......................................................................",
"......................................................................",
"......................................................................",
"......................................................................",
"......................................................................"};
