/* XPM */
static char * close_pressed_xpm[] = {
"52 48 119 2",
"  	c None",
". 	c #393E5F",
"+ 	c #EFEEED",
"@ 	c #E5E4E3",
"# 	c #CACAC9",
"$ 	c #A5A4A4",
"% 	c #5C5B5B",
"& 	c #111111",
"* 	c #000000",
"= 	c #E2E1E0",
"- 	c #737372",
"; 	c #080808",
"> 	c #D3D1CF",
", 	c #D4D2D0",
"' 	c #D4D3D1",
") 	c #D5D3D1",
"! 	c #D6D4D2",
"~ 	c #D6D4D3",
"{ 	c #D7D5D3",
"] 	c #D7D6D4",
"^ 	c #D8D6D4",
"/ 	c #D8D6D5",
"( 	c #D8D7D5",
"_ 	c #D9D7D5",
": 	c #D9D8D6",
"< 	c #DAD8D6",
"[ 	c #DAD8D7",
"} 	c #DAD9D7",
"| 	c #DBD9D7",
"1 	c #DBDAD8",
"2 	c #DCDAD9",
"3 	c #DCDBD9",
"4 	c #DDDBD9",
"5 	c #DDDBDA",
"6 	c #DDDCDA",
"7 	c #DEDCDB",
"8 	c #DEDDDB",
"9 	c #DFDDDC",
"0 	c #DFDEDC",
"a 	c #DFDEDD",
"b 	c #E0DFDD",
"c 	c #E1DFDE",
"d 	c #E1E0DE",
"e 	c #E1E0DF",
"f 	c #E2E1DF",
"g 	c #B8B8B7",
"h 	c #1C1B1B",
"i 	c #E3E2E0",
"j 	c #CCCBCA",
"k 	c #1A1A1A",
"l 	c #E3E2E1",
"m 	c #B8B7B6",
"n 	c #E4E3E1",
"o 	c #E4E3E2",
"p 	c #E5E4E2",
"q 	c #D6D5D3",
"r 	c #5B5B5A",
"s 	c #A3A2A2",
"t 	c #E6E5E3",
"u 	c #E6E5E4",
"v 	c #E6E6E4",
"w 	c #D5D4D3",
"x 	c #CAC9C9",
"y 	c #D7D5D4",
"z 	c #DAD9D9",
"A 	c #CECDCC",
"B 	c #DBDAD9",
"C 	c #E7E6E5",
"D 	c #CBCAC9",
"E 	c #B3B3B3",
"F 	c #CECDCD",
"G 	c #B4B4B3",
"H 	c #B4B4B4",
"I 	c #D0CFCE",
"J 	c #CAC9C8",
"K 	c #CCCBCB",
"L 	c #E8E7E5",
"M 	c #CBC9C9",
"N 	c #CFCECE",
"O 	c #E8E7E6",
"P 	c #CFCFCE",
"Q 	c #E8E8E6",
"R 	c #CBCBC9",
"S 	c #DEDDDC",
"T 	c #E9E8E7",
"U 	c #D0D0CF",
"V 	c #CDCDCC",
"W 	c #E9E9E7",
"X 	c #CBCACA",
"Y 	c #EAE9E8",
"Z 	c #CBCBCA",
"` 	c #EAEAE9",
" .	c #CCCCCB",
"..	c #EBEAE9",
"+.	c #EBEBE9",
"@.	c #ECEBEA",
"#.	c #CECECD",
"$.	c #CFCECD",
"%.	c #ECECEB",
"&.	c #EDECEB",
"*.	c #D2D2D1",
"=.	c #EDEDEB",
"-.	c #EDEDEC",
";.	c #EEEDEC",
">.	c #D2D2D2",
",.	c #EEEEED",
"'.	c #D4D4D3",
").	c #EFEFED",
"!.	c #EFEFEE",
"~.	c #EAEAE8",
"{.	c #F0EFEE",
"].	c #F0F0EF",
"^.	c #F1F0EF",
"/.	c #F1F1F0",
"(.	c #F2F2F1",
"_.	c #F1F1EF",
":.	c #F3F2F1",
"<.	c #F3F3F2",
"[.	c #F4F4F3",
". . + + + + + + + + + + + + + + + + + + + + + + + + + + + + + + + + + + + + + @ # $ % & * * *           ",
". . + + + + + + + + + + + + + + + + + + + + + + + + + + + + + + + + + + + + + + + + + = - ; * *         ",
". . + + > , , ' ) ) ! ! ~ { { ] ^ / ( _ : < [ } | 1 1 2 3 4 5 6 7 8 8 9 0 a b b c d e f f g h * *       ",
". . + + , , ' ) ) ! ! ~ { { ] ^ / ( _ : < [ } | 1 1 2 3 4 5 6 7 8 8 9 0 a b b c d e f f = i j k * *     ",
". . + + , ' ) ) ! ! ~ { { ] ^ / ( _ : < [ } | 1 1 2 3 4 5 6 7 8 8 9 0 a b b c d e f f = i l l m ; *     ",
". . + + ' ) ) ! ! ~ { { ] ^ / ( _ : < [ } | 1 1 2 3 4 5 6 7 8 8 9 0 a b b c d e f f = i l l n o - * *   ",
". . + + ) ) ! ! ~ { { ] ^ / ( _ : < [ } | 1 1 2 3 4 5 6 7 8 8 9 0 a b b c d e f f = i l l n o p = & *   ",
". . + + ) ! ! q { { ] ^ / ( _ : < [ } | 1 1 2 3 4 5 6 7 8 8 9 0 a b b c d e f f = i l l n o p @ + r * * ",
". . + + ! ! q { { ] ^ / ( _ : < [ } | 1 1 2 3 4 5 6 7 8 8 9 0 a b b c d e f f = i l l n o p @ @ + s * * ",
". . + + ! q { { ] ^ / ( _ : < [ } | 1 1 2 3 4 5 6 7 8 8 9 0 a b b c d e f f = i l l n o p @ @ t + # * * ",
". . + + q { { ] ^ / _ _ : < [ } | 1 1 2 3 4 5 6 7 8 8 9 0 a b b c d e f f = i l l n o p @ @ t u + o * * ",
". . + + { { ] ^ / _ _ : < [ } | 1 1 2 3 4 5 6 7 8 8 9 0 a b b c d e f f = i l l n o p @ @ t u v + + * * ",
". . + + { ] ^ / _ _ : < [ } | 1 w x # y 5 6 7 8 8 9 0 a b b c d z A A B i l l n o p @ @ t u v C + + * * ",
". . + + ] ^ / _ _ : < [ } | 1 D E E E E D 7 8 8 9 0 a b b c d F G E E H I l n o p @ @ t u v C C + + * * ",
". . + + ^ / _ _ : < [ } | 1 w E E E E E E J 8 9 0 a b b c d K E E E E E H 6 o p @ @ t u v C C L + + * * ",
". . + + / _ _ : < [ } | 1 1 x E E E E E E E M 0 a b b c d K E E E E E E E N p @ @ t u v C C L O + + * * ",
". . + + _ _ : < [ } | 1 1 2 # E E E E E E E E D b b c d K E E E E E E E E P @ @ t u v C C L O Q + + * * ",
". . + + _ : < [ } | 1 1 2 3 y E E E E E E E E E R c d K E E E E E E E E H S @ t u v C C L O Q T + + * * ",
". . + + : < [ } | 1 1 2 3 4 6 D E E E E E E E E E j K E E E E E E E E E U @ t u v C C L O Q T T + + * * ",
". . + + < [ } | 1 1 2 3 4 6 6 7 D E E E E E E E E E E E E E E E E E E V @ t u v C C L O Q T T W + + * * ",
". . + + [ } | 1 1 2 3 4 6 6 7 8 8 X E E E E E E E E E E E E E E E E V @ t u v C C L O Q T T W Y + + * * ",
". . + + } | 1 1 2 3 4 6 6 7 8 8 9 0 Z E E E E E E E E E E E E E E V @ t u v C C L O Q T T W Y Y + + * * ",
". . + + | 1 1 2 3 4 6 6 7 8 8 9 0 a b j E E E E E E E E E E E E V @ t u v C C L O Q T T W Y Y ` + + * * ",
". . + + 1 1 2 3 4 6 6 7 8 8 9 0 a b b c  .E E E E E E E E E E V @ t u v C C L O Q T T W Y Y ` ..+ + * * ",
". . + + 1 2 3 4 6 6 7 8 8 9 0 a b b c d  .E E E E E E E E E E V t u v C C L O Q T T W Y Y ` ..+.+ + * * ",
". . + + 2 3 4 6 6 7 8 8 9 0 a b b c d  .E E E E E E E E E E E E F v C C L O Q T T W Y Y ` ..+.@.+ + * * ",
". . + + 3 4 6 6 7 8 8 9 0 a b b c d  .E E E E E E E E E E E E E E #.C L O Q T T W Y Y ` ..+.@.@.+ + * * ",
". . + + 4 6 6 7 8 8 9 0 a b b c d  .E E E E E E E E E E E E E E E E $.O Q T T W Y Y ` ..+.@.@.%.+ + * * ",
". . + + 6 6 7 8 8 9 0 a b b c d  .E E E E E E E E E E E E E E E E E E P T T W Y Y ` ..+.@.@.%.&.+ + * * ",
". . + + 6 7 8 8 9 0 a b b c d V E E E E E E E E E F F E E E E E E E E E *.W Y Y ` ..+.@.@.%.&.=.+ + * * ",
". . + + 7 8 8 9 0 a b b c d z G E E E E E E E E F @ t #.E E E E E E E E H = Y ` ..+.@.@.%.&.=.-.+ + * * ",
". . + + 8 8 9 0 a b b c d e A E E E E E E E E F @ t u v N E E E E E E E E *.` ..+.@.@.%.&.=.-.;.+ + * * ",
". . + + 8 9 0 a b b c d e f A E E E E E E E F @ t u v C C P E E E E E E E >...+.@.@.%.&.=.-.;.,.+ + * * ",
". . + + 9 0 a b b c d e f f B H E E E E E F @ t u v C C L O P E E E E E H l +.@.@.%.&.=.-.;.,.,.+ + * * ",
". . + + 0 a b b c d e f f = i I H E E H P @ t u v C C L O Q T *.H E E H '.+.@.@.%.&.=.-.;.,.,.).+ + * * ",
". . + + a b b c d e f f = i l n 6 N P S @ t u v C C L O Q T T W = *.>.l +.@.@.%.&.=.-.;.,.,.).!.+ + * * ",
". . + + b b c d e f f = i l n n o p @ @ t u v C C L O Q T T W Y ~.` ..+.@.@.%.&.=.-.;.,.,.).!.{.+ + * * ",
". . + + b c d e f f = i l n n o p @ @ t u v C C L O Q T T W Y ~.` ..+.@.@.%.&.=.-.;.,.,.).!.{.].+ + * * ",
". . + + c d e f f = i l n n o p @ @ t u v C C L O Q T T W Y ~.` ..+.@.@.%.&.=.-.;.,.,.).!.{.].].+ + * * ",
". . + + d e f f = i l n n o p @ @ t u v C C L O Q T T W Y ~.` ..+.@.@.%.&.=.-.;.,.,.).!.{.].].^.+ + * * ",
". . + + e f f = i l n n o p @ @ t u v C C L O Q T T W Y ~.` ..+.@.@.%.&.=.-.;.,.,.).!.{.].].^./.+ + * * ",
". . + + f f = i l n n o p @ @ t u v C C L O Q T T W Y ~.` ..+.@.@.%.&.=.-.;.,.+ ).!.{.].].^././.+ + * * ",
". . + + f = i l n n o p @ @ t u v C C L O Q T T W Y ~.` ..+.@.@.%.&.=.-.;.,.+ ).!.{.].].^././.(.+ + * * ",
". . + + = i l n n o p @ @ t u v C C L O Q T T W Y ~.` ..+.@.@.%.&.=.-.;.,.+ ).!.{.].].^././.(.(.+ + * * ",
". . + + i l n n o p @ @ t u v C C L O Q T T W Y ~.` ..+.@.@.%.&.=.-.;.,.+ ).!.{.].]._././.(.(.:.+ + * * ",
". . + + l n n o p @ @ t u v C C L O Q T T W Y ~.` ..+.@.@.%.&.=.-.;.,.+ ).!.{.].]._././.(.(.:.<.+ + * * ",
". . + + n n o p @ @ t u v C C L O Q T T W Y ~.` ..+.@.@.%.&.=.-.;.,.+ ).!.{.].]._././.(.(.:.<.<.+ + * * ",
". . + + n o p @ @ t u v C C L O Q T T W Y ~.` ..+.@.@.%.&.=.-.;.,.+ ).!.{.].]._././.(.(.:.<.<.[.+ + * * "};
