/* XPM */
static char * maximize_toggled_pressed_xpm[] = {
"52 48 115 2",
"  	c None",
". 	c #393E5F",
"+ 	c #EFEEED",
"@ 	c #D3D1CF",
"# 	c #D4D2D0",
"$ 	c #D4D3D1",
"% 	c #D5D3D1",
"& 	c #D6D4D2",
"* 	c #D6D4D3",
"= 	c #D7D5D3",
"- 	c #D7D6D4",
"; 	c #D8D6D4",
"> 	c #D8D6D5",
", 	c #D8D7D5",
"' 	c #D9D7D5",
") 	c #D9D8D6",
"! 	c #DAD8D6",
"~ 	c #DAD8D7",
"{ 	c #DAD9D7",
"] 	c #DBD9D7",
"^ 	c #DBDAD8",
"/ 	c #DCDAD9",
"( 	c #DCDBD9",
"_ 	c #DDDBD9",
": 	c #DDDBDA",
"< 	c #DDDCDA",
"[ 	c #DEDCDB",
"} 	c #DEDDDB",
"| 	c #DFDDDC",
"1 	c #DFDEDC",
"2 	c #DFDEDD",
"3 	c #E0DFDD",
"4 	c #E1DFDE",
"5 	c #E1E0DE",
"6 	c #E1E0DF",
"7 	c #E2E1DF",
"8 	c #E2E1E0",
"9 	c #E3E2E0",
"0 	c #E3E2E1",
"a 	c #E4E3E1",
"b 	c #E2E0DF",
"c 	c #E4E3E2",
"d 	c #DBD9D8",
"e 	c #E0DFDE",
"f 	c #E5E4E2",
"g 	c #D4D2D1",
"h 	c #D5D4D2",
"i 	c #E4E4E2",
"j 	c #E5E4E3",
"k 	c #DCDAD8",
"l 	c #DEDCDA",
"m 	c #E0DEDD",
"n 	c #E6E5E3",
"o 	c #D9D7D6",
"p 	c #E6E5E4",
"q 	c #E7E6E4",
"r 	c #E7E6E5",
"s 	c #D7D5D4",
"t 	c #D7D5D5",
"u 	c #C1C0C0",
"v 	c #B5B5B5",
"w 	c #B3B3B3",
"x 	c #B6B5B5",
"y 	c #C2C2C1",
"z 	c #DBDAD9",
"A 	c #E7E7E5",
"B 	c #B6B6B6",
"C 	c #DBDADA",
"D 	c #E5E5E3",
"E 	c #E8E7E6",
"F 	c #E8E8E6",
"G 	c #DEDDDC",
"H 	c #E9E8E7",
"I 	c #E8E7E5",
"J 	c #E9E9E7",
"K 	c #EAE9E8",
"L 	c #DADAD9",
"M 	c #E6E6E4",
"N 	c #EAEAE8",
"O 	c #EAEAE9",
"P 	c #EBEAE9",
"Q 	c #EBEBE9",
"R 	c #E0E0DE",
"S 	c #B6B6B5",
"T 	c #ECEBEA",
"U 	c #C2C2C2",
"V 	c #C5C5C4",
"W 	c #B7B7B7",
"X 	c #ECECEB",
"Y 	c #EDECEB",
"Z 	c #EBEBEA",
"` 	c #EDEDEB",
" .	c #EDEDEC",
"..	c #ECECEA",
"+.	c #EEEDEC",
"@.	c #E9E8E6",
"#.	c #EEEEEC",
"$.	c #DDDCDB",
"%.	c #EEEEED",
"&.	c #C1C1C0",
"*.	c #EFEFEE",
"=.	c #F0F0EE",
"-.	c #F0F0EF",
";.	c #F0EFEE",
">.	c #F1F1F0",
",.	c #E3E1E0",
"'.	c #E9E9E8",
").	c #F2F1F0",
"!.	c #EFEFED",
"~.	c #F1F1EF",
"{.	c #F2F2F1",
"].	c #F3F3F1",
"^.	c #F3F2F1",
"/.	c #F3F3F2",
"(.	c #F4F4F3",
". . + + + + + + + + + + + + + + + + + + + + + + + + + + + + + + + + + + + + + + + + + + + + + + + + . . ",
". . + + + + + + + + + + + + + + + + + + + + + + + + + + + + + + + + + + + + + + + + + + + + + + + + . . ",
". . + + @ # # $ % % & & * = = - ; > , ' ) ! ~ { ] ^ ^ / ( _ : < [ } } | 1 2 3 3 4 5 6 7 7 8 9 0 0 a . . ",
". . + + # # $ % % & & * = = - ; > , ' ) ! ~ { ] ^ ^ / ( ( : < [ } } | 1 2 3 3 4 5 6 b 7 8 9 0 0 a c . . ",
". . + + # $ % % & & * = = - ; > , ' ) ! ~ { ] d ^ / ( ( : < [ } } | 1 2 3 3 e 5 6 b 7 8 9 0 0 a c f . . ",
". . + + g % % & & * = = - ; > , ' ) ! ~ { ] d ^ / ( ( : < [ } } | 1 2 3 3 e 5 6 b 7 8 9 0 0 a c f f . . ",
". . + + % % h & * = = - ; > , ' ) ! ~ { ] d ^ / ( ( : < [ } } | 1 1 3 3 e 5 5 b 7 8 9 9 0 a c i f j . . ",
". . + + % h & * = = - ; > , ' ) ! ! { ] d ^ k ( ( : < l } } | 1 1 m 3 e 5 5 b 7 8 9 9 0 a c i f j n . . ",
". . + + h & & = = - ; ; , ' o ) ! { ] d ^ k ( ( : < l } } | 1 1 m 3 e 5 5 b 7 8 9 9 0 a c i f j n p . . ",
". . + + & & = = - ; ; , ' o ) ! { ] d ^ k ( ( : < l } } | 1 1 m 3 e 5 5 b 7 8 9 9 0 a c i f j n p p . . ",
". . + + & = = - ; ; , ' o ) ! { ] d ^ k ( ( : < < } } | 1 1 m 3 e 5 5 b 7 8 9 9 0 a c c f j n p p q . . ",
". . + + = = - ; ; , ' o ) ! { ] d ^ k ( ( : < < [ } | 1 1 m 3 e 5 5 6 7 8 9 9 0 a c c f j n p p q r . . ",
". . + + = s ; ; , ' o ) ! { ] d ^ k ( ( : < < t u v w w w w w w w w x y z 9 0 a c c f j n p p q r A . . ",
". . + + s ; ; , ' o ) ! { ] d ^ k ( ( : < < t B w w w w w w w w w w w w B C a c c f j D p p q r A E . . ",
". . + + ; ; , ' o ) ! { ] d ^ k ( ( : < < [ u w w w w w w w w w w w w w w y c c f j D p p q r A E E . . ",
". . + + ; , ' o ) ! { { d ^ k / ( : < < [ } v w w w w w w w w w w w w w w x c f j D p p q r A E E F . . ",
". . + + , ' o ) ! { { d ^ k / ( : < < [ } G w w w w w w w w w w w w w w w w f j D p p q r A E E F H . . ",
". . + + ' o ) ! { { d ^ k / ( : < < [ } G 1 w w w w w w w w w w w w w w w w j D p p q r r E E F H H . . ",
". . + + o ) ! { { d ^ k / ( : < < [ } G 1 1 m 3 e 4 5 6 7 8 8 9 0 a a c w w D n p q r r I E F H H J . . ",
". . + + ) ! ~ { d ^ k / ( : < < [ } } 1 1 m 3 3 4 5 6 7 7 8 9 0 a a c f w w n p q r r I E F H H J K . . ",
". . + + ! ~ { ] ^ k / ( _ < < t u v w w w w w w w w x y L 9 0 a a c f j w w p M r r I E F H H J K N . . ",
". . + + ~ { ] ^ k / ( _ < < t B w w w w w w w w w w w w B C a a c f j j w w M r r I E F H H J K N O . . ",
". . + + { ] ^ ^ / ( _ < < [ u w w w w w w w w w w w w w w y a c f j j n w w r r I E F H H J K N O P . . ",
". . + + ] ^ ^ / ( _ < < [ } v w w w w w w w w w w w w w w x c f j j n p w w r I E F H H J K N O P Q . . ",
". . + + ^ ^ / ( _ < < [ } } w w w w w w w w w w w w w w w w f j j n p R w S I E F H H J K K O P Q T . . ",
". . + + ^ / ( _ < < [ } } | w w w w w w w w w w w w w w w w j j n p R U w V E F H H J K K O P Q T T . . ",
". . + + / ( _ : < [ } } | 1 w w 3 4 5 6 7 7 8 9 0 0 a c w w j n w w w w W 0 F H H J K K O P Q T T X . . ",
". . + + ( _ : < [ } } | 1 2 w w 4 5 6 7 7 8 9 0 0 a c f w w n p w w B V 0 F H H J K K O P Q T T X Y . . ",
". . + + _ : < [ } } | 1 2 3 w w 5 6 7 7 8 9 0 0 a c f j w w p M r r A E E H H J K K O P Q Z T X Y ` . . ",
". . + + : < [ } } | 1 2 3 3 w w 6 b 7 8 9 0 0 a c f j j w w M r r A E E H H J K K O P Q Z T X Y `  .. . ",
". . + + < [ } } | 1 2 3 3 e w w b 7 8 9 0 0 a c f j j n w w r r A E E H H J K K N P Q Z T ..Y `  .+.. . ",
". . + + [ } } | 1 2 3 3 e 5 w w 7 8 9 0 0 a c f f j n p w w r A E E @.H J K K N P Q Z T ..Y Y  .+.#.. . ",
". . + + } } | 1 1 3 3 e 5 5 x w $.9 9 0 a c i f j n p e w S A E E @.H J K K N P Q Z T ..Y Y  .+.#.%.. . ",
". . + + } | 1 1 m 3 e 5 5 b y w &.} 0 a c i f j n p e y w V E E F H J K K N P Q Z T ..Y Y  .+.#.%.+ . . ",
". . + + | 1 1 m 3 e 5 5 b 7 L B w w w w w w w w w w w w W 0 E F H J K K N P Q Z T ..Y Y  .+.#.%.+ *.. . ",
". . + + 1 1 m 3 e 5 5 b 7 8 9 z y x w w w w w w w w B V 0 E F H J K K N P P Z T ..X Y  .+.#.%.+ *.*.. . ",
". . + + 1 m 3 e 5 5 b 7 8 9 9 0 a c c f j n p p q r A E E F H J K K N P P Z T ..X Y  .+.#.%.+ *.*.=.. . ",
". . + + m 3 e 5 5 6 7 8 9 9 0 a c c f j n p p q r A E E F H J K K N P P Z T ..X Y  .+.#.%.+ *.*.=.-.. . ",
". . + + 3 e 5 5 6 7 8 9 9 0 a c c f j n p p q r A E E F H J K K N P P Z T ..X Y  .+.#.%.+ *.*.;.-.-.. . ",
". . + + e 5 5 6 7 8 9 9 0 a c c f j D p p q r A E E F H H K K N P P Z T ..X Y  .+.#.%.+ *.*.;.-.-.>.. . ",
". . + + 5 5 6 7 8 ,.9 0 a c c f j D p p q r A E E F H H '.K N P P Z T ..X Y  .+.#.%.+ *.*.;.-.-.>.>.. . ",
". . + + 5 6 7 8 ,.9 0 a c c f j D p p q r A E E F H H '.K N P P Z T ..X Y  .+.#.%.+ *.*.;.-.-.>.>.).. . ",
". . + + 6 7 8 ,.9 0 a c c f j D p p q r A E E F H H '.K N P P Z T ..X Y  . .+.%.+ !.*.;.-.-.~.>.).{.. . ",
". . + + 7 8 ,.9 0 a c c f j D p p q r r E E F H H J K N P P Q T ..X Y `  .+.%.+ !.*.;.-.-.~.>.).{.{.. . ",
". . + + 8 8 9 0 a a c f j D n p q r r I E F H H J K N P P Q T ..X Y `  .+.%.+ !.*.;.-.-.~.>.>.{.{.].. . ",
". . + + 8 9 0 a a c f j D n p q r r I E F H H J K N P P Q T ..X Y `  .+.%.+ !.*.;.-.-.~.>.>.{.{.^./.. . ",
". . + + 9 0 a a c f j D n p M r r I E F H H J K N P P Q T T X Y `  .+.%.+ !.*.;.-.-.~.>.>.{.{.^././.. . ",
". . + + 0 a a c f j j n p M r r I E F H H J K N O P Q T T X Y `  .+.%.+ !.*.;.-.-.~.>.>.{.{.^././.(.. . "};
