/* XPM */
static char * shade_active_xpm[] = {
"52 48 146 2",
"  	c None",
". 	c #393E5F",
"+ 	c #EFEEED",
"@ 	c #D3D1CF",
"# 	c #D4D2D0",
"$ 	c #D4D3D1",
"% 	c #D5D3D1",
"& 	c #D6D4D2",
"* 	c #D6D4D3",
"= 	c #D7D5D3",
"- 	c #D7D6D4",
"; 	c #D8D6D4",
"> 	c #D8D6D5",
", 	c #D8D7D5",
"' 	c #D9D7D5",
") 	c #D9D8D6",
"! 	c #DAD8D6",
"~ 	c #DAD8D7",
"{ 	c #DAD9D7",
"] 	c #DBD9D7",
"^ 	c #DBDAD8",
"/ 	c #DCDAD9",
"( 	c #DCDBD9",
"_ 	c #DDDBD9",
": 	c #DDDBDA",
"< 	c #DDDCDA",
"[ 	c #DEDCDB",
"} 	c #DEDDDB",
"| 	c #DFDDDC",
"1 	c #DFDEDC",
"2 	c #DFDEDD",
"3 	c #E0DFDD",
"4 	c #E1DFDE",
"5 	c #E1E0DE",
"6 	c #E1E0DF",
"7 	c #E2E1DF",
"8 	c #E2E1E0",
"9 	c #E3E2E0",
"0 	c #E3E2E1",
"a 	c #E4E3E1",
"b 	c #E2E0DF",
"c 	c #E4E3E2",
"d 	c #DBD9D8",
"e 	c #E0DFDE",
"f 	c #E5E4E2",
"g 	c #D4D2D1",
"h 	c #D5D4D2",
"i 	c #E4E4E2",
"j 	c #E5E4E3",
"k 	c #DCDAD8",
"l 	c #DEDCDA",
"m 	c #E0DEDD",
"n 	c #E6E5E3",
"o 	c #D9D7D6",
"p 	c #E6E5E4",
"q 	c #E7E6E4",
"r 	c #E7E6E5",
"s 	c #D7D5D4",
"t 	c #9494A3",
"u 	c #9495A3",
"v 	c #E7E7E5",
"w 	c #87899A",
"x 	c #838697",
"y 	c #E5E5E3",
"z 	c #E8E7E6",
"A 	c #6E7287",
"B 	c #6C7086",
"C 	c #E3E1E0",
"D 	c #838798",
"E 	c #E8E8E6",
"F 	c #9496A4",
"G 	c #9193A1",
"H 	c #E9E8E7",
"I 	c #9193A2",
"J 	c #9194A2",
"K 	c #E8E7E5",
"L 	c #E9E9E7",
"M 	c #9394A2",
"N 	c #9698A6",
"O 	c #EAE9E8",
"P 	c #9496A3",
"Q 	c #9295A3",
"R 	c #E6E6E4",
"S 	c #EAEAE8",
"T 	c #9798A7",
"U 	c #EAEAE9",
"V 	c #9597A5",
"W 	c #9C9DAC",
"X 	c #EBEAE9",
"Y 	c #C6C6C9",
"Z 	c #3B4061",
"` 	c #3C4162",
" .	c #CDCED2",
"..	c #EBEBE9",
"+.	c #9697A5",
"@.	c #9B9CAA",
"#.	c #ECEBEA",
"$.	c #676A82",
"%.	c #686B83",
"&.	c #9B9DAA",
"*.	c #C7C7CB",
"=.	c #3C4061",
"-.	c #8E8FA0",
";.	c #8F91A1",
">.	c #CECED3",
",.	c #ECECEB",
"'.	c #9B9DA9",
").	c #3C4161",
"!.	c #999AA7",
"~.	c #8E90A0",
"{.	c #9FA2AE",
"].	c #EDECEB",
"^.	c #C8C8CC",
"/.	c #9899A7",
"(.	c #C9C9CD",
"_.	c #9091A1",
":.	c #EBEBEA",
"<.	c #EDEDEB",
"[.	c #9091A2",
"}.	c #EDEDEC",
"|.	c #8F90A0",
"1.	c #9092A2",
"2.	c #ECECEA",
"3.	c #EEEDEC",
"4.	c #8F90A1",
"5.	c #E9E8E6",
"6.	c #EEEEEC",
"7.	c #EEEEED",
"8.	c #999BA9",
"9.	c #CCCCD0",
"0.	c #EFEFEE",
"a.	c #9EA1AD",
"b.	c #CDCED1",
"c.	c #F0F0EE",
"d.	c #F0F0EF",
"e.	c #F0EFEE",
"f.	c #F1F1F0",
"g.	c #E9E9E8",
"h.	c #F2F1F0",
"i.	c #EFEFED",
"j.	c #F1F1EF",
"k.	c #F2F2F1",
"l.	c #F3F3F1",
"m.	c #F3F2F1",
"n.	c #F3F3F2",
"o.	c #F4F4F3",
". . + + + + + + + + + + + + + + + + + + + + + + + + + + + + + + + + + + + + + + + + + + + + + + + + . . ",
". . + + + + + + + + + + + + + + + + + + + + + + + + + + + + + + + + + + + + + + + + + + + + + + + + . . ",
". . + + @ # # $ % % & & * = = - ; > , ' ) ! ~ { ] ^ ^ / ( _ : < [ } } | 1 2 3 3 4 5 6 7 7 8 9 0 0 a . . ",
". . + + # # $ % % & & * = = - ; > , ' ) ! ~ { ] ^ ^ / ( ( : < [ } } | 1 2 3 3 4 5 6 b 7 8 9 0 0 a c . . ",
". . + + # $ % % & & * = = - ; > , ' ) ! ~ { ] d ^ / ( ( : < [ } } | 1 2 3 3 e 5 6 b 7 8 9 0 0 a c f . . ",
". . + + g % % & & * = = - ; > , ' ) ! ~ { ] d ^ / ( ( : < [ } } | 1 2 3 3 e 5 6 b 7 8 9 0 0 a c f f . . ",
". . + + % % h & * = = - ; > , ' ) ! ~ { ] d ^ / ( ( : < [ } } | 1 1 3 3 e 5 5 b 7 8 9 9 0 a c i f j . . ",
". . + + % h & * = = - ; > , ' ) ! ! { ] d ^ k ( ( : < l } } | 1 1 m 3 e 5 5 b 7 8 9 9 0 a c i f j n . . ",
". . + + h & & = = - ; ; , ' o ) ! { ] d ^ k ( ( : < l } } | 1 1 m 3 e 5 5 b 7 8 9 9 0 a c i f j n p . . ",
". . + + & & = = - ; ; , ' o ) ! { ] d ^ k ( ( : < l } } | 1 1 m 3 e 5 5 b 7 8 9 9 0 a c i f j n p p . . ",
". . + + & = = - ; ; , ' o ) ! { ] d ^ k ( ( : < < } } | 1 1 m 3 e 5 5 b 7 8 9 9 0 a c c f j n p p q . . ",
". . + + = = - ; ; , ' o ) ! { ] d ^ k ( ( : < < [ } | 1 1 m 3 e 5 5 6 7 8 9 9 0 a c c f j n p p q r . . ",
". . + + = s ; ; , ' o ) ! { ] d ^ k ( ( : < < [ } t u 1 m 3 e 5 5 6 7 8 9 9 0 a c c f j n p p q r v . . ",
". . + + s ; ; , ' o ) ! { ] d ^ k ( ( : < < [ } w . . x 3 e 5 5 6 7 8 9 9 0 a c c f j y p p q r v z . . ",
". . + + ; ; , ' o ) ! { ] d ^ k ( ( : < < [ } A . . . . B 5 5 6 7 8 C 9 0 a c c f j y p p q r v z z . . ",
". . + + ; , ' o ) ! { { d ^ k / ( : < < [ } w . . . . . . D 6 7 8 C 9 0 a c c f j y p p q r v z z E . . ",
". . + + , ' o ) ! { { d ^ k / ( : < < [ } F . . . . . . . . G 8 C 9 0 a c c f j y p p q r v z z E H . . ",
". . + + ' o ) ! { { d ^ k / ( : < < [ } F . . . . . . . . . . I 9 0 a c c f j y p p q r r z z E H H . . ",
". . + + o ) ! { { d ^ k / ( : < < [ } F . . . . . . . . . . . . J a a c f j y n p q r r K z E H H L . . ",
". . + + ) ! ~ { d ^ k / ( : < < [ } M . . . . . . . . . . . . . . N c f j y n p q r r K z E H H L O . . ",
". . + + ! ~ { ] ^ k / ( _ < < [ } P . . . . . . . . . . . . . . . . Q j y n p R r r K z E H H L O S . . ",
". . + + ~ { ] ^ k / ( _ < < [ } M . . . . . . . . . . . . . . . . . . T n p R r r K z E H H L O S U . . ",
". . + + { ] ^ ^ / ( _ < < [ } V . . . . . . . . . . . . . . . . . . . . W R r r K z E H H L O S U X . . ",
". . + + ] ^ ^ / ( _ < < [ } Y Z . . . . . . . . . . . . . . . . . . . . `  .r K z E H H L O S U X ... . ",
". . + + ^ ^ / ( _ < < [ } } +.. . . . . . . . . . . . . . . . . . . . . . @.K z E H H L O O U X ..#.. . ",
". . + + ^ / ( _ < < [ } } | +.. . . . . . . $.. . . . . . %.. . . . . . . &.z E H H L O O U X ..#.#.. . ",
". . + + / ( _ : < [ } } | 1 *.=.. . . . . V -.. . . . . . ;.T . . . . . ` >.E H H L O O U X ..#.#.,.. . ",
". . + + ( _ : < [ } } | 1 2 3 '.=.. . ).!.8 ~.. . . . . . ;.n W ` . . ` {.E H H L O O U X ..#.#.,.].. . ",
". . + + _ : < [ } } | 1 2 3 3 4 ^./.!.(.8 9 ~.. . . . . . _.p R  .&.&.>.z H H L O O U X ..:.#.,.].<.. . ",
". . + + : < [ } } | 1 2 3 3 4 5 6 b 7 8 9 0 ~.. . . . . . [.R r r v z z H H L O O U X ..:.#.,.].<.}.. . ",
". . + + < [ } } | 1 2 3 3 e 5 6 b 7 8 9 0 0 |.. . . . . . 1.r r v z z H H L O O S X ..:.#.2.].<.}.3.. . ",
". . + + [ } } | 1 2 3 3 e 5 6 b 7 8 9 0 0 a 4.. . . . . . 1.r v z z 5.H L O O S X ..:.#.2.].].}.3.6.. . ",
". . + + } } | 1 1 3 3 e 5 5 b 7 8 9 9 0 a c ;.. . . . . . 1.v z z 5.H L O O S X ..:.#.2.].].}.3.6.7.. . ",
". . + + } | 1 1 m 3 e 5 5 b 7 8 9 9 0 a c i 8.. . . . . . &.z z E H L O O S X ..:.#.2.].].}.3.6.7.+ . . ",
". . + + | 1 1 m 3 e 5 5 b 7 8 9 9 0 a c i f 9.` . . . . ` >.z E H L O O S X ..:.#.2.].].}.3.6.7.+ 0.. . ",
". . + + 1 1 m 3 e 5 5 b 7 8 9 9 0 a c i f j n a.` . . ` {.z E H L O O S X X :.#.2.,.].}.3.6.7.+ 0.0.. . ",
". . + + 1 m 3 e 5 5 b 7 8 9 9 0 a c c f j n p p b.&.&.>.z E H L O O S X X :.#.2.,.].}.3.6.7.+ 0.0.c.. . ",
". . + + m 3 e 5 5 6 7 8 9 9 0 a c c f j n p p q r v z z E H L O O S X X :.#.2.,.].}.3.6.7.+ 0.0.c.d.. . ",
". . + + 3 e 5 5 6 7 8 9 9 0 a c c f j n p p q r v z z E H L O O S X X :.#.2.,.].}.3.6.7.+ 0.0.e.d.d.. . ",
". . + + e 5 5 6 7 8 9 9 0 a c c f j y p p q r v z z E H H O O S X X :.#.2.,.].}.3.6.7.+ 0.0.e.d.d.f.. . ",
". . + + 5 5 6 7 8 C 9 0 a c c f j y p p q r v z z E H H g.O S X X :.#.2.,.].}.3.6.7.+ 0.0.e.d.d.f.f.. . ",
". . + + 5 6 7 8 C 9 0 a c c f j y p p q r v z z E H H g.O S X X :.#.2.,.].}.3.6.7.+ 0.0.e.d.d.f.f.h.. . ",
". . + + 6 7 8 C 9 0 a c c f j y p p q r v z z E H H g.O S X X :.#.2.,.].}.}.3.7.+ i.0.e.d.d.j.f.h.k.. . ",
". . + + 7 8 C 9 0 a c c f j y p p q r r z z E H H L O S X X ..#.2.,.].<.}.3.7.+ i.0.e.d.d.j.f.h.k.k.. . ",
". . + + 8 8 9 0 a a c f j y n p q r r K z E H H L O S X X ..#.2.,.].<.}.3.7.+ i.0.e.d.d.j.f.f.k.k.l.. . ",
". . + + 8 9 0 a a c f j y n p q r r K z E H H L O S X X ..#.2.,.].<.}.3.7.+ i.0.e.d.d.j.f.f.k.k.m.n.. . ",
". . + + 9 0 a a c f j y n p R r r K z E H H L O S X X ..#.#.,.].<.}.3.7.+ i.0.e.d.d.j.f.f.k.k.m.n.n.. . ",
". . + + 0 a a c f j j n p R r r K z E H H L O S U X ..#.#.,.].<.}.3.7.+ i.0.e.d.d.j.f.f.k.k.m.n.n.o.. . "};
