/* XPM */
static char * left_active_xpm[] = {
"14 52 4 1",
" 	c None",
".	c #010101",
"+	c #EDECEB",
"@	c #797673",
"..++++++++++@@",
"..++++++++++@@",
"..++++++++++@@",
"..++++++++++@@",
"..++++++++++@@",
"..++++++++++@@",
"..++++++++++@@",
"..++++++++++@@",
"..++++++++++@@",
"..++++++++++@@",
"..++++++++++@@",
"..++++++++++@@",
"..++++++++++@@",
"..++++++++++@@",
"..++++++++++@@",
"..++++++++++@@",
"..++++++++++@@",
"..++++++++++@@",
"..++++++++++@@",
"..++++++++++@@",
"..++++++++++@@",
"..++++++++++@@",
"..++++++++++@@",
"..++++++++++@@",
"..++++++++++@@",
"..++++++++++@@",
"..++++++++++@@",
"..++++++++++@@",
"..++++++++++@@",
"..++++++++++@@",
"..++++++++++@@",
"..++++++++++@@",
"..++++++++++@@",
"..++++++++++@@",
"..++++++++++@@",
"..++++++++++@@",
"..++++++++++@@",
"..++++++++++@@",
"..++++++++++@@",
"..++++++++++@@",
"..++++++++++@@",
"..++++++++++@@",
"..++++++++++@@",
"..++++++++++@@",
"..++++++++++@@",
"..++++++++++@@",
"..++++++++++@@",
"..++++++++++@@",
"..++++++++++@@",
"..++++++++++@@",
"..++++++++++@@",
"..++++++++++@@"};
