/* XPM */
static char * menu_prelight_xpm[] = {
"52 48 150 2",
"  	c None",
". 	c #000000",
"+ 	c #010101",
"@ 	c #121212",
"# 	c #5E5D5D",
"$ 	c #A6A5A5",
"% 	c #CACAC9",
"& 	c #E5E4E3",
"* 	c #EFEEED",
"= 	c #393E5F",
"- 	c #0A0A0A",
"; 	c #757574",
"> 	c #E2E1E0",
", 	c #171717",
"' 	c #A9A7A6",
") 	c #D4D3D1",
"! 	c #D5D3D1",
"~ 	c #D6D4D2",
"{ 	c #D6D4D3",
"] 	c #D7D5D3",
"^ 	c #D7D6D4",
"/ 	c #D8D6D4",
"( 	c #D8D6D5",
"_ 	c #D8D7D5",
": 	c #D9D7D5",
"< 	c #D9D8D6",
"[ 	c #DAD8D6",
"} 	c #DAD8D7",
"| 	c #DAD9D7",
"1 	c #DBD9D7",
"2 	c #DBDAD8",
"3 	c #DCDAD9",
"4 	c #DCDBD9",
"5 	c #DDDBD9",
"6 	c #DDDBDA",
"7 	c #DDDCDA",
"8 	c #DEDCDB",
"9 	c #DEDDDB",
"0 	c #DFDDDC",
"a 	c #DFDEDC",
"b 	c #DFDEDD",
"c 	c #E0DFDD",
"d 	c #E1DFDE",
"e 	c #E1E0DE",
"f 	c #E1E0DF",
"g 	c #E2E1DF",
"h 	c #E3E2E0",
"i 	c #E3E2E1",
"j 	c #E4E3E1",
"k 	c #191919",
"l 	c #BEBDBB",
"m 	c #E2E0DF",
"n 	c #E4E3E2",
"o 	c #ABAAA8",
"p 	c #DBD9D8",
"q 	c #E0DFDE",
"r 	c #E5E4E2",
"s 	c #D4D2D1",
"t 	c #131313",
"u 	c #D5D4D2",
"v 	c #E4E4E2",
"w 	c #DCDAD8",
"x 	c #DEDCDA",
"y 	c #E0DEDD",
"z 	c #E6E5E3",
"A 	c #A5A4A4",
"B 	c #D9D7D6",
"C 	c #E6E5E4",
"D 	c #CDCCCC",
"E 	c #E7E6E4",
"F 	c #E7E6E5",
"G 	c #D7D5D4",
"H 	c #E7E7E5",
"I 	c #E5E5E3",
"J 	c #E8E7E6",
"K 	c #E3E1E0",
"L 	c #E8E8E6",
"M 	c #CECDD5",
"N 	c #B1B5CD",
"O 	c #B2B5CD",
"P 	c #CFCFD5",
"Q 	c #DEDDDC",
"R 	c #D4D4DB",
"S 	c #B6B9D1",
"T 	c #B6B9D2",
"U 	c #D5D5DC",
"V 	c #E9E8E7",
"W 	c #B3B6CD",
"X 	c #7A84BC",
"Y 	c #7983BC",
"Z 	c #B2B5CE",
"` 	c #7B85BD",
" .	c #B9BCD3",
"..	c #B0B4CE",
"+.	c #B3B7D1",
"@.	c #D7D7DD",
"#.	c #E8E7E5",
"$.	c #E9E9E7",
"%.	c #B0B5CD",
"&.	c #B1B5CE",
"*.	c #B6BAD3",
"=.	c #EAE9E8",
"-.	c #B1B6CE",
";.	c #B6BBD3",
">.	c #EAEAE8",
",.	c #B2B6CF",
"'.	c #D7D8DF",
").	c #EAEAE9",
"!.	c #B2B6D0",
"~.	c #B8BCD3",
"{.	c #EBEAE9",
"].	c #B4B8D0",
"^.	c #B2B7D1",
"/.	c #EBEBE9",
"(.	c #B2B6CE",
"_.	c #B0B5CF",
":.	c #ECEBEA",
"<.	c #B5B9D3",
"[.	c #B3B6CF",
"}.	c #ECECEB",
"|.	c #EDECEB",
"1.	c #B4B7CF",
"2.	c #EBEBEA",
"3.	c #EDEDEB",
"4.	c #B3B7D0",
"5.	c #EDEDEC",
"6.	c #ECECEA",
"7.	c #EEEDEC",
"8.	c #B5B8D1",
"9.	c #E9E8E6",
"0.	c #EEEEEC",
"a.	c #EEEEED",
"b.	c #B6BAD1",
"c.	c #B4B9D2",
"d.	c #B5B9D2",
"e.	c #EFEFEE",
"f.	c #F0F0EE",
"g.	c #F0F0EF",
"h.	c #F0EFEE",
"i.	c #F1F1F0",
"j.	c #E9E9E8",
"k.	c #F2F1F0",
"l.	c #EFEFED",
"m.	c #F1F1EF",
"n.	c #F2F2F1",
"o.	c #F3F3F1",
"p.	c #F3F2F1",
"q.	c #F3F3F2",
"r.	c #E6E6E4",
"s.	c #F4F4F3",
"          . . + @ # $ % & * * * * * * * * * * * * * * * * * * * * * * * * * * * * * * * * * * * * * = = ",
"        . + - ; > * * * * * * * * * * * * * * * * * * * * * * * * * * * * * * * * * * * * * * * * * = = ",
"      . + , ' ) ! ! ~ ~ { ] ] ^ / ( _ : < [ } | 1 2 2 3 4 5 6 7 8 9 9 0 a b c c d e f g g > h i i j = = ",
"    . + k l ) ! ! ~ ~ { ] ] ^ / ( _ : < [ } | 1 2 2 3 4 4 6 7 8 9 9 0 a b c c d e f m g > h i i j n = = ",
"    . - o ) ! ! ~ ~ { ] ] ^ / ( _ : < [ } | 1 p 2 3 4 4 6 7 8 9 9 0 a b c c q e f m g > h i i j n r = = ",
"  . + ; s ! ! ~ ~ { ] ] ^ / ( _ : < [ } | 1 p 2 3 4 4 6 7 8 9 9 0 a b c c q e f m g > h i i j n r r = = ",
"  . t > ! ! u ~ { ] ] ^ / ( _ : < [ } | 1 p 2 3 4 4 6 7 8 9 9 0 a a c c q e e m g > h h i j n v r & = = ",
". + # * ! u ~ { ] ] ^ / ( _ : < [ [ | 1 p 2 w 4 4 6 7 x 9 9 0 a a y c q e e m g > h h i j n v r & z = = ",
". + A * u ~ ~ ] ] ^ / / _ : B < [ | 1 p 2 w 4 4 6 7 x 9 9 0 a a y c q e e m g > h h i j n v r & z C = = ",
". + D * ~ ~ ] ] ^ / / _ : B < [ | 1 p 2 w 4 4 6 7 x 9 9 0 a a y c q e e m g > h h i j n v r & z C C = = ",
". + n * ~ ] ] ^ / / _ : B < [ | 1 p 2 w 4 4 6 7 7 9 9 0 a a y c q e e m g > h h i j n n r & z C C E = = ",
"+ + * * ] ] ^ / / _ : B < [ | 1 p 2 w 4 4 6 7 7 8 9 0 a a y c q e e f g > h h i j n n r & z C C E F = = ",
"+ + * * ] G / / _ : B < [ | 1 p 2 w 4 4 6 7 7 8 9 0 a a y c q e e f g > h h i j n n r & z C C E F H = = ",
"+ + * * G / / _ : B < [ | 1 p 2 w 4 4 6 7 7 8 9 0 a a y c q e e f g > h h i j n n r & I C C E F H J = = ",
"+ + * * / / _ : B < [ | 1 p 2 w 4 4 6 7 7 8 9 0 a a y c q e e f g > K h i j n n r & I C C E F H J J = = ",
"+ + * * / _ : B < [ | | p 2 w 3 4 6 7 7 8 9 0 a a y c q e e f g > K h i j n n r & I C C E F H J J L = = ",
"+ + * * _ : B < [ | | p 2 w M N O P 7 8 9 Q a a y c q e e f g > K h R S T U r & I C C E F H J J L V = = ",
"+ + * * : B < [ | | p 2 w W X Y Y X Z 9 Q a a y c q e e f g > K h S ` Y Y `  .I C C E F F J J L V V = = ",
"+ + * * B < [ | | p 2 w M X Y Y Y Y Y ..a a y c q d e f g > > h +.Y Y Y Y Y ` @.C E F F #.J L V V $.= = ",
"+ + * * < [ } | p 2 w 3 %.Y Y Y Y Y Y Y &.y c c d e f g g > h +.Y Y Y Y Y Y Y *.E F F #.J L V V $.=.= = ",
"+ + * * [ } | 1 2 w 3 4 N Y Y Y Y Y Y Y Y -.c d e f g g > h +.Y Y Y Y Y Y Y Y ;.F F #.J L V V $.=.>.= = ",
"+ + * * } | 1 2 w 3 4 5 P X Y Y Y Y Y Y Y Y ,.e f g g > h +.Y Y Y Y Y Y Y Y ` '.F #.J L V V $.=.>.).= = ",
"+ + * * | 1 2 2 3 4 5 7 7 &.Y Y Y Y Y Y Y Y Y !.g g > h +.Y Y Y Y Y Y Y Y Y ~.F #.J L V V $.=.>.).{.= = ",
"+ + * * 1 2 2 3 4 5 7 7 8 9 O Y Y Y Y Y Y Y Y Y ..> h ].Y Y Y Y Y Y Y Y Y ^.F #.J L V V $.=.>.).{./.= = ",
"+ + * * 2 2 3 4 5 7 7 8 9 9 0 (.Y Y Y Y Y Y Y Y Y _.].Y Y Y Y Y Y Y Y Y ^.F #.J L V V $.=.=.).{./.:.= = ",
"+ + * * 2 3 4 5 7 7 8 9 9 0 a b -.Y Y Y Y Y Y Y Y Y Y Y Y Y Y Y Y Y Y <.F #.J L V V $.=.=.).{./.:.:.= = ",
"+ + * * 3 4 5 6 7 8 9 9 0 a b c c [.Y Y Y Y Y Y Y Y Y Y Y Y Y Y Y Y ^.F #.J L V V $.=.=.).{./.:.:.}.= = ",
"+ + * * 4 5 6 7 8 9 9 0 a b c c d e !.Y Y Y Y Y Y Y Y Y Y Y Y Y Y <.F H J L V V $.=.=.).{./.:.:.}.|.= = ",
"+ + * * 5 6 7 8 9 9 0 a b c c d e f g 1.Y Y Y Y Y Y Y Y Y Y Y Y ^.F H J J V V $.=.=.).{./.2.:.}.|.3.= = ",
"+ + * * 6 7 8 9 9 0 a b c c d e f m g > 4.Y Y Y Y Y Y Y Y Y Y <.F H J J V V $.=.=.).{./.2.:.}.|.3.5.= = ",
"+ + * * 7 8 9 9 0 a b c c q e f m g > h i ].Y Y Y Y Y Y Y Y ^.F H J J V V $.=.=.>.{./.2.:.6.|.3.5.7.= = ",
"+ + * * 8 9 9 0 a b c c q e f m g > h i i j 8.Y Y Y Y Y Y ^.F H J J 9.V $.=.=.>.{./.2.:.6.|.|.5.7.0.= = ",
"+ + * * 9 9 0 a a c c q e e m g > h h i j n v S Y Y Y Y ^.F H J J 9.V $.=.=.>.{./.2.:.6.|.|.5.7.0.a.= = ",
"+ + * * 9 0 a a y c q e e m g > h h i j n v r & b.Y Y ^.F H J J L V $.=.=.>.{./.2.:.6.|.|.5.7.0.a.* = = ",
"+ + * * 0 a a y c q e e m g > h h i j n v r & z C c.d.F H J J L V $.=.=.>.{./.2.:.6.|.|.5.7.0.a.* e.= = ",
"+ + * * a a y c q e e m g > h h i j n v r & z C C E F H J J L V $.=.=.>.{.{.2.:.6.}.|.5.7.0.a.* e.e.= = ",
"+ + * * a y c q e e m g > h h i j n n r & z C C E F H J J L V $.=.=.>.{.{.2.:.6.}.|.5.7.0.a.* e.e.f.= = ",
"+ + * * y c q e e f g > h h i j n n r & z C C E F H J J L V $.=.=.>.{.{.2.:.6.}.|.5.7.0.a.* e.e.f.g.= = ",
"+ + * * c q e e f g > h h i j n n r & z C C E F H J J L V $.=.=.>.{.{.2.:.6.}.|.5.7.0.a.* e.e.h.g.g.= = ",
"+ + * * q e e f g > h h i j n n r & I C C E F H J J L V V =.=.>.{.{.2.:.6.}.|.5.7.0.a.* e.e.h.g.g.i.= = ",
"+ + * * e e f g > K h i j n n r & I C C E F H J J L V V j.=.>.{.{.2.:.6.}.|.5.7.0.a.* e.e.h.g.g.i.i.= = ",
"+ + * * e f g > K h i j n n r & I C C E F H J J L V V j.=.>.{.{.2.:.6.}.|.5.7.0.a.* e.e.h.g.g.i.i.k.= = ",
"+ + * * f g > K h i j n n r & I C C E F H J J L V V j.=.>.{.{.2.:.6.}.|.5.5.7.a.* l.e.h.g.g.m.i.k.n.= = ",
"+ + * * g > K h i j n n r & I C C E F F J J L V V $.=.>.{.{./.:.6.}.|.3.5.7.a.* l.e.h.g.g.m.i.k.n.n.= = ",
"+ + * * > > h i j j n r & I z C E F F #.J L V V $.=.>.{.{./.:.6.}.|.3.5.7.a.* l.e.h.g.g.m.i.i.n.n.o.= = ",
"+ + * * > h i j j n r & I z C E F F #.J L V V $.=.>.{.{./.:.6.}.|.3.5.7.a.* l.e.h.g.g.m.i.i.n.n.p.q.= = ",
"+ + * * h i j j n r & I z C r.F F #.J L V V $.=.>.{.{./.:.:.}.|.3.5.7.a.* l.e.h.g.g.m.i.i.n.n.p.q.q.= = ",
"+ + * * i j j n r & & z C r.F F #.J L V V $.=.>.).{./.:.:.}.|.3.5.7.a.* l.e.h.g.g.m.i.i.n.n.p.q.q.s.= = "};
