/* XPM */
static char * close_active_xpm[] = {
"52 48 137 2",
"  	c None",
". 	c #393E5F",
"+ 	c #EFEEED",
"@ 	c #E5E4E3",
"# 	c #CACAC9",
"$ 	c #A5A4A4",
"% 	c #5C5B5B",
"& 	c #111111",
"* 	c #000000",
"= 	c #E2E1E0",
"- 	c #737372",
"; 	c #080808",
"> 	c #D3D1CF",
", 	c #D4D2D0",
"' 	c #D4D3D1",
") 	c #D5D3D1",
"! 	c #D6D4D2",
"~ 	c #D6D4D3",
"{ 	c #D7D5D3",
"] 	c #D7D6D4",
"^ 	c #D8D6D4",
"/ 	c #D8D6D5",
"( 	c #D8D7D5",
"_ 	c #D9D7D5",
": 	c #D9D8D6",
"< 	c #DAD8D6",
"[ 	c #DAD8D7",
"} 	c #DAD9D7",
"| 	c #DBD9D7",
"1 	c #DBDAD8",
"2 	c #DCDAD9",
"3 	c #DCDBD9",
"4 	c #DDDBD9",
"5 	c #DDDBDA",
"6 	c #DDDCDA",
"7 	c #DEDCDB",
"8 	c #DEDDDB",
"9 	c #DFDDDC",
"0 	c #DFDEDC",
"a 	c #DFDEDD",
"b 	c #E0DFDD",
"c 	c #E1DFDE",
"d 	c #E1E0DE",
"e 	c #E1E0DF",
"f 	c #E2E1DF",
"g 	c #B8B8B7",
"h 	c #1C1B1B",
"i 	c #E3E2E0",
"j 	c #CCCBCA",
"k 	c #1A1A1A",
"l 	c #E3E2E1",
"m 	c #B8B7B6",
"n 	c #E4E3E1",
"o 	c #E4E3E2",
"p 	c #E5E4E2",
"q 	c #D6D5D3",
"r 	c #5B5B5A",
"s 	c #A3A2A2",
"t 	c #E6E5E3",
"u 	c #E6E5E4",
"v 	c #E6E6E4",
"w 	c #C3C3C7",
"x 	c #9596A4",
"y 	c #9597A4",
"z 	c #C5C4C8",
"A 	c #C8C8CD",
"B 	c #999AA7",
"C 	c #C9C9CD",
"D 	c #E7E6E5",
"E 	c #989AA6",
"F 	c #3B4061",
"G 	c #9697A4",
"H 	c #999AA9",
"I 	c #3C4161",
"J 	c #3C4162",
"K 	c #9D9FAB",
"L 	c #9394A2",
"M 	c #9596A5",
"N 	c #CBCBCE",
"O 	c #E8E7E5",
"P 	c #9495A4",
"Q 	c #9494A3",
"R 	c #E8E7E6",
"S 	c #9496A4",
"T 	c #9495A3",
"U 	c #999BA9",
"V 	c #E8E8E6",
"W 	c #9496A3",
"X 	c #CCCCD0",
"Y 	c #E9E8E7",
"Z 	c #9B9DAB",
"` 	c #9395A4",
" .	c #E9E9E7",
"..	c #EAE9E8",
"+.	c #9597A5",
"@.	c #9697A5",
"#.	c #EAEAE9",
"$.	c #9698A6",
"%.	c #EBEAE9",
"&.	c #9598A5",
"*.	c #9295A3",
"=.	c #EBEBE9",
"-.	c #ECEBEA",
";.	c #9396A4",
">.	c #ECECEB",
",.	c #9497A5",
"'.	c #EDECEB",
").	c #9799A7",
"!.	c #9798A7",
"~.	c #9D9FAD",
"{.	c #EDEDEB",
"].	c #D0D0D4",
"^.	c #EDEDEC",
"/.	c #9899A7",
"(.	c #9899A8",
"_.	c #9C9EAC",
":.	c #EEEDEC",
"<.	c #989AA8",
"[.	c #9C9EAD",
"}.	c #EEEEED",
"|.	c #D1D1D5",
"1.	c #9A9CA9",
"2.	c #A1A4B0",
"3.	c #EFEFED",
"4.	c #9A9BA9",
"5.	c #9D9FAC",
"6.	c #EFEFEE",
"7.	c #EAEAE8",
"8.	c #F0EFEE",
"9.	c #F0F0EF",
"0.	c #F1F0EF",
"a.	c #F1F1F0",
"b.	c #F2F2F1",
"c.	c #F1F1EF",
"d.	c #F3F2F1",
"e.	c #F3F3F2",
"f.	c #F4F4F3",
". . + + + + + + + + + + + + + + + + + + + + + + + + + + + + + + + + + + + + + @ # $ % & * * *           ",
". . + + + + + + + + + + + + + + + + + + + + + + + + + + + + + + + + + + + + + + + + + = - ; * *         ",
". . + + > , , ' ) ) ! ! ~ { { ] ^ / ( _ : < [ } | 1 1 2 3 4 5 6 7 8 8 9 0 a b b c d e f f g h * *       ",
". . + + , , ' ) ) ! ! ~ { { ] ^ / ( _ : < [ } | 1 1 2 3 4 5 6 7 8 8 9 0 a b b c d e f f = i j k * *     ",
". . + + , ' ) ) ! ! ~ { { ] ^ / ( _ : < [ } | 1 1 2 3 4 5 6 7 8 8 9 0 a b b c d e f f = i l l m ; *     ",
". . + + ' ) ) ! ! ~ { { ] ^ / ( _ : < [ } | 1 1 2 3 4 5 6 7 8 8 9 0 a b b c d e f f = i l l n o - * *   ",
". . + + ) ) ! ! ~ { { ] ^ / ( _ : < [ } | 1 1 2 3 4 5 6 7 8 8 9 0 a b b c d e f f = i l l n o p = & *   ",
". . + + ) ! ! q { { ] ^ / ( _ : < [ } | 1 1 2 3 4 5 6 7 8 8 9 0 a b b c d e f f = i l l n o p @ + r * * ",
". . + + ! ! q { { ] ^ / ( _ : < [ } | 1 1 2 3 4 5 6 7 8 8 9 0 a b b c d e f f = i l l n o p @ @ + s * * ",
". . + + ! q { { ] ^ / ( _ : < [ } | 1 1 2 3 4 5 6 7 8 8 9 0 a b b c d e f f = i l l n o p @ @ t + # * * ",
". . + + q { { ] ^ / _ _ : < [ } | 1 1 2 3 4 5 6 7 8 8 9 0 a b b c d e f f = i l l n o p @ @ t u + o * * ",
". . + + { { ] ^ / _ _ : < [ } | 1 1 2 3 4 5 6 7 8 8 9 0 a b b c d e f f = i l l n o p @ @ t u v + + * * ",
". . + + { ] ^ / _ _ : < [ } | 1 w x y z 5 6 7 8 8 9 0 a b b c d A B B C i l l n o p @ @ t u v D + + * * ",
". . + + ] ^ / _ _ : < [ } | 1 E F . . F G 7 8 8 9 0 a b b c d H I . . J K l n o p @ @ t u v D D + + * * ",
". . + + ^ / _ _ : < [ } | 1 w F . . . . . L 8 9 0 a b b c d M . . . . . J N o p @ @ t u v D D O + + * * ",
". . + + / _ _ : < [ } | 1 1 P . . . . . . . Q 0 a b b c d M . . . . . . . H p @ @ t u v D D O R + + * * ",
". . + + _ _ : < [ } | 1 1 2 S . . . . . . . . T b b c d M . . . . . . . . U @ @ t u v D D O R V + + * * ",
". . + + _ : < [ } | 1 1 2 3 z F . . . . . . . . W c d M . . . . . . . . J X @ t u v D D O R V Y + + * * ",
". . + + : < [ } | 1 1 2 3 4 6 x . . . . . . . . . x M . . . . . . . . . Z @ t u v D D O R V Y Y + + * * ",
". . + + < [ } | 1 1 2 3 4 6 6 7 x . . . . . . . . . . . . . . . . . . ` @ t u v D D O R V Y Y  .+ + * * ",
". . + + [ } | 1 1 2 3 4 6 6 7 8 8 M . . . . . . . . . . . . . . . . ` @ t u v D D O R V Y Y  ...+ + * * ",
". . + + } | 1 1 2 3 4 6 6 7 8 8 9 0 +.. . . . . . . . . . . . . . ` @ t u v D D O R V Y Y  .....+ + * * ",
". . + + | 1 1 2 3 4 6 6 7 8 8 9 0 a b @.. . . . . . . . . . . . ` @ t u v D D O R V Y Y  .....#.+ + * * ",
". . + + 1 1 2 3 4 6 6 7 8 8 9 0 a b b c $.. . . . . . . . . . ` @ t u v D D O R V Y Y  .....#.%.+ + * * ",
". . + + 1 2 3 4 6 6 7 8 8 9 0 a b b c d &.. . . . . . . . . . *.t u v D D O R V Y Y  .....#.%.=.+ + * * ",
". . + + 2 3 4 6 6 7 8 8 9 0 a b b c d &.. . . . . . . . . . . . ` v D D O R V Y Y  .....#.%.=.-.+ + * * ",
". . + + 3 4 6 6 7 8 8 9 0 a b b c d &.. . . . . . . . . . . . . . ;.D O R V Y Y  .....#.%.=.-.-.+ + * * ",
". . + + 4 6 6 7 8 8 9 0 a b b c d &.. . . . . . . . . . . . . . . . S R V Y Y  .....#.%.=.-.-.>.+ + * * ",
". . + + 6 6 7 8 8 9 0 a b b c d &.. . . . . . . . . . . . . . . . . . ,.Y Y  .....#.%.=.-.-.>.'.+ + * * ",
". . + + 6 7 8 8 9 0 a b b c d ).. . . . . . . . . !.!.. . . . . . . . . ~. .....#.%.=.-.-.>.'.{.+ + * * ",
". . + + 7 8 8 9 0 a b b c d A I . . . . . . . . !.@ t ).. . . . . . . . J ]...#.%.=.-.-.>.'.{.^.+ + * * ",
". . + + 8 8 9 0 a b b c d e /.. . . . . . . . !.@ t u v (.. . . . . . . . _.#.%.=.-.-.>.'.{.^.:.+ + * * ",
". . + + 8 9 0 a b b c d e f /.. . . . . . . !.@ t u v D D <.. . . . . . . [.%.=.-.-.>.'.{.^.:.}.+ + * * ",
". . + + 9 0 a b b c d e f f C J . . . . . !.@ t u v D D O R <.. . . . . J |.=.-.-.>.'.{.^.:.}.}.+ + * * ",
". . + + 0 a b b c d e f f = i K J . . J 1.@ t u v D D O R V Y ~.J . . J 2.=.-.-.>.'.{.^.:.}.}.3.+ + * * ",
". . + + a b b c d e f f = i l n N 4.1.X @ t u v D D O R V Y Y  .].5.~.|.=.-.-.>.'.{.^.:.}.}.3.6.+ + * * ",
". . + + b b c d e f f = i l n n o p @ @ t u v D D O R V Y Y  ...7.#.%.=.-.-.>.'.{.^.:.}.}.3.6.8.+ + * * ",
". . + + b c d e f f = i l n n o p @ @ t u v D D O R V Y Y  ...7.#.%.=.-.-.>.'.{.^.:.}.}.3.6.8.9.+ + * * ",
". . + + c d e f f = i l n n o p @ @ t u v D D O R V Y Y  ...7.#.%.=.-.-.>.'.{.^.:.}.}.3.6.8.9.9.+ + * * ",
". . + + d e f f = i l n n o p @ @ t u v D D O R V Y Y  ...7.#.%.=.-.-.>.'.{.^.:.}.}.3.6.8.9.9.0.+ + * * ",
". . + + e f f = i l n n o p @ @ t u v D D O R V Y Y  ...7.#.%.=.-.-.>.'.{.^.:.}.}.3.6.8.9.9.0.a.+ + * * ",
". . + + f f = i l n n o p @ @ t u v D D O R V Y Y  ...7.#.%.=.-.-.>.'.{.^.:.}.+ 3.6.8.9.9.0.a.a.+ + * * ",
". . + + f = i l n n o p @ @ t u v D D O R V Y Y  ...7.#.%.=.-.-.>.'.{.^.:.}.+ 3.6.8.9.9.0.a.a.b.+ + * * ",
". . + + = i l n n o p @ @ t u v D D O R V Y Y  ...7.#.%.=.-.-.>.'.{.^.:.}.+ 3.6.8.9.9.0.a.a.b.b.+ + * * ",
". . + + i l n n o p @ @ t u v D D O R V Y Y  ...7.#.%.=.-.-.>.'.{.^.:.}.+ 3.6.8.9.9.c.a.a.b.b.d.+ + * * ",
". . + + l n n o p @ @ t u v D D O R V Y Y  ...7.#.%.=.-.-.>.'.{.^.:.}.+ 3.6.8.9.9.c.a.a.b.b.d.e.+ + * * ",
". . + + n n o p @ @ t u v D D O R V Y Y  ...7.#.%.=.-.-.>.'.{.^.:.}.+ 3.6.8.9.9.c.a.a.b.b.d.e.e.+ + * * ",
". . + + n o p @ @ t u v D D O R V Y Y  ...7.#.%.=.-.-.>.'.{.^.:.}.+ 3.6.8.9.9.c.a.a.b.b.d.e.e.f.+ + * * "};
