/* XPM */
static char * bottom_right_inactive_xpm[] = {
"48 48 23 1",
" 	c None",
".	c #8D8985",
"+	c #B9B6B3",
"@	c #000000",
"#	c #EDECEB",
"$	c #85817D",
"%	c #767370",
"&	c #605D5A",
"*	c #353432",
"=	c #84807D",
"-	c #090909",
";	c #43413F",
">	c #94928F",
",	c #040404",
"'	c #A6A3A0",
")	c #151414",
"!	c #070606",
"~	c #969391",
"{	c #161615",
"]	c #010101",
"^	c #86827E",
"/	c #605E5B",
"(	c #090908",
"                                  ..++........@@",
"                                  ..++........@@",
"                                  ..##++++++..@@",
"                                  ..##++++++..@@",
"                                  ..##++++++..@@",
"                                  ..##++++++..@@",
"                                  ..##++++++..@@",
"                                  ..##++++++..@@",
"                                  ..##++++++..@@",
"                                  ..##++++++..@@",
"                                  ..##++++++..@@",
"                                  ..##++++++..@@",
"                                  ..##++++++..@@",
"                                  ..##++++++..@@",
"                                  ..##++++++..@@",
"                                  ..##++++++..@@",
"                                  ..##++++++..@@",
"                                  ..##++++++..@@",
"                                  ..##++++++..@@",
"                                  ..##++++++..@@",
"                                  ..##++++++..@@",
"                                  ..##++++++..@@",
"                                  ..##++++++..@@",
"                                  ..##++++++..@@",
"                                  ..##++++++..@@",
"                                  ..##++++++..@@",
"                                  ..##++++++..@@",
"                                  ..##++++++..@@",
"                                  ..##++++++..@@",
"                                  ..##++++++..@@",
"                                  ..##++++++..@@",
"                                  ..##++++++..@@",
"                                  ..##++++++..@@",
"                                  ..##++++++..@@",
"++..................................##++++++..@@",
"++..................................##++++++.$@@",
"######################################++++++.%@@",
"######################################++++++.&@@",
"##++++++++++++++++++++++++++++++++++++++++++.*@@",
"##++++++++++++++++++++++++++++++++++++++++++=-@ ",
"##++++++++++++++++++++++++++++++++++++++++++;@@ ",
"##+++++++++++++++++++++++++++++++++++++++++>,@@ ",
"##++++++++++++++++++++++++++++++++++++++++')@!  ",
"##+++++++++++++++++++++++++++++++++++++++~{@@   ",
"++.....................................=;,@]    ",
"++.................................^%/*(@@!     ",
"@@@@@@@@@@@@@@@@@@@@@@@@@@@@@@@@@@@@@@@@@@      ",
"@@@@@@@@@@@@@@@@@@@@@@@@@@@@@@@@@@@@@@@         "};
