/* XPM */
static char * bottom_left_active_xpm[] = {
"48 48 29 1",
" 	c None",
".	c #000000",
"+	c #6674CC",
"@	c #4956A9",
"#	c #7D89D4",
"$	c #7681C8",
"%	c #6973B2",
"&	c #555D90",
"*	c #2F3450",
"=	c #08090E",
"-	c #7580C7",
";	c #3B4165",
">	c #040407",
",	c #525DA4",
"'	c #06060A",
")	c #0B0D17",
"!	c #5B68B7",
"~	c #0C0E18",
"{	c #525EA5",
"]	c #000001",
"^	c #020305",
"/	c #222950",
"(	c #44509F",
"_	c #030408",
":	c #04050B",
"<	c #1B2040",
"[	c #323B73",
"}	c #3D488E",
"|	c #4551A1",
"..++@@@@@@@@@@                                  ",
"..++@@@@@@@@@@                                  ",
"..##########@@                                  ",
"..##########@@                                  ",
"..##++++++++@@                                  ",
"..##++++++++@@                                  ",
"..##++++++++@@                                  ",
"..##++++++++@@                                  ",
"..##++++++++@@                                  ",
"..##++++++++@@                                  ",
"..##++++++++@@                                  ",
"..##++++++++@@                                  ",
"..##++++++++@@                                  ",
"..##++++++++@@                                  ",
"..##++++++++@@                                  ",
"..##++++++++@@                                  ",
"..##++++++++@@                                  ",
"..##++++++++@@                                  ",
"..##++++++++@@                                  ",
"..##++++++++@@                                  ",
"..##++++++++@@                                  ",
"..##++++++++@@                                  ",
"..##++++++++@@                                  ",
"..##++++++++@@                                  ",
"..##++++++++@@                                  ",
"..##++++++++@@                                  ",
"..##++++++++@@                                  ",
"..##++++++++@@                                  ",
"..##++++++++@@                                  ",
"..##++++++++@@                                  ",
"..##++++++++@@                                  ",
"..##++++++++@@                                  ",
"..##++++++++@@                                  ",
"..##++++++++@@                                  ",
"..##++++++++@@@@@@@@@@@@@@@@@@@@@@@@@@@@@@@@@@@@",
"..$#++++++++@@@@@@@@@@@@@@@@@@@@@@@@@@@@@@@@@@@@",
"..%#+++++++++#################################++",
"..&#++++++++++################################++",
"..*#++++++++++++++++++++++++++++++++++++++++++@@",
" .=-++++++++++++++++++++++++++++++++++++++++++@@",
" ..;++++++++++++++++++++++++++++++++++++++++++@@",
" ..>,+++++++++++++++++++++++++++++++++++++++++@@",
"  '.)!++++++++++++++++++++++++++++++++++++++++@@",
"   ..~{+++++++++++++++++++++++++++++++++++++++@@",
"    ].^/(@@@@@@@@@@@@@@@@@@@@@@@@@@@@@@@@@@@@@@@",
"     _..:<[}|@@@@@@@@@@@@@@@@@@@@@@@@@@@@@@@@@@@",
"      ..........................................",
"         ......................................."};
