/* XPM */
static char * maximize_pressed_xpm[] = {
"52 48 113 2",
"  	c None",
". 	c #393E5F",
"+ 	c #EFEEED",
"@ 	c #D3D1CF",
"# 	c #D4D2D0",
"$ 	c #D4D3D1",
"% 	c #D5D3D1",
"& 	c #D6D4D2",
"* 	c #D6D4D3",
"= 	c #D7D5D3",
"- 	c #D7D6D4",
"; 	c #D8D6D4",
"> 	c #D8D6D5",
", 	c #D8D7D5",
"' 	c #D9D7D5",
") 	c #D9D8D6",
"! 	c #DAD8D6",
"~ 	c #DAD8D7",
"{ 	c #DAD9D7",
"] 	c #DBD9D7",
"^ 	c #DBDAD8",
"/ 	c #DCDAD9",
"( 	c #DCDBD9",
"_ 	c #DDDBD9",
": 	c #DDDBDA",
"< 	c #DDDCDA",
"[ 	c #DEDCDB",
"} 	c #DEDDDB",
"| 	c #DFDDDC",
"1 	c #DFDEDC",
"2 	c #DFDEDD",
"3 	c #E0DFDD",
"4 	c #E1DFDE",
"5 	c #E1E0DE",
"6 	c #E1E0DF",
"7 	c #E2E1DF",
"8 	c #E2E1E0",
"9 	c #E3E2E0",
"0 	c #E3E2E1",
"a 	c #E4E3E1",
"b 	c #E2E0DF",
"c 	c #E4E3E2",
"d 	c #DBD9D8",
"e 	c #E0DFDE",
"f 	c #E5E4E2",
"g 	c #D4D2D1",
"h 	c #D5D4D2",
"i 	c #E4E4E2",
"j 	c #E5E4E3",
"k 	c #DCDAD8",
"l 	c #DEDCDA",
"m 	c #E0DEDD",
"n 	c #E6E5E3",
"o 	c #D9D7D6",
"p 	c #E6E5E4",
"q 	c #E7E6E4",
"r 	c #E7E6E5",
"s 	c #D7D5D4",
"t 	c #D5D3D2",
"u 	c #C0C0BF",
"v 	c #B5B5B5",
"w 	c #B3B3B3",
"x 	c #B6B5B5",
"y 	c #C2C2C1",
"z 	c #DBDAD9",
"A 	c #E7E7E5",
"B 	c #B6B6B6",
"C 	c #DBDADA",
"D 	c #E5E5E3",
"E 	c #E8E7E6",
"F 	c #E8E8E6",
"G 	c #E9E8E7",
"H 	c #E8E7E5",
"I 	c #E9E9E7",
"J 	c #EAE9E8",
"K 	c #E6E6E4",
"L 	c #EAEAE8",
"M 	c #EAEAE9",
"N 	c #EBEAE9",
"O 	c #EBEBE9",
"P 	c #ECEBEA",
"Q 	c #ECECEB",
"R 	c #EDECEB",
"S 	c #EBEBEA",
"T 	c #EDEDEB",
"U 	c #EDEDEC",
"V 	c #ECECEA",
"W 	c #EEEDEC",
"X 	c #E9E8E6",
"Y 	c #EEEEEC",
"Z 	c #DDDCDB",
"` 	c #E2E2E1",
" .	c #EEEEED",
"..	c #C1C1C0",
"+.	c #C3C3C2",
"@.	c #C6C6C5",
"#.	c #DADAD9",
"$.	c #B7B7B7",
"%.	c #EFEFEE",
"&.	c #F0F0EE",
"*.	c #F0F0EF",
"=.	c #F0EFEE",
"-.	c #F1F1F0",
";.	c #E3E1E0",
">.	c #E9E9E8",
",.	c #F2F1F0",
"'.	c #EFEFED",
").	c #F1F1EF",
"!.	c #F2F2F1",
"~.	c #F3F3F1",
"{.	c #F3F2F1",
"].	c #F3F3F2",
"^.	c #F4F4F3",
". . + + + + + + + + + + + + + + + + + + + + + + + + + + + + + + + + + + + + + + + + + + + + + + + + . . ",
". . + + + + + + + + + + + + + + + + + + + + + + + + + + + + + + + + + + + + + + + + + + + + + + + + . . ",
". . + + @ # # $ % % & & * = = - ; > , ' ) ! ~ { ] ^ ^ / ( _ : < [ } } | 1 2 3 3 4 5 6 7 7 8 9 0 0 a . . ",
". . + + # # $ % % & & * = = - ; > , ' ) ! ~ { ] ^ ^ / ( ( : < [ } } | 1 2 3 3 4 5 6 b 7 8 9 0 0 a c . . ",
". . + + # $ % % & & * = = - ; > , ' ) ! ~ { ] d ^ / ( ( : < [ } } | 1 2 3 3 e 5 6 b 7 8 9 0 0 a c f . . ",
". . + + g % % & & * = = - ; > , ' ) ! ~ { ] d ^ / ( ( : < [ } } | 1 2 3 3 e 5 6 b 7 8 9 0 0 a c f f . . ",
". . + + % % h & * = = - ; > , ' ) ! ~ { ] d ^ / ( ( : < [ } } | 1 1 3 3 e 5 5 b 7 8 9 9 0 a c i f j . . ",
". . + + % h & * = = - ; > , ' ) ! ! { ] d ^ k ( ( : < l } } | 1 1 m 3 e 5 5 b 7 8 9 9 0 a c i f j n . . ",
". . + + h & & = = - ; ; , ' o ) ! { ] d ^ k ( ( : < l } } | 1 1 m 3 e 5 5 b 7 8 9 9 0 a c i f j n p . . ",
". . + + & & = = - ; ; , ' o ) ! { ] d ^ k ( ( : < l } } | 1 1 m 3 e 5 5 b 7 8 9 9 0 a c i f j n p p . . ",
". . + + & = = - ; ; , ' o ) ! { ] d ^ k ( ( : < < } } | 1 1 m 3 e 5 5 b 7 8 9 9 0 a c c f j n p p q . . ",
". . + + = = - ; ; , ' o ) ! { ] d ^ k ( ( : < < [ } | 1 1 m 3 e 5 5 6 7 8 9 9 0 a c c f j n p p q r . . ",
". . + + = s ; ; , ' o ) ! { ] t u v w w w w w w w w w w w w w w w w x y z 9 0 a c c f j n p p q r A . . ",
". . + + s ; ; , ' o ) ! { ] t B w w w w w w w w w w w w w w w w w w w w B C a c c f j D p p q r A E . . ",
". . + + ; ; , ' o ) ! { ] d u w w w w w w w w w w w w w w w w w w w w w w y c c f j D p p q r A E E . . ",
". . + + ; , ' o ) ! { { d ^ v w w w w w w w w w w w w w w w w w w w w w w x c f j D p p q r A E E F . . ",
". . + + , ' o ) ! { { d ^ k w w w w w w w w w w w w w w w w w w w w w w w w f j D p p q r A E E F G . . ",
". . + + ' o ) ! { { d ^ k / w w w w w w w w w w w w w w w w w w w w w w w w j D p p q r r E E F G G . . ",
". . + + o ) ! { { d ^ k / ( w w w w w w w w w w w w w w w w w w w w w w w w D n p q r r H E F G G I . . ",
". . + + ) ! ~ { d ^ k / ( : w w w w w w w w w w w w w w w w w w w w w w w w n p q r r H E F G G I J . . ",
". . + + ! ~ { ] ^ k / ( _ < w w } } 1 1 m 3 3 4 5 6 7 7 8 9 0 a a c f j w w p K r r H E F G G I J L . . ",
". . + + ~ { ] ^ k / ( _ < < w w } 1 1 m 3 3 4 5 6 7 7 8 9 0 a a c f j j w w K r r H E F G G I J L M . . ",
". . + + { ] ^ ^ / ( _ < < [ w w | 1 m 3 3 4 5 6 7 7 8 9 0 a a c f j j n w w r r H E F G G I J L M N . . ",
". . + + ] ^ ^ / ( _ < < [ } w w 1 2 3 3 4 5 6 7 7 8 9 0 a a c f j j n p w w r H E F G G I J L M N O . . ",
". . + + ^ ^ / ( _ < < [ } } w w 2 3 3 4 5 6 7 7 8 9 0 a a c f j j n p K w w H E F G G I J J M N O P . . ",
". . + + ^ / ( _ < < [ } } | w w 3 3 4 5 6 7 7 8 9 0 0 a c f j j n p K r w w E F G G I J J M N O P P . . ",
". . + + / ( _ : < [ } } | 1 w w 3 4 5 6 7 7 8 9 0 0 a c f j j n p K r r w w F G G I J J M N O P P Q . . ",
". . + + ( _ : < [ } } | 1 2 w w 4 5 6 7 7 8 9 0 0 a c f j j n p K r r A w w G G I J J M N O P P Q R . . ",
". . + + _ : < [ } } | 1 2 3 w w 5 6 7 7 8 9 0 0 a c f j j n p K r r A E w w G I J J M N O S P Q R T . . ",
". . + + : < [ } } | 1 2 3 3 w w 6 b 7 8 9 0 0 a c f j j n p K r r A E E w w I J J M N O S P Q R T U . . ",
". . + + < [ } } | 1 2 3 3 e w w b 7 8 9 0 0 a c f j j n p K r r A E E G w w J J L N O S P V R T U W . . ",
". . + + [ } } | 1 2 3 3 e 5 w w 7 8 9 0 0 a c f f j n p K q r A E E X G w w J L N O S P V R R U W Y . . ",
". . + + } } | 1 1 3 3 e 5 5 x w Z 9 9 0 a c i f j n p p q r A E E X G ` w B L N O S P V R R U W Y  .. . ",
". . + + } | 1 1 m 3 e 5 5 b y w ..} 0 a c i f j n p p q r A E E F G ` +.w @.N O S P V R R U W Y  .+ . . ",
". . + + | 1 1 m 3 e 5 5 b 7 #.B w w w w w w w w w w w w w w w w w w w w $.j O S P V R R U W Y  .+ %.. . ",
". . + + 1 1 m 3 e 5 5 b 7 8 9 z y x w w w w w w w w w w w w w w w w B @.j N S P V Q R U W Y  .+ %.%.. . ",
". . + + 1 m 3 e 5 5 b 7 8 9 9 0 a c c f j n p p q r A E E F G I J J L N N S P V Q R U W Y  .+ %.%.&.. . ",
". . + + m 3 e 5 5 6 7 8 9 9 0 a c c f j n p p q r A E E F G I J J L N N S P V Q R U W Y  .+ %.%.&.*.. . ",
". . + + 3 e 5 5 6 7 8 9 9 0 a c c f j n p p q r A E E F G I J J L N N S P V Q R U W Y  .+ %.%.=.*.*.. . ",
". . + + e 5 5 6 7 8 9 9 0 a c c f j D p p q r A E E F G G J J L N N S P V Q R U W Y  .+ %.%.=.*.*.-.. . ",
". . + + 5 5 6 7 8 ;.9 0 a c c f j D p p q r A E E F G G >.J L N N S P V Q R U W Y  .+ %.%.=.*.*.-.-.. . ",
". . + + 5 6 7 8 ;.9 0 a c c f j D p p q r A E E F G G >.J L N N S P V Q R U W Y  .+ %.%.=.*.*.-.-.,.. . ",
". . + + 6 7 8 ;.9 0 a c c f j D p p q r A E E F G G >.J L N N S P V Q R U U W  .+ '.%.=.*.*.).-.,.!.. . ",
". . + + 7 8 ;.9 0 a c c f j D p p q r r E E F G G I J L N N O P V Q R T U W  .+ '.%.=.*.*.).-.,.!.!.. . ",
". . + + 8 8 9 0 a a c f j D n p q r r H E F G G I J L N N O P V Q R T U W  .+ '.%.=.*.*.).-.-.!.!.~.. . ",
". . + + 8 9 0 a a c f j D n p q r r H E F G G I J L N N O P V Q R T U W  .+ '.%.=.*.*.).-.-.!.!.{.].. . ",
". . + + 9 0 a a c f j D n p K r r H E F G G I J L N N O P P Q R T U W  .+ '.%.=.*.*.).-.-.!.!.{.].].. . ",
". . + + 0 a a c f j j n p K r r H E F G G I J L M N O P P Q R T U W  .+ '.%.=.*.*.).-.-.!.!.{.].].^.. . "};
