/* XPM */
static char * maximize_prelight_xpm[] = {
"52 48 120 2",
"  	c None",
". 	c #393E5F",
"+ 	c #EFEEED",
"@ 	c #D3D1CF",
"# 	c #D4D2D0",
"$ 	c #D4D3D1",
"% 	c #D5D3D1",
"& 	c #D6D4D2",
"* 	c #D6D4D3",
"= 	c #D7D5D3",
"- 	c #D7D6D4",
"; 	c #D8D6D4",
"> 	c #D8D6D5",
", 	c #D8D7D5",
"' 	c #D9D7D5",
") 	c #D9D8D6",
"! 	c #DAD8D6",
"~ 	c #DAD8D7",
"{ 	c #DAD9D7",
"] 	c #DBD9D7",
"^ 	c #DBDAD8",
"/ 	c #DCDAD9",
"( 	c #DCDBD9",
"_ 	c #DDDBD9",
": 	c #DDDBDA",
"< 	c #DDDCDA",
"[ 	c #DEDCDB",
"} 	c #DEDDDB",
"| 	c #DFDDDC",
"1 	c #DFDEDC",
"2 	c #DFDEDD",
"3 	c #E0DFDD",
"4 	c #E1DFDE",
"5 	c #E1E0DE",
"6 	c #E1E0DF",
"7 	c #E2E1DF",
"8 	c #E2E1E0",
"9 	c #E3E2E0",
"0 	c #E3E2E1",
"a 	c #E4E3E1",
"b 	c #E2E0DF",
"c 	c #E4E3E2",
"d 	c #DBD9D8",
"e 	c #E0DFDE",
"f 	c #E5E4E2",
"g 	c #D4D2D1",
"h 	c #D5D4D2",
"i 	c #E4E4E2",
"j 	c #E5E4E3",
"k 	c #DCDAD8",
"l 	c #DEDCDA",
"m 	c #E0DEDD",
"n 	c #E6E5E3",
"o 	c #D9D7D6",
"p 	c #E6E5E4",
"q 	c #E7E6E4",
"r 	c #E7E6E5",
"s 	c #D7D5D4",
"t 	c #CCCCD3",
"u 	c #989EC5",
"v 	c #7E87BD",
"w 	c #7983BC",
"x 	c #7F87BD",
"y 	c #9AA1C7",
"z 	c #D3D3DB",
"A 	c #E7E7E5",
"B 	c #7F89BE",
"C 	c #D3D3DC",
"D 	c #E5E5E3",
"E 	c #E8E7E6",
"F 	c #9BA2C8",
"G 	c #7F88BE",
"H 	c #E8E8E6",
"I 	c #E9E8E7",
"J 	c #E8E7E5",
"K 	c #E9E9E7",
"L 	c #EAE9E8",
"M 	c #E6E6E4",
"N 	c #EAEAE8",
"O 	c #EAEAE9",
"P 	c #EBEAE9",
"Q 	c #EBEBE9",
"R 	c #ECEBEA",
"S 	c #ECECEB",
"T 	c #EDECEB",
"U 	c #EBEBEA",
"V 	c #EDEDEB",
"W 	c #EDEDEC",
"X 	c #ECECEA",
"Y 	c #EEEDEC",
"Z 	c #E9E8E6",
"` 	c #EEEEEC",
" .	c #D6D6DC",
"..	c #DCDDE2",
"+.	c #8089BF",
"@.	c #EEEEED",
"#.	c #989FC6",
"$.	c #D7D7DC",
"%.	c #99A0C8",
"&.	c #9FA6CB",
"*.	c #D2D3DB",
"=.	c #818ABF",
"-.	c #DEDEE4",
";.	c #EFEFEE",
">.	c #9BA1C7",
",.	c #7F89BF",
"'.	c #F0F0EE",
").	c #F0F0EF",
"!.	c #F0EFEE",
"~.	c #F1F1F0",
"{.	c #E3E1E0",
"].	c #E9E9E8",
"^.	c #F2F1F0",
"/.	c #EFEFED",
"(.	c #F1F1EF",
"_.	c #F2F2F1",
":.	c #F3F3F1",
"<.	c #F3F2F1",
"[.	c #F3F3F2",
"}.	c #F4F4F3",
". . + + + + + + + + + + + + + + + + + + + + + + + + + + + + + + + + + + + + + + + + + + + + + + + + . . ",
". . + + + + + + + + + + + + + + + + + + + + + + + + + + + + + + + + + + + + + + + + + + + + + + + + . . ",
". . + + @ # # $ % % & & * = = - ; > , ' ) ! ~ { ] ^ ^ / ( _ : < [ } } | 1 2 3 3 4 5 6 7 7 8 9 0 0 a . . ",
". . + + # # $ % % & & * = = - ; > , ' ) ! ~ { ] ^ ^ / ( ( : < [ } } | 1 2 3 3 4 5 6 b 7 8 9 0 0 a c . . ",
". . + + # $ % % & & * = = - ; > , ' ) ! ~ { ] d ^ / ( ( : < [ } } | 1 2 3 3 e 5 6 b 7 8 9 0 0 a c f . . ",
". . + + g % % & & * = = - ; > , ' ) ! ~ { ] d ^ / ( ( : < [ } } | 1 2 3 3 e 5 6 b 7 8 9 0 0 a c f f . . ",
". . + + % % h & * = = - ; > , ' ) ! ~ { ] d ^ / ( ( : < [ } } | 1 1 3 3 e 5 5 b 7 8 9 9 0 a c i f j . . ",
". . + + % h & * = = - ; > , ' ) ! ! { ] d ^ k ( ( : < l } } | 1 1 m 3 e 5 5 b 7 8 9 9 0 a c i f j n . . ",
". . + + h & & = = - ; ; , ' o ) ! { ] d ^ k ( ( : < l } } | 1 1 m 3 e 5 5 b 7 8 9 9 0 a c i f j n p . . ",
". . + + & & = = - ; ; , ' o ) ! { ] d ^ k ( ( : < l } } | 1 1 m 3 e 5 5 b 7 8 9 9 0 a c i f j n p p . . ",
". . + + & = = - ; ; , ' o ) ! { ] d ^ k ( ( : < < } } | 1 1 m 3 e 5 5 b 7 8 9 9 0 a c c f j n p p q . . ",
". . + + = = - ; ; , ' o ) ! { ] d ^ k ( ( : < < [ } | 1 1 m 3 e 5 5 6 7 8 9 9 0 a c c f j n p p q r . . ",
". . + + = s ; ; , ' o ) ! { ] t u v w w w w w w w w w w w w w w w w x y z 9 0 a c c f j n p p q r A . . ",
". . + + s ; ; , ' o ) ! { ] t B w w w w w w w w w w w w w w w w w w w w B C a c c f j D p p q r A E . . ",
". . + + ; ; , ' o ) ! { ] d u w w w w w w w w w w w w w w w w w w w w w w F c c f j D p p q r A E E . . ",
". . + + ; , ' o ) ! { { d ^ v w w w w w w w w w w w w w w w w w w w w w w G c f j D p p q r A E E H . . ",
". . + + , ' o ) ! { { d ^ k w w w w w w w w w w w w w w w w w w w w w w w w f j D p p q r A E E H I . . ",
". . + + ' o ) ! { { d ^ k / w w w w w w w w w w w w w w w w w w w w w w w w j D p p q r r E E H I I . . ",
". . + + o ) ! { { d ^ k / ( w w w w w w w w w w w w w w w w w w w w w w w w D n p q r r J E H I I K . . ",
". . + + ) ! ~ { d ^ k / ( : w w w w w w w w w w w w w w w w w w w w w w w w n p q r r J E H I I K L . . ",
". . + + ! ~ { ] ^ k / ( _ < w w } } 1 1 m 3 3 4 5 6 7 7 8 9 0 a a c f j w w p M r r J E H I I K L N . . ",
". . + + ~ { ] ^ k / ( _ < < w w } 1 1 m 3 3 4 5 6 7 7 8 9 0 a a c f j j w w M r r J E H I I K L N O . . ",
". . + + { ] ^ ^ / ( _ < < [ w w | 1 m 3 3 4 5 6 7 7 8 9 0 a a c f j j n w w r r J E H I I K L N O P . . ",
". . + + ] ^ ^ / ( _ < < [ } w w 1 2 3 3 4 5 6 7 7 8 9 0 a a c f j j n p w w r J E H I I K L N O P Q . . ",
". . + + ^ ^ / ( _ < < [ } } w w 2 3 3 4 5 6 7 7 8 9 0 a a c f j j n p M w w J E H I I K L L O P Q R . . ",
". . + + ^ / ( _ < < [ } } | w w 3 3 4 5 6 7 7 8 9 0 0 a c f j j n p M r w w E H I I K L L O P Q R R . . ",
". . + + / ( _ : < [ } } | 1 w w 3 4 5 6 7 7 8 9 0 0 a c f j j n p M r r w w H I I K L L O P Q R R S . . ",
". . + + ( _ : < [ } } | 1 2 w w 4 5 6 7 7 8 9 0 0 a c f j j n p M r r A w w I I K L L O P Q R R S T . . ",
". . + + _ : < [ } } | 1 2 3 w w 5 6 7 7 8 9 0 0 a c f j j n p M r r A E w w I K L L O P Q U R S T V . . ",
". . + + : < [ } } | 1 2 3 3 w w 6 b 7 8 9 0 0 a c f j j n p M r r A E E w w K L L O P Q U R S T V W . . ",
". . + + < [ } } | 1 2 3 3 e w w b 7 8 9 0 0 a c f j j n p M r r A E E I w w L L N P Q U R X T V W Y . . ",
". . + + [ } } | 1 2 3 3 e 5 w w 7 8 9 0 0 a c f f j n p M q r A E E Z I w w L N P Q U R X T T W Y ` . . ",
". . + + } } | 1 1 3 3 e 5 5 x w  .9 9 0 a c i f j n p p q r A E E Z I ..w +.N P Q U R X T T W Y ` @.. . ",
". . + + } | 1 1 m 3 e 5 5 b y w #.$.0 a c i f j n p p q r A E E H I ..%.w &.P Q U R X T T W Y ` @.+ . . ",
". . + + | 1 1 m 3 e 5 5 b 7 *.B w w w w w w w w w w w w w w w w w w w w =.-.Q U R X T T W Y ` @.+ ;.. . ",
". . + + 1 1 m 3 e 5 5 b 7 8 9 z >.G w w w w w w w w w w w w w w w w ,.&.-.P U R X S T W Y ` @.+ ;.;.. . ",
". . + + 1 m 3 e 5 5 b 7 8 9 9 0 a c c f j n p p q r A E E H I K L L N P P U R X S T W Y ` @.+ ;.;.'.. . ",
". . + + m 3 e 5 5 6 7 8 9 9 0 a c c f j n p p q r A E E H I K L L N P P U R X S T W Y ` @.+ ;.;.'.).. . ",
". . + + 3 e 5 5 6 7 8 9 9 0 a c c f j n p p q r A E E H I K L L N P P U R X S T W Y ` @.+ ;.;.!.).).. . ",
". . + + e 5 5 6 7 8 9 9 0 a c c f j D p p q r A E E H I I L L N P P U R X S T W Y ` @.+ ;.;.!.).).~.. . ",
". . + + 5 5 6 7 8 {.9 0 a c c f j D p p q r A E E H I I ].L N P P U R X S T W Y ` @.+ ;.;.!.).).~.~.. . ",
". . + + 5 6 7 8 {.9 0 a c c f j D p p q r A E E H I I ].L N P P U R X S T W Y ` @.+ ;.;.!.).).~.~.^.. . ",
". . + + 6 7 8 {.9 0 a c c f j D p p q r A E E H I I ].L N P P U R X S T W W Y @.+ /.;.!.).).(.~.^._.. . ",
". . + + 7 8 {.9 0 a c c f j D p p q r r E E H I I K L N P P Q R X S T V W Y @.+ /.;.!.).).(.~.^._._.. . ",
". . + + 8 8 9 0 a a c f j D n p q r r J E H I I K L N P P Q R X S T V W Y @.+ /.;.!.).).(.~.~._._.:.. . ",
". . + + 8 9 0 a a c f j D n p q r r J E H I I K L N P P Q R X S T V W Y @.+ /.;.!.).).(.~.~._._.<.[.. . ",
". . + + 9 0 a a c f j D n p M r r J E H I I K L N P P Q R R S T V W Y @.+ /.;.!.).).(.~.~._._.<.[.[.. . ",
". . + + 0 a a c f j j n p M r r J E H I I K L N O P Q R R S T V W Y @.+ /.;.!.).).(.~.~._._.<.[.[.}.. . "};
