/* XPM */
static char * maximize_active_xpm[] = {
"52 48 118 2",
"  	c None",
". 	c #393E5F",
"+ 	c #EFEEED",
"@ 	c #D3D1CF",
"# 	c #D4D2D0",
"$ 	c #D4D3D1",
"% 	c #D5D3D1",
"& 	c #D6D4D2",
"* 	c #D6D4D3",
"= 	c #D7D5D3",
"- 	c #D7D6D4",
"; 	c #D8D6D4",
"> 	c #D8D6D5",
", 	c #D8D7D5",
"' 	c #D9D7D5",
") 	c #D9D8D6",
"! 	c #DAD8D6",
"~ 	c #DAD8D7",
"{ 	c #DAD9D7",
"] 	c #DBD9D7",
"^ 	c #DBDAD8",
"/ 	c #DCDAD9",
"( 	c #DCDBD9",
"_ 	c #DDDBD9",
": 	c #DDDBDA",
"< 	c #DDDCDA",
"[ 	c #DEDCDB",
"} 	c #DEDDDB",
"| 	c #DFDDDC",
"1 	c #DFDEDC",
"2 	c #DFDEDD",
"3 	c #E0DFDD",
"4 	c #E1DFDE",
"5 	c #E1E0DE",
"6 	c #E1E0DF",
"7 	c #E2E1DF",
"8 	c #E2E1E0",
"9 	c #E3E2E0",
"0 	c #E3E2E1",
"a 	c #E4E3E1",
"b 	c #E2E0DF",
"c 	c #E4E3E2",
"d 	c #DBD9D8",
"e 	c #E0DFDE",
"f 	c #E5E4E2",
"g 	c #D4D2D1",
"h 	c #D5D4D2",
"i 	c #E4E4E2",
"j 	c #E5E4E3",
"k 	c #DCDAD8",
"l 	c #DEDCDA",
"m 	c #E0DEDD",
"n 	c #E6E5E3",
"o 	c #D9D7D6",
"p 	c #E6E5E4",
"q 	c #E7E6E4",
"r 	c #E7E6E5",
"s 	c #D7D5D4",
"t 	c #C2C1C5",
"u 	c #6B6F85",
"v 	c #414665",
"w 	c #424665",
"x 	c #6E7287",
"y 	c #C9C8CD",
"z 	c #E7E7E5",
"A 	c #434867",
"B 	c #C9C8CE",
"C 	c #E5E5E3",
"D 	c #E8E7E6",
"E 	c #707388",
"F 	c #434766",
"G 	c #E8E8E6",
"H 	c #E9E8E7",
"I 	c #E8E7E5",
"J 	c #E9E9E7",
"K 	c #EAE9E8",
"L 	c #E6E6E4",
"M 	c #EAEAE8",
"N 	c #EAEAE9",
"O 	c #EBEAE9",
"P 	c #EBEBE9",
"Q 	c #ECEBEA",
"R 	c #ECECEB",
"S 	c #EDECEB",
"T 	c #EBEBEA",
"U 	c #EDEDEB",
"V 	c #EDEDEC",
"W 	c #ECECEA",
"X 	c #EEEDEC",
"Y 	c #E9E8E6",
"Z 	c #EEEEEC",
"` 	c #CFCFD1",
" .	c #D4D5D8",
"..	c #444867",
"+.	c #EEEEED",
"@.	c #6A6E84",
"#.	c #D0D0D1",
"$.	c #6C6F86",
"%.	c #75788D",
"&.	c #C8C8CD",
"*.	c #464A69",
"=.	c #D7D7D9",
"-.	c #EFEFEE",
";.	c #6F7288",
">.	c #F0F0EE",
",.	c #F0F0EF",
"'.	c #F0EFEE",
").	c #F1F1F0",
"!.	c #E3E1E0",
"~.	c #E9E9E8",
"{.	c #F2F1F0",
"].	c #EFEFED",
"^.	c #F1F1EF",
"/.	c #F2F2F1",
"(.	c #F3F3F1",
"_.	c #F3F2F1",
":.	c #F3F3F2",
"<.	c #F4F4F3",
". . + + + + + + + + + + + + + + + + + + + + + + + + + + + + + + + + + + + + + + + + + + + + + + + + . . ",
". . + + + + + + + + + + + + + + + + + + + + + + + + + + + + + + + + + + + + + + + + + + + + + + + + . . ",
". . + + @ # # $ % % & & * = = - ; > , ' ) ! ~ { ] ^ ^ / ( _ : < [ } } | 1 2 3 3 4 5 6 7 7 8 9 0 0 a . . ",
". . + + # # $ % % & & * = = - ; > , ' ) ! ~ { ] ^ ^ / ( ( : < [ } } | 1 2 3 3 4 5 6 b 7 8 9 0 0 a c . . ",
". . + + # $ % % & & * = = - ; > , ' ) ! ~ { ] d ^ / ( ( : < [ } } | 1 2 3 3 e 5 6 b 7 8 9 0 0 a c f . . ",
". . + + g % % & & * = = - ; > , ' ) ! ~ { ] d ^ / ( ( : < [ } } | 1 2 3 3 e 5 6 b 7 8 9 0 0 a c f f . . ",
". . + + % % h & * = = - ; > , ' ) ! ~ { ] d ^ / ( ( : < [ } } | 1 1 3 3 e 5 5 b 7 8 9 9 0 a c i f j . . ",
". . + + % h & * = = - ; > , ' ) ! ! { ] d ^ k ( ( : < l } } | 1 1 m 3 e 5 5 b 7 8 9 9 0 a c i f j n . . ",
". . + + h & & = = - ; ; , ' o ) ! { ] d ^ k ( ( : < l } } | 1 1 m 3 e 5 5 b 7 8 9 9 0 a c i f j n p . . ",
". . + + & & = = - ; ; , ' o ) ! { ] d ^ k ( ( : < l } } | 1 1 m 3 e 5 5 b 7 8 9 9 0 a c i f j n p p . . ",
". . + + & = = - ; ; , ' o ) ! { ] d ^ k ( ( : < < } } | 1 1 m 3 e 5 5 b 7 8 9 9 0 a c c f j n p p q . . ",
". . + + = = - ; ; , ' o ) ! { ] d ^ k ( ( : < < [ } | 1 1 m 3 e 5 5 6 7 8 9 9 0 a c c f j n p p q r . . ",
". . + + = s ; ; , ' o ) ! { ] t u v . . . . . . . . . . . . . . . . w x y 9 0 a c c f j n p p q r z . . ",
". . + + s ; ; , ' o ) ! { ] t A . . . . . . . . . . . . . . . . . . . . A B a c c f j C p p q r z D . . ",
". . + + ; ; , ' o ) ! { ] d u . . . . . . . . . . . . . . . . . . . . . . E c c f j C p p q r z D D . . ",
". . + + ; , ' o ) ! { { d ^ v . . . . . . . . . . . . . . . . . . . . . . F c f j C p p q r z D D G . . ",
". . + + , ' o ) ! { { d ^ k . . . . . . . . . . . . . . . . . . . . . . . . f j C p p q r z D D G H . . ",
". . + + ' o ) ! { { d ^ k / . . . . . . . . . . . . . . . . . . . . . . . . j C p p q r r D D G H H . . ",
". . + + o ) ! { { d ^ k / ( . . . . . . . . . . . . . . . . . . . . . . . . C n p q r r I D G H H J . . ",
". . + + ) ! ~ { d ^ k / ( : . . . . . . . . . . . . . . . . . . . . . . . . n p q r r I D G H H J K . . ",
". . + + ! ~ { ] ^ k / ( _ < . . } } 1 1 m 3 3 4 5 6 7 7 8 9 0 a a c f j . . p L r r I D G H H J K M . . ",
". . + + ~ { ] ^ k / ( _ < < . . } 1 1 m 3 3 4 5 6 7 7 8 9 0 a a c f j j . . L r r I D G H H J K M N . . ",
". . + + { ] ^ ^ / ( _ < < [ . . | 1 m 3 3 4 5 6 7 7 8 9 0 a a c f j j n . . r r I D G H H J K M N O . . ",
". . + + ] ^ ^ / ( _ < < [ } . . 1 2 3 3 4 5 6 7 7 8 9 0 a a c f j j n p . . r I D G H H J K M N O P . . ",
". . + + ^ ^ / ( _ < < [ } } . . 2 3 3 4 5 6 7 7 8 9 0 a a c f j j n p L . . I D G H H J K K N O P Q . . ",
". . + + ^ / ( _ < < [ } } | . . 3 3 4 5 6 7 7 8 9 0 0 a c f j j n p L r . . D G H H J K K N O P Q Q . . ",
". . + + / ( _ : < [ } } | 1 . . 3 4 5 6 7 7 8 9 0 0 a c f j j n p L r r . . G H H J K K N O P Q Q R . . ",
". . + + ( _ : < [ } } | 1 2 . . 4 5 6 7 7 8 9 0 0 a c f j j n p L r r z . . H H J K K N O P Q Q R S . . ",
". . + + _ : < [ } } | 1 2 3 . . 5 6 7 7 8 9 0 0 a c f j j n p L r r z D . . H J K K N O P T Q R S U . . ",
". . + + : < [ } } | 1 2 3 3 . . 6 b 7 8 9 0 0 a c f j j n p L r r z D D . . J K K N O P T Q R S U V . . ",
". . + + < [ } } | 1 2 3 3 e . . b 7 8 9 0 0 a c f j j n p L r r z D D H . . K K M O P T Q W S U V X . . ",
". . + + [ } } | 1 2 3 3 e 5 . . 7 8 9 0 0 a c f f j n p L q r z D D Y H . . K M O P T Q W S S V X Z . . ",
". . + + } } | 1 1 3 3 e 5 5 w . ` 9 9 0 a c i f j n p p q r z D D Y H  .. ..M O P T Q W S S V X Z +.. . ",
". . + + } | 1 1 m 3 e 5 5 b x . @.#.0 a c i f j n p p q r z D D G H  .$.. %.O P T Q W S S V X Z +.+ . . ",
". . + + | 1 1 m 3 e 5 5 b 7 &.A . . . . . . . . . . . . . . . . . . . . *.=.P T Q W S S V X Z +.+ -.. . ",
". . + + 1 1 m 3 e 5 5 b 7 8 9 y ;.F . . . . . . . . . . . . . . . . A %.=.O T Q W R S V X Z +.+ -.-.. . ",
". . + + 1 m 3 e 5 5 b 7 8 9 9 0 a c c f j n p p q r z D D G H J K K M O O T Q W R S V X Z +.+ -.-.>.. . ",
". . + + m 3 e 5 5 6 7 8 9 9 0 a c c f j n p p q r z D D G H J K K M O O T Q W R S V X Z +.+ -.-.>.,.. . ",
". . + + 3 e 5 5 6 7 8 9 9 0 a c c f j n p p q r z D D G H J K K M O O T Q W R S V X Z +.+ -.-.'.,.,.. . ",
". . + + e 5 5 6 7 8 9 9 0 a c c f j C p p q r z D D G H H K K M O O T Q W R S V X Z +.+ -.-.'.,.,.).. . ",
". . + + 5 5 6 7 8 !.9 0 a c c f j C p p q r z D D G H H ~.K M O O T Q W R S V X Z +.+ -.-.'.,.,.).).. . ",
". . + + 5 6 7 8 !.9 0 a c c f j C p p q r z D D G H H ~.K M O O T Q W R S V X Z +.+ -.-.'.,.,.).).{.. . ",
". . + + 6 7 8 !.9 0 a c c f j C p p q r z D D G H H ~.K M O O T Q W R S V V X +.+ ].-.'.,.,.^.).{./.. . ",
". . + + 7 8 !.9 0 a c c f j C p p q r r D D G H H J K M O O P Q W R S U V X +.+ ].-.'.,.,.^.).{././.. . ",
". . + + 8 8 9 0 a a c f j C n p q r r I D G H H J K M O O P Q W R S U V X +.+ ].-.'.,.,.^.).)././.(.. . ",
". . + + 8 9 0 a a c f j C n p q r r I D G H H J K M O O P Q W R S U V X +.+ ].-.'.,.,.^.).)././._.:.. . ",
". . + + 9 0 a a c f j C n p L r r I D G H H J K M O O P Q Q R S U V X +.+ ].-.'.,.,.^.).)././._.:.:.. . ",
". . + + 0 a a c f j j n p L r r I D G H H J K M N O P Q Q R S U V X +.+ ].-.'.,.,.^.).)././._.:.:.<.. . "};
