/* XPM */
static char * stick_pressed_xpm[] = {
"52 48 131 2",
"  	c None",
". 	c #393E5F",
"+ 	c #EFEEED",
"@ 	c #D3D1CF",
"# 	c #D4D2D0",
"$ 	c #D4D3D1",
"% 	c #D5D3D1",
"& 	c #D6D4D2",
"* 	c #D6D4D3",
"= 	c #D7D5D3",
"- 	c #D7D6D4",
"; 	c #D8D6D4",
"> 	c #D8D6D5",
", 	c #D8D7D5",
"' 	c #D9D7D5",
") 	c #D9D8D6",
"! 	c #DAD8D6",
"~ 	c #DAD8D7",
"{ 	c #DAD9D7",
"] 	c #DBD9D7",
"^ 	c #DBDAD8",
"/ 	c #DCDAD9",
"( 	c #DCDBD9",
"_ 	c #DDDBD9",
": 	c #DDDBDA",
"< 	c #DDDCDA",
"[ 	c #DEDCDB",
"} 	c #DEDDDB",
"| 	c #DFDDDC",
"1 	c #DFDEDC",
"2 	c #DFDEDD",
"3 	c #E0DFDD",
"4 	c #E1DFDE",
"5 	c #E1E0DE",
"6 	c #E1E0DF",
"7 	c #E2E1DF",
"8 	c #E2E1E0",
"9 	c #E3E2E0",
"0 	c #E3E2E1",
"a 	c #E4E3E1",
"b 	c #E2E0DF",
"c 	c #E4E3E2",
"d 	c #DBD9D8",
"e 	c #E0DFDE",
"f 	c #E5E4E2",
"g 	c #D4D2D1",
"h 	c #D5D4D2",
"i 	c #E4E4E2",
"j 	c #E5E4E3",
"k 	c #DCDAD8",
"l 	c #DEDCDA",
"m 	c #E0DEDD",
"n 	c #E6E5E3",
"o 	c #D9D7D6",
"p 	c #E6E5E4",
"q 	c #E7E6E4",
"r 	c #E7E6E5",
"s 	c #D7D5D4",
"t 	c #D4D3D2",
"u 	c #C5C4C4",
"v 	c #BABABA",
"w 	c #B5B4B4",
"x 	c #B3B3B3",
"y 	c #B5B5B5",
"z 	c #BBBBBA",
"A 	c #C7C7C6",
"B 	c #D9D8D8",
"C 	c #E7E7E5",
"D 	c #C4C3C3",
"E 	c #B4B4B4",
"F 	c #C6C6C5",
"G 	c #E5E5E3",
"H 	c #E8E7E6",
"I 	c #BDBDBD",
"J 	c #BFBFBE",
"K 	c #C8C7C7",
"L 	c #E8E8E6",
"M 	c #DCDBDA",
"N 	c #E9E8E7",
"O 	c #C4C4C3",
"P 	c #C9C8C7",
"Q 	c #C0BFBF",
"R 	c #DAD9D8",
"S 	c #DDDCDB",
"T 	c #C1C1C0",
"U 	c #BCBBBB",
"V 	c #E8E7E5",
"W 	c #E9E9E7",
"X 	c #B6B6B6",
"Y 	c #EAE9E8",
"Z 	c #E6E6E4",
"` 	c #EAEAE8",
" .	c #EAEAE9",
"..	c #EBEAE9",
"+.	c #EBEBE9",
"@.	c #ECEBEA",
"#.	c #ECECEB",
"$.	c #EDECEB",
"%.	c #E0E0DE",
"&.	c #EBEBEA",
"*.	c #EDEDEB",
"=.	c #BBBBBB",
"-.	c #DEDDDC",
";.	c #C2C2C2",
">.	c #BCBCBC",
",.	c #EDEDEC",
"'.	c #CBCBCA",
").	c #ECECEA",
"!.	c #EEEDEC",
"~.	c #EEEEEC",
"{.	c #CACAC9",
"].	c #EEEEED",
"^.	c #C1C0C0",
"/.	c #E8E8E7",
"(.	c #C7C7C7",
"_.	c #EFEFEE",
":.	c #C8C8C7",
"<.	c #F0F0EE",
"[.	c #F0F0EF",
"}.	c #F0EFEE",
"|.	c #F1F1F0",
"1.	c #E3E1E0",
"2.	c #E9E9E8",
"3.	c #F2F1F0",
"4.	c #EFEFED",
"5.	c #F1F1EF",
"6.	c #F2F2F1",
"7.	c #F3F3F1",
"8.	c #F3F2F1",
"9.	c #F3F3F2",
"0.	c #F4F4F3",
". . + + + + + + + + + + + + + + + + + + + + + + + + + + + + + + + + + + + + + + + + + + + + + + + + . . ",
". . + + + + + + + + + + + + + + + + + + + + + + + + + + + + + + + + + + + + + + + + + + + + + + + + . . ",
". . + + @ # # $ % % & & * = = - ; > , ' ) ! ~ { ] ^ ^ / ( _ : < [ } } | 1 2 3 3 4 5 6 7 7 8 9 0 0 a . . ",
". . + + # # $ % % & & * = = - ; > , ' ) ! ~ { ] ^ ^ / ( ( : < [ } } | 1 2 3 3 4 5 6 b 7 8 9 0 0 a c . . ",
". . + + # $ % % & & * = = - ; > , ' ) ! ~ { ] d ^ / ( ( : < [ } } | 1 2 3 3 e 5 6 b 7 8 9 0 0 a c f . . ",
". . + + g % % & & * = = - ; > , ' ) ! ~ { ] d ^ / ( ( : < [ } } | 1 2 3 3 e 5 6 b 7 8 9 0 0 a c f f . . ",
". . + + % % h & * = = - ; > , ' ) ! ~ { ] d ^ / ( ( : < [ } } | 1 1 3 3 e 5 5 b 7 8 9 9 0 a c i f j . . ",
". . + + % h & * = = - ; > , ' ) ! ! { ] d ^ k ( ( : < l } } | 1 1 m 3 e 5 5 b 7 8 9 9 0 a c i f j n . . ",
". . + + h & & = = - ; ; , ' o ) ! { ] d ^ k ( ( : < l } } | 1 1 m 3 e 5 5 b 7 8 9 9 0 a c i f j n p . . ",
". . + + & & = = - ; ; , ' o ) ! { ] d ^ k ( ( : < l } } | 1 1 m 3 e 5 5 b 7 8 9 9 0 a c i f j n p p . . ",
". . + + & = = - ; ; , ' o ) ! { ] d ^ k ( ( : < < } } | 1 1 m 3 e 5 5 b 7 8 9 9 0 a c c f j n p p q . . ",
". . + + = = - ; ; , ' o ) ! { ] d ^ k ( ( : < < [ } | 1 1 m 3 e 5 5 6 7 8 9 9 0 a c c f j n p p q r . . ",
". . + + = s ; ; , ' o ) ! { ] d ^ k t u v w x x x x x x x x y z A B 7 8 9 9 0 a c c f j n p p q r C . . ",
". . + + s ; ; , ' o ) ! { ] d ^ ] D E x x x x x x x x x x x x x x E F 7 9 0 a c c f j G p p q r C H . . ",
". . + + ; ; , ' o ) ! { ] d ^ ] I x x x x x x x x x x x x x x x x x x J 8 a c c f j G p p q r C H H . . ",
". . + + ; , ' o ) ! { { d ^ k D x x x x x x x x x x x x x x x x x x x x K c c f j G p p q r C H H L . . ",
". . + + , ' o ) ! { { d ^ k t E x x x x x x x x x x x x x x x x x x x x E M f j G p p q r C H H L N . . ",
". . + + ' o ) ! { { d ^ k / O x x x x x x x x x x x x x x x x x x x x x x P j G p p q r r H H L N N . . ",
". . + + o ) ! { { d ^ k / ( v x x x x x Q R m 3 e 4 5 6 7 8 S T x x x x x U G n p q r r V H L N N W . . ",
". . + + ) ! ~ { d ^ k / ( : y x x x x x ^ m 3 3 4 5 6 7 7 8 9 S x x x x x X n p q r r V H L N N W Y . . ",
". . + + ! ~ { ] ^ k / ( _ < x x x x x x m 3 3 4 5 6 7 7 8 9 0 a x x x x x x p Z r r V H L N N W Y ` . . ",
". . + + ~ { ] ^ k / ( _ < < x x x x x x 3 3 4 5 6 7 7 8 9 0 a a x x x x x x Z r r V H L N N W Y `  .. . ",
". . + + { ] ^ ^ / ( _ < < [ x x x x x x 3 4 5 6 7 7 8 9 0 a a c x x x x x x r r V H L N N W Y `  .... . ",
". . + + ] ^ ^ / ( _ < < [ } x x x x x x 4 5 6 7 7 8 9 0 a a c f x x x x x x r V H L N N W Y `  ...+.. . ",
". . + + ^ ^ / ( _ < < [ } } x x x x x x 5 6 7 7 8 9 0 a a c f j x x x x x x V H L N N W Y Y  ...+.@.. . ",
". . + + ^ / ( _ < < [ } } | x x x x x x 6 7 7 8 9 0 0 a c f j j x x x x x x H L N N W Y Y  ...+.@.@.. . ",
". . + + / ( _ : < [ } } | 1 x x x x x x 7 7 8 9 0 0 a c f j j n x x x x x x L N N W Y Y  ...+.@.@.#.. . ",
". . + + ( _ : < [ } } | 1 2 x x x x x x 7 8 9 0 0 a c f j j n p x x x x x x N N W Y Y  ...+.@.@.#.$.. . ",
". . + + _ : < [ } } | 1 2 3 y x x x x x S 9 0 0 a c f j j n p %.x x x x x X N W Y Y  ...+.&.@.#.$.*.. . ",
". . + + : < [ } } | 1 2 3 3 =.x x x x x T -.0 a c f j j n p %.;.x x x x x >.W Y Y  ...+.&.@.#.$.*.,.. . ",
". . + + < [ } } | 1 2 3 3 e A x x x x x x x x x x x x x x x x x x x x x x '.Y Y ` ..+.&.@.).$.*.,.!.. . ",
". . + + [ } } | 1 2 3 3 e 5 B E x x x x x x x x x x x x x x x x x x x x E 6 Y ` ..+.&.@.).$.$.,.!.~.. . ",
". . + + } } | 1 1 3 3 e 5 5 b F x x x x x x x x x x x x x x x x x x x x {.Y ` ..+.&.@.).$.$.,.!.~.].. . ",
". . + + } | 1 1 m 3 e 5 5 b 7 6 J x x x x x x x x x x x x x x x x x x ^./.` ..+.&.@.).$.$.,.!.~.].+ . . ",
". . + + | 1 1 m 3 e 5 5 b 7 8 9 7 (.E x x x x x x x x x x x x x x E {./.` ..+.&.@.).$.$.,.!.~.].+ _.. . ",
". . + + 1 1 m 3 e 5 5 b 7 8 9 9 0 a M :.U X x x x x x x x x X >.'.6 Y ` ....&.@.).#.$.,.!.~.].+ _._.. . ",
". . + + 1 m 3 e 5 5 b 7 8 9 9 0 a c c f j n p p q r C H H L N W Y Y ` ....&.@.).#.$.,.!.~.].+ _._.<.. . ",
". . + + m 3 e 5 5 6 7 8 9 9 0 a c c f j n p p q r C H H L N W Y Y ` ....&.@.).#.$.,.!.~.].+ _._.<.[.. . ",
". . + + 3 e 5 5 6 7 8 9 9 0 a c c f j n p p q r C H H L N W Y Y ` ....&.@.).#.$.,.!.~.].+ _._.}.[.[.. . ",
". . + + e 5 5 6 7 8 9 9 0 a c c f j G p p q r C H H L N N Y Y ` ....&.@.).#.$.,.!.~.].+ _._.}.[.[.|.. . ",
". . + + 5 5 6 7 8 1.9 0 a c c f j G p p q r C H H L N N 2.Y ` ....&.@.).#.$.,.!.~.].+ _._.}.[.[.|.|.. . ",
". . + + 5 6 7 8 1.9 0 a c c f j G p p q r C H H L N N 2.Y ` ....&.@.).#.$.,.!.~.].+ _._.}.[.[.|.|.3.. . ",
". . + + 6 7 8 1.9 0 a c c f j G p p q r C H H L N N 2.Y ` ....&.@.).#.$.,.,.!.].+ 4._.}.[.[.5.|.3.6.. . ",
". . + + 7 8 1.9 0 a c c f j G p p q r r H H L N N W Y ` ....+.@.).#.$.*.,.!.].+ 4._.}.[.[.5.|.3.6.6.. . ",
". . + + 8 8 9 0 a a c f j G n p q r r V H L N N W Y ` ....+.@.).#.$.*.,.!.].+ 4._.}.[.[.5.|.|.6.6.7.. . ",
". . + + 8 9 0 a a c f j G n p q r r V H L N N W Y ` ....+.@.).#.$.*.,.!.].+ 4._.}.[.[.5.|.|.6.6.8.9.. . ",
". . + + 9 0 a a c f j G n p Z r r V H L N N W Y ` ....+.@.@.#.$.*.,.!.].+ 4._.}.[.[.5.|.|.6.6.8.9.9.. . ",
". . + + 0 a a c f j j n p Z r r V H L N N W Y `  ...+.@.@.#.$.*.,.!.].+ 4._.}.[.[.5.|.|.6.6.8.9.9.0.. . "};
