/* XPM */
static char * hide_inactive_xpm[] = {
"52 48 70 1",
" 	c None",
".	c #EFEEED",
"+	c #EBEAE9",
"@	c #EAE9E8",
"#	c #E9E8E7",
"$	c #E9E8E6",
"%	c #E8E7E6",
"&	c #E7E6E5",
"*	c #E7E5E4",
"=	c #E6E5E3",
"-	c #E5E4E3",
";	c #E5E3E2",
">	c #E4E3E1",
",	c #E3E2E1",
"'	c #E3E1E0",
")	c #E2E1DF",
"!	c #E1E0DE",
"~	c #E1DFDE",
"{	c #E0DFDD",
"]	c #DFDEDC",
"^	c #DFDDDB",
"/	c #DEDCDB",
"(	c #DDDCDA",
"_	c #DDDBD9",
":	c #DCDAD8",
"<	c #DBDAD8",
"[	c #DAD9D7",
"}	c #DAD8D6",
"|	c #D9D8D5",
"1	c #C8C7C4",
"2	c #8E8C8A",
"3	c #72706E",
"4	c #6D6A68",
"5	c #8F8D8A",
"6	c #C9C7C4",
"7	c #D8D7D5",
"8	c #C7C6C4",
"9	c #74706E",
"0	c #C8C6C4",
"a	c #D8D6D4",
"b	c #8E8B8A",
"c	c #8F8D8B",
"d	c #D7D5D3",
"e	c #73706E",
"f	c #D6D5D2",
"g	c #74716E",
"h	c #D6D4D2",
"i	c #8E8C89",
"j	c #908D8C",
"k	c #D5D3D1",
"l	c #C5C3C1",
"m	c #757270",
"n	c #CAC8C5",
"o	c #D4D3D0",
"p	c #C5C3C0",
"q	c #8D8B89",
"r	c #73706D",
"s	c #C9C8C4",
"t	c #D4D2D0",
"u	c #D3D1CF",
"v	c #D2D1CE",
"w	c #D2D0CD",
"x	c #D1CFCD",
"y	c #D0CFCC",
"z	c #D0CECB",
"A	c #CFCDCA",
"B	c #CECCCA",
"C	c #CECCC9",
"D	c #CDCBC8",
"E	c #CCCAC7",
"....................................................",
"....................................................",
"++++++++++++++++++++++++++++++++++++++++++++++++++++",
"@@@@@@@@@@@@@@@@@@@@@@@@@@@@@@@@@@@@@@@@@@@@@@@@@@@@",
"####################################################",
"$$$$$$$$$$$$$$$$$$$$$$$$$$$$$$$$$$$$$$$$$$$$$$$$$$$$",
"%%%%%%%%%%%%%%%%%%%%%%%%%%%%%%%%%%%%%%%%%%%%%%%%%%%%",
"&&&&&&&&&&&&&&&&&&&&&&&&&&&&&&&&&&&&&&&&&&&&&&&&&&&&",
"****************************************************",
"====================================================",
"----------------------------------------------------",
";;;;;;;;;;;;;;;;;;;;;;;;;;;;;;;;;;;;;;;;;;;;;;;;;;;;",
">>>>>>>>>>>>>>>>>>>>>>>>>>>>>>>>>>>>>>>>>>>>>>>>>>>>",
",,,,,,,,,,,,,,,,,,,,,,,,,,,,,,,,,,,,,,,,,,,,,,,,,,,,",
"''''''''''''''''''''''''''''''''''''''''''''''''''''",
"))))))))))))))))))))))))))))))))))))))))))))))))))))",
"!!!!!!!!!!!!!!!!!!!!!!!!!!!!!!!!!!!!!!!!!!!!!!!!!!!!",
"~~~~~~~~~~~~~~~~~~~~~~~~~~~~~~~~~~~~~~~~~~~~~~~~~~~~",
"{{{{{{{{{{{{{{{{{{{{{{{{{{{{{{{{{{{{{{{{{{{{{{{{{{{{",
"]]]]]]]]]]]]]]]]]]]]]]]]]]]]]]]]]]]]]]]]]]]]]]]]]]]]",
"^^^^^^^^^^^^^^^^^^^^^^^^^^^^^^^^^^^^^^^^^^^^^^^^^^^^",
"////////////////////////////////////////////////////",
"((((((((((((((((((((((((((((((((((((((((((((((((((((",
"____________________________________________________",
"::::::::::::::::::::::::::::::::::::::::::::::::::::",
"<<<<<<<<<<<<<<<<<<<<<<<<<<<<<<<<<<<<<<<<<<<<<<<<<<<<",
"[[[[[[[[[[[[[[[[[[[[[[[[[[[[[[[[[[[[[[[[[[[[[[[[[[[[",
"}}}}}}}}}}}}}}}}}}}}}}}}}}}}}}}}}}}}}}}}}}}}}}}}}}}}",
"|||||||||||||||1234444444444444444356|||||||||||||||",
"7777777777777789444444444444444444449077777777777777",
"aaaaaaaaaaaaaab4444444444444444444444caaaaaaaaaaaaaa",
"dddddddddddddd34444444444444444444444edddddddddddddd",
"ffffffffffffff34444444444444444444444gffffffffffffff",
"hhhhhhhhhhhhhhi4444444444444444444444jhhhhhhhhhhhhhh",
"kkkkkkkkkkkkkkle44444444444444444444mnkkkkkkkkkkkkkk",
"ooooooooooooooopqr4444444444444444rcsooooooooooooooo",
"tttttttttttttttttttttttttttttttttttttttttttttttttttt",
"uuuuuuuuuuuuuuuuuuuuuuuuuuuuuuuuuuuuuuuuuuuuuuuuuuuu",
"vvvvvvvvvvvvvvvvvvvvvvvvvvvvvvvvvvvvvvvvvvvvvvvvvvvv",
"wwwwwwwwwwwwwwwwwwwwwwwwwwwwwwwwwwwwwwwwwwwwwwwwwwww",
"xxxxxxxxxxxxxxxxxxxxxxxxxxxxxxxxxxxxxxxxxxxxxxxxxxxx",
"yyyyyyyyyyyyyyyyyyyyyyyyyyyyyyyyyyyyyyyyyyyyyyyyyyyy",
"zzzzzzzzzzzzzzzzzzzzzzzzzzzzzzzzzzzzzzzzzzzzzzzzzzzz",
"AAAAAAAAAAAAAAAAAAAAAAAAAAAAAAAAAAAAAAAAAAAAAAAAAAAA",
"BBBBBBBBBBBBBBBBBBBBBBBBBBBBBBBBBBBBBBBBBBBBBBBBBBBB",
"CCCCCCCCCCCCCCCCCCCCCCCCCCCCCCCCCCCCCCCCCCCCCCCCCCCC",
"DDDDDDDDDDDDDDDDDDDDDDDDDDDDDDDDDDDDDDDDDDDDDDDDDDDD",
"EEEEEEEEEEEEEEEEEEEEEEEEEEEEEEEEEEEEEEEEEEEEEEEEEEEE"};
