/* XPM */
static char * shade_toggled_pressed_xpm[] = {
"52 48 131 2",
"  	c None",
". 	c #393E5F",
"+ 	c #EFEEED",
"@ 	c #D3D1CF",
"# 	c #D4D2D0",
"$ 	c #D4D3D1",
"% 	c #D5D3D1",
"& 	c #D6D4D2",
"* 	c #D6D4D3",
"= 	c #D7D5D3",
"- 	c #D7D6D4",
"; 	c #D8D6D4",
"> 	c #D8D6D5",
", 	c #D8D7D5",
"' 	c #D9D7D5",
") 	c #D9D8D6",
"! 	c #DAD8D6",
"~ 	c #DAD8D7",
"{ 	c #DAD9D7",
"] 	c #DBD9D7",
"^ 	c #DBDAD8",
"/ 	c #DCDAD9",
"( 	c #DCDBD9",
"_ 	c #DDDBD9",
": 	c #DDDBDA",
"< 	c #DDDCDA",
"[ 	c #DEDCDB",
"} 	c #DEDDDB",
"| 	c #DFDDDC",
"1 	c #DFDEDC",
"2 	c #DFDEDD",
"3 	c #E0DFDD",
"4 	c #E1DFDE",
"5 	c #E1E0DE",
"6 	c #E1E0DF",
"7 	c #E2E1DF",
"8 	c #E2E1E0",
"9 	c #E3E2E0",
"0 	c #E3E2E1",
"a 	c #E4E3E1",
"b 	c #E2E0DF",
"c 	c #E4E3E2",
"d 	c #DBD9D8",
"e 	c #E0DFDE",
"f 	c #E5E4E2",
"g 	c #D4D2D1",
"h 	c #D5D4D2",
"i 	c #E4E4E2",
"j 	c #E5E4E3",
"k 	c #DCDAD8",
"l 	c #DEDCDA",
"m 	c #E0DEDD",
"n 	c #E6E5E3",
"o 	c #D9D7D6",
"p 	c #E6E5E4",
"q 	c #E7E6E4",
"r 	c #CBCBCA",
"s 	c #CCCBCA",
"t 	c #E7E6E5",
"u 	c #D7D5D4",
"v 	c #CDCBCB",
"w 	c #B3B3B3",
"x 	c #CECDCC",
"y 	c #E7E7E5",
"z 	c #B4B3B3",
"A 	c #D9D9D8",
"B 	c #E5E5E3",
"C 	c #E8E7E6",
"D 	c #CDCDCB",
"E 	c #E3E1E0",
"F 	c #C9C8C8",
"G 	c #CACAC9",
"H 	c #E8E8E6",
"I 	c #DEDDDC",
"J 	c #C9C9C8",
"K 	c #E9E8E7",
"L 	c #CBCAC9",
"M 	c #CAC9C8",
"N 	c #CBCACA",
"O 	c #E8E7E5",
"P 	c #E9E9E7",
"Q 	c #CFCECD",
"R 	c #CFCECE",
"S 	c #EAE9E8",
"T 	c #CCCBCB",
"U 	c #D0CFCE",
"V 	c #B4B4B4",
"W 	c #D1D1D0",
"X 	c #E6E6E4",
"Y 	c #EAEAE8",
"Z 	c #CBCBC9",
"` 	c #CAC9C9",
" .	c #CDCDCC",
"..	c #EAEAE9",
"+.	c #C0BFBF",
"@.	c #C0C0C0",
"#.	c #D0D0CF",
"$.	c #EBEAE9",
"%.	c #D1D0CF",
"&.	c #EBEBE9",
"*.	c #DFDFDE",
"=.	c #ECEBEA",
"-.	c #ECECEB",
";.	c #CCCCCB",
">.	c #CECECD",
",.	c #EDECEB",
"'.	c #EBEBEA",
").	c #EDEDEB",
"!.	c #CDCCCC",
"~.	c #EDEDEC",
"{.	c #ECECEA",
"].	c #EEEDEC",
"^.	c #E9E8E6",
"/.	c #EEEEEC",
"(.	c #EEEEED",
"_.	c #C4C3C3",
":.	c #C3C3C3",
"<.	c #EFEFEE",
"[.	c #F0F0EE",
"}.	c #F0F0EF",
"|.	c #F0EFEE",
"1.	c #F1F1F0",
"2.	c #E9E9E8",
"3.	c #F2F1F0",
"4.	c #EFEFED",
"5.	c #F1F1EF",
"6.	c #F2F2F1",
"7.	c #F3F3F1",
"8.	c #F3F2F1",
"9.	c #F3F3F2",
"0.	c #F4F4F3",
". . + + + + + + + + + + + + + + + + + + + + + + + + + + + + + + + + + + + + + + + + + + + + + + + + . . ",
". . + + + + + + + + + + + + + + + + + + + + + + + + + + + + + + + + + + + + + + + + + + + + + + + + . . ",
". . + + @ # # $ % % & & * = = - ; > , ' ) ! ~ { ] ^ ^ / ( _ : < [ } } | 1 2 3 3 4 5 6 7 7 8 9 0 0 a . . ",
". . + + # # $ % % & & * = = - ; > , ' ) ! ~ { ] ^ ^ / ( ( : < [ } } | 1 2 3 3 4 5 6 b 7 8 9 0 0 a c . . ",
". . + + # $ % % & & * = = - ; > , ' ) ! ~ { ] d ^ / ( ( : < [ } } | 1 2 3 3 e 5 6 b 7 8 9 0 0 a c f . . ",
". . + + g % % & & * = = - ; > , ' ) ! ~ { ] d ^ / ( ( : < [ } } | 1 2 3 3 e 5 6 b 7 8 9 0 0 a c f f . . ",
". . + + % % h & * = = - ; > , ' ) ! ~ { ] d ^ / ( ( : < [ } } | 1 1 3 3 e 5 5 b 7 8 9 9 0 a c i f j . . ",
". . + + % h & * = = - ; > , ' ) ! ! { ] d ^ k ( ( : < l } } | 1 1 m 3 e 5 5 b 7 8 9 9 0 a c i f j n . . ",
". . + + h & & = = - ; ; , ' o ) ! { ] d ^ k ( ( : < l } } | 1 1 m 3 e 5 5 b 7 8 9 9 0 a c i f j n p . . ",
". . + + & & = = - ; ; , ' o ) ! { ] d ^ k ( ( : < l } } | 1 1 m 3 e 5 5 b 7 8 9 9 0 a c i f j n p p . . ",
". . + + & = = - ; ; , ' o ) ! { ] d ^ k ( ( : < < } } | 1 1 m 3 e 5 5 b 7 8 9 9 0 a c c f j n p p q . . ",
". . + + = = - ; ; , ' o ) ! { ] d ^ k ( ( : < < > r s ) 1 m 3 e 5 5 6 7 8 9 9 0 a c c f j n p p q t . . ",
". . + + = u ; ; , ' o ) ! { ] d ^ k ( ( : < < v w w w w x 3 e 5 5 6 7 8 9 9 0 a c c f j n p p q t y . . ",
". . + + u ; ; , ' o ) ! { ] d ^ k ( ( : < < > w w w w w z A 5 5 6 7 8 9 9 0 a c c f j B p p q t y C . . ",
". . + + ; ; , ' o ) ! { ] d ^ k ( ( : < < [ r w w w w w w D 5 6 7 8 E 9 0 a c c f j B p p q t y C C . . ",
". . + + ; , ' o ) ! { { d ^ k / ( : < < [ } F w w w w w w G 6 7 8 E 9 0 a c c f j B p p q t y C C H . . ",
". . + + , ' o ) ! { { d ^ k / ( : < < [ } I J w w w w w w G 7 8 E 9 0 a c c f j B p p q t y C C H K . . ",
". . + + ' o ) ! { { d ^ k / ( : < < [ } I 1 J w w w w w w L 8 E 9 0 a c c f j B p p q t t C C H K K . . ",
". . + + o ) ! { { d ^ k / ( : < < [ } I 1 1 M w w w w w w N 8 9 0 a a c f j B n p q t t O C H K K P . . ",
". . + + ) ! ~ { d ^ k / ( : < < > r r ) 1 m M w w w w w w N 9 0 < Q R } j B n p q t t O C H K K P S . . ",
". . + + ! ~ { ] ^ k / ( _ < < v w w w w T 3 M w w w w w w r 0 U V w w V W n p X t t O C H K K P S Y . . ",
". . + + ~ { ] ^ k / ( _ < < > w w w w w w Z ` w w w w w w r  .w w w w w V 2 X t t O C H K K P S Y ... . ",
". . + + { ] ^ ^ / ( _ < < [ r w w w w w w w +.w w w w w w @.w w w w w w w #.t t O C H K K P S Y ..$.. . ",
". . + + ] ^ ^ / ( _ < < [ } r w w w w w w w w w w w w w w w w w w w w w w %.t O C H K K P S Y ..$.&.. . ",
". . + + ^ ^ / ( _ < < [ } } o w w w w w w w w w w w w w w w w w w w w w V *.O C H K K P S S ..$.&.=.. . ",
". . + + ^ / ( _ < < [ } } | 1 T w w w w w w w w w w w w w w w w w w w w W O C H K K P S S ..$.&.=.=.. . ",
". . + + / ( _ : < [ } } | 1 2 3 Z w w w w w w w w w w w w w w w w w w R O C H K K P S S ..$.&.=.=.-.. . ",
". . + + ( _ : < [ } } | 1 2 3 3 4 ;.w w w w w w w w w w w w w w w w >.y C H K K P S S ..$.&.=.=.-.,.. . ",
". . + + _ : < [ } } | 1 2 3 3 4 5 6 ;.w w w w w w w w w w w w w w R y C C K K P S S ..$.&.'.=.-.,.).. . ",
". . + + : < [ } } | 1 2 3 3 4 5 6 b 7 !.w w w w w w w w w w w w >.y C C K K P S S ..$.&.'.=.-.,.).~.. . ",
". . + + < [ } } | 1 2 3 3 e 5 6 b 7 8 9 !.w w w w w w w w w w R y C C K K P S S Y $.&.'.=.{.,.).~.].. . ",
". . + + [ } } | 1 2 3 3 e 5 6 b 7 8 9 0 0 x w w w w w w w w >.y C C ^.K P S S Y $.&.'.=.{.,.,.~.]./.. . ",
". . + + } } | 1 1 3 3 e 5 5 b 7 8 9 9 0 a c G w w w w w w G y C C ^.K P S S Y $.&.'.=.{.,.,.~.]./.(.. . ",
". . + + } | 1 1 m 3 e 5 5 b 7 8 9 9 0 a c i f _.w w w w :.y C C H K P S S Y $.&.'.=.{.,.,.~.]./.(.+ . . ",
". . + + | 1 1 m 3 e 5 5 b 7 8 9 9 0 a c i f j n r w w G y C C H K P S S Y $.&.'.=.{.,.,.~.]./.(.+ <.. . ",
". . + + 1 1 m 3 e 5 5 b 7 8 9 9 0 a c i f j n p p Q R y C C H K P S S Y $.$.'.=.{.-.,.~.]./.(.+ <.<.. . ",
". . + + 1 m 3 e 5 5 b 7 8 9 9 0 a c c f j n p p q t y C C H K P S S Y $.$.'.=.{.-.,.~.]./.(.+ <.<.[.. . ",
". . + + m 3 e 5 5 6 7 8 9 9 0 a c c f j n p p q t y C C H K P S S Y $.$.'.=.{.-.,.~.]./.(.+ <.<.[.}.. . ",
". . + + 3 e 5 5 6 7 8 9 9 0 a c c f j n p p q t y C C H K P S S Y $.$.'.=.{.-.,.~.]./.(.+ <.<.|.}.}.. . ",
". . + + e 5 5 6 7 8 9 9 0 a c c f j B p p q t y C C H K K S S Y $.$.'.=.{.-.,.~.]./.(.+ <.<.|.}.}.1.. . ",
". . + + 5 5 6 7 8 E 9 0 a c c f j B p p q t y C C H K K 2.S Y $.$.'.=.{.-.,.~.]./.(.+ <.<.|.}.}.1.1.. . ",
". . + + 5 6 7 8 E 9 0 a c c f j B p p q t y C C H K K 2.S Y $.$.'.=.{.-.,.~.]./.(.+ <.<.|.}.}.1.1.3.. . ",
". . + + 6 7 8 E 9 0 a c c f j B p p q t y C C H K K 2.S Y $.$.'.=.{.-.,.~.~.].(.+ 4.<.|.}.}.5.1.3.6.. . ",
". . + + 7 8 E 9 0 a c c f j B p p q t t C C H K K P S Y $.$.&.=.{.-.,.).~.].(.+ 4.<.|.}.}.5.1.3.6.6.. . ",
". . + + 8 8 9 0 a a c f j B n p q t t O C H K K P S Y $.$.&.=.{.-.,.).~.].(.+ 4.<.|.}.}.5.1.1.6.6.7.. . ",
". . + + 8 9 0 a a c f j B n p q t t O C H K K P S Y $.$.&.=.{.-.,.).~.].(.+ 4.<.|.}.}.5.1.1.6.6.8.9.. . ",
". . + + 9 0 a a c f j B n p X t t O C H K K P S Y $.$.&.=.=.-.,.).~.].(.+ 4.<.|.}.}.5.1.1.6.6.8.9.9.. . ",
". . + + 0 a a c f j j n p X t t O C H K K P S Y ..$.&.=.=.-.,.).~.].(.+ 4.<.|.}.}.5.1.1.6.6.8.9.9.0.. . "};
