/* XPM */
static char * menu_inactive_xpm[] = {
"52 48 100 2",
"  	c None",
". 	c #000000",
"+ 	c #010101",
"@ 	c #121212",
"# 	c #5E5D5D",
"$ 	c #A6A5A5",
"% 	c #CACAC9",
"& 	c #E5E4E3",
"* 	c #EFEEED",
"= 	c #0A0A0A",
"- 	c #757574",
"; 	c #E2E1E0",
"> 	c #1A1A1A",
", 	c #BBBAB9",
"' 	c #EBEAE9",
") 	c #1C1B1B",
"! 	c #D2D1D0",
"~ 	c #EAE9E8",
"{ 	c #BCBBBB",
"] 	c #E9E8E7",
"^ 	c #E9E8E6",
"/ 	c #131313",
"( 	c #E8E7E6",
"_ 	c #E7E6E5",
": 	c #A5A4A4",
"< 	c #E7E5E4",
"[ 	c #CDCCCC",
"} 	c #E6E5E3",
"| 	c #E4E3E2",
"1 	c #E5E3E2",
"2 	c #E4E3E1",
"3 	c #E3E2E1",
"4 	c #E3E1E0",
"5 	c #E2E1DF",
"6 	c #E1E0DE",
"7 	c #D0CECD",
"8 	c #AEACAA",
"9 	c #E1DFDE",
"0 	c #B1AFAE",
"a 	c #6F6B69",
"b 	c #6D6A68",
"c 	c #B0ADAB",
"d 	c #E0DFDD",
"e 	c #CFCECC",
"f 	c #ACAAA7",
"g 	c #DFDEDC",
"h 	c #ADABA9",
"i 	c #ACA9A7",
"j 	c #DFDDDB",
"k 	c #ACA8A6",
"l 	c #DEDCDB",
"m 	c #CECBCA",
"n 	c #6E6B69",
"o 	c #ABA8A6",
"p 	c #DDDCDA",
"q 	c #ACAAA8",
"r 	c #AAA8A6",
"s 	c #AEABA9",
"t 	c #DDDBD9",
"u 	c #ABA9A7",
"v 	c #A7A5A3",
"w 	c #A8A5A3",
"x 	c #DCDAD8",
"y 	c #ABA8A5",
"z 	c #DBDAD8",
"A 	c #A9A7A5",
"B 	c #DAD9D7",
"C 	c #A9A8A6",
"D 	c #A7A4A2",
"E 	c #DAD8D6",
"F 	c #A9A6A4",
"G 	c #D9D8D5",
"H 	c #A6A4A1",
"I 	c #D8D7D5",
"J 	c #D8D6D4",
"K 	c #A8A6A4",
"L 	c #A6A2A0",
"M 	c #D7D5D3",
"N 	c #A8A6A3",
"O 	c #A5A2A0",
"P 	c #D6D5D2",
"Q 	c #A7A6A3",
"R 	c #A4A29F",
"S 	c #D6D4D2",
"T 	c #A4A19F",
"U 	c #D5D3D1",
"V 	c #A6A3A1",
"W 	c #D4D3D0",
"X 	c #D4D2D0",
"Y 	c #D3D1CF",
"Z 	c #D2D1CE",
"` 	c #D2D0CD",
" .	c #D1CFCD",
"..	c #D0CFCC",
"+.	c #D0CECB",
"@.	c #CFCDCA",
"#.	c #CECCCA",
"$.	c #CECCC9",
"%.	c #CDCBC8",
"&.	c #CCCAC7",
"          . . + @ # $ % & * * * * * * * * * * * * * * * * * * * * * * * * * * * * * * * * * * * * * * * ",
"        . + = - ; * * * * * * * * * * * * * * * * * * * * * * * * * * * * * * * * * * * * * * * * * * * ",
"      . + > , ' ' ' ' ' ' ' ' ' ' ' ' ' ' ' ' ' ' ' ' ' ' ' ' ' ' ' ' ' ' ' ' ' ' ' ' ' ' ' ' ' ' ' ' ' ",
"    . + ) ! ~ ~ ~ ~ ~ ~ ~ ~ ~ ~ ~ ~ ~ ~ ~ ~ ~ ~ ~ ~ ~ ~ ~ ~ ~ ~ ~ ~ ~ ~ ~ ~ ~ ~ ~ ~ ~ ~ ~ ~ ~ ~ ~ ~ ~ ~ ",
"    . = { ] ] ] ] ] ] ] ] ] ] ] ] ] ] ] ] ] ] ] ] ] ] ] ] ] ] ] ] ] ] ] ] ] ] ] ] ] ] ] ] ] ] ] ] ] ] ] ",
"  . + - ^ ^ ^ ^ ^ ^ ^ ^ ^ ^ ^ ^ ^ ^ ^ ^ ^ ^ ^ ^ ^ ^ ^ ^ ^ ^ ^ ^ ^ ^ ^ ^ ^ ^ ^ ^ ^ ^ ^ ^ ^ ^ ^ ^ ^ ^ ^ ^ ",
"  . / ; ( ( ( ( ( ( ( ( ( ( ( ( ( ( ( ( ( ( ( ( ( ( ( ( ( ( ( ( ( ( ( ( ( ( ( ( ( ( ( ( ( ( ( ( ( ( ( ( ",
". + # * _ _ _ _ _ _ _ _ _ _ _ _ _ _ _ _ _ _ _ _ _ _ _ _ _ _ _ _ _ _ _ _ _ _ _ _ _ _ _ _ _ _ _ _ _ _ _ _ ",
". + : * < < < < < < < < < < < < < < < < < < < < < < < < < < < < < < < < < < < < < < < < < < < < < < < < ",
". + [ * } } } } } } } } } } } } } } } } } } } } } } } } } } } } } } } } } } } } } } } } } } } } } } } } ",
". + | * & & & & & & & & & & & & & & & & & & & & & & & & & & & & & & & & & & & & & & & & & & & & & & & & ",
"+ + * * 1 1 1 1 1 1 1 1 1 1 1 1 1 1 1 1 1 1 1 1 1 1 1 1 1 1 1 1 1 1 1 1 1 1 1 1 1 1 1 1 1 1 1 1 1 1 1 1 ",
"+ + * * 2 2 2 2 2 2 2 2 2 2 2 2 2 2 2 2 2 2 2 2 2 2 2 2 2 2 2 2 2 2 2 2 2 2 2 2 2 2 2 2 2 2 2 2 2 2 2 2 ",
"+ + * * 3 3 3 3 3 3 3 3 3 3 3 3 3 3 3 3 3 3 3 3 3 3 3 3 3 3 3 3 3 3 3 3 3 3 3 3 3 3 3 3 3 3 3 3 3 3 3 3 ",
"+ + * * 4 4 4 4 4 4 4 4 4 4 4 4 4 4 4 4 4 4 4 4 4 4 4 4 4 4 4 4 4 4 4 4 4 4 4 4 4 4 4 4 4 4 4 4 4 4 4 4 ",
"+ + * * 5 5 5 5 5 5 5 5 5 5 5 5 5 5 5 5 5 5 5 5 5 5 5 5 5 5 5 5 5 5 5 5 5 5 5 5 5 5 5 5 5 5 5 5 5 5 5 5 ",
"+ + * * 6 6 6 6 6 6 6 6 6 6 7 8 8 7 6 6 6 6 6 6 6 6 6 6 6 6 6 6 6 6 7 8 8 7 6 6 6 6 6 6 6 6 6 6 6 6 6 6 ",
"+ + * * 9 9 9 9 9 9 9 9 9 0 a b b a 8 9 9 9 9 9 9 9 9 9 9 9 9 9 9 c a b b a 0 9 9 9 9 9 9 9 9 9 9 9 9 9 ",
"+ + * * d d d d d d d d e a b b b b b f d d d d d d d d d d d d f b b b b b a e d d d d d d d d d d d d ",
"+ + * * g g g g g g g g h b b b b b b b i g g g g g g g g g g i b b b b b b b h g g g g g g g g g g g g ",
"+ + * * j j j j j j j j h b b b b b b b b k j j j j j j j j k b b b b b b b b h j j j j j j j j j j j j ",
"+ + * * l l l l l l l l m n b b b b b b b b o l l l l l l o b b b b b b b b n m l l l l l l l l l l l l ",
"+ + * * p p p p p p p p p q b b b b b b b b b r p p p p r b b b b b b b b b s p p p p p p p p p p p p p ",
"+ + * * t t t t t t t t t t u b b b b b b b b b v t t o b b b b b b b b b w t t t t t t t t t t t t t t ",
"+ + * * x x x x x x x x x x x o b b b b b b b b b v y b b b b b b b b b w x x x x x x x x x x x x x x x ",
"+ + * * z z z z z z z z z z z z A b b b b b b b b b b b b b b b b b b A z z z z z z z z z z z z z z z z ",
"+ + * * B B B B B B B B B B B B B C b b b b b b b b b b b b b b b b D B B B B B B B B B B B B B B B B B ",
"+ + * * E E E E E E E E E E E E E E F b b b b b b b b b b b b b b F E E E E E E E E E E E E E E E E E E ",
"+ + * * G G G G G G G G G G G G G G G A b b b b b b b b b b b b H G G G G G G G G G G G G G G G G G G G ",
"+ + * * I I I I I I I I I I I I I I I I w b b b b b b b b b b w I I I I I I I I I I I I I I I I I I I I ",
"+ + * * J J J J J J J J J J J J J J J J J K b b b b b b b b L J J J J J J J J J J J J J J J J J J J J J ",
"+ + * * M M M M M M M M M M M M M M M M M M N b b b b b b O M M M M M M M M M M M M M M M M M M M M M M ",
"+ + * * P P P P P P P P P P P P P P P P P P P Q b b b b R P P P P P P P P P P P P P P P P P P P P P P P ",
"+ + * * S S S S S S S S S S S S S S S S S S S S v b b T S S S S S S S S S S S S S S S S S S S S S S S S ",
"+ + * * U U U U U U U U U U U U U U U U U U U U U V V U U U U U U U U U U U U U U U U U U U U U U U U U ",
"+ + * * W W W W W W W W W W W W W W W W W W W W W W W W W W W W W W W W W W W W W W W W W W W W W W W W ",
"+ + * * X X X X X X X X X X X X X X X X X X X X X X X X X X X X X X X X X X X X X X X X X X X X X X X X ",
"+ + * * Y Y Y Y Y Y Y Y Y Y Y Y Y Y Y Y Y Y Y Y Y Y Y Y Y Y Y Y Y Y Y Y Y Y Y Y Y Y Y Y Y Y Y Y Y Y Y Y ",
"+ + * * Z Z Z Z Z Z Z Z Z Z Z Z Z Z Z Z Z Z Z Z Z Z Z Z Z Z Z Z Z Z Z Z Z Z Z Z Z Z Z Z Z Z Z Z Z Z Z Z ",
"+ + * * ` ` ` ` ` ` ` ` ` ` ` ` ` ` ` ` ` ` ` ` ` ` ` ` ` ` ` ` ` ` ` ` ` ` ` ` ` ` ` ` ` ` ` ` ` ` ` ` ",
"+ + * *  . . . . . . . . . . . . . . . . . . . . . . . . . . . . . . . . . . . . . . . . . . . . . . . .",
"+ + * * ................................................................................................",
"+ + * * +.+.+.+.+.+.+.+.+.+.+.+.+.+.+.+.+.+.+.+.+.+.+.+.+.+.+.+.+.+.+.+.+.+.+.+.+.+.+.+.+.+.+.+.+.+.+.+.",
"+ + * * @.@.@.@.@.@.@.@.@.@.@.@.@.@.@.@.@.@.@.@.@.@.@.@.@.@.@.@.@.@.@.@.@.@.@.@.@.@.@.@.@.@.@.@.@.@.@.@.",
"+ + * * #.#.#.#.#.#.#.#.#.#.#.#.#.#.#.#.#.#.#.#.#.#.#.#.#.#.#.#.#.#.#.#.#.#.#.#.#.#.#.#.#.#.#.#.#.#.#.#.",
"+ + * * $.$.$.$.$.$.$.$.$.$.$.$.$.$.$.$.$.$.$.$.$.$.$.$.$.$.$.$.$.$.$.$.$.$.$.$.$.$.$.$.$.$.$.$.$.$.$.$.",
"+ + * * %.%.%.%.%.%.%.%.%.%.%.%.%.%.%.%.%.%.%.%.%.%.%.%.%.%.%.%.%.%.%.%.%.%.%.%.%.%.%.%.%.%.%.%.%.%.%.%.",
"+ + * * &.&.&.&.&.&.&.&.&.&.&.&.&.&.&.&.&.&.&.&.&.&.&.&.&.&.&.&.&.&.&.&.&.&.&.&.&.&.&.&.&.&.&.&.&.&.&.&."};
