/* XPM */
static char * stick_toggled_inactive_xpm[] = {
"52 48 108 2",
"  	c None",
". 	c #EFEEED",
"+ 	c #EBEAE9",
"@ 	c #EAE9E8",
"# 	c #E9E8E7",
"$ 	c #E9E8E6",
"% 	c #E8E7E6",
"& 	c #E7E6E5",
"* 	c #E7E5E4",
"= 	c #E6E5E3",
"- 	c #E5E4E3",
"; 	c #E5E3E2",
"> 	c #E4E3E1",
", 	c #CFCDCB",
"' 	c #A09E9C",
") 	c #817E7C",
"! 	c #726F6E",
"~ 	c #6D6A68",
"{ 	c #A19F9D",
"] 	c #CFCECB",
"^ 	c #E3E2E1",
"/ 	c #E0DFDE",
"( 	c #9D9A99",
"_ 	c #6E6B69",
": 	c #9D9B9A",
"< 	c #E3E1E0",
"[ 	c #E0DEDD",
"} 	c #8A8885",
"| 	c #8B8786",
"1 	c #E2E1DF",
"2 	c #9C9A98",
"3 	c #9E9C9A",
"4 	c #E1E0DE",
"5 	c #CCCBC9",
"6 	c #6F6C6A",
"7 	c #CDCBCA",
"8 	c #E1DFDE",
"9 	c #9E9C9B",
"0 	c #A09D9C",
"a 	c #E0DFDD",
"b 	c #807E7B",
"c 	c #8F8D8A",
"d 	c #D4D2D1",
"e 	c #D3D3D0",
"f 	c #8E8C8A",
"g 	c #817E7B",
"h 	c #DFDEDC",
"i 	c #72706E",
"j 	c #D3D2CF",
"k 	c #D2D1CF",
"l 	c #DFDDDB",
"m 	c #878482",
"n 	c #888483",
"o 	c #DEDCDB",
"p 	c #DDDCDA",
"q 	c #DDDBD9",
"r 	c #DCDAD8",
"s 	c #DBDAD8",
"t 	c #DAD9D7",
"u 	c #DAD8D6",
"v 	c #868382",
"w 	c #868482",
"x 	c #D9D8D5",
"y 	c #CDCCC9",
"z 	c #D8D7D5",
"A 	c #7F7C7A",
"B 	c #8C8988",
"C 	c #CBCBC9",
"D 	c #8C8A87",
"E 	c #7F7D7B",
"F 	c #D8D6D4",
"G 	c #9C9997",
"H 	c #9D9B99",
"I 	c #D7D5D3",
"J 	c #C4C2C0",
"K 	c #6F6C69",
"L 	c #C5C3C1",
"M 	c #D6D5D2",
"N 	c #989693",
"O 	c #9A9795",
"P 	c #D6D4D2",
"Q 	c #D3D1CF",
"R 	c #888583",
"S 	c #D4D1CF",
"T 	c #D5D3D1",
"U 	c #D2D0CE",
"V 	c #999694",
"W 	c #6F6B69",
"X 	c #999695",
"Y 	c #D3D0CE",
"Z 	c #D4D3D0",
"` 	c #C2C1BE",
" .	c #9A9895",
"..	c #7F7C79",
"+.	c #726F6D",
"@.	c #9B9896",
"#.	c #C2C1BF",
"$.	c #D4D2D0",
"%.	c #D2D1CE",
"&.	c #D2D0CD",
"*.	c #D1CFCD",
"=.	c #D0CFCC",
"-.	c #D0CECB",
";.	c #CFCDCA",
">.	c #CECCCA",
",.	c #CECCC9",
"'.	c #CDCBC8",
").	c #CCCAC7",
". . . . . . . . . . . . . . . . . . . . . . . . . . . . . . . . . . . . . . . . . . . . . . . . . . . . ",
". . . . . . . . . . . . . . . . . . . . . . . . . . . . . . . . . . . . . . . . . . . . . . . . . . . . ",
"+ + + + + + + + + + + + + + + + + + + + + + + + + + + + + + + + + + + + + + + + + + + + + + + + + + + + ",
"@ @ @ @ @ @ @ @ @ @ @ @ @ @ @ @ @ @ @ @ @ @ @ @ @ @ @ @ @ @ @ @ @ @ @ @ @ @ @ @ @ @ @ @ @ @ @ @ @ @ @ @ ",
"# # # # # # # # # # # # # # # # # # # # # # # # # # # # # # # # # # # # # # # # # # # # # # # # # # # # ",
"$ $ $ $ $ $ $ $ $ $ $ $ $ $ $ $ $ $ $ $ $ $ $ $ $ $ $ $ $ $ $ $ $ $ $ $ $ $ $ $ $ $ $ $ $ $ $ $ $ $ $ $ ",
"% % % % % % % % % % % % % % % % % % % % % % % % % % % % % % % % % % % % % % % % % % % % % % % % % % % % ",
"& & & & & & & & & & & & & & & & & & & & & & & & & & & & & & & & & & & & & & & & & & & & & & & & & & & & ",
"* * * * * * * * * * * * * * * * * * * * * * * * * * * * * * * * * * * * * * * * * * * * * * * * * * * * ",
"= = = = = = = = = = = = = = = = = = = = = = = = = = = = = = = = = = = = = = = = = = = = = = = = = = = = ",
"- - - - - - - - - - - - - - - - - - - - - - - - - - - - - - - - - - - - - - - - - - - - - - - - - - - - ",
"; ; ; ; ; ; ; ; ; ; ; ; ; ; ; ; ; ; ; ; ; ; ; ; ; ; ; ; ; ; ; ; ; ; ; ; ; ; ; ; ; ; ; ; ; ; ; ; ; ; ; ; ",
"> > > > > > > > > > > > > > > > > > , ' ) ! ~ ~ ~ ~ ~ ~ ~ ~ ! ) { ] > > > > > > > > > > > > > > > > > > ",
"^ ^ ^ ^ ^ ^ ^ ^ ^ ^ ^ ^ ^ ^ ^ ^ / ( _ ~ ~ ~ ~ ~ ~ ~ ~ ~ ~ ~ ~ ~ ~ _ : / ^ ^ ^ ^ ^ ^ ^ ^ ^ ^ ^ ^ ^ ^ ^ ^ ",
"< < < < < < < < < < < < < < < [ } ~ ~ ~ ~ ~ ~ ~ ~ ~ ~ ~ ~ ~ ~ ~ ~ ~ ~ | [ < < < < < < < < < < < < < < < ",
"1 1 1 1 1 1 1 1 1 1 1 1 1 1 1 2 ~ ~ ~ ~ ~ ~ ~ ~ ~ ~ ~ ~ ~ ~ ~ ~ ~ ~ ~ ~ 3 1 1 1 1 1 1 1 1 1 1 1 1 1 1 1 ",
"4 4 4 4 4 4 4 4 4 4 4 4 4 4 5 _ ~ ~ ~ ~ ~ ~ ~ ~ ~ ~ ~ ~ ~ ~ ~ ~ ~ ~ ~ ~ 6 7 4 4 4 4 4 4 4 4 4 4 4 4 4 4 ",
"8 8 8 8 8 8 8 8 8 8 8 8 8 8 9 ~ ~ ~ ~ ~ ~ ~ ~ ~ ~ ~ ~ ~ ~ ~ ~ ~ ~ ~ ~ ~ ~ 0 8 8 8 8 8 8 8 8 8 8 8 8 8 8 ",
"a a a a a a a a a a a a a a b ~ ~ ~ ~ ~ c d a a a a a a a a e f ~ ~ ~ ~ ~ g a a a a a a a a a a a a a a ",
"h h h h h h h h h h h h h h i ~ ~ ~ ~ ~ j h h h h h h h h h h k ~ ~ ~ ~ ~ i h h h h h h h h h h h h h h ",
"l l l l l l l l l l l l l l ~ ~ ~ ~ ~ ~ l l m ~ ~ ~ ~ ~ ~ n l l ~ ~ ~ ~ ~ ~ l l l l l l l l l l l l l l ",
"o o o o o o o o o o o o o o ~ ~ ~ ~ ~ ~ o o ~ ~ ~ ~ ~ ~ ~ ~ o o ~ ~ ~ ~ ~ ~ o o o o o o o o o o o o o o ",
"p p p p p p p p p p p p p p ~ ~ ~ ~ ~ ~ p p ~ ~ ~ ~ ~ ~ ~ ~ p p ~ ~ ~ ~ ~ ~ p p p p p p p p p p p p p p ",
"q q q q q q q q q q q q q q ~ ~ ~ ~ ~ ~ q q ~ ~ ~ ~ ~ ~ ~ ~ q q ~ ~ ~ ~ ~ ~ q q q q q q q q q q q q q q ",
"r r r r r r r r r r r r r r ~ ~ ~ ~ ~ ~ r r ~ ~ ~ ~ ~ ~ ~ ~ r r ~ ~ ~ ~ ~ ~ r r r r r r r r r r r r r r ",
"s s s s s s s s s s s s s s ~ ~ ~ ~ ~ ~ s s ~ ~ ~ ~ ~ ~ ~ ~ s s ~ ~ ~ ~ ~ ~ s s s s s s s s s s s s s s ",
"t t t t t t t t t t t t t t ~ ~ ~ ~ ~ ~ t t ~ ~ ~ ~ ~ ~ ~ ~ t t ~ ~ ~ ~ ~ ~ t t t t t t t t t t t t t t ",
"u u u u u u u u u u u u u u ~ ~ ~ ~ ~ ~ u u v ~ ~ ~ ~ ~ ~ w u u ~ ~ ~ ~ ~ ~ u u u u u u u u u u u u u u ",
"x x x x x x x x x x x x x x i ~ ~ ~ ~ ~ y x x x x x x x x x x 5 ~ ~ ~ ~ ~ i x x x x x x x x x x x x x x ",
"z z z z z z z z z z z z z z A ~ ~ ~ ~ ~ B 5 z z z z z z z z C D ~ ~ ~ ~ ~ E z z z z z z z z z z z z z z ",
"F F F F F F F F F F F F F F G ~ ~ ~ ~ ~ ~ ~ ~ ~ ~ ~ ~ ~ ~ ~ ~ ~ ~ ~ ~ ~ ~ H F F F F F F F F F F F F F F ",
"I I I I I I I I I I I I I I J _ ~ ~ ~ ~ ~ ~ ~ ~ ~ ~ ~ ~ ~ ~ ~ ~ ~ ~ ~ ~ K L I I I I I I I I I I I I I I ",
"M M M M M M M M M M M M M M M N ~ ~ ~ ~ ~ ~ ~ ~ ~ ~ ~ ~ ~ ~ ~ ~ ~ ~ ~ ~ O M M M M M M M M M M M M M M M ",
"P P P P P P P P P P P P P P P Q n ~ ~ ~ ~ ~ ~ ~ ~ ~ ~ ~ ~ ~ ~ ~ ~ ~ ~ R S P P P P P P P P P P P P P P P ",
"T T T T T T T T T T T T T T T T U V W ~ ~ ~ ~ ~ ~ ~ ~ ~ ~ ~ ~ ~ ~ W X Y T T T T T T T T T T T T T T T T ",
"Z Z Z Z Z Z Z Z Z Z Z Z Z Z Z Z Z Z `  ...+.~ ~ ~ ~ ~ ~ ~ ~ +.A @.#.Z Z Z Z Z Z Z Z Z Z Z Z Z Z Z Z Z Z ",
"$.$.$.$.$.$.$.$.$.$.$.$.$.$.$.$.$.$.$.$.$.$.$.$.$.$.$.$.$.$.$.$.$.$.$.$.$.$.$.$.$.$.$.$.$.$.$.$.$.$.$.$.",
"Q Q Q Q Q Q Q Q Q Q Q Q Q Q Q Q Q Q Q Q Q Q Q Q Q Q Q Q Q Q Q Q Q Q Q Q Q Q Q Q Q Q Q Q Q Q Q Q Q Q Q Q ",
"%.%.%.%.%.%.%.%.%.%.%.%.%.%.%.%.%.%.%.%.%.%.%.%.%.%.%.%.%.%.%.%.%.%.%.%.%.%.%.%.%.%.%.%.%.%.%.%.%.%.%.%.",
"&.&.&.&.&.&.&.&.&.&.&.&.&.&.&.&.&.&.&.&.&.&.&.&.&.&.&.&.&.&.&.&.&.&.&.&.&.&.&.&.&.&.&.&.&.&.&.&.&.&.&.&.",
"*.*.*.*.*.*.*.*.*.*.*.*.*.*.*.*.*.*.*.*.*.*.*.*.*.*.*.*.*.*.*.*.*.*.*.*.*.*.*.*.*.*.*.*.*.*.*.*.*.*.*.*.",
"=.=.=.=.=.=.=.=.=.=.=.=.=.=.=.=.=.=.=.=.=.=.=.=.=.=.=.=.=.=.=.=.=.=.=.=.=.=.=.=.=.=.=.=.=.=.=.=.=.=.=.=.",
"-.-.-.-.-.-.-.-.-.-.-.-.-.-.-.-.-.-.-.-.-.-.-.-.-.-.-.-.-.-.-.-.-.-.-.-.-.-.-.-.-.-.-.-.-.-.-.-.-.-.-.-.",
";.;.;.;.;.;.;.;.;.;.;.;.;.;.;.;.;.;.;.;.;.;.;.;.;.;.;.;.;.;.;.;.;.;.;.;.;.;.;.;.;.;.;.;.;.;.;.;.;.;.;.;.",
">.>.>.>.>.>.>.>.>.>.>.>.>.>.>.>.>.>.>.>.>.>.>.>.>.>.>.>.>.>.>.>.>.>.>.>.>.>.>.>.>.>.>.>.>.>.>.>.>.>.>.>.",
",.,.,.,.,.,.,.,.,.,.,.,.,.,.,.,.,.,.,.,.,.,.,.,.,.,.,.,.,.,.,.,.,.,.,.,.,.,.,.,.,.,.,.,.,.,.,.,.,.,.,.,.",
"'.'.'.'.'.'.'.'.'.'.'.'.'.'.'.'.'.'.'.'.'.'.'.'.'.'.'.'.'.'.'.'.'.'.'.'.'.'.'.'.'.'.'.'.'.'.'.'.'.'.'.'.",
").).).).).).).).).).).).).).).).).).).).).).).).).).).).).).).).).).).).).).).).).).).).).).).).).).).)."};
