/* XPM */
static char * shade_pressed_xpm[] = {
"52 48 134 2",
"  	c None",
". 	c #393E5F",
"+ 	c #EFEEED",
"@ 	c #D3D1CF",
"# 	c #D4D2D0",
"$ 	c #D4D3D1",
"% 	c #D5D3D1",
"& 	c #D6D4D2",
"* 	c #D6D4D3",
"= 	c #D7D5D3",
"- 	c #D7D6D4",
"; 	c #D8D6D4",
"> 	c #D8D6D5",
", 	c #D8D7D5",
"' 	c #D9D7D5",
") 	c #D9D8D6",
"! 	c #DAD8D6",
"~ 	c #DAD8D7",
"{ 	c #DAD9D7",
"] 	c #DBD9D7",
"^ 	c #DBDAD8",
"/ 	c #DCDAD9",
"( 	c #DCDBD9",
"_ 	c #DDDBD9",
": 	c #DDDBDA",
"< 	c #DDDCDA",
"[ 	c #DEDCDB",
"} 	c #DEDDDB",
"| 	c #DFDDDC",
"1 	c #DFDEDC",
"2 	c #DFDEDD",
"3 	c #E0DFDD",
"4 	c #E1DFDE",
"5 	c #E1E0DE",
"6 	c #E1E0DF",
"7 	c #E2E1DF",
"8 	c #E2E1E0",
"9 	c #E3E2E0",
"0 	c #E3E2E1",
"a 	c #E4E3E1",
"b 	c #E2E0DF",
"c 	c #E4E3E2",
"d 	c #DBD9D8",
"e 	c #E0DFDE",
"f 	c #E5E4E2",
"g 	c #D4D2D1",
"h 	c #D5D4D2",
"i 	c #E4E4E2",
"j 	c #E5E4E3",
"k 	c #DCDAD8",
"l 	c #DEDCDA",
"m 	c #E0DEDD",
"n 	c #E6E5E3",
"o 	c #D9D7D6",
"p 	c #E6E5E4",
"q 	c #E7E6E4",
"r 	c #E7E6E5",
"s 	c #D7D5D4",
"t 	c #CBC9C9",
"u 	c #CBCAC9",
"v 	c #E7E7E5",
"w 	c #C8C7C7",
"x 	c #B3B3B3",
"y 	c #C8C7C6",
"z 	c #E5E5E3",
"A 	c #E8E7E6",
"B 	c #C1C1C1",
"C 	c #E3E1E0",
"D 	c #C8C8C7",
"E 	c #E8E8E6",
"F 	c #CBCACA",
"G 	c #CCCBCA",
"H 	c #E9E8E7",
"I 	c #CCCBCB",
"J 	c #CCCCCB",
"K 	c #E8E7E5",
"L 	c #E9E9E7",
"M 	c #CAC9C8",
"N 	c #CDCDCC",
"O 	c #EAE9E8",
"P 	c #E6E6E4",
"Q 	c #EAEAE8",
"R 	c #CECDCD",
"S 	c #EAEAE9",
"T 	c #CBCBCA",
"U 	c #D1D0D0",
"V 	c #EBEAE9",
"W 	c #B4B4B4",
"X 	c #DFDFDE",
"Y 	c #EBEBE9",
"Z 	c #D1D0CF",
"` 	c #ECEBEA",
" .	c #C0C0BF",
"..	c #C1C0C0",
"+.	c #D1D1CF",
"@.	c #D9D8D7",
"#.	c #B4B3B3",
"$.	c #E0DFDF",
"%.	c #ECECEB",
"&.	c #CECDCC",
"*.	c #B4B4B3",
"=.	c #D2D2D1",
"-.	c #EDECEB",
";.	c #DAD9D8",
">.	c #CDCCCC",
",.	c #DBDAD9",
"'.	c #CDCCCB",
").	c #D0D0CF",
"!.	c #EBEBEA",
"~.	c #EDEDEB",
"{.	c #EDEDEC",
"].	c #ECECEA",
"^.	c #EEEDEC",
"/.	c #E9E8E6",
"(.	c #EEEEEC",
"_.	c #EEEEED",
":.	c #CFCFCE",
"<.	c #DEDDDC",
"[.	c #EFEFEE",
"}.	c #D1D1D0",
"|.	c #DFDFDD",
"1.	c #F0F0EE",
"2.	c #F0F0EF",
"3.	c #F0EFEE",
"4.	c #F1F1F0",
"5.	c #E9E9E8",
"6.	c #F2F1F0",
"7.	c #EFEFED",
"8.	c #F1F1EF",
"9.	c #F2F2F1",
"0.	c #F3F3F1",
"a.	c #F3F2F1",
"b.	c #F3F3F2",
"c.	c #F4F4F3",
". . + + + + + + + + + + + + + + + + + + + + + + + + + + + + + + + + + + + + + + + + + + + + + + + + . . ",
". . + + + + + + + + + + + + + + + + + + + + + + + + + + + + + + + + + + + + + + + + + + + + + + + + . . ",
". . + + @ # # $ % % & & * = = - ; > , ' ) ! ~ { ] ^ ^ / ( _ : < [ } } | 1 2 3 3 4 5 6 7 7 8 9 0 0 a . . ",
". . + + # # $ % % & & * = = - ; > , ' ) ! ~ { ] ^ ^ / ( ( : < [ } } | 1 2 3 3 4 5 6 b 7 8 9 0 0 a c . . ",
". . + + # $ % % & & * = = - ; > , ' ) ! ~ { ] d ^ / ( ( : < [ } } | 1 2 3 3 e 5 6 b 7 8 9 0 0 a c f . . ",
". . + + g % % & & * = = - ; > , ' ) ! ~ { ] d ^ / ( ( : < [ } } | 1 2 3 3 e 5 6 b 7 8 9 0 0 a c f f . . ",
". . + + % % h & * = = - ; > , ' ) ! ~ { ] d ^ / ( ( : < [ } } | 1 1 3 3 e 5 5 b 7 8 9 9 0 a c i f j . . ",
". . + + % h & * = = - ; > , ' ) ! ! { ] d ^ k ( ( : < l } } | 1 1 m 3 e 5 5 b 7 8 9 9 0 a c i f j n . . ",
". . + + h & & = = - ; ; , ' o ) ! { ] d ^ k ( ( : < l } } | 1 1 m 3 e 5 5 b 7 8 9 9 0 a c i f j n p . . ",
". . + + & & = = - ; ; , ' o ) ! { ] d ^ k ( ( : < l } } | 1 1 m 3 e 5 5 b 7 8 9 9 0 a c i f j n p p . . ",
". . + + & = = - ; ; , ' o ) ! { ] d ^ k ( ( : < < } } | 1 1 m 3 e 5 5 b 7 8 9 9 0 a c c f j n p p q . . ",
". . + + = = - ; ; , ' o ) ! { ] d ^ k ( ( : < < [ } | 1 1 m 3 e 5 5 6 7 8 9 9 0 a c c f j n p p q r . . ",
". . + + = s ; ; , ' o ) ! { ] d ^ k ( ( : < < [ } t u 1 m 3 e 5 5 6 7 8 9 9 0 a c c f j n p p q r v . . ",
". . + + s ; ; , ' o ) ! { ] d ^ k ( ( : < < [ } w x x y 3 e 5 5 6 7 8 9 9 0 a c c f j z p p q r v A . . ",
". . + + ; ; , ' o ) ! { ] d ^ k ( ( : < < [ } B x x x x B 5 5 6 7 8 C 9 0 a c c f j z p p q r v A A . . ",
". . + + ; , ' o ) ! { { d ^ k / ( : < < [ } w x x x x x x D 6 7 8 C 9 0 a c c f j z p p q r v A A E . . ",
". . + + , ' o ) ! { { d ^ k / ( : < < [ } F x x x x x x x x G 8 C 9 0 a c c f j z p p q r v A A E H . . ",
". . + + ' o ) ! { { d ^ k / ( : < < [ } F x x x x x x x x x x I 9 0 a c c f j z p p q r r A A E H H . . ",
". . + + o ) ! { { d ^ k / ( : < < [ } F x x x x x x x x x x x x J a a c f j z n p q r r K A E H H L . . ",
". . + + ) ! ~ { d ^ k / ( : < < [ } M x x x x x x x x x x x x x x N c f j z n p q r r K A E H H L O . . ",
". . + + ! ~ { ] ^ k / ( _ < < [ } u x x x x x x x x x x x x x x x x N j z n p P r r K A E H H L O Q . . ",
". . + + ~ { ] ^ k / ( _ < < [ } M x x x x x x x x x x x x x x x x x x R n p P r r K A E H H L O Q S . . ",
". . + + { ] ^ ^ / ( _ < < [ } T x x x x x x x x x x x x x x x x x x x x U P r r K A E H H L O Q S V . . ",
". . + + ] ^ ^ / ( _ < < [ } , x x x x x x x x x x x x x x x x x x x x x W X r K A E H H L O Q S V Y . . ",
". . + + ^ ^ / ( _ < < [ } } G x x x x x x x x x x x x x x x x x x x x x x Z K A E H H L O O S V Y ` . . ",
". . + + ^ / ( _ < < [ } } | G x x x x x x x  .x x x x x x ..x x x x x x x +.A E H H L O O S V Y ` ` . . ",
". . + + / ( _ : < [ } } | 1 @.#.x x x x x J F x x x x x x J R x x x x x W $.E H H L O O S V Y ` ` %.. . ",
". . + + ( _ : < [ } } | 1 2 3 &.#.x x *.&.8 T x x x x x x J n U W x x W =.E H H L O O S V Y ` ` %.-.. . ",
". . + + _ : < [ } } | 1 2 3 3 4 ;.>.&.,.8 9 T x x x x x x '.p P X ).).$.A H H L O O S V Y !.` %.-.~.. . ",
". . + + : < [ } } | 1 2 3 3 4 5 6 b 7 8 9 0 T x x x x x x >.P r r v A A H H L O O S V Y !.` %.-.~.{.. . ",
". . + + < [ } } | 1 2 3 3 e 5 6 b 7 8 9 0 0 G x x x x x x N r r v A A H H L O O Q V Y !.` ].-.~.{.^.. . ",
". . + + [ } } | 1 2 3 3 e 5 6 b 7 8 9 0 0 a I x x x x x x N r v A A /.H L O O Q V Y !.` ].-.-.{.^.(.. . ",
". . + + } } | 1 1 3 3 e 5 5 b 7 8 9 9 0 a c J x x x x x x N v A A /.H L O O Q V Y !.` ].-.-.{.^.(._.. . ",
". . + + } | 1 1 m 3 e 5 5 b 7 8 9 9 0 a c i :.x x x x x x +.A A E H L O O Q V Y !.` ].-.-.{.^.(._.+ . . ",
". . + + | 1 1 m 3 e 5 5 b 7 8 9 9 0 a c i f <.W x x x x W $.A E H L O O Q V Y !.` ].-.-.{.^.(._.+ [.. . ",
". . + + 1 1 m 3 e 5 5 b 7 8 9 9 0 a c i f j n }.W x x W =.A E H L O O Q V V !.` ].%.-.{.^.(._.+ [.[.. . ",
". . + + 1 m 3 e 5 5 b 7 8 9 9 0 a c c f j n p p |.).).$.A E H L O O Q V V !.` ].%.-.{.^.(._.+ [.[.1.. . ",
". . + + m 3 e 5 5 6 7 8 9 9 0 a c c f j n p p q r v A A E H L O O Q V V !.` ].%.-.{.^.(._.+ [.[.1.2.. . ",
". . + + 3 e 5 5 6 7 8 9 9 0 a c c f j n p p q r v A A E H L O O Q V V !.` ].%.-.{.^.(._.+ [.[.3.2.2.. . ",
". . + + e 5 5 6 7 8 9 9 0 a c c f j z p p q r v A A E H H O O Q V V !.` ].%.-.{.^.(._.+ [.[.3.2.2.4.. . ",
". . + + 5 5 6 7 8 C 9 0 a c c f j z p p q r v A A E H H 5.O Q V V !.` ].%.-.{.^.(._.+ [.[.3.2.2.4.4.. . ",
". . + + 5 6 7 8 C 9 0 a c c f j z p p q r v A A E H H 5.O Q V V !.` ].%.-.{.^.(._.+ [.[.3.2.2.4.4.6.. . ",
". . + + 6 7 8 C 9 0 a c c f j z p p q r v A A E H H 5.O Q V V !.` ].%.-.{.{.^._.+ 7.[.3.2.2.8.4.6.9.. . ",
". . + + 7 8 C 9 0 a c c f j z p p q r r A A E H H L O Q V V Y ` ].%.-.~.{.^._.+ 7.[.3.2.2.8.4.6.9.9.. . ",
". . + + 8 8 9 0 a a c f j z n p q r r K A E H H L O Q V V Y ` ].%.-.~.{.^._.+ 7.[.3.2.2.8.4.4.9.9.0.. . ",
". . + + 8 9 0 a a c f j z n p q r r K A E H H L O Q V V Y ` ].%.-.~.{.^._.+ 7.[.3.2.2.8.4.4.9.9.a.b.. . ",
". . + + 9 0 a a c f j z n p P r r K A E H H L O Q V V Y ` ` %.-.~.{.^._.+ 7.[.3.2.2.8.4.4.9.9.a.b.b.. . ",
". . + + 0 a a c f j j n p P r r K A E H H L O Q S V Y ` ` %.-.~.{.^._.+ 7.[.3.2.2.8.4.4.9.9.a.b.b.c.. . "};
