/* XPM */
static char * stick_toggled_active_xpm[] = {
"52 48 141 2",
"  	c None",
". 	c #393E5F",
"+ 	c #EFEEED",
"@ 	c #D3D1CF",
"# 	c #D4D2D0",
"$ 	c #D4D3D1",
"% 	c #D5D3D1",
"& 	c #D6D4D2",
"* 	c #D6D4D3",
"= 	c #D7D5D3",
"- 	c #D7D6D4",
"; 	c #D8D6D4",
"> 	c #D8D6D5",
", 	c #D8D7D5",
"' 	c #D9D7D5",
") 	c #D9D8D6",
"! 	c #DAD8D6",
"~ 	c #DAD8D7",
"{ 	c #DAD9D7",
"] 	c #DBD9D7",
"^ 	c #DBDAD8",
"/ 	c #DCDAD9",
"( 	c #DCDBD9",
"_ 	c #DDDBD9",
": 	c #DDDBDA",
"< 	c #DDDCDA",
"[ 	c #DEDCDB",
"} 	c #DEDDDB",
"| 	c #DFDDDC",
"1 	c #DFDEDC",
"2 	c #DFDEDD",
"3 	c #E0DFDD",
"4 	c #E1DFDE",
"5 	c #E1E0DE",
"6 	c #E1E0DF",
"7 	c #E2E1DF",
"8 	c #E2E1E0",
"9 	c #E3E2E0",
"0 	c #E3E2E1",
"a 	c #E4E3E1",
"b 	c #E2E0DF",
"c 	c #E4E3E2",
"d 	c #DBD9D8",
"e 	c #E0DFDE",
"f 	c #E5E4E2",
"g 	c #D4D2D1",
"h 	c #D5D4D2",
"i 	c #E4E4E2",
"j 	c #E5E4E3",
"k 	c #DCDAD8",
"l 	c #DEDCDA",
"m 	c #E0DEDD",
"n 	c #E6E5E3",
"o 	c #D9D7D6",
"p 	c #E6E5E4",
"q 	c #E7E6E4",
"r 	c #E7E6E5",
"s 	c #D7D5D4",
"t 	c #BEBEC3",
"u 	c #7F8194",
"v 	c #545873",
"w 	c #414464",
"x 	c #414565",
"y 	c #555A74",
"z 	c #828597",
"A 	c #C3C3C9",
"B 	c #E7E7E5",
"C 	c #7B7D91",
"D 	c #3B4060",
"E 	c #E5E5E3",
"F 	c #E8E7E6",
"G 	c #61657E",
"H 	c #64677F",
"I 	c #DFDEDE",
"J 	c #808296",
"K 	c #E8E8E6",
"L 	c #3B4061",
"M 	c #C7C7CB",
"N 	c #E9E8E7",
"O 	c #7F8193",
"P 	c #858798",
"Q 	c #6A6D84",
"R 	c #CDCDCF",
"S 	c #CFCFD1",
"T 	c #6A6E84",
"U 	c #565A75",
"V 	c #E8E7E5",
"W 	c #E9E9E7",
"X 	c #414665",
"Y 	c #CDCDCE",
"Z 	c #CFCFD2",
"` 	c #424766",
" .	c #EAE9E8",
"..	c #5F637B",
"+.	c #61647D",
"@.	c #E6E6E4",
"#.	c #EAEAE8",
"$.	c #EAEAE9",
"%.	c #EBEAE9",
"&.	c #EBEBE9",
"*.	c #ECEBEA",
"=.	c #ECECEB",
"-.	c #62657E",
";.	c #EDECEB",
">.	c #D2D3D5",
",.	c #EBEBEA",
"'.	c #EDEDEB",
").	c #555974",
"!.	c #D0D0D2",
"~.	c #6B6E86",
"{.	c #575B77",
"].	c #EDEDEC",
"^.	c #888A9C",
"/.	c #ECECEA",
"(.	c #EEEDEC",
"_.	c #CDCCD1",
":.	c #EEEEEC",
"<.	c #848799",
"[.	c #EEEEED",
"}.	c #DEDDDD",
"|.	c #666982",
"1.	c #E5E5E5",
"2.	c #7F8296",
"3.	c #EFEFEE",
"4.	c #848798",
"5.	c #414666",
"6.	c #878A9B",
"7.	c #F0F0EE",
"8.	c #F0F0EF",
"9.	c #F0EFEE",
"0.	c #F1F1F0",
"a.	c #E3E1E0",
"b.	c #E9E9E8",
"c.	c #F2F1F0",
"d.	c #EFEFED",
"e.	c #F1F1EF",
"f.	c #F2F2F1",
"g.	c #F3F3F1",
"h.	c #F3F2F1",
"i.	c #F3F3F2",
"j.	c #F4F4F3",
". . + + + + + + + + + + + + + + + + + + + + + + + + + + + + + + + + + + + + + + + + + + + + + + + + . . ",
". . + + + + + + + + + + + + + + + + + + + + + + + + + + + + + + + + + + + + + + + + + + + + + + + + . . ",
". . + + @ # # $ % % & & * = = - ; > , ' ) ! ~ { ] ^ ^ / ( _ : < [ } } | 1 2 3 3 4 5 6 7 7 8 9 0 0 a . . ",
". . + + # # $ % % & & * = = - ; > , ' ) ! ~ { ] ^ ^ / ( ( : < [ } } | 1 2 3 3 4 5 6 b 7 8 9 0 0 a c . . ",
". . + + # $ % % & & * = = - ; > , ' ) ! ~ { ] d ^ / ( ( : < [ } } | 1 2 3 3 e 5 6 b 7 8 9 0 0 a c f . . ",
". . + + g % % & & * = = - ; > , ' ) ! ~ { ] d ^ / ( ( : < [ } } | 1 2 3 3 e 5 6 b 7 8 9 0 0 a c f f . . ",
". . + + % % h & * = = - ; > , ' ) ! ~ { ] d ^ / ( ( : < [ } } | 1 1 3 3 e 5 5 b 7 8 9 9 0 a c i f j . . ",
". . + + % h & * = = - ; > , ' ) ! ! { ] d ^ k ( ( : < l } } | 1 1 m 3 e 5 5 b 7 8 9 9 0 a c i f j n . . ",
". . + + h & & = = - ; ; , ' o ) ! { ] d ^ k ( ( : < l } } | 1 1 m 3 e 5 5 b 7 8 9 9 0 a c i f j n p . . ",
". . + + & & = = - ; ; , ' o ) ! { ] d ^ k ( ( : < l } } | 1 1 m 3 e 5 5 b 7 8 9 9 0 a c i f j n p p . . ",
". . + + & = = - ; ; , ' o ) ! { ] d ^ k ( ( : < < } } | 1 1 m 3 e 5 5 b 7 8 9 9 0 a c c f j n p p q . . ",
". . + + = = - ; ; , ' o ) ! { ] d ^ k ( ( : < < [ } | 1 1 m 3 e 5 5 6 7 8 9 9 0 a c c f j n p p q r . . ",
". . + + = s ; ; , ' o ) ! { ] d ^ k t u v w . . . . . . . . x y z A 7 8 9 9 0 a c c f j n p p q r B . . ",
". . + + s ; ; , ' o ) ! { ] d ^ > C D . . . . . . . . . . . . . . D u 2 9 0 a c c f j E p p q r B F . . ",
". . + + ; ; , ' o ) ! { ] d ^ > G . . . . . . . . . . . . . . . . . . H I a c c f j E p p q r B F F . . ",
". . + + ; , ' o ) ! { { d ^ k C . . . . . . . . . . . . . . . . . . . . J c c f j E p p q r B F F K . . ",
". . + + , ' o ) ! { { d ^ k t D . . . . . . . . . . . . . . . . . . . . L M f j E p p q r B F F K N . . ",
". . + + ' o ) ! { { d ^ k / O . . . . . . . . . . . . . . . . . . . . . . P j E p p q r r F F K N N . . ",
". . + + o ) ! { { d ^ k / ( v . . . . . Q R m 3 e 4 5 6 7 8 S T . . . . . U E n p q r r V F K N N W . . ",
". . + + ) ! ~ { d ^ k / ( : X . . . . . Y m 3 3 4 5 6 7 7 8 9 Z . . . . . ` n p q r r V F K N N W  .. . ",
". . + + ! ~ { ] ^ k / ( _ < . . . . . . m 3 ... . . . . . +.0 a . . . . . . p @.r r V F K N N W  .#.. . ",
". . + + ~ { ] ^ k / ( _ < < . . . . . . 3 3 . . . . . . . . a a . . . . . . @.r r V F K N N W  .#.$.. . ",
". . + + { ] ^ ^ / ( _ < < [ . . . . . . 3 4 . . . . . . . . a c . . . . . . r r V F K N N W  .#.$.%.. . ",
". . + + ] ^ ^ / ( _ < < [ } . . . . . . 4 5 . . . . . . . . c f . . . . . . r V F K N N W  .#.$.%.&.. . ",
". . + + ^ ^ / ( _ < < [ } } . . . . . . 5 6 . . . . . . . . f j . . . . . . V F K N N W  . .$.%.&.*.. . ",
". . + + ^ / ( _ < < [ } } | . . . . . . 6 7 . . . . . . . . j j . . . . . . F K N N W  . .$.%.&.*.*.. . ",
". . + + / ( _ : < [ } } | 1 . . . . . . 7 7 . . . . . . . . j n . . . . . . K N N W  . .$.%.&.*.*.=.. . ",
". . + + ( _ : < [ } } | 1 2 . . . . . . 7 8 +.. . . . . . -.n p . . . . . . N N W  . .$.%.&.*.*.=.;.. . ",
". . + + _ : < [ } } | 1 2 3 X . . . . . S 9 0 0 a c f j j n p >.. . . . . ` N W  . .$.%.&.,.*.=.;.'.. . ",
". . + + : < [ } } | 1 2 3 3 ).. . . . . T !.0 a c f j j n p >.~.. . . . . {.W  . .$.%.&.,.*.=.;.'.].. . ",
". . + + < [ } } | 1 2 3 3 e z . . . . . . . . . . . . . . . . . . . . . . ^. . .#.%.&.,.*./.;.'.].(.. . ",
". . + + [ } } | 1 2 3 3 e 5 A D . . . . . . . . . . . . . . . . . . . . L _. .#.%.&.,.*./.;.;.].(.:.. . ",
". . + + } } | 1 1 3 3 e 5 5 b u . . . . . . . . . . . . . . . . . . . . <. .#.%.&.,.*./.;.;.].(.:.[.. . ",
". . + + } | 1 1 m 3 e 5 5 b 7 }.H . . . . . . . . . . . . . . . . . . |.1.#.%.&.,.*./.;.;.].(.:.[.+ . . ",
". . + + | 1 1 m 3 e 5 5 b 7 8 9 2 2.L . . . . . . . . . . . . . . L <.1.#.%.&.,.*./.;.;.].(.:.[.+ 3.. . ",
". . + + 1 1 m 3 e 5 5 b 7 8 9 9 0 a M 4.U 5.. . . . . . . . 5.{.6._. .#.%.%.,.*./.=.;.].(.:.[.+ 3.3.. . ",
". . + + 1 m 3 e 5 5 b 7 8 9 9 0 a c c f j n p p q r B F F K N W  . .#.%.%.,.*./.=.;.].(.:.[.+ 3.3.7.. . ",
". . + + m 3 e 5 5 6 7 8 9 9 0 a c c f j n p p q r B F F K N W  . .#.%.%.,.*./.=.;.].(.:.[.+ 3.3.7.8.. . ",
". . + + 3 e 5 5 6 7 8 9 9 0 a c c f j n p p q r B F F K N W  . .#.%.%.,.*./.=.;.].(.:.[.+ 3.3.9.8.8.. . ",
". . + + e 5 5 6 7 8 9 9 0 a c c f j E p p q r B F F K N N  . .#.%.%.,.*./.=.;.].(.:.[.+ 3.3.9.8.8.0.. . ",
". . + + 5 5 6 7 8 a.9 0 a c c f j E p p q r B F F K N N b. .#.%.%.,.*./.=.;.].(.:.[.+ 3.3.9.8.8.0.0.. . ",
". . + + 5 6 7 8 a.9 0 a c c f j E p p q r B F F K N N b. .#.%.%.,.*./.=.;.].(.:.[.+ 3.3.9.8.8.0.0.c.. . ",
". . + + 6 7 8 a.9 0 a c c f j E p p q r B F F K N N b. .#.%.%.,.*./.=.;.].].(.[.+ d.3.9.8.8.e.0.c.f.. . ",
". . + + 7 8 a.9 0 a c c f j E p p q r r F F K N N W  .#.%.%.&.*./.=.;.'.].(.[.+ d.3.9.8.8.e.0.c.f.f.. . ",
". . + + 8 8 9 0 a a c f j E n p q r r V F K N N W  .#.%.%.&.*./.=.;.'.].(.[.+ d.3.9.8.8.e.0.0.f.f.g.. . ",
". . + + 8 9 0 a a c f j E n p q r r V F K N N W  .#.%.%.&.*./.=.;.'.].(.[.+ d.3.9.8.8.e.0.0.f.f.h.i.. . ",
". . + + 9 0 a a c f j E n p @.r r V F K N N W  .#.%.%.&.*.*.=.;.'.].(.[.+ d.3.9.8.8.e.0.0.f.f.h.i.i.. . ",
". . + + 0 a a c f j j n p @.r r V F K N N W  .#.$.%.&.*.*.=.;.'.].(.[.+ d.3.9.8.8.e.0.0.f.f.h.i.i.j.. . "};
