/* XPM */
static char * menu_pressed_xpm[] = {
"52 48 138 2",
"  	c None",
". 	c #000000",
"+ 	c #010101",
"@ 	c #121212",
"# 	c #5E5D5D",
"$ 	c #A6A5A5",
"% 	c #CACAC9",
"& 	c #E5E4E3",
"* 	c #EFEEED",
"= 	c #393E5F",
"- 	c #0A0A0A",
"; 	c #757574",
"> 	c #E2E1E0",
", 	c #171717",
"' 	c #A9A7A6",
") 	c #D4D3D1",
"! 	c #D5D3D1",
"~ 	c #D6D4D2",
"{ 	c #D6D4D3",
"] 	c #D7D5D3",
"^ 	c #D7D6D4",
"/ 	c #D8D6D4",
"( 	c #D8D6D5",
"_ 	c #D8D7D5",
": 	c #D9D7D5",
"< 	c #D9D8D6",
"[ 	c #DAD8D6",
"} 	c #DAD8D7",
"| 	c #DAD9D7",
"1 	c #DBD9D7",
"2 	c #DBDAD8",
"3 	c #DCDAD9",
"4 	c #DCDBD9",
"5 	c #DDDBD9",
"6 	c #DDDBDA",
"7 	c #DDDCDA",
"8 	c #DEDCDB",
"9 	c #DEDDDB",
"0 	c #DFDDDC",
"a 	c #DFDEDC",
"b 	c #DFDEDD",
"c 	c #E0DFDD",
"d 	c #E1DFDE",
"e 	c #E1E0DE",
"f 	c #E1E0DF",
"g 	c #E2E1DF",
"h 	c #E3E2E0",
"i 	c #E3E2E1",
"j 	c #E4E3E1",
"k 	c #191919",
"l 	c #BEBDBB",
"m 	c #E2E0DF",
"n 	c #E4E3E2",
"o 	c #ABAAA8",
"p 	c #DBD9D8",
"q 	c #E0DFDE",
"r 	c #E5E4E2",
"s 	c #D4D2D1",
"t 	c #131313",
"u 	c #D5D4D2",
"v 	c #E4E4E2",
"w 	c #DCDAD8",
"x 	c #DEDCDA",
"y 	c #E0DEDD",
"z 	c #E6E5E3",
"A 	c #A5A4A4",
"B 	c #D9D7D6",
"C 	c #E6E5E4",
"D 	c #CDCCCC",
"E 	c #E7E6E4",
"F 	c #E7E6E5",
"G 	c #D7D5D4",
"H 	c #E7E7E5",
"I 	c #E5E5E3",
"J 	c #E8E7E6",
"K 	c #E3E1E0",
"L 	c #E8E8E6",
"M 	c #D6D4D4",
"N 	c #CBCAC9",
"O 	c #DEDDDC",
"P 	c #DCDBDA",
"Q 	c #CFCECD",
"R 	c #CFCECE",
"S 	c #DDDCDB",
"T 	c #E9E8E7",
"U 	c #CBCACA",
"V 	c #B3B3B3",
"W 	c #B4B4B4",
"X 	c #D1D0D0",
"Y 	c #CAC9C9",
"Z 	c #E8E7E5",
"` 	c #E9E9E7",
" .	c #D0CFCF",
"..	c #EAE9E8",
"+.	c #CBCBC9",
"@.	c #D0D0CF",
"#.	c #EAEAE8",
"$.	c #CCCBCA",
"%.	c #DFDFDE",
"&.	c #EAEAE9",
"*.	c #CCCBCB",
"=.	c #D1D1D0",
"-.	c #EBEAE9",
";.	c #CECDCC",
">.	c #CECECD",
",.	c #EBEBE9",
"'.	c #CBCBCA",
").	c #CCCCCB",
"!.	c #ECEBEA",
"~.	c #ECECEB",
"{.	c #EDECEB",
"].	c #CDCCCB",
"^.	c #EBEBEA",
"/.	c #EDEDEB",
"(.	c #EDEDEC",
"_.	c #CDCDCC",
":.	c #ECECEA",
"<.	c #EEEDEC",
"[.	c #CECDCD",
"}.	c #E9E8E6",
"|.	c #EEEEEC",
"1.	c #EEEEED",
"2.	c #CFCFCD",
"3.	c #EFEFEE",
"4.	c #F0F0EE",
"5.	c #F0F0EF",
"6.	c #F0EFEE",
"7.	c #F1F1F0",
"8.	c #E9E9E8",
"9.	c #F2F1F0",
"0.	c #EFEFED",
"a.	c #F1F1EF",
"b.	c #F2F2F1",
"c.	c #F3F3F1",
"d.	c #F3F2F1",
"e.	c #F3F3F2",
"f.	c #E6E6E4",
"g.	c #F4F4F3",
"          . . + @ # $ % & * * * * * * * * * * * * * * * * * * * * * * * * * * * * * * * * * * * * * = = ",
"        . + - ; > * * * * * * * * * * * * * * * * * * * * * * * * * * * * * * * * * * * * * * * * * = = ",
"      . + , ' ) ! ! ~ ~ { ] ] ^ / ( _ : < [ } | 1 2 2 3 4 5 6 7 8 9 9 0 a b c c d e f g g > h i i j = = ",
"    . + k l ) ! ! ~ ~ { ] ] ^ / ( _ : < [ } | 1 2 2 3 4 4 6 7 8 9 9 0 a b c c d e f m g > h i i j n = = ",
"    . - o ) ! ! ~ ~ { ] ] ^ / ( _ : < [ } | 1 p 2 3 4 4 6 7 8 9 9 0 a b c c q e f m g > h i i j n r = = ",
"  . + ; s ! ! ~ ~ { ] ] ^ / ( _ : < [ } | 1 p 2 3 4 4 6 7 8 9 9 0 a b c c q e f m g > h i i j n r r = = ",
"  . t > ! ! u ~ { ] ] ^ / ( _ : < [ } | 1 p 2 3 4 4 6 7 8 9 9 0 a a c c q e e m g > h h i j n v r & = = ",
". + # * ! u ~ { ] ] ^ / ( _ : < [ [ | 1 p 2 w 4 4 6 7 x 9 9 0 a a y c q e e m g > h h i j n v r & z = = ",
". + A * u ~ ~ ] ] ^ / / _ : B < [ | 1 p 2 w 4 4 6 7 x 9 9 0 a a y c q e e m g > h h i j n v r & z C = = ",
". + D * ~ ~ ] ] ^ / / _ : B < [ | 1 p 2 w 4 4 6 7 x 9 9 0 a a y c q e e m g > h h i j n v r & z C C = = ",
". + n * ~ ] ] ^ / / _ : B < [ | 1 p 2 w 4 4 6 7 7 9 9 0 a a y c q e e m g > h h i j n n r & z C C E = = ",
"+ + * * ] ] ^ / / _ : B < [ | 1 p 2 w 4 4 6 7 7 8 9 0 a a y c q e e f g > h h i j n n r & z C C E F = = ",
"+ + * * ] G / / _ : B < [ | 1 p 2 w 4 4 6 7 7 8 9 0 a a y c q e e f g > h h i j n n r & z C C E F H = = ",
"+ + * * G / / _ : B < [ | 1 p 2 w 4 4 6 7 7 8 9 0 a a y c q e e f g > h h i j n n r & I C C E F H J = = ",
"+ + * * / / _ : B < [ | 1 p 2 w 4 4 6 7 7 8 9 0 a a y c q e e f g > K h i j n n r & I C C E F H J J = = ",
"+ + * * / _ : B < [ | | p 2 w 3 4 6 7 7 8 9 0 a a y c q e e f g > K h i j n n r & I C C E F H J J L = = ",
"+ + * * _ : B < [ | | p 2 w M % N ^ 7 8 9 O a a y c q e e f g > K h P Q R S r & I C C E F H J J L T = = ",
"+ + * * : B < [ | | p 2 w U V V V V U 9 O a a y c q e e f g > K h R W V V W X I C C E F F J J L T T = = ",
"+ + * * B < [ | | p 2 w M V V V V V V Y a a y c q d e f g > > h D V V V V V W a C E F F Z J L T T ` = = ",
"+ + * * < [ } | p 2 w 3 % V V V V V V V N y c c d e f g g > h D V V V V V V V  .E F F Z J L T T ` ..= = ",
"+ + * * [ } | 1 2 w 3 4 N V V V V V V V V +.c d e f g g > h D V V V V V V V V @.F F Z J L T T ` ..#.= = ",
"+ + * * } | 1 2 w 3 4 5 ^ V V V V V V V V V $.e f g g > h D V V V V V V V V W %.F Z J L T T ` ..#.&.= = ",
"+ + * * | 1 2 2 3 4 5 7 7 U V V V V V V V V V *.g g > h D V V V V V V V V V =.F Z J L T T ` ..#.&.-.= = ",
"+ + * * 1 2 2 3 4 5 7 7 8 9 N V V V V V V V V V $.> h ;.V V V V V V V V V >.F Z J L T T ` ..#.&.-.,.= = ",
"+ + * * 2 2 3 4 5 7 7 8 9 9 0 '.V V V V V V V V V ).;.V V V V V V V V V >.F Z J L T T ` ....&.-.,.!.= = ",
"+ + * * 2 3 4 5 7 7 8 9 9 0 a b +.V V V V V V V V V V V V V V V V V V R F Z J L T T ` ....&.-.,.!.!.= = ",
"+ + * * 3 4 5 6 7 8 9 9 0 a b c c *.V V V V V V V V V V V V V V V V >.F Z J L T T ` ....&.-.,.!.!.~.= = ",
"+ + * * 4 5 6 7 8 9 9 0 a b c c d e *.V V V V V V V V V V V V V V R F H J L T T ` ....&.-.,.!.!.~.{.= = ",
"+ + * * 5 6 7 8 9 9 0 a b c c d e f g ].V V V V V V V V V V V V >.F H J J T T ` ....&.-.,.^.!.~.{./.= = ",
"+ + * * 6 7 8 9 9 0 a b c c d e f m g > ].V V V V V V V V V V R F H J J T T ` ....&.-.,.^.!.~.{./.(.= = ",
"+ + * * 7 8 9 9 0 a b c c q e f m g > h i _.V V V V V V V V >.F H J J T T ` ....#.-.,.^.!.:.{./.(.<.= = ",
"+ + * * 8 9 9 0 a b c c q e f m g > h i i j [.V V V V V V >.F H J J }.T ` ....#.-.,.^.!.:.{.{.(.<.|.= = ",
"+ + * * 9 9 0 a a c c q e e m g > h h i j n v Q V V V V >.F H J J }.T ` ....#.-.,.^.!.:.{.{.(.<.|.1.= = ",
"+ + * * 9 0 a a y c q e e m g > h h i j n v r & 2.V V >.F H J J L T ` ....#.-.,.^.!.:.{.{.(.<.|.1.* = = ",
"+ + * * 0 a a y c q e e m g > h h i j n v r & z C >.Q F H J J L T ` ....#.-.,.^.!.:.{.{.(.<.|.1.* 3.= = ",
"+ + * * a a y c q e e m g > h h i j n v r & z C C E F H J J L T ` ....#.-.-.^.!.:.~.{.(.<.|.1.* 3.3.= = ",
"+ + * * a y c q e e m g > h h i j n n r & z C C E F H J J L T ` ....#.-.-.^.!.:.~.{.(.<.|.1.* 3.3.4.= = ",
"+ + * * y c q e e f g > h h i j n n r & z C C E F H J J L T ` ....#.-.-.^.!.:.~.{.(.<.|.1.* 3.3.4.5.= = ",
"+ + * * c q e e f g > h h i j n n r & z C C E F H J J L T ` ....#.-.-.^.!.:.~.{.(.<.|.1.* 3.3.6.5.5.= = ",
"+ + * * q e e f g > h h i j n n r & I C C E F H J J L T T ....#.-.-.^.!.:.~.{.(.<.|.1.* 3.3.6.5.5.7.= = ",
"+ + * * e e f g > K h i j n n r & I C C E F H J J L T T 8...#.-.-.^.!.:.~.{.(.<.|.1.* 3.3.6.5.5.7.7.= = ",
"+ + * * e f g > K h i j n n r & I C C E F H J J L T T 8...#.-.-.^.!.:.~.{.(.<.|.1.* 3.3.6.5.5.7.7.9.= = ",
"+ + * * f g > K h i j n n r & I C C E F H J J L T T 8...#.-.-.^.!.:.~.{.(.(.<.1.* 0.3.6.5.5.a.7.9.b.= = ",
"+ + * * g > K h i j n n r & I C C E F F J J L T T ` ..#.-.-.,.!.:.~.{./.(.<.1.* 0.3.6.5.5.a.7.9.b.b.= = ",
"+ + * * > > h i j j n r & I z C E F F Z J L T T ` ..#.-.-.,.!.:.~.{./.(.<.1.* 0.3.6.5.5.a.7.7.b.b.c.= = ",
"+ + * * > h i j j n r & I z C E F F Z J L T T ` ..#.-.-.,.!.:.~.{./.(.<.1.* 0.3.6.5.5.a.7.7.b.b.d.e.= = ",
"+ + * * h i j j n r & I z C f.F F Z J L T T ` ..#.-.-.,.!.!.~.{./.(.<.1.* 0.3.6.5.5.a.7.7.b.b.d.e.e.= = ",
"+ + * * i j j n r & & z C f.F F Z J L T T ` ..#.&.-.,.!.!.~.{./.(.<.1.* 0.3.6.5.5.a.7.7.b.b.d.e.e.g.= = "};
