/* XPM */
static char * title_5_active_xpm[] = {
"40 52 383 2",
"  	c None",
". 	c #000000",
"+ 	c #949EDC",
"@ 	c #96A2E5",
"# 	c #94A0E5",
"$ 	c #919CE0",
"% 	c #757FB6",
"& 	c #6F78AC",
"* 	c #7982B7",
"= 	c #A8B1E5",
"- 	c #AAB3EA",
"; 	c #929EE4",
"> 	c #8F9ADF",
", 	c #747DB5",
"' 	c #6D76AB",
") 	c #7780B5",
"! 	c #A6AFE4",
"~ 	c #A8B1E9",
"{ 	c #94A0E4",
"] 	c #8D98DD",
"^ 	c #727CB3",
"/ 	c #6C75AA",
"( 	c #757EB4",
"_ 	c #A5AEE2",
": 	c #A6B0E7",
"< 	c #929EE2",
"[ 	c #909CE2",
"} 	c #717AB3",
"| 	c #6A73A9",
"1 	c #747DB3",
"2 	c #A3ACE2",
"3 	c #A5AEE7",
"4 	c #909CE1",
"5 	c #8E9AE1",
"6 	c #8B96DC",
"7 	c #6972A8",
"8 	c #737CB3",
"9 	c #A2ABE1",
"0 	c #A3ADE6",
"a 	c #8E9AE0",
"b 	c #8C98E0",
"c 	c #8995DB",
"d 	c #6F79B2",
"e 	c #727BB2",
"f 	c #707AB1",
"g 	c #9FA9E0",
"h 	c #A1ABE5",
"i 	c #8B98DF",
"j 	c #8996DF",
"k 	c #8693DA",
"l 	c #6D77B1",
"m 	c #6770A7",
"n 	c #9EA8DF",
"o 	c #9FA9E4",
"p 	c #8996DE",
"q 	c #8794DE",
"r 	c #8491D9",
"s 	c #6B75B0",
"t 	c #656FA7",
"u 	c #6E78B1",
"v 	c #9FAAE4",
"w 	c #9EA8E3",
"x 	c #8794DD",
"y 	c #8592DD",
"z 	c #828FD8",
"A 	c #6974AF",
"B 	c #646DA6",
"C 	c #6D77B0",
"D 	c #9CA6DF",
"E 	c #8591DC",
"F 	c #838FDC",
"G 	c #808CD7",
"H 	c #6871AF",
"I 	c #626BA5",
"J 	c #6B74AF",
"K 	c #9BA4DE",
"L 	c #9CA6E3",
"M 	c #818DDA",
"N 	c #7E8AD5",
"O 	c #6670AD",
"P 	c #616AA4",
"Q 	c #6A73AD",
"R 	c #99A2DC",
"S 	c #9AA4E1",
"T 	c #838FDA",
"U 	c #7C88D4",
"V 	c #656EAC",
"W 	c #5F68A3",
"X 	c #6871AD",
"Y 	c #98A1DC",
"Z 	c #99A2E0",
"` 	c #828DD9",
" .	c #7F8BD9",
"..	c #636DAB",
"+.	c #5E67A2",
"@.	c #6770AC",
"#.	c #969FDB",
"$.	c #97A1DF",
"%.	c #808BD8",
"&.	c #7D89D8",
"*.	c #7A86D3",
"=.	c #5C65A1",
"-.	c #666FAC",
";.	c #959EDB",
">.	c #969FDF",
",.	c #7E89D7",
"'.	c #7B87D7",
").	c #7884D2",
"!.	c #616BAB",
"~.	c #656EAB",
"{.	c #959EDA",
"].	c #636DAA",
"^.	c #939CD9",
"/.	c #939EDE",
"(.	c #7B87D6",
"_.	c #7885D6",
":.	c #7582D1",
"<.	c #5F69AA",
"[.	c #5A64A1",
"}.	c #919BD9",
"|.	c #919CDD",
"1.	c #7885D5",
"2.	c #7683D5",
"3.	c #7380D0",
"4.	c #5D68A9",
"5.	c #5862A0",
"6.	c #616BAA",
"7.	c #929CDD",
"8.	c #7985D5",
"9.	c #909ADB",
"0.	c #7783D4",
"a.	c #7481D3",
"b.	c #717ECE",
"c.	c #5C66A7",
"d.	c #57619E",
"e.	c #606AA8",
"f.	c #9099D7",
"g.	c #7582D3",
"h.	c #727FD2",
"i.	c #6F7CCD",
"j.	c #5A65A7",
"k.	c #555F9E",
"l.	c #5E68A7",
"m.	c #8E98D6",
"n.	c #8F99DB",
"o.	c #707DD1",
"p.	c #6D7ACC",
"q.	c #5963A6",
"r.	c #545E9D",
"s.	c #5D67A7",
"t.	c #8D96D6",
"u.	c #8D97DA",
"v.	c #7380D2",
"w.	c #6A78CB",
"x.	c #5661A5",
"y.	c #525C9C",
"z.	c #5B65A6",
"A.	c #8A95D5",
"B.	c #8B96D9",
"C.	c #707ED1",
"D.	c #6D7BD0",
"E.	c #5560A4",
"F.	c #505B9B",
"G.	c #5964A5",
"H.	c #8993D4",
"I.	c #8994D8",
"J.	c #6E7CD0",
"K.	c #6B79CF",
"L.	c #6876CA",
"M.	c #4F599B",
"N.	c #5863A5",
"O.	c #8892D4",
"P.	c #8793D7",
"Q.	c #6C7ACF",
"R.	c #6977CE",
"S.	c #6674C9",
"T.	c #535EA3",
"U.	c #5862A4",
"V.	c #8792D3",
"W.	c #5661A4",
"X.	c #8690D3",
"Y.	c #8691D7",
"Z.	c #6A78CE",
"`.	c #6775CD",
" +	c #6472C8",
".+	c #515DA3",
"++	c #4D589A",
"@+	c #848FD1",
"#+	c #848FD5",
"$+	c #6875CC",
"%+	c #6573CB",
"&+	c #6370C7",
"*+	c #505BA1",
"=+	c #4C5698",
"-+	c #545FA2",
";+	c #6876CC",
">+	c #848FD4",
",+	c #6775CA",
"'+	c #6472C9",
")+	c #626FC5",
"!+	c #4F5AA0",
"~+	c #4B5597",
"{+	c #545EA1",
"]+	c #848ED0",
"^+	c #6674C8",
"/+	c #6371C7",
"(+	c #616EC3",
"_+	c #4E599E",
":+	c #4A5595",
"<+	c #535E9F",
"[+	c #838DCE",
"}+	c #838ED2",
"|+	c #606CC1",
"1+	c #4E589C",
"2+	c #495394",
"3+	c #525C9E",
"4+	c #828CCD",
"5+	c #828CD0",
"6+	c #6572C6",
"7+	c #5E6BBF",
"8+	c #4C579B",
"9+	c #485292",
"0+	c #515B9C",
"a+	c #818BCB",
"b+	c #808BCF",
"c+	c #6371C4",
"d+	c #606EC3",
"e+	c #4B5699",
"f+	c #475291",
"g+	c #505B9A",
"h+	c #808ACA",
"i+	c #808BCD",
"j+	c #6270C2",
"k+	c #5F6DC1",
"l+	c #5D6ABD",
"m+	c #46508F",
"n+	c #505A99",
"o+	c #8089C8",
"p+	c #7F89CB",
"q+	c #616EBF",
"r+	c #5E6BBE",
"s+	c #5C68BA",
"t+	c #4A5597",
"u+	c #4F5998",
"v+	c #7F89C7",
"w+	c #4E5897",
"x+	c #7E88C6",
"y+	c #7E88C9",
"z+	c #606DBD",
"A+	c #5D6ABC",
"B+	c #5B67B8",
"C+	c #4A5495",
"D+	c #464F8D",
"E+	c #7D87C4",
"F+	c #7C86C7",
"G+	c #5E6ABB",
"H+	c #5B68BA",
"I+	c #5965B6",
"J+	c #485294",
"K+	c #444E8C",
"L+	c #4D5795",
"M+	c #7C87C8",
"N+	c #5E6BBB",
"O+	c #7C86C6",
"P+	c #5D6AB9",
"Q+	c #5A67B8",
"R+	c #5864B4",
"S+	c #475192",
"T+	c #434D8A",
"U+	c #4C5694",
"V+	c #7C86C3",
"W+	c #5C69B7",
"X+	c #5966B6",
"Y+	c #5764B2",
"Z+	c #465190",
"`+	c #434C89",
" @	c #4B5592",
".@	c #7B85C1",
"+@	c #7B85C4",
"@@	c #5865B4",
"#@	c #5663B0",
"$@	c #424C87",
"%@	c #4B5491",
"&@	c #7B84C0",
"*@	c #7A84C3",
"=@	c #5B68B5",
"-@	c #5561AE",
";@	c #454E8D",
">@	c #414A86",
",@	c #4A538F",
"'@	c #7A83BE",
")@	c #7983C1",
"!@	c #5A66B3",
"~@	c #5763B2",
"{@	c #434E8C",
"]@	c #404984",
"^@	c #48528E",
"/@	c #7882BD",
"(@	c #7882C0",
"_@	c #5965B1",
":@	c #5562B0",
"<@	c #5360AC",
"[@	c #3F4883",
"}@	c #48518D",
"|@	c #7881BC",
"1@	c #7780BE",
"2@	c #5863AF",
"3@	c #5460AE",
"4@	c #525EAA",
"5@	c #424C8A",
"6@	c #48518C",
"7@	c #7881BB",
"8@	c #47508A",
"9@	c #7780BA",
"0@	c #7680BD",
"a@	c #5762AD",
"b@	c #535FAC",
"c@	c #515DA8",
"d@	c #424B88",
"e@	c #3E4781",
"f@	c #767FB8",
"g@	c #757EBB",
"h@	c #5561AB",
"i@	c #505CA6",
"j@	c #414A87",
"k@	c #3D4680",
"l@	c #464F89",
"m@	c #757FBB",
"n@	c #5661AC",
"o@	c #747DB9",
"p@	c #545FAA",
"q@	c #505CA8",
"r@	c #4E5AA4",
"s@	c #3F4985",
"t@	c #3C457E",
"u@	c #444E87",
"v@	c #757EB7",
"w@	c #535EA8",
"x@	c #4F5BA6",
"y@	c #4D59A2",
"z@	c #3E4884",
"A@	c #3B447C",
"B@	c #444D86",
"C@	c #737CB8",
"D@	c #4E5AA3",
"E@	c #4C589F",
"F@	c #3A437A",
"G@	c #434C84",
"H@	c #727CB5",
"I@	c #525DA5",
"J@	c #4B569D",
"K@	c #394279",
"L@	c #424B82",
"M@	c #717AB4",
"N@	c #515BA3",
"O@	c #4D58A1",
"P@	c #3B457E",
"Q@	c #384177",
"R@	c #414A81",
"S@	c #717AB0",
"T@	c #7079B2",
"U@	c #4F5AA1",
"V@	c #4B579F",
"W@	c #49559B",
"X@	c #374076",
"Y@	c #414A80",
"Z@	c #717AAF",
"`@	c #6F78B1",
" #	c #4E599F",
".#	c #4A569D",
"+#	c #485499",
"@#	c #3A447C",
"##	c #40497F",
"$#	c #7079AF",
"%#	c #40487E",
"&#	c #7078AE",
"*#	c #6E77AF",
"=#	c #4D589D",
"-#	c #49549B",
";#	c #475297",
">#	c #3A427B",
",#	c #363F74",
"'#	c #5B5A58",
". . . . . . . . . . . . . . . . . . . . . . . . . . . . . . . . . . . . . . . . ",
". . . . . . . . . . . . . . . . . . . . . . . . . . . . . . . . . . . . . . . . ",
"+ + + + + + + + + + + + + + + + + + + + + + + + + + + + + + + + + + + + + + + + ",
"+ + + + + + + + + + + + + + + + + + + + + + + + + + + + + + + + + + + + + + + + ",
"@ # $ % & * = - @ # $ % & * = - @ # $ % & * = - @ # $ % & * = - @ # $ % & * = - ",
"; > , ' ) ! ~ { ; > , ' ) ! ~ { ; > , ' ) ! ~ { ; > , ' ) ! ~ { ; > , ' ) ! ~ { ",
"] ^ / ( _ : < [ ] ^ / ( _ : < [ ] ^ / ( _ : < [ ] ^ / ( _ : < [ ] ^ / ( _ : < [ ",
"} | 1 2 3 4 5 6 } | 1 2 3 4 5 6 } | 1 2 3 4 5 6 } | 1 2 3 4 5 6 } | 1 2 3 4 5 6 ",
"7 8 9 0 a b c d 7 e 9 0 a b c d 7 e 9 0 a b c d 7 e 9 0 a b c d 7 e 9 0 a b c d ",
"f g h i j k l m f g h i j k l m f g h i j k l m f g h i j k l m f g h i j k l m ",
"n o p q r s t u n v p q r s t u n v p q r s t u n v p q r s t u n v p q r s t u ",
"w x y z A B C D w x y z A B C D w x y z A B C D w x y z A B C D w x y z A B C D ",
"E F G H I J K L E F G H I J K L E F G H I J K L E F G H I J K L E F G H I J K L ",
"M N O P Q R S T M N O P Q R S T M N O P Q R S T M N O P Q R S T M N O P Q R S T ",
"U V W X Y Z `  .U V W X Y Z `  .U V W X Y Z `  .U V W X Y Z `  .U V W X Y Z `  .",
"..+.@.#.$.%.&.*...+.@.#.$.%.&.*...+.@.#.$.%.&.*...+.@.#.$.%.&.*...+.@.#.$.%.&.*.",
"=.-.;.>.,.'.).!.=.~.{.>.,.'.).!.=.~.{.>.,.'.).!.=.~.{.>.,.'.).!.=.~.{.>.,.'.).!.",
"].^./.(._.:.<.[.].^./.(._.:.<.[.].^./.(._.:.<.[.].^./.(._.:.<.[.].^./.(._.:.<.[.",
"}.|.1.2.3.4.5.6.}.7.8.2.3.4.5.6.}.7.8.2.3.4.5.6.}.7.8.2.3.4.5.6.}.7.8.2.3.4.5.6.",
"9.0.a.b.c.d.e.f.9.0.a.b.c.d.e.f.9.0.a.b.c.d.e.f.9.0.a.b.c.d.e.f.9.0.a.b.c.d.e.f.",
"g.h.i.j.k.l.m.n.g.h.i.j.k.l.m.n.g.h.i.j.k.l.m.n.g.h.i.j.k.l.m.n.g.h.i.j.k.l.m.n.",
"o.p.q.r.s.t.u.v.o.p.q.r.s.t.u.v.o.p.q.r.s.t.u.v.o.p.q.r.s.t.u.v.o.p.q.r.s.t.u.v.",
"w.x.y.z.A.B.C.D.w.x.y.z.A.B.C.D.w.x.y.z.A.B.C.D.w.x.y.z.A.B.C.D.w.x.y.z.A.B.C.D.",
"E.F.G.H.I.J.K.L.E.F.G.H.I.J.K.L.E.F.G.H.I.J.K.L.E.F.G.H.I.J.K.L.E.F.G.H.I.J.K.L.",
"M.N.O.P.Q.R.S.T.M.U.V.P.Q.R.S.T.M.U.V.P.Q.R.S.T.M.U.V.P.Q.R.S.T.M.U.V.P.Q.R.S.T.",
"W.X.Y.Z.`. +.+++W.X.Y.Z.`. +.+++W.X.Y.Z.`. +.+++W.X.Y.Z.`. +.+++W.X.Y.Z.`. +.+++",
"@+#+$+%+&+*+=+-+@+#+;+%+&+*+=+-+@+#+;+%+&+*+=+-+@+#+;+%+&+*+=+-+@+#+;+%+&+*+=+-+",
">+,+'+)+!+~+{+]+>+,+'+)+!+~+{+]+>+,+'+)+!+~+{+]+>+,+'+)+!+~+{+]+>+,+'+)+!+~+{+]+",
"^+/+(+_+:+<+[+}+^+/+(+_+:+<+[+}+^+/+(+_+:+<+[+}+^+/+(+_+:+<+[+}+^+/+(+_+:+<+[+}+",
")+|+1+2+3+4+5+6+)+|+1+2+3+4+5+6+)+|+1+2+3+4+5+6+)+|+1+2+3+4+5+6+)+|+1+2+3+4+5+6+",
"7+8+9+0+a+b+c+d+7+8+9+0+a+b+c+d+7+8+9+0+a+b+c+d+7+8+9+0+a+b+c+d+7+8+9+0+a+b+c+d+",
"e+f+g+h+i+j+k+l+e+f+g+h+i+j+k+l+e+f+g+h+i+j+k+l+e+f+g+h+i+j+k+l+e+f+g+h+i+j+k+l+",
"m+n+o+p+q+r+s+t+m+u+v+p+q+r+s+t+m+u+v+p+q+r+s+t+m+u+v+p+q+r+s+t+m+u+v+p+q+r+s+t+",
"w+x+y+z+A+B+C+D+w+x+y+z+A+B+C+D+w+x+y+z+A+B+C+D+w+x+y+z+A+B+C+D+w+x+y+z+A+B+C+D+",
"E+F+G+H+I+J+K+L+E+M+N+H+I+J+K+L+E+M+N+H+I+J+K+L+E+M+N+H+I+J+K+L+E+M+N+H+I+J+K+L+",
"O+P+Q+R+S+T+U+V+O+P+Q+R+S+T+U+V+O+P+Q+R+S+T+U+V+O+P+Q+R+S+T+U+V+O+P+Q+R+S+T+U+V+",
"W+X+Y+Z+`+ @.@+@W+X+Y+Z+`+ @.@+@W+X+Y+Z+`+ @.@+@W+X+Y+Z+`+ @.@+@W+X+Y+Z+`+ @.@+@",
"@@#@m+$@%@&@*@=@@@#@m+$@%@&@*@=@@@#@m+$@%@&@*@=@@@#@m+$@%@&@*@=@@@#@m+$@%@&@*@=@",
"-@;@>@,@'@)@!@~@-@;@>@,@'@)@!@~@-@;@>@,@'@)@!@~@-@;@>@,@'@)@!@~@-@;@>@,@'@)@!@~@",
"{@]@^@/@(@_@:@<@{@]@^@/@(@_@:@<@{@]@^@/@(@_@:@<@{@]@^@/@(@_@:@<@{@]@^@/@(@_@:@<@",
"[@}@|@1@2@3@4@5@[@6@7@1@2@3@4@5@[@6@7@1@2@3@4@5@[@6@7@1@2@3@4@5@[@6@7@1@2@3@4@5@",
"8@9@0@a@b@c@d@e@8@9@0@a@b@c@d@e@8@9@0@a@b@c@d@e@8@9@0@a@b@c@d@e@8@9@0@a@b@c@d@e@",
"f@g@h@4@i@j@k@l@f@m@n@4@i@j@k@l@f@m@n@4@i@j@k@l@f@m@n@4@i@j@k@l@f@m@n@4@i@j@k@l@",
"o@p@q@r@s@t@u@v@o@p@q@r@s@t@u@v@o@p@q@r@s@t@u@v@o@p@q@r@s@t@u@v@o@p@q@r@s@t@u@v@",
"w@x@y@z@A@B@, C@w@x@y@z@A@B@, C@w@x@y@z@A@B@, C@w@x@y@z@A@B@, C@w@x@y@z@A@B@, C@",
"D@E@e@F@G@8 H@I@D@E@e@F@G@8 H@I@D@E@e@F@G@8 H@I@D@E@e@F@G@8 H@I@D@E@e@F@G@8 H@I@",
"J@k@K@L@e M@N@O@J@k@K@L@e M@N@O@J@k@K@L@e M@N@O@J@k@K@L@e M@N@O@J@k@K@L@e M@N@O@",
"P@Q@R@S@T@U@V@W@P@Q@R@S@T@U@V@W@P@Q@R@S@T@U@V@W@P@Q@R@S@T@U@V@W@P@Q@R@S@T@U@V@W@",
"X@Y@Z@`@ #.#+#@#X@##$#`@ #.#+#@#X@##$#`@ #.#+#@#X@##$#`@ #.#+#@#X@##$#`@ #.#+#@#",
"%#&#*#=#-#;#>#,#%#&#*#=#-#;#>#,#%#&#*#=#-#;#>#,#%#&#*#=#-#;#>#,#%#&#*#=#-#;#>#,#",
"'#'#'#'#'#'#'#'#'#'#'#'#'#'#'#'#'#'#'#'#'#'#'#'#'#'#'#'#'#'#'#'#'#'#'#'#'#'#'#'#",
"'#'#'#'#'#'#'#'#'#'#'#'#'#'#'#'#'#'#'#'#'#'#'#'#'#'#'#'#'#'#'#'#'#'#'#'#'#'#'#'#"};
