/* XPM */
static char * maximize_inactive_xpm[] = {
"52 48 77 1",
" 	c None",
".	c #EFEEED",
"+	c #EBEAE9",
"@	c #EAE9E8",
"#	c #E9E8E7",
"$	c #E9E8E6",
"%	c #E8E7E6",
"&	c #E7E6E5",
"*	c #E7E5E4",
"=	c #E6E5E3",
"-	c #E5E4E3",
";	c #E5E3E2",
">	c #E4E3E1",
",	c #D1D0CE",
"'	c #928F8E",
")	c #73716E",
"!	c #6D6A68",
"~	c #93908E",
"{	c #D2D0CF",
"]	c #E3E2E1",
"^	c #D0D0CE",
"/	c #74716F",
"(	c #D1CFCF",
"_	c #E3E1E0",
":	c #918F8D",
"<	c #93908F",
"[	c #E2E1DF",
"}	c #73706E",
"|	c #E1E0DE",
"1	c #E1DFDE",
"2	c #E0DFDD",
"3	c #DFDEDC",
"4	c #DFDDDB",
"5	c #DEDCDB",
"6	c #DDDCDA",
"7	c #DDDBD9",
"8	c #DCDAD8",
"9	c #DBDAD8",
"0	c #DAD9D7",
"a	c #DAD8D6",
"b	c #D9D8D5",
"c	c #D8D7D5",
"d	c #D8D6D4",
"e	c #D7D5D3",
"f	c #D6D5D2",
"g	c #72706E",
"h	c #CACAC6",
"i	c #CAC9C6",
"j	c #74716E",
"k	c #D6D4D2",
"l	c #8E8C89",
"m	c #8B8987",
"n	c #CAC8C6",
"o	c #8B8986",
"p	c #908D8C",
"q	c #D5D3D1",
"r	c #C5C3C1",
"s	c #757270",
"t	c #CAC8C5",
"u	c #D4D3D0",
"v	c #C5C3C0",
"w	c #8D8B89",
"x	c #73706D",
"y	c #8F8D8B",
"z	c #C9C8C4",
"A	c #D4D2D0",
"B	c #D3D1CF",
"C	c #D2D1CE",
"D	c #D2D0CD",
"E	c #D1CFCD",
"F	c #D0CFCC",
"G	c #D0CECB",
"H	c #CFCDCA",
"I	c #CECCCA",
"J	c #CECCC9",
"K	c #CDCBC8",
"L	c #CCCAC7",
"....................................................",
"....................................................",
"++++++++++++++++++++++++++++++++++++++++++++++++++++",
"@@@@@@@@@@@@@@@@@@@@@@@@@@@@@@@@@@@@@@@@@@@@@@@@@@@@",
"####################################################",
"$$$$$$$$$$$$$$$$$$$$$$$$$$$$$$$$$$$$$$$$$$$$$$$$$$$$",
"%%%%%%%%%%%%%%%%%%%%%%%%%%%%%%%%%%%%%%%%%%%%%%%%%%%%",
"&&&&&&&&&&&&&&&&&&&&&&&&&&&&&&&&&&&&&&&&&&&&&&&&&&&&",
"****************************************************",
"====================================================",
"----------------------------------------------------",
";;;;;;;;;;;;;;;;;;;;;;;;;;;;;;;;;;;;;;;;;;;;;;;;;;;;",
">>>>>>>>>>>>>>>,')!!!!!!!!!!!!!!!!)~{>>>>>>>>>>>>>>>",
"]]]]]]]]]]]]]]^/!!!!!!!!!!!!!!!!!!!!/(]]]]]]]]]]]]]]",
"______________:!!!!!!!!!!!!!!!!!!!!!!<______________",
"[[[[[[[[[[[[[[}!!!!!!!!!!!!!!!!!!!!!!}[[[[[[[[[[[[[[",
"||||||||||||||!!!!!!!!!!!!!!!!!!!!!!!!||||||||||||||",
"11111111111111!!!!!!!!!!!!!!!!!!!!!!!!11111111111111",
"22222222222222!!!!!!!!!!!!!!!!!!!!!!!!22222222222222",
"33333333333333!!!!!!!!!!!!!!!!!!!!!!!!33333333333333",
"44444444444444!!44444444444444444444!!44444444444444",
"55555555555555!!55555555555555555555!!55555555555555",
"66666666666666!!66666666666666666666!!66666666666666",
"77777777777777!!77777777777777777777!!77777777777777",
"88888888888888!!88888888888888888888!!88888888888888",
"99999999999999!!99999999999999999999!!99999999999999",
"00000000000000!!00000000000000000000!!00000000000000",
"aaaaaaaaaaaaaa!!aaaaaaaaaaaaaaaaaaaa!!aaaaaaaaaaaaaa",
"bbbbbbbbbbbbbb!!bbbbbbbbbbbbbbbbbbbb!!bbbbbbbbbbbbbb",
"cccccccccccccc!!cccccccccccccccccccc!!cccccccccccccc",
"dddddddddddddd!!dddddddddddddddddddd!!dddddddddddddd",
"eeeeeeeeeeeeee!!eeeeeeeeeeeeeeeeeeee!!eeeeeeeeeeeeee",
"ffffffffffffffg!hffffffffffffffffffi!jffffffffffffff",
"kkkkkkkkkkkkkkl!mikkkkkkkkkkkkkkkkno!pkkkkkkkkkkkkkk",
"qqqqqqqqqqqqqqr}!!!!!!!!!!!!!!!!!!!!stqqqqqqqqqqqqqq",
"uuuuuuuuuuuuuuuvwx!!!!!!!!!!!!!!!!xyzuuuuuuuuuuuuuuu",
"AAAAAAAAAAAAAAAAAAAAAAAAAAAAAAAAAAAAAAAAAAAAAAAAAAAA",
"BBBBBBBBBBBBBBBBBBBBBBBBBBBBBBBBBBBBBBBBBBBBBBBBBBBB",
"CCCCCCCCCCCCCCCCCCCCCCCCCCCCCCCCCCCCCCCCCCCCCCCCCCCC",
"DDDDDDDDDDDDDDDDDDDDDDDDDDDDDDDDDDDDDDDDDDDDDDDDDDDD",
"EEEEEEEEEEEEEEEEEEEEEEEEEEEEEEEEEEEEEEEEEEEEEEEEEEEE",
"FFFFFFFFFFFFFFFFFFFFFFFFFFFFFFFFFFFFFFFFFFFFFFFFFFFF",
"GGGGGGGGGGGGGGGGGGGGGGGGGGGGGGGGGGGGGGGGGGGGGGGGGGGG",
"HHHHHHHHHHHHHHHHHHHHHHHHHHHHHHHHHHHHHHHHHHHHHHHHHHHH",
"IIIIIIIIIIIIIIIIIIIIIIIIIIIIIIIIIIIIIIIIIIIIIIIIIIII",
"JJJJJJJJJJJJJJJJJJJJJJJJJJJJJJJJJJJJJJJJJJJJJJJJJJJJ",
"KKKKKKKKKKKKKKKKKKKKKKKKKKKKKKKKKKKKKKKKKKKKKKKKKKKK",
"LLLLLLLLLLLLLLLLLLLLLLLLLLLLLLLLLLLLLLLLLLLLLLLLLLLL"};
