/* XPM */
static char * top_left_inactive_xpm[] = {
"14 104 24 1",
" 	c None",
".	c #010101",
"+	c #020202",
"@	c #121212",
"#	c #5D5C5C",
"$	c #A5A4A4",
"%	c #CACAC9",
"&	c #E5E4E3",
"*	c #EFEEED",
"=	c #090909",
"-	c #747473",
";	c #E2E1E0",
">	c #1E1E1E",
",	c #C1C0C0",
"'	c #EDECEB",
")	c #1C1C1C",
"!	c #D5D4D3",
"~	c #BFBFBE",
"{	c #737372",
"]	c #E0DFDE",
"^	c #5B5B5A",
"/	c #A2A1A0",
"(	c #C9C8C7",
"_	c #797673",
"         .....",
"      +.......",
"     ...@#$%&*",
"    ..=-;*****",
"   ..>,'''''''",
"  ..)!''''''''",
" +.=~'''''''''",
" ..{''''''''''",
" .@]''''''''''",
"..^'''''''''''",
"../'''''''''''",
"..('''''''''''",
"..;'''''''''''",
"..''''''''''''",
"..''''''''''''",
"..''''''''''''",
"..''''''''''''",
"..''''''''''''",
"..''''''''''''",
"..''''''''''''",
"..''''''''''''",
"..''''''''''''",
"..''''''''''''",
"..''''''''''''",
"..''''''''''''",
"..''''''''''''",
"..''''''''''''",
"..''''''''''''",
"..''''''''''''",
"..''''''''''''",
"..''''''''''''",
"..''''''''''''",
"..''''''''''''",
"..''''''''''''",
"..''''''''''''",
"..''''''''''''",
"..''''''''''''",
"..''''''''''''",
"..''''''''''''",
"..''''''''''''",
"..''''''''''''",
"..''''''''''''",
"..''''''''''''",
"..''''''''''''",
"..''''''''''''",
"..''''''''''''",
"..''''''''''''",
"..''''''''''''",
"..''''''''''''",
"..''''''''''''",
"..____________",
"..____________",
"..''''''''''__",
"..''''''''''__",
"..''''''''''__",
"..''''''''''__",
"..''''''''''__",
"..''''''''''__",
"..''''''''''__",
"..''''''''''__",
"..''''''''''__",
"..''''''''''__",
"..''''''''''__",
"..''''''''''__",
"..''''''''''__",
"..''''''''''__",
"..''''''''''__",
"..''''''''''__",
"..''''''''''__",
"..''''''''''__",
"..''''''''''__",
"..''''''''''__",
"..''''''''''__",
"..''''''''''__",
"..''''''''''__",
"..''''''''''__",
"..''''''''''__",
"..''''''''''__",
"..''''''''''__",
"..''''''''''__",
"..''''''''''__",
"..''''''''''__",
"..''''''''''__",
"..''''''''''__",
"..''''''''''__",
"..''''''''''__",
"..''''''''''__",
"..''''''''''__",
"..''''''''''__",
"..''''''''''__",
"..''''''''''__",
"..''''''''''__",
"..''''''''''__",
"..''''''''''__",
"..''''''''''__",
"..''''''''''__",
"..''''''''''__",
"..''''''''''__",
"..''''''''''__",
"..''''''''''__",
"..''''''''''__",
"..''''''''''__",
"..''''''''''__",
"..''''''''''__"};
