/* XPM */
static char * maximize_toggled_inactive_xpm[] = {
"52 48 89 1",
" 	c None",
".	c #EFEEED",
"+	c #EBEAE9",
"@	c #EAE9E8",
"#	c #E9E8E7",
"$	c #E9E8E6",
"%	c #E8E7E6",
"&	c #E7E6E5",
"*	c #E7E5E4",
"=	c #E6E5E3",
"-	c #E5E4E3",
";	c #E5E3E2",
">	c #E4E3E1",
",	c #D1D0CE",
"'	c #928F8E",
")	c #73716E",
"!	c #6D6A68",
"~	c #93908E",
"{	c #D2D0CF",
"]	c #E3E2E1",
"^	c #D0D0CE",
"/	c #74716F",
"(	c #D1CFCF",
"_	c #E3E1E0",
":	c #918F8D",
"<	c #93908F",
"[	c #E2E1DF",
"}	c #73706E",
"|	c #E1E0DE",
"1	c #E1DFDE",
"2	c #E0DFDD",
"3	c #DFDEDC",
"4	c #DFDDDB",
"5	c #CDCBC9",
"6	c #908D8C",
"7	c #72706E",
"8	c #918E8C",
"9	c #CECBCA",
"0	c #DEDCDB",
"a	c #CCCAC9",
"b	c #CDCACA",
"c	c #DDDCDA",
"d	c #8F8D8C",
"e	c #DDDBD9",
"f	c #DCDAD8",
"g	c #CFCDCB",
"h	c #DBDAD8",
"i	c #CECDCB",
"j	c #8D8A88",
"k	c #92908E",
"l	c #DAD9D7",
"m	c #757270",
"n	c #CECDCA",
"o	c #DAD8D6",
"p	c #928F8D",
"q	c #CECCC9",
"r	c #D9D8D5",
"s	c #D8D7D5",
"t	c #D8D6D4",
"u	c #D7D5D3",
"v	c #D6D5D2",
"w	c #CACAC6",
"x	c #CAC9C6",
"y	c #74716E",
"z	c #D6D4D2",
"A	c #8E8C89",
"B	c #8B8987",
"C	c #CAC8C6",
"D	c #8B8986",
"E	c #D5D3D1",
"F	c #C5C3C1",
"G	c #CAC8C5",
"H	c #D4D3D0",
"I	c #C5C3C0",
"J	c #8D8B89",
"K	c #73706D",
"L	c #8F8D8B",
"M	c #C9C8C4",
"N	c #D4D2D0",
"O	c #D3D1CF",
"P	c #D2D1CE",
"Q	c #D2D0CD",
"R	c #D1CFCD",
"S	c #D0CFCC",
"T	c #D0CECB",
"U	c #CFCDCA",
"V	c #CECCCA",
"W	c #CDCBC8",
"X	c #CCCAC7",
"....................................................",
"....................................................",
"++++++++++++++++++++++++++++++++++++++++++++++++++++",
"@@@@@@@@@@@@@@@@@@@@@@@@@@@@@@@@@@@@@@@@@@@@@@@@@@@@",
"####################################################",
"$$$$$$$$$$$$$$$$$$$$$$$$$$$$$$$$$$$$$$$$$$$$$$$$$$$$",
"%%%%%%%%%%%%%%%%%%%%%%%%%%%%%%%%%%%%%%%%%%%%%%%%%%%%",
"&&&&&&&&&&&&&&&&&&&&&&&&&&&&&&&&&&&&&&&&&&&&&&&&&&&&",
"****************************************************",
"====================================================",
"----------------------------------------------------",
";;;;;;;;;;;;;;;;;;;;;;;;;;;;;;;;;;;;;;;;;;;;;;;;;;;;",
">>>>>>>>>>>>>>>>>>>>>>>,')!!!!!!!!)~{>>>>>>>>>>>>>>>",
"]]]]]]]]]]]]]]]]]]]]]]^/!!!!!!!!!!!!/(]]]]]]]]]]]]]]",
"______________________:!!!!!!!!!!!!!!<______________",
"[[[[[[[[[[[[[[[[[[[[[[}!!!!!!!!!!!!!!}[[[[[[[[[[[[[[",
"||||||||||||||||||||||!!!!!!!!!!!!!!!!||||||||||||||",
"1111111111111111111111!!!!!!!!!!!!!!!!11111111111111",
"222222222222222222222222222222222222!!22222222222222",
"333333333333333333333333333333333333!!33333333333333",
"444444444444444567!!!!!!!!7894444444!!44444444444444",
"00000000000000a/!!!!!!!!!!!!/b000000!!00000000000000",
"ccccccccccccccd!!!!!!!!!!!!!!:cccccc!!cccccccccccccc",
"eeeeeeeeeeeeee7!!!!!!!!!!!!!!}eeeeee!!eeeeeeeeeeeeee",
"ffffffffffffff!!!!!!!!!!!!!!!!fffffg!/ffffffffffffff",
"hhhhhhhhhhhhhh!!!!!!!!!!!!!!!!hhhhij!khhhhhhhhhhhhhh",
"llllllllllllll!!llllllllllll!!ll!!!!mnllllllllllllll",
"oooooooooooooo!!oooooooooooo!!oo!!}pqooooooooooooooo",
"rrrrrrrrrrrrrr!!rrrrrrrrrrrr!!rrrrrrrrrrrrrrrrrrrrrr",
"ssssssssssssss!!ssssssssssss!!ssssssssssssssssssssss",
"tttttttttttttt!!tttttttttttt!!tttttttttttttttttttttt",
"uuuuuuuuuuuuuu!!uuuuuuuuuuuu!!uuuuuuuuuuuuuuuuuuuuuu",
"vvvvvvvvvvvvvv7!wvvvvvvvvvvx!yvvvvvvvvvvvvvvvvvvvvvv",
"zzzzzzzzzzzzzzA!BxzzzzzzzzCD!6zzzzzzzzzzzzzzzzzzzzzz",
"EEEEEEEEEEEEEEF}!!!!!!!!!!!!mGEEEEEEEEEEEEEEEEEEEEEE",
"HHHHHHHHHHHHHHHIJK!!!!!!!!KLMHHHHHHHHHHHHHHHHHHHHHHH",
"NNNNNNNNNNNNNNNNNNNNNNNNNNNNNNNNNNNNNNNNNNNNNNNNNNNN",
"OOOOOOOOOOOOOOOOOOOOOOOOOOOOOOOOOOOOOOOOOOOOOOOOOOOO",
"PPPPPPPPPPPPPPPPPPPPPPPPPPPPPPPPPPPPPPPPPPPPPPPPPPPP",
"QQQQQQQQQQQQQQQQQQQQQQQQQQQQQQQQQQQQQQQQQQQQQQQQQQQQ",
"RRRRRRRRRRRRRRRRRRRRRRRRRRRRRRRRRRRRRRRRRRRRRRRRRRRR",
"SSSSSSSSSSSSSSSSSSSSSSSSSSSSSSSSSSSSSSSSSSSSSSSSSSSS",
"TTTTTTTTTTTTTTTTTTTTTTTTTTTTTTTTTTTTTTTTTTTTTTTTTTTT",
"UUUUUUUUUUUUUUUUUUUUUUUUUUUUUUUUUUUUUUUUUUUUUUUUUUUU",
"VVVVVVVVVVVVVVVVVVVVVVVVVVVVVVVVVVVVVVVVVVVVVVVVVVVV",
"qqqqqqqqqqqqqqqqqqqqqqqqqqqqqqqqqqqqqqqqqqqqqqqqqqqq",
"WWWWWWWWWWWWWWWWWWWWWWWWWWWWWWWWWWWWWWWWWWWWWWWWWWWW",
"XXXXXXXXXXXXXXXXXXXXXXXXXXXXXXXXXXXXXXXXXXXXXXXXXXXX"};
