/* XPM */
static char * shade_prelight_xpm[] = {
"52 48 146 2",
"  	c None",
". 	c #393E5F",
"+ 	c #EFEEED",
"@ 	c #D3D1CF",
"# 	c #D4D2D0",
"$ 	c #D4D3D1",
"% 	c #D5D3D1",
"& 	c #D6D4D2",
"* 	c #D6D4D3",
"= 	c #D7D5D3",
"- 	c #D7D6D4",
"; 	c #D8D6D4",
"> 	c #D8D6D5",
", 	c #D8D7D5",
"' 	c #D9D7D5",
") 	c #D9D8D6",
"! 	c #DAD8D6",
"~ 	c #DAD8D7",
"{ 	c #DAD9D7",
"] 	c #DBD9D7",
"^ 	c #DBDAD8",
"/ 	c #DCDAD9",
"( 	c #DCDBD9",
"_ 	c #DDDBD9",
": 	c #DDDBDA",
"< 	c #DDDCDA",
"[ 	c #DEDCDB",
"} 	c #DEDDDB",
"| 	c #DFDDDC",
"1 	c #DFDEDC",
"2 	c #DFDEDD",
"3 	c #E0DFDD",
"4 	c #E1DFDE",
"5 	c #E1E0DE",
"6 	c #E1E0DF",
"7 	c #E2E1DF",
"8 	c #E2E1E0",
"9 	c #E3E2E0",
"0 	c #E3E2E1",
"a 	c #E4E3E1",
"b 	c #E2E0DF",
"c 	c #E4E3E2",
"d 	c #DBD9D8",
"e 	c #E0DFDE",
"f 	c #E5E4E2",
"g 	c #D4D2D1",
"h 	c #D5D4D2",
"i 	c #E4E4E2",
"j 	c #E5E4E3",
"k 	c #DCDAD8",
"l 	c #DEDCDA",
"m 	c #E0DEDD",
"n 	c #E6E5E3",
"o 	c #D9D7D6",
"p 	c #E6E5E4",
"q 	c #E7E6E4",
"r 	c #E7E6E5",
"s 	c #D7D5D4",
"t 	c #B1B4CE",
"u 	c #B1B5CE",
"v 	c #E7E7E5",
"w 	c #A9AECB",
"x 	c #7983BC",
"y 	c #A8ACCA",
"z 	c #E5E5E3",
"A 	c #E8E7E6",
"B 	c #9AA0C6",
"C 	c #999FC6",
"D 	c #E3E1E0",
"E 	c #A8ADCB",
"F 	c #E8E8E6",
"G 	c #B0B4CE",
"H 	c #E9E8E7",
"I 	c #B0B4CF",
"J 	c #B0B5CF",
"K 	c #E8E7E5",
"L 	c #E9E9E7",
"M 	c #B0B4CD",
"N 	c #B3B8D1",
"O 	c #EAE9E8",
"P 	c #B1B5CD",
"Q 	c #B1B6D0",
"R 	c #E6E6E4",
"S 	c #EAEAE8",
"T 	c #B4B8D2",
"U 	c #EAEAE9",
"V 	c #B1B6CE",
"W 	c #B8BBD3",
"X 	c #EBEAE9",
"Y 	c #D0D0D6",
"Z 	c #7A84BC",
"` 	c #7B85BD",
" .	c #D7D8DF",
"..	c #EBEBE9",
"+.	c #B2B6CE",
"@.	c #B7BBD3",
"#.	c #ECEBEA",
"$.	c #969DC6",
"%.	c #979EC6",
"&.	c #B7BCD3",
"*.	c #D1D1D8",
"=.	c #7B84BC",
"-.	c #B2B7D0",
";.	c #AEB2CE",
">.	c #AFB4CF",
",.	c #D8D8E0",
"'.	c #ECECEB",
").	c #B6B9CF",
"!.	c #7B85BC",
"~.	c #B5B8D0",
"{.	c #AEB3CE",
"].	c #BABED4",
"^.	c #EDECEB",
"/.	c #D2D2D9",
"(.	c #B4B7D0",
"_.	c #D3D3DA",
":.	c #EBEBEA",
"<.	c #EDEDEB",
"[.	c #B0B4D0",
"}.	c #EDEDEC",
"|.	c #AFB3CE",
"1.	c #B0B5D0",
"2.	c #ECECEA",
"3.	c #EEEDEC",
"4.	c #AFB3CF",
"5.	c #E9E8E6",
"6.	c #EEEEEC",
"7.	c #EEEEED",
"8.	c #B5BAD2",
"9.	c #D6D6DD",
"0.	c #EFEFEE",
"a.	c #B9BDD3",
"b.	c #D7D8DE",
"c.	c #F0F0EE",
"d.	c #F0F0EF",
"e.	c #F0EFEE",
"f.	c #F1F1F0",
"g.	c #E9E9E8",
"h.	c #F2F1F0",
"i.	c #EFEFED",
"j.	c #F1F1EF",
"k.	c #F2F2F1",
"l.	c #F3F3F1",
"m.	c #F3F2F1",
"n.	c #F3F3F2",
"o.	c #F4F4F3",
". . + + + + + + + + + + + + + + + + + + + + + + + + + + + + + + + + + + + + + + + + + + + + + + + + . . ",
". . + + + + + + + + + + + + + + + + + + + + + + + + + + + + + + + + + + + + + + + + + + + + + + + + . . ",
". . + + @ # # $ % % & & * = = - ; > , ' ) ! ~ { ] ^ ^ / ( _ : < [ } } | 1 2 3 3 4 5 6 7 7 8 9 0 0 a . . ",
". . + + # # $ % % & & * = = - ; > , ' ) ! ~ { ] ^ ^ / ( ( : < [ } } | 1 2 3 3 4 5 6 b 7 8 9 0 0 a c . . ",
". . + + # $ % % & & * = = - ; > , ' ) ! ~ { ] d ^ / ( ( : < [ } } | 1 2 3 3 e 5 6 b 7 8 9 0 0 a c f . . ",
". . + + g % % & & * = = - ; > , ' ) ! ~ { ] d ^ / ( ( : < [ } } | 1 2 3 3 e 5 6 b 7 8 9 0 0 a c f f . . ",
". . + + % % h & * = = - ; > , ' ) ! ~ { ] d ^ / ( ( : < [ } } | 1 1 3 3 e 5 5 b 7 8 9 9 0 a c i f j . . ",
". . + + % h & * = = - ; > , ' ) ! ! { ] d ^ k ( ( : < l } } | 1 1 m 3 e 5 5 b 7 8 9 9 0 a c i f j n . . ",
". . + + h & & = = - ; ; , ' o ) ! { ] d ^ k ( ( : < l } } | 1 1 m 3 e 5 5 b 7 8 9 9 0 a c i f j n p . . ",
". . + + & & = = - ; ; , ' o ) ! { ] d ^ k ( ( : < l } } | 1 1 m 3 e 5 5 b 7 8 9 9 0 a c i f j n p p . . ",
". . + + & = = - ; ; , ' o ) ! { ] d ^ k ( ( : < < } } | 1 1 m 3 e 5 5 b 7 8 9 9 0 a c c f j n p p q . . ",
". . + + = = - ; ; , ' o ) ! { ] d ^ k ( ( : < < [ } | 1 1 m 3 e 5 5 6 7 8 9 9 0 a c c f j n p p q r . . ",
". . + + = s ; ; , ' o ) ! { ] d ^ k ( ( : < < [ } t u 1 m 3 e 5 5 6 7 8 9 9 0 a c c f j n p p q r v . . ",
". . + + s ; ; , ' o ) ! { ] d ^ k ( ( : < < [ } w x x y 3 e 5 5 6 7 8 9 9 0 a c c f j z p p q r v A . . ",
". . + + ; ; , ' o ) ! { ] d ^ k ( ( : < < [ } B x x x x C 5 5 6 7 8 D 9 0 a c c f j z p p q r v A A . . ",
". . + + ; , ' o ) ! { { d ^ k / ( : < < [ } w x x x x x x E 6 7 8 D 9 0 a c c f j z p p q r v A A F . . ",
". . + + , ' o ) ! { { d ^ k / ( : < < [ } u x x x x x x x x G 8 D 9 0 a c c f j z p p q r v A A F H . . ",
". . + + ' o ) ! { { d ^ k / ( : < < [ } u x x x x x x x x x x I 9 0 a c c f j z p p q r r A A F H H . . ",
". . + + o ) ! { { d ^ k / ( : < < [ } u x x x x x x x x x x x x J a a c f j z n p q r r K A F H H L . . ",
". . + + ) ! ~ { d ^ k / ( : < < [ } M x x x x x x x x x x x x x x N c f j z n p q r r K A F H H L O . . ",
". . + + ! ~ { ] ^ k / ( _ < < [ } P x x x x x x x x x x x x x x x x Q j z n p R r r K A F H H L O S . . ",
". . + + ~ { ] ^ k / ( _ < < [ } M x x x x x x x x x x x x x x x x x x T n p R r r K A F H H L O S U . . ",
". . + + { ] ^ ^ / ( _ < < [ } V x x x x x x x x x x x x x x x x x x x x W R r r K A F H H L O S U X . . ",
". . + + ] ^ ^ / ( _ < < [ } Y Z x x x x x x x x x x x x x x x x x x x x `  .r K A F H H L O S U X ... . ",
". . + + ^ ^ / ( _ < < [ } } +.x x x x x x x x x x x x x x x x x x x x x x @.K A F H H L O O U X ..#.. . ",
". . + + ^ / ( _ < < [ } } | +.x x x x x x x $.x x x x x x %.x x x x x x x &.A F H H L O O U X ..#.#.. . ",
". . + + / ( _ : < [ } } | 1 *.=.x x x x x -.;.x x x x x x >.T x x x x x ` ,.F H H L O O U X ..#.#.'.. . ",
". . + + ( _ : < [ } } | 1 2 3 ).=.x x !.~.8 {.x x x x x x >.n W ` x x ` ].F H H L O O U X ..#.#.'.^.. . ",
". . + + _ : < [ } } | 1 2 3 3 4 /.(.~._.8 9 {.x x x x x x I p R  .@.@.,.A H H L O O U X ..:.#.'.^.<.. . ",
". . + + : < [ } } | 1 2 3 3 4 5 6 b 7 8 9 0 {.x x x x x x [.R r r v A A H H L O O U X ..:.#.'.^.<.}.. . ",
". . + + < [ } } | 1 2 3 3 e 5 6 b 7 8 9 0 0 |.x x x x x x 1.r r v A A H H L O O S X ..:.#.2.^.<.}.3.. . ",
". . + + [ } } | 1 2 3 3 e 5 6 b 7 8 9 0 0 a 4.x x x x x x 1.r v A A 5.H L O O S X ..:.#.2.^.^.}.3.6.. . ",
". . + + } } | 1 1 3 3 e 5 5 b 7 8 9 9 0 a c >.x x x x x x 1.v A A 5.H L O O S X ..:.#.2.^.^.}.3.6.7.. . ",
". . + + } | 1 1 m 3 e 5 5 b 7 8 9 9 0 a c i 8.x x x x x x &.A A F H L O O S X ..:.#.2.^.^.}.3.6.7.+ . . ",
". . + + | 1 1 m 3 e 5 5 b 7 8 9 9 0 a c i f 9.` x x x x ` ,.A F H L O O S X ..:.#.2.^.^.}.3.6.7.+ 0.. . ",
". . + + 1 1 m 3 e 5 5 b 7 8 9 9 0 a c i f j n a.` x x ` ].A F H L O O S X X :.#.2.'.^.}.3.6.7.+ 0.0.. . ",
". . + + 1 m 3 e 5 5 b 7 8 9 9 0 a c c f j n p p b.@.@.,.A F H L O O S X X :.#.2.'.^.}.3.6.7.+ 0.0.c.. . ",
". . + + m 3 e 5 5 6 7 8 9 9 0 a c c f j n p p q r v A A F H L O O S X X :.#.2.'.^.}.3.6.7.+ 0.0.c.d.. . ",
". . + + 3 e 5 5 6 7 8 9 9 0 a c c f j n p p q r v A A F H L O O S X X :.#.2.'.^.}.3.6.7.+ 0.0.e.d.d.. . ",
". . + + e 5 5 6 7 8 9 9 0 a c c f j z p p q r v A A F H H O O S X X :.#.2.'.^.}.3.6.7.+ 0.0.e.d.d.f.. . ",
". . + + 5 5 6 7 8 D 9 0 a c c f j z p p q r v A A F H H g.O S X X :.#.2.'.^.}.3.6.7.+ 0.0.e.d.d.f.f.. . ",
". . + + 5 6 7 8 D 9 0 a c c f j z p p q r v A A F H H g.O S X X :.#.2.'.^.}.3.6.7.+ 0.0.e.d.d.f.f.h.. . ",
". . + + 6 7 8 D 9 0 a c c f j z p p q r v A A F H H g.O S X X :.#.2.'.^.}.}.3.7.+ i.0.e.d.d.j.f.h.k.. . ",
". . + + 7 8 D 9 0 a c c f j z p p q r r A A F H H L O S X X ..#.2.'.^.<.}.3.7.+ i.0.e.d.d.j.f.h.k.k.. . ",
". . + + 8 8 9 0 a a c f j z n p q r r K A F H H L O S X X ..#.2.'.^.<.}.3.7.+ i.0.e.d.d.j.f.f.k.k.l.. . ",
". . + + 8 9 0 a a c f j z n p q r r K A F H H L O S X X ..#.2.'.^.<.}.3.7.+ i.0.e.d.d.j.f.f.k.k.m.n.. . ",
". . + + 9 0 a a c f j z n p R r r K A F H H L O S X X ..#.#.'.^.<.}.3.7.+ i.0.e.d.d.j.f.f.k.k.m.n.n.. . ",
". . + + 0 a a c f j j n p R r r K A F H H L O S U X ..#.#.'.^.<.}.3.7.+ i.0.e.d.d.j.f.f.k.k.m.n.n.o.. . "};
