/* XPM */
static char * close_inactive_xpm[] = {
"52 48 99 2",
"  	c None",
". 	c #EFEEED",
"+ 	c #E5E4E3",
"@ 	c #CACAC9",
"# 	c #A5A4A4",
"$ 	c #5C5B5B",
"% 	c #111111",
"& 	c #000000",
"* 	c #E2E1E0",
"= 	c #737372",
"- 	c #080808",
"; 	c #EBEAE9",
"> 	c #C0BFBE",
", 	c #1D1C1C",
"' 	c #EAE9E8",
") 	c #D2D1D0",
"! 	c #1B1A1A",
"~ 	c #E9E8E7",
"{ 	c #BCBBBB",
"] 	c #E9E8E6",
"^ 	c #E8E7E6",
"/ 	c #E7E6E5",
"( 	c #5B5B5A",
"_ 	c #E7E5E4",
": 	c #A3A2A2",
"< 	c #E6E5E3",
"[ 	c #E4E3E2",
"} 	c #E5E3E2",
"| 	c #E4E3E1",
"1 	c #CDCBC9",
"2 	c #A4A2A1",
"3 	c #E3E2E1",
"4 	c #A7A6A4",
"5 	c #6E6B69",
"6 	c #6D6A68",
"7 	c #A3A2A1",
"8 	c #A6A3A2",
"9 	c #E3E1E0",
"0 	c #CCC9C9",
"a 	c #A29F9E",
"b 	c #E2E1DF",
"c 	c #A4A2A0",
"d 	c #A19F9E",
"e 	c #E1E0DE",
"f 	c #A3A2A0",
"g 	c #A19F9D",
"h 	c #E1DFDE",
"i 	c #CAC9C8",
"j 	c #E0DFDD",
"k 	c #A3A1A0",
"l 	c #DFDEDC",
"m 	c #A1A09E",
"n 	c #9E9C9B",
"o 	c #DFDDDB",
"p 	c #9E9C9A",
"q 	c #DEDCDB",
"r 	c #DDDCDA",
"s 	c #A09F9D",
"t 	c #DDDBD9",
"u 	c #9E9B9A",
"v 	c #DCDAD8",
"w 	c #A19E9C",
"x 	c #9D9B9A",
"y 	c #DBDAD8",
"z 	c #A09E9C",
"A 	c #9C9B9A",
"B 	c #DAD9D7",
"C 	c #9C9B99",
"D 	c #DAD8D6",
"E 	c #A09D9B",
"F 	c #D9D8D5",
"G 	c #D8D7D5",
"H 	c #A2A09E",
"I 	c #D8D6D4",
"J 	c #C4C2C0",
"K 	c #D7D5D3",
"L 	c #D6D5D2",
"M 	c #9E9B99",
"N 	c #D6D4D2",
"O 	c #C3C0BF",
"P 	c #D5D3D1",
"Q 	c #A2A09F",
"R 	c #9F9D9C",
"S 	c #A19E9D",
"T 	c #D4D3D0",
"U 	c #C1BFBD",
"V 	c #9F9D9B",
"W 	c #D4D2D0",
"X 	c #D3D1CF",
"Y 	c #D2D1CE",
"Z 	c #D2D0CD",
"` 	c #D1CFCD",
" .	c #D0CFCC",
"..	c #D0CECB",
"+.	c #CFCDCA",
"@.	c #CECCCA",
"#.	c #CECCC9",
"$.	c #CDCBC8",
"%.	c #CCCAC7",
". . . . . . . . . . . . . . . . . . . . . . . . . . . . . . . . . . . . . . . + @ # $ % & & &           ",
". . . . . . . . . . . . . . . . . . . . . . . . . . . . . . . . . . . . . . . . . . . * = - & &         ",
"; ; ; ; ; ; ; ; ; ; ; ; ; ; ; ; ; ; ; ; ; ; ; ; ; ; ; ; ; ; ; ; ; ; ; ; ; ; ; ; ; ; ; ; ; > , & &       ",
"' ' ' ' ' ' ' ' ' ' ' ' ' ' ' ' ' ' ' ' ' ' ' ' ' ' ' ' ' ' ' ' ' ' ' ' ' ' ' ' ' ' ' ' ' ' ) ! & &     ",
"~ ~ ~ ~ ~ ~ ~ ~ ~ ~ ~ ~ ~ ~ ~ ~ ~ ~ ~ ~ ~ ~ ~ ~ ~ ~ ~ ~ ~ ~ ~ ~ ~ ~ ~ ~ ~ ~ ~ ~ ~ ~ ~ ~ ~ ~ ~ { - &     ",
"] ] ] ] ] ] ] ] ] ] ] ] ] ] ] ] ] ] ] ] ] ] ] ] ] ] ] ] ] ] ] ] ] ] ] ] ] ] ] ] ] ] ] ] ] ] ] ] = & &   ",
"^ ^ ^ ^ ^ ^ ^ ^ ^ ^ ^ ^ ^ ^ ^ ^ ^ ^ ^ ^ ^ ^ ^ ^ ^ ^ ^ ^ ^ ^ ^ ^ ^ ^ ^ ^ ^ ^ ^ ^ ^ ^ ^ ^ ^ ^ ^ ^ * % &   ",
"/ / / / / / / / / / / / / / / / / / / / / / / / / / / / / / / / / / / / / / / / / / / / / / / / . ( & & ",
"_ _ _ _ _ _ _ _ _ _ _ _ _ _ _ _ _ _ _ _ _ _ _ _ _ _ _ _ _ _ _ _ _ _ _ _ _ _ _ _ _ _ _ _ _ _ _ _ . : & & ",
"< < < < < < < < < < < < < < < < < < < < < < < < < < < < < < < < < < < < < < < < < < < < < < < < . @ & & ",
"+ + + + + + + + + + + + + + + + + + + + + + + + + + + + + + + + + + + + + + + + + + + + + + + + . [ & & ",
"} } } } } } } } } } } } } } } } } } } } } } } } } } } } } } } } } } } } } } } } } } } } } } } } . . & & ",
"| | | | | | | | | | | | | | | | 1 2 2 1 | | | | | | | | | | | | 1 2 2 1 | | | | | | | | | | | | . . & & ",
"3 3 3 3 3 3 3 3 3 3 3 3 3 3 3 4 5 6 6 5 7 3 3 3 3 3 3 3 3 3 3 8 5 6 6 5 4 3 3 3 3 3 3 3 3 3 3 3 . . & & ",
"9 9 9 9 9 9 9 9 9 9 9 9 9 9 0 5 6 6 6 6 6 a 9 9 9 9 9 9 9 9 a 6 6 6 6 6 5 0 9 9 9 9 9 9 9 9 9 9 . . & & ",
"b b b b b b b b b b b b b b c 6 6 6 6 6 6 6 d b b b b b b d 6 6 6 6 6 6 6 c b b b b b b b b b b . . & & ",
"e e e e e e e e e e e e e e f 6 6 6 6 6 6 6 6 g e e e e g 6 6 6 6 6 6 6 6 f e e e e e e e e e e . . & & ",
"h h h h h h h h h h h h h h i 5 6 6 6 6 6 6 6 6 g h h g 6 6 6 6 6 6 6 6 5 i h h h h h h h h h h . . & & ",
"j j j j j j j j j j j j j j j k 6 6 6 6 6 6 6 6 6 g g 6 6 6 6 6 6 6 6 6 2 j j j j j j j j j j j . . & & ",
"l l l l l l l l l l l l l l l l m 6 6 6 6 6 6 6 6 6 6 6 6 6 6 6 6 6 6 n l l l l l l l l l l l l . . & & ",
"o o o o o o o o o o o o o o o o o d 6 6 6 6 6 6 6 6 6 6 6 6 6 6 6 6 p o o o o o o o o o o o o o . . & & ",
"q q q q q q q q q q q q q q q q q q d 6 6 6 6 6 6 6 6 6 6 6 6 6 6 p q q q q q q q q q q q q q q . . & & ",
"r r r r r r r r r r r r r r r r r r r s 6 6 6 6 6 6 6 6 6 6 6 6 p r r r r r r r r r r r r r r r . . & & ",
"t t t t t t t t t t t t t t t t t t t t s 6 6 6 6 6 6 6 6 6 6 u t t t t t t t t t t t t t t t t . . & & ",
"v v v v v v v v v v v v v v v v v v v v w 6 6 6 6 6 6 6 6 6 6 x v v v v v v v v v v v v v v v v . . & & ",
"y y y y y y y y y y y y y y y y y y y z 6 6 6 6 6 6 6 6 6 6 6 6 A y y y y y y y y y y y y y y y . . & & ",
"B B B B B B B B B B B B B B B B B B z 6 6 6 6 6 6 6 6 6 6 6 6 6 6 C B B B B B B B B B B B B B B . . & & ",
"D D D D D D D D D D D D D D D D D E 6 6 6 6 6 6 6 6 6 6 6 6 6 6 6 6 C D D D D D D D D D D D D D . . & & ",
"F F F F F F F F F F F F F F F F E 6 6 6 6 6 6 6 6 6 6 6 6 6 6 6 6 6 6 C F F F F F F F F F F F F . . & & ",
"G G G G G G G G G G G G G G G s 6 6 6 6 6 6 6 6 6 p p 6 6 6 6 6 6 6 6 6 H G G G G G G G G G G G . . & & ",
"I I I I I I I I I I I I I I J 5 6 6 6 6 6 6 6 6 p I I p 6 6 6 6 6 6 6 6 5 J I I I I I I I I I I . . & & ",
"K K K K K K K K K K K K K K z 6 6 6 6 6 6 6 6 u K K K K u 6 6 6 6 6 6 6 6 z K K K K K K K K K K . . & & ",
"L L L L L L L L L L L L L L z 6 6 6 6 6 6 6 M L L L L L L M 6 6 6 6 6 6 6 z L L L L L L L L L L . . & & ",
"N N N N N N N N N N N N N N O 5 6 6 6 6 6 M N N N N N N N N M 6 6 6 6 6 5 O N N N N N N N N N N . . & & ",
"P P P P P P P P P P P P P P P Q 5 6 6 5 R P P P P P P P P P P S 5 6 6 5 Q P P P P P P P P P P P . . & & ",
"T T T T T T T T T T T T T T T T U V V U T T T T T T T T T T T T U V V U T T T T T T T T T T T T . . & & ",
"W W W W W W W W W W W W W W W W W W W W W W W W W W W W W W W W W W W W W W W W W W W W W W W W . . & & ",
"X X X X X X X X X X X X X X X X X X X X X X X X X X X X X X X X X X X X X X X X X X X X X X X X . . & & ",
"Y Y Y Y Y Y Y Y Y Y Y Y Y Y Y Y Y Y Y Y Y Y Y Y Y Y Y Y Y Y Y Y Y Y Y Y Y Y Y Y Y Y Y Y Y Y Y Y . . & & ",
"Z Z Z Z Z Z Z Z Z Z Z Z Z Z Z Z Z Z Z Z Z Z Z Z Z Z Z Z Z Z Z Z Z Z Z Z Z Z Z Z Z Z Z Z Z Z Z Z . . & & ",
"` ` ` ` ` ` ` ` ` ` ` ` ` ` ` ` ` ` ` ` ` ` ` ` ` ` ` ` ` ` ` ` ` ` ` ` ` ` ` ` ` ` ` ` ` ` ` ` . . & & ",
" . . . . . . . . . . . . . . . . . . . . . . . . . . . . . . . . . . . . . . . . . . . . . . . .. . & & ",
"................................................................................................. . & & ",
"+.+.+.+.+.+.+.+.+.+.+.+.+.+.+.+.+.+.+.+.+.+.+.+.+.+.+.+.+.+.+.+.+.+.+.+.+.+.+.+.+.+.+.+.+.+.+.+.. . & & ",
"@.@.@.@.@.@.@.@.@.@.@.@.@.@.@.@.@.@.@.@.@.@.@.@.@.@.@.@.@.@.@.@.@.@.@.@.@.@.@.@.@.@.@.@.@.@.@.@.. . & & ",
"#.#.#.#.#.#.#.#.#.#.#.#.#.#.#.#.#.#.#.#.#.#.#.#.#.#.#.#.#.#.#.#.#.#.#.#.#.#.#.#.#.#.#.#.#.#.#.#.. . & & ",
"$.$.$.$.$.$.$.$.$.$.$.$.$.$.$.$.$.$.$.$.$.$.$.$.$.$.$.$.$.$.$.$.$.$.$.$.$.$.$.$.$.$.$.$.$.$.$.$.. . & & ",
"%.%.%.%.%.%.%.%.%.%.%.%.%.%.%.%.%.%.%.%.%.%.%.%.%.%.%.%.%.%.%.%.%.%.%.%.%.%.%.%.%.%.%.%.%.%.%.%.. . & & "};
