/* XPM */
static char * hide_active_xpm[] = {
"52 48 117 2",
"  	c None",
". 	c #393E5F",
"+ 	c #EFEEED",
"@ 	c #D3D1CF",
"# 	c #D4D2D0",
"$ 	c #D4D3D1",
"% 	c #D5D3D1",
"& 	c #D6D4D2",
"* 	c #D6D4D3",
"= 	c #D7D5D3",
"- 	c #D7D6D4",
"; 	c #D8D6D4",
"> 	c #D8D6D5",
", 	c #D8D7D5",
"' 	c #D9D7D5",
") 	c #D9D8D6",
"! 	c #DAD8D6",
"~ 	c #DAD8D7",
"{ 	c #DAD9D7",
"] 	c #DBD9D7",
"^ 	c #DBDAD8",
"/ 	c #DCDAD9",
"( 	c #DCDBD9",
"_ 	c #DDDBD9",
": 	c #DDDBDA",
"< 	c #DDDCDA",
"[ 	c #DEDCDB",
"} 	c #DEDDDB",
"| 	c #DFDDDC",
"1 	c #DFDEDC",
"2 	c #DFDEDD",
"3 	c #E0DFDD",
"4 	c #E1DFDE",
"5 	c #E1E0DE",
"6 	c #E1E0DF",
"7 	c #E2E1DF",
"8 	c #E2E1E0",
"9 	c #E3E2E0",
"0 	c #E3E2E1",
"a 	c #E4E3E1",
"b 	c #E2E0DF",
"c 	c #E4E3E2",
"d 	c #DBD9D8",
"e 	c #E0DFDE",
"f 	c #E5E4E2",
"g 	c #D4D2D1",
"h 	c #D5D4D2",
"i 	c #E4E4E2",
"j 	c #E5E4E3",
"k 	c #DCDAD8",
"l 	c #DEDCDA",
"m 	c #E0DEDD",
"n 	c #E6E5E3",
"o 	c #D9D7D6",
"p 	c #E6E5E4",
"q 	c #E7E6E4",
"r 	c #E7E6E5",
"s 	c #D7D5D4",
"t 	c #E7E7E5",
"u 	c #E5E5E3",
"v 	c #E8E7E6",
"w 	c #E3E1E0",
"x 	c #E8E8E6",
"y 	c #DEDDDC",
"z 	c #E9E8E7",
"A 	c #E8E7E5",
"B 	c #E9E9E7",
"C 	c #EAE9E8",
"D 	c #E6E6E4",
"E 	c #EAEAE8",
"F 	c #EAEAE9",
"G 	c #EBEAE9",
"H 	c #EBEBE9",
"I 	c #ECEBEA",
"J 	c #ECECEB",
"K 	c #EDECEB",
"L 	c #C7C6CA",
"M 	c #6D7087",
"N 	c #414665",
"O 	c #424766",
"P 	c #707389",
"Q 	c #CECDD2",
"R 	c #EBEBEA",
"S 	c #EDEDEB",
"T 	c #434867",
"U 	c #444967",
"V 	c #CECED3",
"W 	c #EDEDEC",
"X 	c #72758A",
"Y 	c #ECECEA",
"Z 	c #EEEDEC",
"` 	c #EEEEEC",
" .	c #424665",
"..	c #444867",
"+.	c #EEEEED",
"@.	c #6E7287",
"#.	c #75788D",
"$.	c #C8C8CD",
"%.	c #464A69",
"&.	c #D7D7D9",
"*.	c #EFEFEE",
"=.	c #C9C8CD",
"-.	c #6F7288",
";.	c #434766",
">.	c #F0F0EE",
",.	c #F0F0EF",
"'.	c #F0EFEE",
").	c #F1F1F0",
"!.	c #E9E9E8",
"~.	c #F2F1F0",
"{.	c #EFEFED",
"].	c #F1F1EF",
"^.	c #F2F2F1",
"/.	c #F3F3F1",
"(.	c #F3F2F1",
"_.	c #F3F3F2",
":.	c #F4F4F3",
". . + + + + + + + + + + + + + + + + + + + + + + + + + + + + + + + + + + + + + + + + + + + + + + + + . . ",
". . + + + + + + + + + + + + + + + + + + + + + + + + + + + + + + + + + + + + + + + + + + + + + + + + . . ",
". . + + @ # # $ % % & & * = = - ; > , ' ) ! ~ { ] ^ ^ / ( _ : < [ } } | 1 2 3 3 4 5 6 7 7 8 9 0 0 a . . ",
". . + + # # $ % % & & * = = - ; > , ' ) ! ~ { ] ^ ^ / ( ( : < [ } } | 1 2 3 3 4 5 6 b 7 8 9 0 0 a c . . ",
". . + + # $ % % & & * = = - ; > , ' ) ! ~ { ] d ^ / ( ( : < [ } } | 1 2 3 3 e 5 6 b 7 8 9 0 0 a c f . . ",
". . + + g % % & & * = = - ; > , ' ) ! ~ { ] d ^ / ( ( : < [ } } | 1 2 3 3 e 5 6 b 7 8 9 0 0 a c f f . . ",
". . + + % % h & * = = - ; > , ' ) ! ~ { ] d ^ / ( ( : < [ } } | 1 1 3 3 e 5 5 b 7 8 9 9 0 a c i f j . . ",
". . + + % h & * = = - ; > , ' ) ! ! { ] d ^ k ( ( : < l } } | 1 1 m 3 e 5 5 b 7 8 9 9 0 a c i f j n . . ",
". . + + h & & = = - ; ; , ' o ) ! { ] d ^ k ( ( : < l } } | 1 1 m 3 e 5 5 b 7 8 9 9 0 a c i f j n p . . ",
". . + + & & = = - ; ; , ' o ) ! { ] d ^ k ( ( : < l } } | 1 1 m 3 e 5 5 b 7 8 9 9 0 a c i f j n p p . . ",
". . + + & = = - ; ; , ' o ) ! { ] d ^ k ( ( : < < } } | 1 1 m 3 e 5 5 b 7 8 9 9 0 a c c f j n p p q . . ",
". . + + = = - ; ; , ' o ) ! { ] d ^ k ( ( : < < [ } | 1 1 m 3 e 5 5 6 7 8 9 9 0 a c c f j n p p q r . . ",
". . + + = s ; ; , ' o ) ! { ] d ^ k ( ( : < < [ } | 1 1 m 3 e 5 5 6 7 8 9 9 0 a c c f j n p p q r t . . ",
". . + + s ; ; , ' o ) ! { ] d ^ k ( ( : < < [ } | 1 1 m 3 e 5 5 6 7 8 9 9 0 a c c f j u p p q r t v . . ",
". . + + ; ; , ' o ) ! { ] d ^ k ( ( : < < [ } | 1 1 m 3 e 5 5 6 7 8 w 9 0 a c c f j u p p q r t v v . . ",
". . + + ; , ' o ) ! { { d ^ k / ( : < < [ } | 1 1 m 3 e 5 5 6 7 8 w 9 0 a c c f j u p p q r t v v x . . ",
". . + + , ' o ) ! { { d ^ k / ( : < < [ } y 1 1 m 3 e 5 5 6 7 8 w 9 0 a c c f j u p p q r t v v x z . . ",
". . + + ' o ) ! { { d ^ k / ( : < < [ } y 1 1 m 3 e 5 5 6 7 8 w 9 0 a c c f j u p p q r r v v x z z . . ",
". . + + o ) ! { { d ^ k / ( : < < [ } y 1 1 m 3 e 4 5 6 7 8 8 9 0 a a c f j u n p q r r A v x z z B . . ",
". . + + ) ! ~ { d ^ k / ( : < < [ } } 1 1 m 3 3 4 5 6 7 7 8 9 0 a a c f j u n p q r r A v x z z B C . . ",
". . + + ! ~ { ] ^ k / ( _ < < [ } } 1 1 m 3 3 4 5 6 7 7 8 9 0 a a c f j u n p D r r A v x z z B C E . . ",
". . + + ~ { ] ^ k / ( _ < < [ } } 1 1 m 3 3 4 5 6 7 7 8 9 0 a a c f j j n p D r r A v x z z B C E F . . ",
". . + + { ] ^ ^ / ( _ < < [ } } | 1 m 3 3 4 5 6 7 7 8 9 0 a a c f j j n p D r r A v x z z B C E F G . . ",
". . + + ] ^ ^ / ( _ < < [ } } | 1 2 3 3 4 5 6 7 7 8 9 0 a a c f j j n p D r r A v x z z B C E F G H . . ",
". . + + ^ ^ / ( _ < < [ } } | 1 2 3 3 4 5 6 7 7 8 9 0 a a c f j j n p D r r A v x z z B C C F G H I . . ",
". . + + ^ / ( _ < < [ } } | 1 2 3 3 4 5 6 7 7 8 9 0 0 a c f j j n p D r r A v x z z B C C F G H I I . . ",
". . + + / ( _ : < [ } } | 1 2 3 3 4 5 6 7 7 8 9 0 0 a c f j j n p D r r A v x z z B C C F G H I I J . . ",
". . + + ( _ : < [ } } | 1 2 3 3 4 5 6 7 7 8 9 0 0 a c f j j n p D r r t v x z z B C C F G H I I J K . . ",
". . + + _ : < [ } } | 1 2 3 3 L M N . . . . . . . . . . . . . . . . O P Q z z B C C F G H R I J K S . . ",
". . + + : < [ } } | 1 2 3 3 L T . . . . . . . . . . . . . . . . . . . . U V B C C F G H R I J K S W . . ",
". . + + < [ } } | 1 2 3 3 e M . . . . . . . . . . . . . . . . . . . . . . X C C E G H R I Y K S W Z . . ",
". . + + [ } } | 1 2 3 3 e 5 N . . . . . . . . . . . . . . . . . . . . . . T C E G H R I Y K K W Z ` . . ",
". . + + } } | 1 1 3 3 e 5 5  .. . . . . . . . . . . . . . . . . . . . . . ..E G H R I Y K K W Z ` +.. . ",
". . + + } | 1 1 m 3 e 5 5 b @.. . . . . . . . . . . . . . . . . . . . . . #.G H R I Y K K W Z ` +.+ . . ",
". . + + | 1 1 m 3 e 5 5 b 7 $.T . . . . . . . . . . . . . . . . . . . . %.&.H R I Y K K W Z ` +.+ *.. . ",
". . + + 1 1 m 3 e 5 5 b 7 8 9 =.-.;.. . . . . . . . . . . . . . . . T #.&.G R I Y J K W Z ` +.+ *.*.. . ",
". . + + 1 m 3 e 5 5 b 7 8 9 9 0 a c c f j n p p q r t v v x z B C C E G G R I Y J K W Z ` +.+ *.*.>.. . ",
". . + + m 3 e 5 5 6 7 8 9 9 0 a c c f j n p p q r t v v x z B C C E G G R I Y J K W Z ` +.+ *.*.>.,.. . ",
". . + + 3 e 5 5 6 7 8 9 9 0 a c c f j n p p q r t v v x z B C C E G G R I Y J K W Z ` +.+ *.*.'.,.,.. . ",
". . + + e 5 5 6 7 8 9 9 0 a c c f j u p p q r t v v x z z C C E G G R I Y J K W Z ` +.+ *.*.'.,.,.).. . ",
". . + + 5 5 6 7 8 w 9 0 a c c f j u p p q r t v v x z z !.C E G G R I Y J K W Z ` +.+ *.*.'.,.,.).).. . ",
". . + + 5 6 7 8 w 9 0 a c c f j u p p q r t v v x z z !.C E G G R I Y J K W Z ` +.+ *.*.'.,.,.).).~.. . ",
". . + + 6 7 8 w 9 0 a c c f j u p p q r t v v x z z !.C E G G R I Y J K W W Z +.+ {.*.'.,.,.].).~.^.. . ",
". . + + 7 8 w 9 0 a c c f j u p p q r r v v x z z B C E G G H I Y J K S W Z +.+ {.*.'.,.,.].).~.^.^.. . ",
". . + + 8 8 9 0 a a c f j u n p q r r A v x z z B C E G G H I Y J K S W Z +.+ {.*.'.,.,.].).).^.^./.. . ",
". . + + 8 9 0 a a c f j u n p q r r A v x z z B C E G G H I Y J K S W Z +.+ {.*.'.,.,.].).).^.^.(._.. . ",
". . + + 9 0 a a c f j u n p D r r A v x z z B C E G G H I I J K S W Z +.+ {.*.'.,.,.].).).^.^.(._._.. . ",
". . + + 0 a a c f j j n p D r r A v x z z B C E F G H I I J K S W Z +.+ {.*.'.,.,.].).).^.^.(._._.:.. . "};
