/* XPM */
static char * stick_inactive_xpm[] = {
"52 48 105 2",
"  	c None",
". 	c #EFEEED",
"+ 	c #EBEAE9",
"@ 	c #EAE9E8",
"# 	c #E9E8E7",
"$ 	c #E9E8E6",
"% 	c #E8E7E6",
"& 	c #E7E6E5",
"* 	c #E7E5E4",
"= 	c #E6E5E3",
"- 	c #E5E4E3",
"; 	c #E5E3E2",
"> 	c #E4E3E1",
", 	c #CFCDCB",
"' 	c #A09E9C",
") 	c #817E7C",
"! 	c #726F6E",
"~ 	c #6D6A68",
"{ 	c #A19F9D",
"] 	c #CFCECB",
"^ 	c #E3E2E1",
"/ 	c #E0DFDE",
"( 	c #9D9A99",
"_ 	c #6E6B69",
": 	c #9D9B9A",
"< 	c #E3E1E0",
"[ 	c #E0DEDD",
"} 	c #8A8885",
"| 	c #8B8786",
"1 	c #E2E1DF",
"2 	c #9C9A98",
"3 	c #9E9C9A",
"4 	c #E1E0DE",
"5 	c #CCCBC9",
"6 	c #6F6C6A",
"7 	c #CDCBCA",
"8 	c #E1DFDE",
"9 	c #9E9C9B",
"0 	c #A09D9C",
"a 	c #E0DFDD",
"b 	c #807E7B",
"c 	c #8F8D8A",
"d 	c #D4D2D1",
"e 	c #D3D3D0",
"f 	c #8E8C8A",
"g 	c #817E7B",
"h 	c #DFDEDC",
"i 	c #72706E",
"j 	c #D3D2CF",
"k 	c #D2D1CF",
"l 	c #DFDDDB",
"m 	c #DEDCDB",
"n 	c #DDDCDA",
"o 	c #DDDBD9",
"p 	c #DCDAD8",
"q 	c #DBDAD8",
"r 	c #DAD9D7",
"s 	c #DAD8D6",
"t 	c #D9D8D5",
"u 	c #CDCCC9",
"v 	c #D8D7D5",
"w 	c #7F7C7A",
"x 	c #8C8988",
"y 	c #CBCBC9",
"z 	c #8C8A87",
"A 	c #7F7D7B",
"B 	c #D8D6D4",
"C 	c #9C9997",
"D 	c #9D9B99",
"E 	c #D7D5D3",
"F 	c #C4C2C0",
"G 	c #6F6C69",
"H 	c #C5C3C1",
"I 	c #D6D5D2",
"J 	c #989693",
"K 	c #9A9795",
"L 	c #D6D4D2",
"M 	c #D3D1CF",
"N 	c #888483",
"O 	c #888583",
"P 	c #D4D1CF",
"Q 	c #D5D3D1",
"R 	c #D2D0CE",
"S 	c #999694",
"T 	c #6F6B69",
"U 	c #999695",
"V 	c #D3D0CE",
"W 	c #D4D3D0",
"X 	c #C2C1BE",
"Y 	c #9A9895",
"Z 	c #7F7C79",
"` 	c #726F6D",
" .	c #9B9896",
"..	c #C2C1BF",
"+.	c #D4D2D0",
"@.	c #D2D1CE",
"#.	c #D2D0CD",
"$.	c #D1CFCD",
"%.	c #D0CFCC",
"&.	c #D0CECB",
"*.	c #CFCDCA",
"=.	c #CECCCA",
"-.	c #CECCC9",
";.	c #CDCBC8",
">.	c #CCCAC7",
". . . . . . . . . . . . . . . . . . . . . . . . . . . . . . . . . . . . . . . . . . . . . . . . . . . . ",
". . . . . . . . . . . . . . . . . . . . . . . . . . . . . . . . . . . . . . . . . . . . . . . . . . . . ",
"+ + + + + + + + + + + + + + + + + + + + + + + + + + + + + + + + + + + + + + + + + + + + + + + + + + + + ",
"@ @ @ @ @ @ @ @ @ @ @ @ @ @ @ @ @ @ @ @ @ @ @ @ @ @ @ @ @ @ @ @ @ @ @ @ @ @ @ @ @ @ @ @ @ @ @ @ @ @ @ @ ",
"# # # # # # # # # # # # # # # # # # # # # # # # # # # # # # # # # # # # # # # # # # # # # # # # # # # # ",
"$ $ $ $ $ $ $ $ $ $ $ $ $ $ $ $ $ $ $ $ $ $ $ $ $ $ $ $ $ $ $ $ $ $ $ $ $ $ $ $ $ $ $ $ $ $ $ $ $ $ $ $ ",
"% % % % % % % % % % % % % % % % % % % % % % % % % % % % % % % % % % % % % % % % % % % % % % % % % % % % ",
"& & & & & & & & & & & & & & & & & & & & & & & & & & & & & & & & & & & & & & & & & & & & & & & & & & & & ",
"* * * * * * * * * * * * * * * * * * * * * * * * * * * * * * * * * * * * * * * * * * * * * * * * * * * * ",
"= = = = = = = = = = = = = = = = = = = = = = = = = = = = = = = = = = = = = = = = = = = = = = = = = = = = ",
"- - - - - - - - - - - - - - - - - - - - - - - - - - - - - - - - - - - - - - - - - - - - - - - - - - - - ",
"; ; ; ; ; ; ; ; ; ; ; ; ; ; ; ; ; ; ; ; ; ; ; ; ; ; ; ; ; ; ; ; ; ; ; ; ; ; ; ; ; ; ; ; ; ; ; ; ; ; ; ; ",
"> > > > > > > > > > > > > > > > > > , ' ) ! ~ ~ ~ ~ ~ ~ ~ ~ ! ) { ] > > > > > > > > > > > > > > > > > > ",
"^ ^ ^ ^ ^ ^ ^ ^ ^ ^ ^ ^ ^ ^ ^ ^ / ( _ ~ ~ ~ ~ ~ ~ ~ ~ ~ ~ ~ ~ ~ ~ _ : / ^ ^ ^ ^ ^ ^ ^ ^ ^ ^ ^ ^ ^ ^ ^ ^ ",
"< < < < < < < < < < < < < < < [ } ~ ~ ~ ~ ~ ~ ~ ~ ~ ~ ~ ~ ~ ~ ~ ~ ~ ~ | [ < < < < < < < < < < < < < < < ",
"1 1 1 1 1 1 1 1 1 1 1 1 1 1 1 2 ~ ~ ~ ~ ~ ~ ~ ~ ~ ~ ~ ~ ~ ~ ~ ~ ~ ~ ~ ~ 3 1 1 1 1 1 1 1 1 1 1 1 1 1 1 1 ",
"4 4 4 4 4 4 4 4 4 4 4 4 4 4 5 _ ~ ~ ~ ~ ~ ~ ~ ~ ~ ~ ~ ~ ~ ~ ~ ~ ~ ~ ~ ~ 6 7 4 4 4 4 4 4 4 4 4 4 4 4 4 4 ",
"8 8 8 8 8 8 8 8 8 8 8 8 8 8 9 ~ ~ ~ ~ ~ ~ ~ ~ ~ ~ ~ ~ ~ ~ ~ ~ ~ ~ ~ ~ ~ ~ 0 8 8 8 8 8 8 8 8 8 8 8 8 8 8 ",
"a a a a a a a a a a a a a a b ~ ~ ~ ~ ~ c d a a a a a a a a e f ~ ~ ~ ~ ~ g a a a a a a a a a a a a a a ",
"h h h h h h h h h h h h h h i ~ ~ ~ ~ ~ j h h h h h h h h h h k ~ ~ ~ ~ ~ i h h h h h h h h h h h h h h ",
"l l l l l l l l l l l l l l ~ ~ ~ ~ ~ ~ l l l l l l l l l l l l ~ ~ ~ ~ ~ ~ l l l l l l l l l l l l l l ",
"m m m m m m m m m m m m m m ~ ~ ~ ~ ~ ~ m m m m m m m m m m m m ~ ~ ~ ~ ~ ~ m m m m m m m m m m m m m m ",
"n n n n n n n n n n n n n n ~ ~ ~ ~ ~ ~ n n n n n n n n n n n n ~ ~ ~ ~ ~ ~ n n n n n n n n n n n n n n ",
"o o o o o o o o o o o o o o ~ ~ ~ ~ ~ ~ o o o o o o o o o o o o ~ ~ ~ ~ ~ ~ o o o o o o o o o o o o o o ",
"p p p p p p p p p p p p p p ~ ~ ~ ~ ~ ~ p p p p p p p p p p p p ~ ~ ~ ~ ~ ~ p p p p p p p p p p p p p p ",
"q q q q q q q q q q q q q q ~ ~ ~ ~ ~ ~ q q q q q q q q q q q q ~ ~ ~ ~ ~ ~ q q q q q q q q q q q q q q ",
"r r r r r r r r r r r r r r ~ ~ ~ ~ ~ ~ r r r r r r r r r r r r ~ ~ ~ ~ ~ ~ r r r r r r r r r r r r r r ",
"s s s s s s s s s s s s s s ~ ~ ~ ~ ~ ~ s s s s s s s s s s s s ~ ~ ~ ~ ~ ~ s s s s s s s s s s s s s s ",
"t t t t t t t t t t t t t t i ~ ~ ~ ~ ~ u t t t t t t t t t t 5 ~ ~ ~ ~ ~ i t t t t t t t t t t t t t t ",
"v v v v v v v v v v v v v v w ~ ~ ~ ~ ~ x 5 v v v v v v v v y z ~ ~ ~ ~ ~ A v v v v v v v v v v v v v v ",
"B B B B B B B B B B B B B B C ~ ~ ~ ~ ~ ~ ~ ~ ~ ~ ~ ~ ~ ~ ~ ~ ~ ~ ~ ~ ~ ~ D B B B B B B B B B B B B B B ",
"E E E E E E E E E E E E E E F _ ~ ~ ~ ~ ~ ~ ~ ~ ~ ~ ~ ~ ~ ~ ~ ~ ~ ~ ~ ~ G H E E E E E E E E E E E E E E ",
"I I I I I I I I I I I I I I I J ~ ~ ~ ~ ~ ~ ~ ~ ~ ~ ~ ~ ~ ~ ~ ~ ~ ~ ~ ~ K I I I I I I I I I I I I I I I ",
"L L L L L L L L L L L L L L L M N ~ ~ ~ ~ ~ ~ ~ ~ ~ ~ ~ ~ ~ ~ ~ ~ ~ ~ O P L L L L L L L L L L L L L L L ",
"Q Q Q Q Q Q Q Q Q Q Q Q Q Q Q Q R S T ~ ~ ~ ~ ~ ~ ~ ~ ~ ~ ~ ~ ~ ~ T U V Q Q Q Q Q Q Q Q Q Q Q Q Q Q Q Q ",
"W W W W W W W W W W W W W W W W W W X Y Z ` ~ ~ ~ ~ ~ ~ ~ ~ ` w  ...W W W W W W W W W W W W W W W W W W ",
"+.+.+.+.+.+.+.+.+.+.+.+.+.+.+.+.+.+.+.+.+.+.+.+.+.+.+.+.+.+.+.+.+.+.+.+.+.+.+.+.+.+.+.+.+.+.+.+.+.+.+.+.",
"M M M M M M M M M M M M M M M M M M M M M M M M M M M M M M M M M M M M M M M M M M M M M M M M M M M M ",
"@.@.@.@.@.@.@.@.@.@.@.@.@.@.@.@.@.@.@.@.@.@.@.@.@.@.@.@.@.@.@.@.@.@.@.@.@.@.@.@.@.@.@.@.@.@.@.@.@.@.@.@.",
"#.#.#.#.#.#.#.#.#.#.#.#.#.#.#.#.#.#.#.#.#.#.#.#.#.#.#.#.#.#.#.#.#.#.#.#.#.#.#.#.#.#.#.#.#.#.#.#.#.#.#.#.",
"$.$.$.$.$.$.$.$.$.$.$.$.$.$.$.$.$.$.$.$.$.$.$.$.$.$.$.$.$.$.$.$.$.$.$.$.$.$.$.$.$.$.$.$.$.$.$.$.$.$.$.$.",
"%.%.%.%.%.%.%.%.%.%.%.%.%.%.%.%.%.%.%.%.%.%.%.%.%.%.%.%.%.%.%.%.%.%.%.%.%.%.%.%.%.%.%.%.%.%.%.%.%.%.%.%.",
"&.&.&.&.&.&.&.&.&.&.&.&.&.&.&.&.&.&.&.&.&.&.&.&.&.&.&.&.&.&.&.&.&.&.&.&.&.&.&.&.&.&.&.&.&.&.&.&.&.&.&.&.",
"*.*.*.*.*.*.*.*.*.*.*.*.*.*.*.*.*.*.*.*.*.*.*.*.*.*.*.*.*.*.*.*.*.*.*.*.*.*.*.*.*.*.*.*.*.*.*.*.*.*.*.*.",
"=.=.=.=.=.=.=.=.=.=.=.=.=.=.=.=.=.=.=.=.=.=.=.=.=.=.=.=.=.=.=.=.=.=.=.=.=.=.=.=.=.=.=.=.=.=.=.=.=.=.=.=.",
"-.-.-.-.-.-.-.-.-.-.-.-.-.-.-.-.-.-.-.-.-.-.-.-.-.-.-.-.-.-.-.-.-.-.-.-.-.-.-.-.-.-.-.-.-.-.-.-.-.-.-.-.",
";.;.;.;.;.;.;.;.;.;.;.;.;.;.;.;.;.;.;.;.;.;.;.;.;.;.;.;.;.;.;.;.;.;.;.;.;.;.;.;.;.;.;.;.;.;.;.;.;.;.;.;.",
">.>.>.>.>.>.>.>.>.>.>.>.>.>.>.>.>.>.>.>.>.>.>.>.>.>.>.>.>.>.>.>.>.>.>.>.>.>.>.>.>.>.>.>.>.>.>.>.>.>.>.>."};
