/* XPM */
static char * right_inactive_xpm[] = {
"14 52 4 1",
" 	c None",
".	c #797673",
"+	c #EDECEB",
"@	c #010101",
"..++++++++++@@",
"..++++++++++@@",
"..++++++++++@@",
"..++++++++++@@",
"..++++++++++@@",
"..++++++++++@@",
"..++++++++++@@",
"..++++++++++@@",
"..++++++++++@@",
"..++++++++++@@",
"..++++++++++@@",
"..++++++++++@@",
"..++++++++++@@",
"..++++++++++@@",
"..++++++++++@@",
"..++++++++++@@",
"..++++++++++@@",
"..++++++++++@@",
"..++++++++++@@",
"..++++++++++@@",
"..++++++++++@@",
"..++++++++++@@",
"..++++++++++@@",
"..++++++++++@@",
"..++++++++++@@",
"..++++++++++@@",
"..++++++++++@@",
"..++++++++++@@",
"..++++++++++@@",
"..++++++++++@@",
"..++++++++++@@",
"..++++++++++@@",
"..++++++++++@@",
"..++++++++++@@",
"..++++++++++@@",
"..++++++++++@@",
"..++++++++++@@",
"..++++++++++@@",
"..++++++++++@@",
"..++++++++++@@",
"..++++++++++@@",
"..++++++++++@@",
"..++++++++++@@",
"..++++++++++@@",
"..++++++++++@@",
"..++++++++++@@",
"..++++++++++@@",
"..++++++++++@@",
"..++++++++++@@",
"..++++++++++@@",
"..++++++++++@@",
"..++++++++++@@"};
