/* XPM */
static char * maximize_toggled_prelight_xpm[] = {
"52 48 123 2",
"  	c None",
". 	c #393E5F",
"+ 	c #EFEEED",
"@ 	c #D3D1CF",
"# 	c #D4D2D0",
"$ 	c #D4D3D1",
"% 	c #D5D3D1",
"& 	c #D6D4D2",
"* 	c #D6D4D3",
"= 	c #D7D5D3",
"- 	c #D7D6D4",
"; 	c #D8D6D4",
"> 	c #D8D6D5",
", 	c #D8D7D5",
"' 	c #D9D7D5",
") 	c #D9D8D6",
"! 	c #DAD8D6",
"~ 	c #DAD8D7",
"{ 	c #DAD9D7",
"] 	c #DBD9D7",
"^ 	c #DBDAD8",
"/ 	c #DCDAD9",
"( 	c #DCDBD9",
"_ 	c #DDDBD9",
": 	c #DDDBDA",
"< 	c #DDDCDA",
"[ 	c #DEDCDB",
"} 	c #DEDDDB",
"| 	c #DFDDDC",
"1 	c #DFDEDC",
"2 	c #DFDEDD",
"3 	c #E0DFDD",
"4 	c #E1DFDE",
"5 	c #E1E0DE",
"6 	c #E1E0DF",
"7 	c #E2E1DF",
"8 	c #E2E1E0",
"9 	c #E3E2E0",
"0 	c #E3E2E1",
"a 	c #E4E3E1",
"b 	c #E2E0DF",
"c 	c #E4E3E2",
"d 	c #DBD9D8",
"e 	c #E0DFDE",
"f 	c #E5E4E2",
"g 	c #D4D2D1",
"h 	c #D5D4D2",
"i 	c #E4E4E2",
"j 	c #E5E4E3",
"k 	c #DCDAD8",
"l 	c #DEDCDA",
"m 	c #E0DEDD",
"n 	c #E6E5E3",
"o 	c #D9D7D6",
"p 	c #E6E5E4",
"q 	c #E7E6E4",
"r 	c #E7E6E5",
"s 	c #D7D5D4",
"t 	c #CECED6",
"u 	c #999EC6",
"v 	c #7E87BD",
"w 	c #7983BC",
"x 	c #7F87BD",
"y 	c #9AA1C7",
"z 	c #D3D3DB",
"A 	c #E7E7E5",
"B 	c #7F89BE",
"C 	c #D3D3DC",
"D 	c #E5E5E3",
"E 	c #E8E7E6",
"F 	c #9BA2C8",
"G 	c #7F88BE",
"H 	c #E8E8E6",
"I 	c #DEDDDC",
"J 	c #E9E8E7",
"K 	c #E8E7E5",
"L 	c #E9E9E7",
"M 	c #EAE9E8",
"N 	c #D2D3DB",
"O 	c #E6E6E4",
"P 	c #EAEAE8",
"Q 	c #EAEAE9",
"R 	c #EBEAE9",
"S 	c #EBEBE9",
"T 	c #DADBDF",
"U 	c #8089BE",
"V 	c #ECEBEA",
"W 	c #989FC8",
"X 	c #9EA5CA",
"Y 	c #818ABF",
"Z 	c #DCDCE2",
"` 	c #ECECEB",
" .	c #7F89BF",
"..	c #EDECEB",
"+.	c #EBEBEA",
"@.	c #EDEDEB",
"#.	c #EDEDEC",
"$.	c #ECECEA",
"%.	c #EEEDEC",
"&.	c #E9E8E6",
"*.	c #EEEEEC",
"=.	c #D6D6DC",
"-.	c #DADADF",
";.	c #EEEEED",
">.	c #989FC6",
",.	c #D7D7DC",
"'.	c #989FC7",
").	c #EFEFEE",
"!.	c #9BA1C7",
"~.	c #F0F0EE",
"{.	c #F0F0EF",
"].	c #F0EFEE",
"^.	c #F1F1F0",
"/.	c #E3E1E0",
"(.	c #E9E9E8",
"_.	c #F2F1F0",
":.	c #EFEFED",
"<.	c #F1F1EF",
"[.	c #F2F2F1",
"}.	c #F3F3F1",
"|.	c #F3F2F1",
"1.	c #F3F3F2",
"2.	c #F4F4F3",
". . + + + + + + + + + + + + + + + + + + + + + + + + + + + + + + + + + + + + + + + + + + + + + + + + . . ",
". . + + + + + + + + + + + + + + + + + + + + + + + + + + + + + + + + + + + + + + + + + + + + + + + + . . ",
". . + + @ # # $ % % & & * = = - ; > , ' ) ! ~ { ] ^ ^ / ( _ : < [ } } | 1 2 3 3 4 5 6 7 7 8 9 0 0 a . . ",
". . + + # # $ % % & & * = = - ; > , ' ) ! ~ { ] ^ ^ / ( ( : < [ } } | 1 2 3 3 4 5 6 b 7 8 9 0 0 a c . . ",
". . + + # $ % % & & * = = - ; > , ' ) ! ~ { ] d ^ / ( ( : < [ } } | 1 2 3 3 e 5 6 b 7 8 9 0 0 a c f . . ",
". . + + g % % & & * = = - ; > , ' ) ! ~ { ] d ^ / ( ( : < [ } } | 1 2 3 3 e 5 6 b 7 8 9 0 0 a c f f . . ",
". . + + % % h & * = = - ; > , ' ) ! ~ { ] d ^ / ( ( : < [ } } | 1 1 3 3 e 5 5 b 7 8 9 9 0 a c i f j . . ",
". . + + % h & * = = - ; > , ' ) ! ! { ] d ^ k ( ( : < l } } | 1 1 m 3 e 5 5 b 7 8 9 9 0 a c i f j n . . ",
". . + + h & & = = - ; ; , ' o ) ! { ] d ^ k ( ( : < l } } | 1 1 m 3 e 5 5 b 7 8 9 9 0 a c i f j n p . . ",
". . + + & & = = - ; ; , ' o ) ! { ] d ^ k ( ( : < l } } | 1 1 m 3 e 5 5 b 7 8 9 9 0 a c i f j n p p . . ",
". . + + & = = - ; ; , ' o ) ! { ] d ^ k ( ( : < < } } | 1 1 m 3 e 5 5 b 7 8 9 9 0 a c c f j n p p q . . ",
". . + + = = - ; ; , ' o ) ! { ] d ^ k ( ( : < < [ } | 1 1 m 3 e 5 5 6 7 8 9 9 0 a c c f j n p p q r . . ",
". . + + = s ; ; , ' o ) ! { ] d ^ k ( ( : < < t u v w w w w w w w w x y z 9 0 a c c f j n p p q r A . . ",
". . + + s ; ; , ' o ) ! { ] d ^ k ( ( : < < t B w w w w w w w w w w w w B C a c c f j D p p q r A E . . ",
". . + + ; ; , ' o ) ! { ] d ^ k ( ( : < < [ u w w w w w w w w w w w w w w F c c f j D p p q r A E E . . ",
". . + + ; , ' o ) ! { { d ^ k / ( : < < [ } v w w w w w w w w w w w w w w G c f j D p p q r A E E H . . ",
". . + + , ' o ) ! { { d ^ k / ( : < < [ } I w w w w w w w w w w w w w w w w f j D p p q r A E E H J . . ",
". . + + ' o ) ! { { d ^ k / ( : < < [ } I 1 w w w w w w w w w w w w w w w w j D p p q r r E E H J J . . ",
". . + + o ) ! { { d ^ k / ( : < < [ } I 1 1 m 3 e 4 5 6 7 8 8 9 0 a a c w w D n p q r r K E H J J L . . ",
". . + + ) ! ~ { d ^ k / ( : < < [ } } 1 1 m 3 3 4 5 6 7 7 8 9 0 a a c f w w n p q r r K E H J J L M . . ",
". . + + ! ~ { ] ^ k / ( _ < < t u v w w w w w w w w x y N 9 0 a a c f j w w p O r r K E H J J L M P . . ",
". . + + ~ { ] ^ k / ( _ < < t B w w w w w w w w w w w w B C a a c f j j w w O r r K E H J J L M P Q . . ",
". . + + { ] ^ ^ / ( _ < < [ u w w w w w w w w w w w w w w F a c f j j n w w r r K E H J J L M P Q R . . ",
". . + + ] ^ ^ / ( _ < < [ } v w w w w w w w w w w w w w w G c f j j n p w w r K E H J J L M P Q R S . . ",
". . + + ^ ^ / ( _ < < [ } } w w w w w w w w w w w w w w w w f j j n p T w U K E H J J L M M Q R S V . . ",
". . + + ^ / ( _ < < [ } } | w w w w w w w w w w w w w w w w j j n p T W w X E H J J L M M Q R S V V . . ",
". . + + / ( _ : < [ } } | 1 w w 3 4 5 6 7 7 8 9 0 0 a c w w j n w w w w Y Z H J J L M M Q R S V V ` . . ",
". . + + ( _ : < [ } } | 1 2 w w 4 5 6 7 7 8 9 0 0 a c f w w n p w w  .X Z H J J L M M Q R S V V ` ... . ",
". . + + _ : < [ } } | 1 2 3 w w 5 6 7 7 8 9 0 0 a c f j w w p O r r A E E J J L M M Q R S +.V ` ..@.. . ",
". . + + : < [ } } | 1 2 3 3 w w 6 b 7 8 9 0 0 a c f j j w w O r r A E E J J L M M Q R S +.V ` ..@.#.. . ",
". . + + < [ } } | 1 2 3 3 e w w b 7 8 9 0 0 a c f j j n w w r r A E E J J L M M P R S +.V $...@.#.%.. . ",
". . + + [ } } | 1 2 3 3 e 5 w w 7 8 9 0 0 a c f f j n p w w r A E E &.J L M M P R S +.V $.....#.%.*.. . ",
". . + + } } | 1 1 3 3 e 5 5 x w =.9 9 0 a c i f j n p -.w U A E E &.J L M M P R S +.V $.....#.%.*.;.. . ",
". . + + } | 1 1 m 3 e 5 5 b y w >.,.0 a c i f j n p -.'.w X E E H J L M M P R S +.V $.....#.%.*.;.+ . . ",
". . + + | 1 1 m 3 e 5 5 b 7 N B w w w w w w w w w w w w Y Z E H J L M M P R S +.V $.....#.%.*.;.+ ).. . ",
". . + + 1 1 m 3 e 5 5 b 7 8 9 z !.G w w w w w w w w  .X Z E H J L M M P R R +.V $.` ..#.%.*.;.+ ).).. . ",
". . + + 1 m 3 e 5 5 b 7 8 9 9 0 a c c f j n p p q r A E E H J L M M P R R +.V $.` ..#.%.*.;.+ ).).~.. . ",
". . + + m 3 e 5 5 6 7 8 9 9 0 a c c f j n p p q r A E E H J L M M P R R +.V $.` ..#.%.*.;.+ ).).~.{.. . ",
". . + + 3 e 5 5 6 7 8 9 9 0 a c c f j n p p q r A E E H J L M M P R R +.V $.` ..#.%.*.;.+ ).).].{.{.. . ",
". . + + e 5 5 6 7 8 9 9 0 a c c f j D p p q r A E E H J J M M P R R +.V $.` ..#.%.*.;.+ ).).].{.{.^.. . ",
". . + + 5 5 6 7 8 /.9 0 a c c f j D p p q r A E E H J J (.M P R R +.V $.` ..#.%.*.;.+ ).).].{.{.^.^.. . ",
". . + + 5 6 7 8 /.9 0 a c c f j D p p q r A E E H J J (.M P R R +.V $.` ..#.%.*.;.+ ).).].{.{.^.^._.. . ",
". . + + 6 7 8 /.9 0 a c c f j D p p q r A E E H J J (.M P R R +.V $.` ..#.#.%.;.+ :.).].{.{.<.^._.[.. . ",
". . + + 7 8 /.9 0 a c c f j D p p q r r E E H J J L M P R R S V $.` ..@.#.%.;.+ :.).].{.{.<.^._.[.[.. . ",
". . + + 8 8 9 0 a a c f j D n p q r r K E H J J L M P R R S V $.` ..@.#.%.;.+ :.).].{.{.<.^.^.[.[.}.. . ",
". . + + 8 9 0 a a c f j D n p q r r K E H J J L M P R R S V $.` ..@.#.%.;.+ :.).].{.{.<.^.^.[.[.|.1.. . ",
". . + + 9 0 a a c f j D n p O r r K E H J J L M P R R S V V ` ..@.#.%.;.+ :.).].{.{.<.^.^.[.[.|.1.1.. . ",
". . + + 0 a a c f j j n p O r r K E H J J L M P Q R S V V ` ..@.#.%.;.+ :.).].{.{.<.^.^.[.[.|.1.1.2.. . "};
