/* XPM */
static char * title_2_active_xpm[] = {
"26 52 50 1",
" 	c None",
".	c #000000",
"+	c #949EDC",
"@	c #94A0E5",
"#	c #929EE4",
"$	c #909CE2",
"%	c #8E9AE1",
"&	c #8C98E0",
"*	c #8996DF",
"=	c #8794DE",
"-	c #8592DD",
";	c #838FDC",
">	c #818DDA",
",	c #7F8BD9",
"'	c #7D89D8",
")	c #7B87D7",
"!	c #7885D6",
"~	c #7683D5",
"{	c #7481D3",
"]	c #727FD2",
"^	c #707DD1",
"/	c #6D7BD0",
"(	c #6B79CF",
"_	c #6977CE",
":	c #6775CD",
"<	c #6573CB",
"[	c #6472C9",
"}	c #6371C7",
"|	c #626FC5",
"1	c #606EC3",
"2	c #5F6DC1",
"3	c #5E6BBE",
"4	c #5D6ABC",
"5	c #5B68BA",
"6	c #5A67B8",
"7	c #5966B6",
"8	c #5865B4",
"9	c #5763B2",
"0	c #5562B0",
"a	c #5460AE",
"b	c #535FAC",
"c	c #525EAA",
"d	c #505CA8",
"e	c #4F5BA6",
"f	c #4E5AA3",
"g	c #4D58A1",
"h	c #4B579F",
"i	c #4A569D",
"j	c #49549B",
"k	c #5B5A58",
"..........................",
"..........................",
"++++++++++++++++++++++++++",
"++++++++++++++++++++++++++",
"@@@@@@@@@@@@@@@@@@@@@@@@@@",
"##########################",
"$$$$$$$$$$$$$$$$$$$$$$$$$$",
"%%%%%%%%%%%%%%%%%%%%%%%%%%",
"&&&&&&&&&&&&&&&&&&&&&&&&&&",
"**************************",
"==========================",
"--------------------------",
";;;;;;;;;;;;;;;;;;;;;;;;;;",
">>>>>>>>>>>>>>>>>>>>>>>>>>",
",,,,,,,,,,,,,,,,,,,,,,,,,,",
"''''''''''''''''''''''''''",
"))))))))))))))))))))))))))",
"!!!!!!!!!!!!!!!!!!!!!!!!!!",
"~~~~~~~~~~~~~~~~~~~~~~~~~~",
"{{{{{{{{{{{{{{{{{{{{{{{{{{",
"]]]]]]]]]]]]]]]]]]]]]]]]]]",
"^^^^^^^^^^^^^^^^^^^^^^^^^^",
"//////////////////////////",
"((((((((((((((((((((((((((",
"__________________________",
"::::::::::::::::::::::::::",
"<<<<<<<<<<<<<<<<<<<<<<<<<<",
"[[[[[[[[[[[[[[[[[[[[[[[[[[",
"}}}}}}}}}}}}}}}}}}}}}}}}}}",
"||||||||||||||||||||||||||",
"11111111111111111111111111",
"22222222222222222222222222",
"33333333333333333333333333",
"44444444444444444444444444",
"55555555555555555555555555",
"66666666666666666666666666",
"77777777777777777777777777",
"88888888888888888888888888",
"99999999999999999999999999",
"00000000000000000000000000",
"aaaaaaaaaaaaaaaaaaaaaaaaaa",
"bbbbbbbbbbbbbbbbbbbbbbbbbb",
"cccccccccccccccccccccccccc",
"dddddddddddddddddddddddddd",
"eeeeeeeeeeeeeeeeeeeeeeeeee",
"ffffffffffffffffffffffffff",
"gggggggggggggggggggggggggg",
"hhhhhhhhhhhhhhhhhhhhhhhhhh",
"iiiiiiiiiiiiiiiiiiiiiiiiii",
"jjjjjjjjjjjjjjjjjjjjjjjjjj",
"kkkkkkkkkkkkkkkkkkkkkkkkkk",
"kkkkkkkkkkkkkkkkkkkkkkkkkk"};
