/* XPM */
static char * shade_toggled_inactive_xpm[] = {
"52 48 84 1",
" 	c None",
".	c #EFEEED",
"+	c #EBEAE9",
"@	c #EAE9E8",
"#	c #E9E8E7",
"$	c #E9E8E6",
"%	c #E8E7E6",
"&	c #E7E6E5",
"*	c #E7E5E4",
"=	c #E6E5E3",
"-	c #E5E4E3",
";	c #E5E3E2",
">	c #D4D1D0",
",	c #B0AEAD",
"'	c #E4E3E1",
")	c #B3B2AF",
"!	c #6F6C6A",
"~	c #6D6A68",
"{	c #E3E2E1",
"]	c #D2D0CF",
"^	c #E3E1E0",
"/	c #AFADAC",
"(	c #E2E1DF",
"_	c #A8A5A3",
":	c #E1E0DE",
"<	c #A7A5A3",
"[	c #E1DFDE",
"}	c #A7A4A3",
"|	c #E0DFDD",
"1	c #A7A4A2",
"2	c #DFDEDC",
"3	c #CFCDCB",
"4	c #ADABA9",
"5	c #A6A4A2",
"6	c #DFDDDB",
"7	c #B0AEAC",
"8	c #6E6B69",
"9	c #A6A3A1",
"0	c #AFACA9",
"a	c #DEDCDB",
"b	c #CECBCA",
"c	c #ABA8A6",
"d	c #DDDCDA",
"e	c #ACAAA8",
"f	c #8C8987",
"g	c #DDDBD9",
"h	c #DCDAD8",
"i	c #CCC9C8",
"j	c #DBDAD8",
"k	c #ABA9A7",
"l	c #DAD9D7",
"m	c #A9A6A4",
"n	c #DAD8D6",
"o	c #A9A7A5",
"p	c #A7A4A1",
"q	c #D9D8D5",
"r	c #A8A6A3",
"s	c #D8D7D5",
"t	c #A8A7A5",
"u	c #D8D6D4",
"v	c #D7D5D3",
"w	c #A5A2A0",
"x	c #D6D5D2",
"y	c #9F9D9A",
"z	c #9C9997",
"A	c #D6D4D2",
"B	c #8F8D8B",
"C	c #8D8B89",
"D	c #D5D3D1",
"E	c #9F9B99",
"F	c #D4D3D0",
"G	c #A6A3A0",
"H	c #D4D2D0",
"I	c #D3D1CF",
"J	c #D2D1CE",
"K	c #D2D0CD",
"L	c #D1CFCD",
"M	c #D0CFCC",
"N	c #D0CECB",
"O	c #CFCDCA",
"P	c #CECCCA",
"Q	c #CECCC9",
"R	c #CDCBC8",
"S	c #CCCAC7",
"....................................................",
"....................................................",
"++++++++++++++++++++++++++++++++++++++++++++++++++++",
"@@@@@@@@@@@@@@@@@@@@@@@@@@@@@@@@@@@@@@@@@@@@@@@@@@@@",
"####################################################",
"$$$$$$$$$$$$$$$$$$$$$$$$$$$$$$$$$$$$$$$$$$$$$$$$$$$$",
"%%%%%%%%%%%%%%%%%%%%%%%%%%%%%%%%%%%%%%%%%%%%%%%%%%%%",
"&&&&&&&&&&&&&&&&&&&&&&&&&&&&&&&&&&&&&&&&&&&&&&&&&&&&",
"****************************************************",
"====================================================",
"----------------------------------------------------",
";;;;;;;;;;;;;;;;;;;;;;;;>,,>;;;;;;;;;;;;;;;;;;;;;;;;",
"''''''''''''''''''''''')!~~!)'''''''''''''''''''''''",
"{{{{{{{{{{{{{{{{{{{{{{]!~~~~!]{{{{{{{{{{{{{{{{{{{{{{",
"^^^^^^^^^^^^^^^^^^^^^^/~~~~~~/^^^^^^^^^^^^^^^^^^^^^^",
"((((((((((((((((((((((_~~~~~~_((((((((((((((((((((((",
"::::::::::::::::::::::<~~~~~~<::::::::::::::::::::::",
"[[[[[[[[[[[[[[[[[[[[[[}~~~~~~}[[[[[[[[[[[[[[[[[[[[[[",
"||||||||||||||||||||||1~~~~~~1||||||||||||||||||||||",
"22222222222222223443225~~~~~~52234432222222222222222",
"66666666666666678~~8469~~~~~~9608~~87666666666666666",
"aaaaaaaaaaaaaab8~~~~~c9~~~~~~9c~~~~~8baaaaaaaaaaaaaa",
"dddddddddddddde~~~~~~~f~~~~~~f~~~~~~~edddddddddddddd",
"gggggggggggggge~~~~~~~~~~~~~~~~~~~~~~egggggggggggggg",
"hhhhhhhhhhhhhhi8~~~~~~~~~~~~~~~~~~~~8ihhhhhhhhhhhhhh",
"jjjjjjjjjjjjjjjk~~~~~~~~~~~~~~~~~~~~ejjjjjjjjjjjjjjj",
"llllllllllllllllm~~~~~~~~~~~~~~~~~~mllllllllllllllll",
"nnnnnnnnnnnnnnnnno~~~~~~~~~~~~~~~~pnnnnnnnnnnnnnnnnn",
"qqqqqqqqqqqqqqqqqqr~~~~~~~~~~~~~~rqqqqqqqqqqqqqqqqqq",
"ssssssssssssssssssst~~~~~~~~~~~~9sssssssssssssssssss",
"uuuuuuuuuuuuuuuuuuuu_~~~~~~~~~~_uuuuuuuuuuuuuuuuuuuu",
"vvvvvvvvvvvvvvvvvvvvvr~~~~~~~~wvvvvvvvvvvvvvvvvvvvvv",
"xxxxxxxxxxxxxxxxxxxxxxy~~~~~~zxxxxxxxxxxxxxxxxxxxxxx",
"AAAAAAAAAAAAAAAAAAAAAAAB~~~~CAAAAAAAAAAAAAAAAAAAAAAA",
"DDDDDDDDDDDDDDDDDDDDDDDDE~~zDDDDDDDDDDDDDDDDDDDDDDDD",
"FFFFFFFFFFFFFFFFFFFFFFFFFGGFFFFFFFFFFFFFFFFFFFFFFFFF",
"HHHHHHHHHHHHHHHHHHHHHHHHHHHHHHHHHHHHHHHHHHHHHHHHHHHH",
"IIIIIIIIIIIIIIIIIIIIIIIIIIIIIIIIIIIIIIIIIIIIIIIIIIII",
"JJJJJJJJJJJJJJJJJJJJJJJJJJJJJJJJJJJJJJJJJJJJJJJJJJJJ",
"KKKKKKKKKKKKKKKKKKKKKKKKKKKKKKKKKKKKKKKKKKKKKKKKKKKK",
"LLLLLLLLLLLLLLLLLLLLLLLLLLLLLLLLLLLLLLLLLLLLLLLLLLLL",
"MMMMMMMMMMMMMMMMMMMMMMMMMMMMMMMMMMMMMMMMMMMMMMMMMMMM",
"NNNNNNNNNNNNNNNNNNNNNNNNNNNNNNNNNNNNNNNNNNNNNNNNNNNN",
"OOOOOOOOOOOOOOOOOOOOOOOOOOOOOOOOOOOOOOOOOOOOOOOOOOOO",
"PPPPPPPPPPPPPPPPPPPPPPPPPPPPPPPPPPPPPPPPPPPPPPPPPPPP",
"QQQQQQQQQQQQQQQQQQQQQQQQQQQQQQQQQQQQQQQQQQQQQQQQQQQQ",
"RRRRRRRRRRRRRRRRRRRRRRRRRRRRRRRRRRRRRRRRRRRRRRRRRRRR",
"SSSSSSSSSSSSSSSSSSSSSSSSSSSSSSSSSSSSSSSSSSSSSSSSSSSS"};
