/* XPM */
static char * maximize_toggled_active_xpm[] = {
"52 48 121 2",
"  	c None",
". 	c #393E5F",
"+ 	c #EFEEED",
"@ 	c #D3D1CF",
"# 	c #D4D2D0",
"$ 	c #D4D3D1",
"% 	c #D5D3D1",
"& 	c #D6D4D2",
"* 	c #D6D4D3",
"= 	c #D7D5D3",
"- 	c #D7D6D4",
"; 	c #D8D6D4",
"> 	c #D8D6D5",
", 	c #D8D7D5",
"' 	c #D9D7D5",
") 	c #D9D8D6",
"! 	c #DAD8D6",
"~ 	c #DAD8D7",
"{ 	c #DAD9D7",
"] 	c #DBD9D7",
"^ 	c #DBDAD8",
"/ 	c #DCDAD9",
"( 	c #DCDBD9",
"_ 	c #DDDBD9",
": 	c #DDDBDA",
"< 	c #DDDCDA",
"[ 	c #DEDCDB",
"} 	c #DEDDDB",
"| 	c #DFDDDC",
"1 	c #DFDEDC",
"2 	c #DFDEDD",
"3 	c #E0DFDD",
"4 	c #E1DFDE",
"5 	c #E1E0DE",
"6 	c #E1E0DF",
"7 	c #E2E1DF",
"8 	c #E2E1E0",
"9 	c #E3E2E0",
"0 	c #E3E2E1",
"a 	c #E4E3E1",
"b 	c #E2E0DF",
"c 	c #E4E3E2",
"d 	c #DBD9D8",
"e 	c #E0DFDE",
"f 	c #E5E4E2",
"g 	c #D4D2D1",
"h 	c #D5D4D2",
"i 	c #E4E4E2",
"j 	c #E5E4E3",
"k 	c #DCDAD8",
"l 	c #DEDCDA",
"m 	c #E0DEDD",
"n 	c #E6E5E3",
"o 	c #D9D7D6",
"p 	c #E6E5E4",
"q 	c #E7E6E4",
"r 	c #E7E6E5",
"s 	c #D7D5D4",
"t 	c #C4C3C8",
"u 	c #6C6F86",
"v 	c #414665",
"w 	c #424665",
"x 	c #6E7287",
"y 	c #C9C8CD",
"z 	c #E7E7E5",
"A 	c #434867",
"B 	c #C9C8CE",
"C 	c #E5E5E3",
"D 	c #E8E7E6",
"E 	c #707388",
"F 	c #434766",
"G 	c #E8E8E6",
"H 	c #DEDDDC",
"I 	c #E9E8E7",
"J 	c #E8E7E5",
"K 	c #E9E9E7",
"L 	c #EAE9E8",
"M 	c #C8C8CD",
"N 	c #E6E6E4",
"O 	c #EAEAE8",
"P 	c #EAEAE9",
"Q 	c #EBEAE9",
"R 	c #EBEBE9",
"S 	c #D2D3D5",
"T 	c #444866",
"U 	c #ECEBEA",
"V 	c #6B6E86",
"W 	c #74778C",
"X 	c #464A69",
"Y 	c #D5D5D7",
"Z 	c #ECECEB",
"` 	c #EDECEB",
" .	c #EBEBEA",
"..	c #EDEDEB",
"+.	c #EDEDEC",
"@.	c #ECECEA",
"#.	c #EEEDEC",
"$.	c #E9E8E6",
"%.	c #EEEEEC",
"&.	c #CFCFD1",
"*.	c #D2D2D5",
"=.	c #EEEEED",
"-.	c #6A6E84",
";.	c #D0D0D1",
">.	c #6B6E85",
",.	c #EFEFEE",
"'.	c #6F7288",
").	c #F0F0EE",
"!.	c #F0F0EF",
"~.	c #F0EFEE",
"{.	c #F1F1F0",
"].	c #E3E1E0",
"^.	c #E9E9E8",
"/.	c #F2F1F0",
"(.	c #EFEFED",
"_.	c #F1F1EF",
":.	c #F2F2F1",
"<.	c #F3F3F1",
"[.	c #F3F2F1",
"}.	c #F3F3F2",
"|.	c #F4F4F3",
". . + + + + + + + + + + + + + + + + + + + + + + + + + + + + + + + + + + + + + + + + + + + + + + + + . . ",
". . + + + + + + + + + + + + + + + + + + + + + + + + + + + + + + + + + + + + + + + + + + + + + + + + . . ",
". . + + @ # # $ % % & & * = = - ; > , ' ) ! ~ { ] ^ ^ / ( _ : < [ } } | 1 2 3 3 4 5 6 7 7 8 9 0 0 a . . ",
". . + + # # $ % % & & * = = - ; > , ' ) ! ~ { ] ^ ^ / ( ( : < [ } } | 1 2 3 3 4 5 6 b 7 8 9 0 0 a c . . ",
". . + + # $ % % & & * = = - ; > , ' ) ! ~ { ] d ^ / ( ( : < [ } } | 1 2 3 3 e 5 6 b 7 8 9 0 0 a c f . . ",
". . + + g % % & & * = = - ; > , ' ) ! ~ { ] d ^ / ( ( : < [ } } | 1 2 3 3 e 5 6 b 7 8 9 0 0 a c f f . . ",
". . + + % % h & * = = - ; > , ' ) ! ~ { ] d ^ / ( ( : < [ } } | 1 1 3 3 e 5 5 b 7 8 9 9 0 a c i f j . . ",
". . + + % h & * = = - ; > , ' ) ! ! { ] d ^ k ( ( : < l } } | 1 1 m 3 e 5 5 b 7 8 9 9 0 a c i f j n . . ",
". . + + h & & = = - ; ; , ' o ) ! { ] d ^ k ( ( : < l } } | 1 1 m 3 e 5 5 b 7 8 9 9 0 a c i f j n p . . ",
". . + + & & = = - ; ; , ' o ) ! { ] d ^ k ( ( : < l } } | 1 1 m 3 e 5 5 b 7 8 9 9 0 a c i f j n p p . . ",
". . + + & = = - ; ; , ' o ) ! { ] d ^ k ( ( : < < } } | 1 1 m 3 e 5 5 b 7 8 9 9 0 a c c f j n p p q . . ",
". . + + = = - ; ; , ' o ) ! { ] d ^ k ( ( : < < [ } | 1 1 m 3 e 5 5 6 7 8 9 9 0 a c c f j n p p q r . . ",
". . + + = s ; ; , ' o ) ! { ] d ^ k ( ( : < < t u v . . . . . . . . w x y 9 0 a c c f j n p p q r z . . ",
". . + + s ; ; , ' o ) ! { ] d ^ k ( ( : < < t A . . . . . . . . . . . . A B a c c f j C p p q r z D . . ",
". . + + ; ; , ' o ) ! { ] d ^ k ( ( : < < [ u . . . . . . . . . . . . . . E c c f j C p p q r z D D . . ",
". . + + ; , ' o ) ! { { d ^ k / ( : < < [ } v . . . . . . . . . . . . . . F c f j C p p q r z D D G . . ",
". . + + , ' o ) ! { { d ^ k / ( : < < [ } H . . . . . . . . . . . . . . . . f j C p p q r z D D G I . . ",
". . + + ' o ) ! { { d ^ k / ( : < < [ } H 1 . . . . . . . . . . . . . . . . j C p p q r r D D G I I . . ",
". . + + o ) ! { { d ^ k / ( : < < [ } H 1 1 m 3 e 4 5 6 7 8 8 9 0 a a c . . C n p q r r J D G I I K . . ",
". . + + ) ! ~ { d ^ k / ( : < < [ } } 1 1 m 3 3 4 5 6 7 7 8 9 0 a a c f . . n p q r r J D G I I K L . . ",
". . + + ! ~ { ] ^ k / ( _ < < t u v . . . . . . . . w x M 9 0 a a c f j . . p N r r J D G I I K L O . . ",
". . + + ~ { ] ^ k / ( _ < < t A . . . . . . . . . . . . A B a a c f j j . . N r r J D G I I K L O P . . ",
". . + + { ] ^ ^ / ( _ < < [ u . . . . . . . . . . . . . . E a c f j j n . . r r J D G I I K L O P Q . . ",
". . + + ] ^ ^ / ( _ < < [ } v . . . . . . . . . . . . . . F c f j j n p . . r J D G I I K L O P Q R . . ",
". . + + ^ ^ / ( _ < < [ } } . . . . . . . . . . . . . . . . f j j n p S . T J D G I I K L L P Q R U . . ",
". . + + ^ / ( _ < < [ } } | . . . . . . . . . . . . . . . . j j n p S V . W D G I I K L L P Q R U U . . ",
". . + + / ( _ : < [ } } | 1 . . 3 4 5 6 7 7 8 9 0 0 a c . . j n . . . . X Y G I I K L L P Q R U U Z . . ",
". . + + ( _ : < [ } } | 1 2 . . 4 5 6 7 7 8 9 0 0 a c f . . n p . . A W Y G I I K L L P Q R U U Z ` . . ",
". . + + _ : < [ } } | 1 2 3 . . 5 6 7 7 8 9 0 0 a c f j . . p N r r z D D I I K L L P Q R  .U Z ` ... . ",
". . + + : < [ } } | 1 2 3 3 . . 6 b 7 8 9 0 0 a c f j j . . N r r z D D I I K L L P Q R  .U Z ` ..+.. . ",
". . + + < [ } } | 1 2 3 3 e . . b 7 8 9 0 0 a c f j j n . . r r z D D I I K L L O Q R  .U @.` ..+.#.. . ",
". . + + [ } } | 1 2 3 3 e 5 . . 7 8 9 0 0 a c f f j n p . . r z D D $.I K L L O Q R  .U @.` ` +.#.%.. . ",
". . + + } } | 1 1 3 3 e 5 5 w . &.9 9 0 a c i f j n p *.. T z D D $.I K L L O Q R  .U @.` ` +.#.%.=.. . ",
". . + + } | 1 1 m 3 e 5 5 b x . -.;.0 a c i f j n p *.>.. W D D G I K L L O Q R  .U @.` ` +.#.%.=.+ . . ",
". . + + | 1 1 m 3 e 5 5 b 7 M A . . . . . . . . . . . . X Y D G I K L L O Q R  .U @.` ` +.#.%.=.+ ,.. . ",
". . + + 1 1 m 3 e 5 5 b 7 8 9 y '.F . . . . . . . . A W Y D G I K L L O Q Q  .U @.Z ` +.#.%.=.+ ,.,.. . ",
". . + + 1 m 3 e 5 5 b 7 8 9 9 0 a c c f j n p p q r z D D G I K L L O Q Q  .U @.Z ` +.#.%.=.+ ,.,.).. . ",
". . + + m 3 e 5 5 6 7 8 9 9 0 a c c f j n p p q r z D D G I K L L O Q Q  .U @.Z ` +.#.%.=.+ ,.,.).!.. . ",
". . + + 3 e 5 5 6 7 8 9 9 0 a c c f j n p p q r z D D G I K L L O Q Q  .U @.Z ` +.#.%.=.+ ,.,.~.!.!.. . ",
". . + + e 5 5 6 7 8 9 9 0 a c c f j C p p q r z D D G I I L L O Q Q  .U @.Z ` +.#.%.=.+ ,.,.~.!.!.{.. . ",
". . + + 5 5 6 7 8 ].9 0 a c c f j C p p q r z D D G I I ^.L O Q Q  .U @.Z ` +.#.%.=.+ ,.,.~.!.!.{.{.. . ",
". . + + 5 6 7 8 ].9 0 a c c f j C p p q r z D D G I I ^.L O Q Q  .U @.Z ` +.#.%.=.+ ,.,.~.!.!.{.{./.. . ",
". . + + 6 7 8 ].9 0 a c c f j C p p q r z D D G I I ^.L O Q Q  .U @.Z ` +.+.#.=.+ (.,.~.!.!._.{./.:.. . ",
". . + + 7 8 ].9 0 a c c f j C p p q r r D D G I I K L O Q Q R U @.Z ` ..+.#.=.+ (.,.~.!.!._.{./.:.:.. . ",
". . + + 8 8 9 0 a a c f j C n p q r r J D G I I K L O Q Q R U @.Z ` ..+.#.=.+ (.,.~.!.!._.{.{.:.:.<.. . ",
". . + + 8 9 0 a a c f j C n p q r r J D G I I K L O Q Q R U @.Z ` ..+.#.=.+ (.,.~.!.!._.{.{.:.:.[.}.. . ",
". . + + 9 0 a a c f j C n p N r r J D G I I K L O Q Q R U U Z ` ..+.#.=.+ (.,.~.!.!._.{.{.:.:.[.}.}.. . ",
". . + + 0 a a c f j j n p N r r J D G I I K L O P Q R U U Z ` ..+.#.=.+ (.,.~.!.!._.{.{.:.:.[.}.}.|.. . "};
