/* XPM */
static char * shade_inactive_xpm[] = {
"52 48 83 1",
" 	c None",
".	c #EFEEED",
"+	c #EBEAE9",
"@	c #EAE9E8",
"#	c #E9E8E7",
"$	c #E9E8E6",
"%	c #E8E7E6",
"&	c #E7E6E5",
"*	c #E7E5E4",
"=	c #E6E5E3",
"-	c #E5E4E3",
";	c #E5E3E2",
">	c #E4E3E1",
",	c #AEACAA",
"'	c #E3E2E1",
")	c #A6A2A0",
"!	c #6D6A68",
"~	c #A19F9E",
"{	c #E3E1E0",
"]	c #94918F",
"^	c #918F8D",
"/	c #E2E1DF",
"(	c #A5A19F",
"_	c #A19F9D",
":	c #E1E0DE",
"<	c #ADABA9",
"[	c #A9A8A6",
"}	c #E1DFDE",
"|	c #ADAAA9",
"1	c #A9A7A6",
"2	c #E0DFDD",
"3	c #ADAAA8",
"4	c #A9A7A5",
"5	c #DFDEDC",
"6	c #ACA9A7",
"7	c #DFDDDB",
"8	c #A8A6A4",
"9	c #DEDCDB",
"0	c #ABA8A6",
"a	c #DDDCDA",
"b	c #ACAAA8",
"c	c #AEABA9",
"d	c #DDDBD9",
"e	c #CDCAC9",
"f	c #6E6B69",
"g	c #DCDAD8",
"h	c #ABA9A7",
"i	c #DBDAD8",
"j	c #8B8886",
"k	c #DAD9D7",
"l	c #CAC9C7",
"m	c #A9A6A4",
"n	c #A4A19F",
"o	c #DAD8D6",
"p	c #AAA8A6",
"q	c #D9D8D5",
"r	c #CAC8C5",
"s	c #AAA8A5",
"t	c #A3A19E",
"u	c #D8D7D5",
"v	c #A3A09E",
"w	c #D8D6D4",
"x	c #D7D5D3",
"y	c #A29F9D",
"z	c #D6D5D2",
"A	c #D6D4D2",
"B	c #D5D3D1",
"C	c #C6C3C2",
"D	c #D4D3D0",
"E	c #D4D2D0",
"F	c #C5C3C1",
"G	c #A7A5A2",
"H	c #D3D1CF",
"I	c #D2D1CE",
"J	c #D2D0CD",
"K	c #D1CFCD",
"L	c #D0CFCC",
"M	c #D0CECB",
"N	c #CFCDCA",
"O	c #CECCCA",
"P	c #CECCC9",
"Q	c #CDCBC8",
"R	c #CCCAC7",
"....................................................",
"....................................................",
"++++++++++++++++++++++++++++++++++++++++++++++++++++",
"@@@@@@@@@@@@@@@@@@@@@@@@@@@@@@@@@@@@@@@@@@@@@@@@@@@@",
"####################################################",
"$$$$$$$$$$$$$$$$$$$$$$$$$$$$$$$$$$$$$$$$$$$$$$$$$$$$",
"%%%%%%%%%%%%%%%%%%%%%%%%%%%%%%%%%%%%%%%%%%%%%%%%%%%%",
"&&&&&&&&&&&&&&&&&&&&&&&&&&&&&&&&&&&&&&&&&&&&&&&&&&&&",
"****************************************************",
"====================================================",
"----------------------------------------------------",
";;;;;;;;;;;;;;;;;;;;;;;;;;;;;;;;;;;;;;;;;;;;;;;;;;;;",
">>>>>>>>>>>>>>>>>>>>>>>>>,,>>>>>>>>>>>>>>>>>>>>>>>>>",
"'''''''''''''''''''''''')!!~''''''''''''''''''''''''",
"{{{{{{{{{{{{{{{{{{{{{{{]!!!!^{{{{{{{{{{{{{{{{{{{{{{{",
"//////////////////////(!!!!!!_//////////////////////",
":::::::::::::::::::::<!!!!!!!![:::::::::::::::::::::",
"}}}}}}}}}}}}}}}}}}}}|!!!!!!!!!!1}}}}}}}}}}}}}}}}}}}}",
"22222222222222222223!!!!!!!!!!!!42222222222222222222",
"5555555555555555556!!!!!!!!!!!!!!6555555555555555555",
"777777777777777776!!!!!!!!!!!!!!!!877777777777777777",
"99999999999999990!!!!!!!!!!!!!!!!!!09999999999999999",
"aaaaaaaaaaaaaaab!!!!!!!!!!!!!!!!!!!!caaaaaaaaaaaaaaa",
"ddddddddddddddef!!!!!!!!!!!!!!!!!!!!fedddddddddddddd",
"ggggggggggggggh!!!!!!!!!!!!!!!!!!!!!!hgggggggggggggg",
"iiiiiiiiiiiiiih!!!!!!!j!!!!!!j!!!!!!!hiiiiiiiiiiiiii",
"kkkkkkkkkkkkkklf!!!!!mn!!!!!!nm!!!!!flkkkkkkkkkkkkkk",
"ooooooooooooooo<f!!fpon!!!!!!no6f!!f<ooooooooooooooo",
"qqqqqqqqqqqqqqqqrssrqqt!!!!!!tqqrssrqqqqqqqqqqqqqqqq",
"uuuuuuuuuuuuuuuuuuuuuuv!!!!!!vuuuuuuuuuuuuuuuuuuuuuu",
"wwwwwwwwwwwwwwwwwwwwwwv!!!!!!vwwwwwwwwwwwwwwwwwwwwww",
"xxxxxxxxxxxxxxxxxxxxxxy!!!!!!yxxxxxxxxxxxxxxxxxxxxxx",
"zzzzzzzzzzzzzzzzzzzzzzy!!!!!!yzzzzzzzzzzzzzzzzzzzzzz",
"AAAAAAAAAAAAAAAAAAAAAA8!!!!!!8AAAAAAAAAAAAAAAAAAAAAA",
"BBBBBBBBBBBBBBBBBBBBBBCf!!!!fCBBBBBBBBBBBBBBBBBBBBBB",
"DDDDDDDDDDDDDDDDDDDDDDDsf!!fsDDDDDDDDDDDDDDDDDDDDDDD",
"EEEEEEEEEEEEEEEEEEEEEEEEFGGFEEEEEEEEEEEEEEEEEEEEEEEE",
"HHHHHHHHHHHHHHHHHHHHHHHHHHHHHHHHHHHHHHHHHHHHHHHHHHHH",
"IIIIIIIIIIIIIIIIIIIIIIIIIIIIIIIIIIIIIIIIIIIIIIIIIIII",
"JJJJJJJJJJJJJJJJJJJJJJJJJJJJJJJJJJJJJJJJJJJJJJJJJJJJ",
"KKKKKKKKKKKKKKKKKKKKKKKKKKKKKKKKKKKKKKKKKKKKKKKKKKKK",
"LLLLLLLLLLLLLLLLLLLLLLLLLLLLLLLLLLLLLLLLLLLLLLLLLLLL",
"MMMMMMMMMMMMMMMMMMMMMMMMMMMMMMMMMMMMMMMMMMMMMMMMMMMM",
"NNNNNNNNNNNNNNNNNNNNNNNNNNNNNNNNNNNNNNNNNNNNNNNNNNNN",
"OOOOOOOOOOOOOOOOOOOOOOOOOOOOOOOOOOOOOOOOOOOOOOOOOOOO",
"PPPPPPPPPPPPPPPPPPPPPPPPPPPPPPPPPPPPPPPPPPPPPPPPPPPP",
"QQQQQQQQQQQQQQQQQQQQQQQQQQQQQQQQQQQQQQQQQQQQQQQQQQQQ",
"RRRRRRRRRRRRRRRRRRRRRRRRRRRRRRRRRRRRRRRRRRRRRRRRRRRR"};
