/* XPM */
static char * shade_toggled_prelight_xpm[] = {
"52 48 149 2",
"  	c None",
". 	c #393E5F",
"+ 	c #EFEEED",
"@ 	c #D3D1CF",
"# 	c #D4D2D0",
"$ 	c #D4D3D1",
"% 	c #D5D3D1",
"& 	c #D6D4D2",
"* 	c #D6D4D3",
"= 	c #D7D5D3",
"- 	c #D7D6D4",
"; 	c #D8D6D4",
"> 	c #D8D6D5",
", 	c #D8D7D5",
"' 	c #D9D7D5",
") 	c #D9D8D6",
"! 	c #DAD8D6",
"~ 	c #DAD8D7",
"{ 	c #DAD9D7",
"] 	c #DBD9D7",
"^ 	c #DBDAD8",
"/ 	c #DCDAD9",
"( 	c #DCDBD9",
"_ 	c #DDDBD9",
": 	c #DDDBDA",
"< 	c #DDDCDA",
"[ 	c #DEDCDB",
"} 	c #DEDDDB",
"| 	c #DFDDDC",
"1 	c #DFDEDC",
"2 	c #DFDEDD",
"3 	c #E0DFDD",
"4 	c #E1DFDE",
"5 	c #E1E0DE",
"6 	c #E1E0DF",
"7 	c #E2E1DF",
"8 	c #E2E1E0",
"9 	c #E3E2E0",
"0 	c #E3E2E1",
"a 	c #E4E3E1",
"b 	c #E2E0DF",
"c 	c #E4E3E2",
"d 	c #DBD9D8",
"e 	c #E0DFDE",
"f 	c #E5E4E2",
"g 	c #D4D2D1",
"h 	c #D5D4D2",
"i 	c #E4E4E2",
"j 	c #E5E4E3",
"k 	c #DCDAD8",
"l 	c #DEDCDA",
"m 	c #E0DEDD",
"n 	c #E6E5E3",
"o 	c #D9D7D6",
"p 	c #E6E5E4",
"q 	c #E7E6E4",
"r 	c #D0CFD6",
"s 	c #B2B6CE",
"t 	c #B3B6CE",
"u 	c #D1D1D7",
"v 	c #E7E6E5",
"w 	c #D7D5D4",
"x 	c #B5B7CE",
"y 	c #7A84BC",
"z 	c #7983BC",
"A 	c #B6B9CF",
"B 	c #E7E7E5",
"C 	c #7B84BC",
"D 	c #D1D2D9",
"E 	c #E5E5E3",
"F 	c #E8E7E6",
"G 	c #B1B6CE",
"H 	c #B3B8CF",
"I 	c #E3E1E0",
"J 	c #ACB0CC",
"K 	c #ADB2CD",
"L 	c #E8E8E6",
"M 	c #DEDDDC",
"N 	c #ACB1CC",
"O 	c #E9E8E7",
"P 	c #AEB2CD",
"Q 	c #ADB1CC",
"R 	c #AEB2CE",
"S 	c #E8E7E5",
"T 	c #E9E9E7",
"U 	c #D5D5DB",
"V 	c #B6B9D1",
"W 	c #B6B9D2",
"X 	c #D6D6DC",
"Y 	c #EAE9E8",
"Z 	c #B3B6CF",
"` 	c #AEB3CE",
" .	c #B7BAD1",
"..	c #7B85BD",
"+.	c #B9BDD3",
"@.	c #E6E6E4",
"#.	c #EAEAE8",
"$.	c #ADB1CD",
"%.	c #B3B8D1",
"&.	c #D7D7DE",
"*.	c #EAEAE9",
"=.	c #969DC5",
"-.	c #969EC6",
";.	c #B6BBD3",
">.	c #EBEAE9",
",.	c #B7BBD3",
"'.	c #EBEBE9",
").	c #D1D0D7",
"!.	c #D7D8DF",
"~.	c #ECEBEA",
"{.	c #B2B6CF",
"].	c #B8BCD3",
"^.	c #B5B9D3",
"/.	c #ECECEB",
"(.	c #B3B7CF",
"_.	c #B2B7D1",
":.	c #EDECEB",
"<.	c #B2B7D0",
"[.	c #EBEBEA",
"}.	c #EDEDEB",
"|.	c #B4B7D0",
"1.	c #EDEDEC",
"2.	c #B3B7D1",
"3.	c #ECECEA",
"4.	c #EEEDEC",
"5.	c #B5B8D0",
"6.	c #E9E8E6",
"7.	c #EEEEEC",
"8.	c #ADB1CE",
"9.	c #AAAFCE",
"0.	c #EEEEED",
"a.	c #9DA3C8",
"b.	c #9BA2C8",
"c.	c #AEB2CF",
"d.	c #EFEFEE",
"e.	c #B5B9D2",
"f.	c #F0F0EE",
"g.	c #F0F0EF",
"h.	c #F0EFEE",
"i.	c #F1F1F0",
"j.	c #E9E9E8",
"k.	c #F2F1F0",
"l.	c #EFEFED",
"m.	c #F1F1EF",
"n.	c #F2F2F1",
"o.	c #F3F3F1",
"p.	c #F3F2F1",
"q.	c #F3F3F2",
"r.	c #F4F4F3",
". . + + + + + + + + + + + + + + + + + + + + + + + + + + + + + + + + + + + + + + + + + + + + + + + + . . ",
". . + + + + + + + + + + + + + + + + + + + + + + + + + + + + + + + + + + + + + + + + + + + + + + + + . . ",
". . + + @ # # $ % % & & * = = - ; > , ' ) ! ~ { ] ^ ^ / ( _ : < [ } } | 1 2 3 3 4 5 6 7 7 8 9 0 0 a . . ",
". . + + # # $ % % & & * = = - ; > , ' ) ! ~ { ] ^ ^ / ( ( : < [ } } | 1 2 3 3 4 5 6 b 7 8 9 0 0 a c . . ",
". . + + # $ % % & & * = = - ; > , ' ) ! ~ { ] d ^ / ( ( : < [ } } | 1 2 3 3 e 5 6 b 7 8 9 0 0 a c f . . ",
". . + + g % % & & * = = - ; > , ' ) ! ~ { ] d ^ / ( ( : < [ } } | 1 2 3 3 e 5 6 b 7 8 9 0 0 a c f f . . ",
". . + + % % h & * = = - ; > , ' ) ! ~ { ] d ^ / ( ( : < [ } } | 1 1 3 3 e 5 5 b 7 8 9 9 0 a c i f j . . ",
". . + + % h & * = = - ; > , ' ) ! ! { ] d ^ k ( ( : < l } } | 1 1 m 3 e 5 5 b 7 8 9 9 0 a c i f j n . . ",
". . + + h & & = = - ; ; , ' o ) ! { ] d ^ k ( ( : < l } } | 1 1 m 3 e 5 5 b 7 8 9 9 0 a c i f j n p . . ",
". . + + & & = = - ; ; , ' o ) ! { ] d ^ k ( ( : < l } } | 1 1 m 3 e 5 5 b 7 8 9 9 0 a c i f j n p p . . ",
". . + + & = = - ; ; , ' o ) ! { ] d ^ k ( ( : < < } } | 1 1 m 3 e 5 5 b 7 8 9 9 0 a c c f j n p p q . . ",
". . + + = = - ; ; , ' o ) ! { ] d ^ k ( ( : < < r s t u 1 m 3 e 5 5 6 7 8 9 9 0 a c c f j n p p q v . . ",
". . + + = w ; ; , ' o ) ! { ] d ^ k ( ( : < < x y z z y A 3 e 5 5 6 7 8 9 9 0 a c c f j n p p q v B . . ",
". . + + w ; ; , ' o ) ! { ] d ^ k ( ( : < < r y z z z z C D 5 5 6 7 8 9 9 0 a c c f j E p p q v B F . . ",
". . + + ; ; , ' o ) ! { ] d ^ k ( ( : < < [ G z z z z z z H 5 6 7 8 I 9 0 a c c f j E p p q v B F F . . ",
". . + + ; , ' o ) ! { { d ^ k / ( : < < [ } J z z z z z z K 6 7 8 I 9 0 a c c f j E p p q v B F F L . . ",
". . + + , ' o ) ! { { d ^ k / ( : < < [ } M N z z z z z z K 7 8 I 9 0 a c c f j E p p q v B F F L O . . ",
". . + + ' o ) ! { { d ^ k / ( : < < [ } M 1 N z z z z z z P 8 I 9 0 a c c f j E p p q v v F F L O O . . ",
". . + + o ) ! { { d ^ k / ( : < < [ } M 1 1 Q z z z z z z R 8 9 0 a a c f j E n p q v v S F L O O T . . ",
". . + + ) ! ~ { d ^ k / ( : < < r s s u 1 m Q z z z z z z R 9 0 U V W X j E n p q v v S F L O O T Y . . ",
". . + + ! ~ { ] ^ k / ( _ < < x y z z y Z 3 Q z z z z z z ` 0  ...z z ..+.n p @.v v S F L O O T Y #.. . ",
". . + + ~ { ] ^ k / ( _ < < r y z z z z z G $.z z z z z z ` %.z z z z z ..&.@.v v S F L O O T Y #.*.. . ",
". . + + { ] ^ ^ / ( _ < < [ G z z z z z z z =.z z z z z z -.z z z z z z z ;.v v S F L O O T Y #.*.>.. . ",
". . + + ] ^ ^ / ( _ < < [ } G z z z z z z z z z z z z z z z z z z z z z z ,.v S F L O O T Y #.*.>.'.. . ",
". . + + ^ ^ / ( _ < < [ } } ).y z z z z z z z z z z z z z z z z z z z z ..!.S F L O O T Y Y *.>.'.~.. . ",
". . + + ^ / ( _ < < [ } } | 1 {.z z z z z z z z z z z z z z z z z z z z ].S F L O O T Y Y *.>.'.~.~.. . ",
". . + + / ( _ : < [ } } | 1 2 3 G z z z z z z z z z z z z z z z z z z ^.S F L O O T Y Y *.>.'.~.~./.. . ",
". . + + ( _ : < [ } } | 1 2 3 3 4 (.z z z z z z z z z z z z z z z z _.B F L O O T Y Y *.>.'.~.~./.:.. . ",
". . + + _ : < [ } } | 1 2 3 3 4 5 6 <.z z z z z z z z z z z z z z ^.B F F O O T Y Y *.>.'.[.~./.:.}.. . ",
". . + + : < [ } } | 1 2 3 3 4 5 6 b 7 |.z z z z z z z z z z z z _.B F F O O T Y Y *.>.'.[.~./.:.}.1.. . ",
". . + + < [ } } | 1 2 3 3 e 5 6 b 7 8 9 2.z z z z z z z z z z ^.B F F O O T Y Y #.>.'.[.~.3.:.}.1.4.. . ",
". . + + [ } } | 1 2 3 3 e 5 6 b 7 8 9 0 0 5.z z z z z z z z _.B F F 6.O T Y Y #.>.'.[.~.3.:.:.1.4.7.. . ",
". . + + } } | 1 1 3 3 e 5 5 b 7 8 9 9 0 a c 8.z z z z z z 9.B F F 6.O T Y Y #.>.'.[.~.3.:.:.1.4.7.0.. . ",
". . + + } | 1 1 m 3 e 5 5 b 7 8 9 9 0 a c i f a.z z z z b.B F F L O T Y Y #.>.'.[.~.3.:.:.1.4.7.0.+ . . ",
". . + + | 1 1 m 3 e 5 5 b 7 8 9 9 0 a c i f j n c.z z 9.B F F L O T Y Y #.>.'.[.~.3.:.:.1.4.7.0.+ d.. . ",
". . + + 1 1 m 3 e 5 5 b 7 8 9 9 0 a c i f j n p p e.^.B F F L O T Y Y #.>.>.[.~.3./.:.1.4.7.0.+ d.d.. . ",
". . + + 1 m 3 e 5 5 b 7 8 9 9 0 a c c f j n p p q v B F F L O T Y Y #.>.>.[.~.3./.:.1.4.7.0.+ d.d.f.. . ",
". . + + m 3 e 5 5 6 7 8 9 9 0 a c c f j n p p q v B F F L O T Y Y #.>.>.[.~.3./.:.1.4.7.0.+ d.d.f.g.. . ",
". . + + 3 e 5 5 6 7 8 9 9 0 a c c f j n p p q v B F F L O T Y Y #.>.>.[.~.3./.:.1.4.7.0.+ d.d.h.g.g.. . ",
". . + + e 5 5 6 7 8 9 9 0 a c c f j E p p q v B F F L O O Y Y #.>.>.[.~.3./.:.1.4.7.0.+ d.d.h.g.g.i.. . ",
". . + + 5 5 6 7 8 I 9 0 a c c f j E p p q v B F F L O O j.Y #.>.>.[.~.3./.:.1.4.7.0.+ d.d.h.g.g.i.i.. . ",
". . + + 5 6 7 8 I 9 0 a c c f j E p p q v B F F L O O j.Y #.>.>.[.~.3./.:.1.4.7.0.+ d.d.h.g.g.i.i.k.. . ",
". . + + 6 7 8 I 9 0 a c c f j E p p q v B F F L O O j.Y #.>.>.[.~.3./.:.1.1.4.0.+ l.d.h.g.g.m.i.k.n.. . ",
". . + + 7 8 I 9 0 a c c f j E p p q v v F F L O O T Y #.>.>.'.~.3./.:.}.1.4.0.+ l.d.h.g.g.m.i.k.n.n.. . ",
". . + + 8 8 9 0 a a c f j E n p q v v S F L O O T Y #.>.>.'.~.3./.:.}.1.4.0.+ l.d.h.g.g.m.i.i.n.n.o.. . ",
". . + + 8 9 0 a a c f j E n p q v v S F L O O T Y #.>.>.'.~.3./.:.}.1.4.0.+ l.d.h.g.g.m.i.i.n.n.p.q.. . ",
". . + + 9 0 a a c f j E n p @.v v S F L O O T Y #.>.>.'.~.~./.:.}.1.4.0.+ l.d.h.g.g.m.i.i.n.n.p.q.q.. . ",
". . + + 0 a a c f j j n p @.v v S F L O O T Y #.*.>.'.~.~./.:.}.1.4.0.+ l.d.h.g.g.m.i.i.n.n.p.q.q.r.. . "};
