/* XPM */
static char * title_3_inactive_xpm[] = {
"14 52 50 1",
" 	c None",
".	c #010101",
"+	c #EFEEED",
"@	c #EBEAE9",
"#	c #EAE9E8",
"$	c #E9E8E7",
"%	c #E9E8E6",
"&	c #E8E7E6",
"*	c #E7E6E5",
"=	c #E7E5E4",
"-	c #E6E5E3",
";	c #E5E4E3",
">	c #E5E3E2",
",	c #E4E3E1",
"'	c #E3E2E1",
")	c #E3E1E0",
"!	c #E2E1DF",
"~	c #E1E0DE",
"{	c #E1DFDE",
"]	c #E0DFDD",
"^	c #DFDEDC",
"/	c #DFDDDB",
"(	c #DEDCDB",
"_	c #DDDCDA",
":	c #DDDBD9",
"<	c #DCDAD8",
"[	c #DBDAD8",
"}	c #DAD9D7",
"|	c #DAD8D6",
"1	c #D9D8D5",
"2	c #D8D7D5",
"3	c #D8D6D4",
"4	c #D7D5D3",
"5	c #D6D5D2",
"6	c #D6D4D2",
"7	c #D5D3D1",
"8	c #D4D3D0",
"9	c #D4D2D0",
"0	c #D3D1CF",
"a	c #D2D1CE",
"b	c #D2D0CD",
"c	c #D1CFCD",
"d	c #D0CFCC",
"e	c #D0CECB",
"f	c #CFCDCA",
"g	c #CECCCA",
"h	c #CECCC9",
"i	c #CDCBC8",
"j	c #CCCAC7",
"k	c #797673",
"..............",
"..............",
"++++++++++++++",
"++++++++++++++",
"@@@@@@@@@@@@@@",
"##############",
"$$$$$$$$$$$$$$",
"%%%%%%%%%%%%%%",
"&&&&&&&&&&&&&&",
"**************",
"==============",
"--------------",
";;;;;;;;;;;;;;",
">>>>>>>>>>>>>>",
",,,,,,,,,,,,,,",
"''''''''''''''",
"))))))))))))))",
"!!!!!!!!!!!!!!",
"~~~~~~~~~~~~~~",
"{{{{{{{{{{{{{{",
"]]]]]]]]]]]]]]",
"^^^^^^^^^^^^^^",
"//////////////",
"((((((((((((((",
"______________",
"::::::::::::::",
"<<<<<<<<<<<<<<",
"[[[[[[[[[[[[[[",
"}}}}}}}}}}}}}}",
"||||||||||||||",
"11111111111111",
"22222222222222",
"33333333333333",
"44444444444444",
"55555555555555",
"66666666666666",
"77777777777777",
"88888888888888",
"99999999999999",
"00000000000000",
"aaaaaaaaaaaaaa",
"bbbbbbbbbbbbbb",
"cccccccccccccc",
"dddddddddddddd",
"eeeeeeeeeeeeee",
"ffffffffffffff",
"gggggggggggggg",
"hhhhhhhhhhhhhh",
"iiiiiiiiiiiiii",
"jjjjjjjjjjjjjj",
"kkkkkkkkkkkkkk",
"kkkkkkkkkkkkkk"};
