/* XPM */
static char * close_prelight_xpm[] = {
"52 48 142 2",
"  	c None",
". 	c #393E5F",
"+ 	c #EFEEED",
"@ 	c #E5E4E3",
"# 	c #CACAC9",
"$ 	c #A5A4A4",
"% 	c #5C5B5B",
"& 	c #111111",
"* 	c #000000",
"= 	c #E2E1E0",
"- 	c #737372",
"; 	c #080808",
"> 	c #D3D1CF",
", 	c #D4D2D0",
"' 	c #D4D3D1",
") 	c #D5D3D1",
"! 	c #D6D4D2",
"~ 	c #D6D4D3",
"{ 	c #D7D5D3",
"] 	c #D7D6D4",
"^ 	c #D8D6D4",
"/ 	c #D8D6D5",
"( 	c #D8D7D5",
"_ 	c #D9D7D5",
": 	c #D9D8D6",
"< 	c #DAD8D6",
"[ 	c #DAD8D7",
"} 	c #DAD9D7",
"| 	c #DBD9D7",
"1 	c #DBDAD8",
"2 	c #DCDAD9",
"3 	c #DCDBD9",
"4 	c #DDDBD9",
"5 	c #DDDBDA",
"6 	c #DDDCDA",
"7 	c #DEDCDB",
"8 	c #DEDDDB",
"9 	c #DFDDDC",
"0 	c #DFDEDC",
"a 	c #DFDEDD",
"b 	c #E0DFDD",
"c 	c #E1DFDE",
"d 	c #E1E0DE",
"e 	c #E1E0DF",
"f 	c #E2E1DF",
"g 	c #B8B8B7",
"h 	c #1C1B1B",
"i 	c #E3E2E0",
"j 	c #CCCBCA",
"k 	c #1A1A1A",
"l 	c #E3E2E1",
"m 	c #B8B7B6",
"n 	c #E4E3E1",
"o 	c #E4E3E2",
"p 	c #E5E4E2",
"q 	c #D6D5D3",
"r 	c #5B5B5A",
"s 	c #A3A2A2",
"t 	c #E6E5E3",
"u 	c #E6E5E4",
"v 	c #E6E6E4",
"w 	c #CDCDD4",
"x 	c #B1B4CD",
"y 	c #B1B5CD",
"z 	c #CFCED5",
"A 	c #D2D2DA",
"B 	c #B5B8D0",
"C 	c #D3D3DA",
"D 	c #E7E6E5",
"E 	c #B3B6CC",
"F 	c #7A84BC",
"G 	c #7983BC",
"H 	c #B2B5CD",
"I 	c #7B85BC",
"J 	c #7B85BD",
"K 	c #B8BBD1",
"L 	c #B0B4CD",
"M 	c #B2B6D0",
"N 	c #D5D5DB",
"O 	c #E8E7E5",
"P 	c #B1B4CE",
"Q 	c #B5B9D2",
"R 	c #E8E7E6",
"S 	c #B0B5CD",
"T 	c #B1B5CE",
"U 	c #B5BAD2",
"V 	c #E8E8E6",
"W 	c #B1B6CE",
"X 	c #D6D6DD",
"Y 	c #E9E8E7",
"Z 	c #B2B6CF",
"` 	c #B7BBD2",
" .	c #B1B6D0",
"..	c #E9E9E7",
"+.	c #B2B5CE",
"@.	c #EAE9E8",
"#.	c #B2B6CE",
"$.	c #B3B6CE",
"%.	c #EAEAE9",
"&.	c #B3B7CF",
"*.	c #EBEAE9",
"=.	c #B2B7CF",
"-.	c #EBEBE9",
";.	c #B2B6D1",
">.	c #ECEBEA",
",.	c #B2B7D1",
"'.	c #B3B7D1",
").	c #ECECEB",
"!.	c #B3B8D2",
"~.	c #EDECEB",
"{.	c #B3B8D0",
"].	c #B4B8D2",
"^.	c #B9BDD4",
"/.	c #EDEDEB",
"(.	c #B4B9D2",
"_.	c #DADAE1",
":.	c #EDEDEC",
"<.	c #B4B8D0",
"[.	c #B5B9D3",
"}.	c #B8BDD5",
"|.	c #EEEDEC",
"1.	c #B5BAD3",
"2.	c #B8BDD6",
"3.	c #EEEEED",
"4.	c #DBDBE2",
"5.	c #B6BAD2",
"6.	c #BCC0D6",
"7.	c #EFEFED",
"8.	c #B6B9D2",
"9.	c #B9BDD5",
"0.	c #B9BDD6",
"a.	c #EFEFEE",
"b.	c #EAEAE8",
"c.	c #F0EFEE",
"d.	c #F0F0EF",
"e.	c #F1F0EF",
"f.	c #F1F1F0",
"g.	c #F2F2F1",
"h.	c #F1F1EF",
"i.	c #F3F2F1",
"j.	c #F3F3F2",
"k.	c #F4F4F3",
". . + + + + + + + + + + + + + + + + + + + + + + + + + + + + + + + + + + + + + @ # $ % & * * *           ",
". . + + + + + + + + + + + + + + + + + + + + + + + + + + + + + + + + + + + + + + + + + = - ; * *         ",
". . + + > , , ' ) ) ! ! ~ { { ] ^ / ( _ : < [ } | 1 1 2 3 4 5 6 7 8 8 9 0 a b b c d e f f g h * *       ",
". . + + , , ' ) ) ! ! ~ { { ] ^ / ( _ : < [ } | 1 1 2 3 4 5 6 7 8 8 9 0 a b b c d e f f = i j k * *     ",
". . + + , ' ) ) ! ! ~ { { ] ^ / ( _ : < [ } | 1 1 2 3 4 5 6 7 8 8 9 0 a b b c d e f f = i l l m ; *     ",
". . + + ' ) ) ! ! ~ { { ] ^ / ( _ : < [ } | 1 1 2 3 4 5 6 7 8 8 9 0 a b b c d e f f = i l l n o - * *   ",
". . + + ) ) ! ! ~ { { ] ^ / ( _ : < [ } | 1 1 2 3 4 5 6 7 8 8 9 0 a b b c d e f f = i l l n o p = & *   ",
". . + + ) ! ! q { { ] ^ / ( _ : < [ } | 1 1 2 3 4 5 6 7 8 8 9 0 a b b c d e f f = i l l n o p @ + r * * ",
". . + + ! ! q { { ] ^ / ( _ : < [ } | 1 1 2 3 4 5 6 7 8 8 9 0 a b b c d e f f = i l l n o p @ @ + s * * ",
". . + + ! q { { ] ^ / ( _ : < [ } | 1 1 2 3 4 5 6 7 8 8 9 0 a b b c d e f f = i l l n o p @ @ t + # * * ",
". . + + q { { ] ^ / _ _ : < [ } | 1 1 2 3 4 5 6 7 8 8 9 0 a b b c d e f f = i l l n o p @ @ t u + o * * ",
". . + + { { ] ^ / _ _ : < [ } | 1 1 2 3 4 5 6 7 8 8 9 0 a b b c d e f f = i l l n o p @ @ t u v + + * * ",
". . + + { ] ^ / _ _ : < [ } | 1 w x y z 5 6 7 8 8 9 0 a b b c d A B B C i l l n o p @ @ t u v D + + * * ",
". . + + ] ^ / _ _ : < [ } | 1 E F G G F H 7 8 8 9 0 a b b c d B I G G J K l n o p @ @ t u v D D + + * * ",
". . + + ^ / _ _ : < [ } | 1 w F G G G G G L 8 9 0 a b b c d M G G G G G J N o p @ @ t u v D D O + + * * ",
". . + + / _ _ : < [ } | 1 1 L G G G G G G G P 0 a b b c d M G G G G G G G Q p @ @ t u v D D O R + + * * ",
". . + + _ _ : < [ } | 1 1 2 S G G G G G G G G T b b c d M G G G G G G G G U @ @ t u v D D O R V + + * * ",
". . + + _ : < [ } | 1 1 2 3 z F G G G G G G G G W c d M G G G G G G G G J X @ t u v D D O R V Y + + * * ",
". . + + : < [ } | 1 1 2 3 4 6 y G G G G G G G G G Z M G G G G G G G G G ` @ t u v D D O R V Y Y + + * * ",
". . + + < [ } | 1 1 2 3 4 6 6 7 H G G G G G G G G G G G G G G G G G G  .@ t u v D D O R V Y Y ..+ + * * ",
". . + + [ } | 1 1 2 3 4 6 6 7 8 8 +.G G G G G G G G G G G G G G G G  .@ t u v D D O R V Y Y ..@.+ + * * ",
". . + + } | 1 1 2 3 4 6 6 7 8 8 9 0 #.G G G G G G G G G G G G G G  .@ t u v D D O R V Y Y ..@.@.+ + * * ",
". . + + | 1 1 2 3 4 6 6 7 8 8 9 0 a b $.G G G G G G G G G G G G  .@ t u v D D O R V Y Y ..@.@.%.+ + * * ",
". . + + 1 1 2 3 4 6 6 7 8 8 9 0 a b b c &.G G G G G G G G G G  .@ t u v D D O R V Y Y ..@.@.%.*.+ + * * ",
". . + + 1 2 3 4 6 6 7 8 8 9 0 a b b c d =.G G G G G G G G G G  .t u v D D O R V Y Y ..@.@.%.*.-.+ + * * ",
". . + + 2 3 4 6 6 7 8 8 9 0 a b b c d =.G G G G G G G G G G G G ;.v D D O R V Y Y ..@.@.%.*.-.>.+ + * * ",
". . + + 3 4 6 6 7 8 8 9 0 a b b c d =.G G G G G G G G G G G G G G ,.D O R V Y Y ..@.@.%.*.-.>.>.+ + * * ",
". . + + 4 6 6 7 8 8 9 0 a b b c d =.G G G G G G G G G G G G G G G G '.R V Y Y ..@.@.%.*.-.>.>.).+ + * * ",
". . + + 6 6 7 8 8 9 0 a b b c d =.G G G G G G G G G G G G G G G G G G !.Y Y ..@.@.%.*.-.>.>.).~.+ + * * ",
". . + + 6 7 8 8 9 0 a b b c d {.G G G G G G G G G ].].G G G G G G G G G ^...@.@.%.*.-.>.>.).~./.+ + * * ",
". . + + 7 8 8 9 0 a b b c d A I G G G G G G G G ].@ t (.G G G G G G G G J _.@.%.*.-.>.>.).~./.:.+ + * * ",
". . + + 8 8 9 0 a b b c d e <.G G G G G G G G ].@ t u v [.G G G G G G G G }.%.*.-.>.>.).~./.:.|.+ + * * ",
". . + + 8 9 0 a b b c d e f <.G G G G G G G ].@ t u v D D 1.G G G G G G G 2.*.-.>.>.).~./.:.|.3.+ + * * ",
". . + + 9 0 a b b c d e f f C J G G G G G ].@ t u v D D O R 1.G G G G G J 4.-.>.>.).~./.:.|.3.3.+ + * * ",
". . + + 0 a b b c d e f f = i K J G G J 5.@ t u v D D O R V Y ^.J G G J 6.-.>.>.).~./.:.|.3.3.7.+ + * * ",
". . + + a b b c d e f f = i l n N 8.5.X @ t u v D D O R V Y Y .._.9.0.4.-.>.>.).~./.:.|.3.3.7.a.+ + * * ",
". . + + b b c d e f f = i l n n o p @ @ t u v D D O R V Y Y ..@.b.%.*.-.>.>.).~./.:.|.3.3.7.a.c.+ + * * ",
". . + + b c d e f f = i l n n o p @ @ t u v D D O R V Y Y ..@.b.%.*.-.>.>.).~./.:.|.3.3.7.a.c.d.+ + * * ",
". . + + c d e f f = i l n n o p @ @ t u v D D O R V Y Y ..@.b.%.*.-.>.>.).~./.:.|.3.3.7.a.c.d.d.+ + * * ",
". . + + d e f f = i l n n o p @ @ t u v D D O R V Y Y ..@.b.%.*.-.>.>.).~./.:.|.3.3.7.a.c.d.d.e.+ + * * ",
". . + + e f f = i l n n o p @ @ t u v D D O R V Y Y ..@.b.%.*.-.>.>.).~./.:.|.3.3.7.a.c.d.d.e.f.+ + * * ",
". . + + f f = i l n n o p @ @ t u v D D O R V Y Y ..@.b.%.*.-.>.>.).~./.:.|.3.+ 7.a.c.d.d.e.f.f.+ + * * ",
". . + + f = i l n n o p @ @ t u v D D O R V Y Y ..@.b.%.*.-.>.>.).~./.:.|.3.+ 7.a.c.d.d.e.f.f.g.+ + * * ",
". . + + = i l n n o p @ @ t u v D D O R V Y Y ..@.b.%.*.-.>.>.).~./.:.|.3.+ 7.a.c.d.d.e.f.f.g.g.+ + * * ",
". . + + i l n n o p @ @ t u v D D O R V Y Y ..@.b.%.*.-.>.>.).~./.:.|.3.+ 7.a.c.d.d.h.f.f.g.g.i.+ + * * ",
". . + + l n n o p @ @ t u v D D O R V Y Y ..@.b.%.*.-.>.>.).~./.:.|.3.+ 7.a.c.d.d.h.f.f.g.g.i.j.+ + * * ",
". . + + n n o p @ @ t u v D D O R V Y Y ..@.b.%.*.-.>.>.).~./.:.|.3.+ 7.a.c.d.d.h.f.f.g.g.i.j.j.+ + * * ",
". . + + n o p @ @ t u v D D O R V Y Y ..@.b.%.*.-.>.>.).~./.:.|.3.+ 7.a.c.d.d.h.f.f.g.g.i.j.j.k.+ + * * "};
