/* XPM */
static char * shade_toggled_active_xpm[] = {
"52 48 143 2",
"  	c None",
". 	c #393E5F",
"+ 	c #EFEEED",
"@ 	c #D3D1CF",
"# 	c #D4D2D0",
"$ 	c #D4D3D1",
"% 	c #D5D3D1",
"& 	c #D6D4D2",
"* 	c #D6D4D3",
"= 	c #D7D5D3",
"- 	c #D7D6D4",
"; 	c #D8D6D4",
"> 	c #D8D6D5",
", 	c #D8D7D5",
"' 	c #D9D7D5",
") 	c #D9D8D6",
"! 	c #DAD8D6",
"~ 	c #DAD8D7",
"{ 	c #DAD9D7",
"] 	c #DBD9D7",
"^ 	c #DBDAD8",
"/ 	c #DCDAD9",
"( 	c #DCDBD9",
"_ 	c #DDDBD9",
": 	c #DDDBDA",
"< 	c #DDDCDA",
"[ 	c #DEDCDB",
"} 	c #DEDDDB",
"| 	c #DFDDDC",
"1 	c #DFDEDC",
"2 	c #DFDEDD",
"3 	c #E0DFDD",
"4 	c #E1DFDE",
"5 	c #E1E0DE",
"6 	c #E1E0DF",
"7 	c #E2E1DF",
"8 	c #E2E1E0",
"9 	c #E3E2E0",
"0 	c #E3E2E1",
"a 	c #E4E3E1",
"b 	c #E2E0DF",
"c 	c #E4E3E2",
"d 	c #DBD9D8",
"e 	c #E0DFDE",
"f 	c #E5E4E2",
"g 	c #D4D2D1",
"h 	c #D5D4D2",
"i 	c #E4E4E2",
"j 	c #E5E4E3",
"k 	c #DCDAD8",
"l 	c #DEDCDA",
"m 	c #E0DEDD",
"n 	c #E6E5E3",
"o 	c #D9D7D6",
"p 	c #E6E5E4",
"q 	c #E7E6E4",
"r 	c #C6C5C9",
"s 	c #9698A5",
"t 	c #9798A5",
"u 	c #C7C7CA",
"v 	c #E7E6E5",
"w 	c #D7D5D4",
"x 	c #9A9BA8",
"y 	c #3B4061",
"z 	c #9B9DA9",
"A 	c #E7E7E5",
"B 	c #3C4061",
"C 	c #C7C8CC",
"D 	c #E5E5E3",
"E 	c #E8E7E6",
"F 	c #9597A5",
"G 	c #9799A6",
"H 	c #E3E1E0",
"I 	c #8C8D9E",
"J 	c #8D8F9F",
"K 	c #E8E8E6",
"L 	c #DEDDDC",
"M 	c #8C8E9E",
"N 	c #E9E8E7",
"O 	c #8E8F9F",
"P 	c #8D8E9E",
"Q 	c #8E8FA0",
"R 	c #E8E7E5",
"S 	c #E9E9E7",
"T 	c #CBCBCE",
"U 	c #9A9BA9",
"V 	c #CCCCCF",
"W 	c #EAE9E8",
"X 	c #9798A6",
"Y 	c #8E90A0",
"Z 	c #9B9CAA",
"` 	c #3C4162",
" .	c #9EA1AD",
"..	c #E6E6E4",
"+.	c #EAEAE8",
"@.	c #9496A3",
"#.	c #8D8E9F",
"$.	c #9698A6",
"%.	c #CDCDD1",
"&.	c #EAEAE9",
"*.	c #676A82",
"=.	c #686B83",
"-.	c #9A9CAA",
";.	c #EBEAE9",
">.	c #EBEBE9",
",.	c #C7C6CA",
"'.	c #CDCED2",
").	c #ECEBEA",
"!.	c #9697A6",
"~.	c #9C9EAC",
"{.	c #9899A8",
"].	c #ECECEB",
"^.	c #9496A5",
"/.	c #EDECEB",
"(.	c #EBEBEA",
"_.	c #EDEDEB",
":.	c #9798A7",
"<.	c #EDEDEC",
"[.	c #ECECEA",
"}.	c #EEEDEC",
"|.	c #9899A7",
"1.	c #E9E8E6",
"2.	c #EEEEEC",
"3.	c #8A8D9E",
"4.	c #87899B",
"5.	c #EEEEED",
"6.	c #71758A",
"7.	c #6E7288",
"8.	c #8B8E9E",
"9.	c #EFEFEE",
"0.	c #F0F0EE",
"a.	c #F0F0EF",
"b.	c #F0EFEE",
"c.	c #F1F1F0",
"d.	c #E9E9E8",
"e.	c #F2F1F0",
"f.	c #EFEFED",
"g.	c #F1F1EF",
"h.	c #F2F2F1",
"i.	c #F3F3F1",
"j.	c #F3F2F1",
"k.	c #F3F3F2",
"l.	c #F4F4F3",
". . + + + + + + + + + + + + + + + + + + + + + + + + + + + + + + + + + + + + + + + + + + + + + + + + . . ",
". . + + + + + + + + + + + + + + + + + + + + + + + + + + + + + + + + + + + + + + + + + + + + + + + + . . ",
". . + + @ # # $ % % & & * = = - ; > , ' ) ! ~ { ] ^ ^ / ( _ : < [ } } | 1 2 3 3 4 5 6 7 7 8 9 0 0 a . . ",
". . + + # # $ % % & & * = = - ; > , ' ) ! ~ { ] ^ ^ / ( ( : < [ } } | 1 2 3 3 4 5 6 b 7 8 9 0 0 a c . . ",
". . + + # $ % % & & * = = - ; > , ' ) ! ~ { ] d ^ / ( ( : < [ } } | 1 2 3 3 e 5 6 b 7 8 9 0 0 a c f . . ",
". . + + g % % & & * = = - ; > , ' ) ! ~ { ] d ^ / ( ( : < [ } } | 1 2 3 3 e 5 6 b 7 8 9 0 0 a c f f . . ",
". . + + % % h & * = = - ; > , ' ) ! ~ { ] d ^ / ( ( : < [ } } | 1 1 3 3 e 5 5 b 7 8 9 9 0 a c i f j . . ",
". . + + % h & * = = - ; > , ' ) ! ! { ] d ^ k ( ( : < l } } | 1 1 m 3 e 5 5 b 7 8 9 9 0 a c i f j n . . ",
". . + + h & & = = - ; ; , ' o ) ! { ] d ^ k ( ( : < l } } | 1 1 m 3 e 5 5 b 7 8 9 9 0 a c i f j n p . . ",
". . + + & & = = - ; ; , ' o ) ! { ] d ^ k ( ( : < l } } | 1 1 m 3 e 5 5 b 7 8 9 9 0 a c i f j n p p . . ",
". . + + & = = - ; ; , ' o ) ! { ] d ^ k ( ( : < < } } | 1 1 m 3 e 5 5 b 7 8 9 9 0 a c c f j n p p q . . ",
". . + + = = - ; ; , ' o ) ! { ] d ^ k ( ( : < < r s t u 1 m 3 e 5 5 6 7 8 9 9 0 a c c f j n p p q v . . ",
". . + + = w ; ; , ' o ) ! { ] d ^ k ( ( : < < x y . . y z 3 e 5 5 6 7 8 9 9 0 a c c f j n p p q v A . . ",
". . + + w ; ; , ' o ) ! { ] d ^ k ( ( : < < r y . . . . B C 5 5 6 7 8 9 9 0 a c c f j D p p q v A E . . ",
". . + + ; ; , ' o ) ! { ] d ^ k ( ( : < < [ F . . . . . . G 5 6 7 8 H 9 0 a c c f j D p p q v A E E . . ",
". . + + ; , ' o ) ! { { d ^ k / ( : < < [ } I . . . . . . J 6 7 8 H 9 0 a c c f j D p p q v A E E K . . ",
". . + + , ' o ) ! { { d ^ k / ( : < < [ } L M . . . . . . J 7 8 H 9 0 a c c f j D p p q v A E E K N . . ",
". . + + ' o ) ! { { d ^ k / ( : < < [ } L 1 M . . . . . . O 8 H 9 0 a c c f j D p p q v v E E K N N . . ",
". . + + o ) ! { { d ^ k / ( : < < [ } L 1 1 P . . . . . . Q 8 9 0 a a c f j D n p q v v R E K N N S . . ",
". . + + ) ! ~ { d ^ k / ( : < < r s s u 1 m P . . . . . . Q 9 0 T x U V j D n p q v v R E K N N S W . . ",
". . + + ! ~ { ] ^ k / ( _ < < x y . . y X 3 P . . . . . . Y 0 Z ` . . `  .n p ..v v R E K N N S W +.. . ",
". . + + ~ { ] ^ k / ( _ < < r y . . . . . @.#.. . . . . . Y $.. . . . . ` %...v v R E K N N S W +.&.. . ",
". . + + { ] ^ ^ / ( _ < < [ F . . . . . . . *.. . . . . . =.. . . . . . . -.v v R E K N N S W +.&.;.. . ",
". . + + ] ^ ^ / ( _ < < [ } F . . . . . . . . . . . . . . . . . . . . . . Z v R E K N N S W +.&.;.>.. . ",
". . + + ^ ^ / ( _ < < [ } } ,.y . . . . . . . . . . . . . . . . . . . . ` '.R E K N N S W W &.;.>.).. . ",
". . + + ^ / ( _ < < [ } } | 1 !.. . . . . . . . . . . . . . . . . . . . ~.R E K N N S W W &.;.>.).).. . ",
". . + + / ( _ : < [ } } | 1 2 3 @.. . . . . . . . . . . . . . . . . . {.R E K N N S W W &.;.>.).).].. . ",
". . + + ( _ : < [ } } | 1 2 3 3 4 $.. . . . . . . . . . . . . . . . ^.A E K N N S W W &.;.>.).).]./.. . ",
". . + + _ : < [ } } | 1 2 3 3 4 5 6 F . . . . . . . . . . . . . . {.A E E N N S W W &.;.>.(.).]./._.. . ",
". . + + : < [ } } | 1 2 3 3 4 5 6 b 7 :.. . . . . . . . . . . . ^.A E E N N S W W &.;.>.(.).]./._.<.. . ",
". . + + < [ } } | 1 2 3 3 e 5 6 b 7 8 9 !.. . . . . . . . . . {.A E E N N S W W +.;.>.(.).[./._.<.}.. . ",
". . + + [ } } | 1 2 3 3 e 5 6 b 7 8 9 0 0 |.. . . . . . . . ^.A E E 1.N S W W +.;.>.(.).[././.<.}.2.. . ",
". . + + } } | 1 1 3 3 e 5 5 b 7 8 9 9 0 a c 3.. . . . . . 4.A E E 1.N S W W +.;.>.(.).[././.<.}.2.5.. . ",
". . + + } | 1 1 m 3 e 5 5 b 7 8 9 9 0 a c i f 6.. . . . 7.A E E K N S W W +.;.>.(.).[././.<.}.2.5.+ . . ",
". . + + | 1 1 m 3 e 5 5 b 7 8 9 9 0 a c i f j n 8.. . 4.A E E K N S W W +.;.>.(.).[././.<.}.2.5.+ 9.. . ",
". . + + 1 1 m 3 e 5 5 b 7 8 9 9 0 a c i f j n p p |.{.A E E K N S W W +.;.;.(.).[.]./.<.}.2.5.+ 9.9.. . ",
". . + + 1 m 3 e 5 5 b 7 8 9 9 0 a c c f j n p p q v A E E K N S W W +.;.;.(.).[.]./.<.}.2.5.+ 9.9.0.. . ",
". . + + m 3 e 5 5 6 7 8 9 9 0 a c c f j n p p q v A E E K N S W W +.;.;.(.).[.]./.<.}.2.5.+ 9.9.0.a.. . ",
". . + + 3 e 5 5 6 7 8 9 9 0 a c c f j n p p q v A E E K N S W W +.;.;.(.).[.]./.<.}.2.5.+ 9.9.b.a.a.. . ",
". . + + e 5 5 6 7 8 9 9 0 a c c f j D p p q v A E E K N N W W +.;.;.(.).[.]./.<.}.2.5.+ 9.9.b.a.a.c.. . ",
". . + + 5 5 6 7 8 H 9 0 a c c f j D p p q v A E E K N N d.W +.;.;.(.).[.]./.<.}.2.5.+ 9.9.b.a.a.c.c.. . ",
". . + + 5 6 7 8 H 9 0 a c c f j D p p q v A E E K N N d.W +.;.;.(.).[.]./.<.}.2.5.+ 9.9.b.a.a.c.c.e.. . ",
". . + + 6 7 8 H 9 0 a c c f j D p p q v A E E K N N d.W +.;.;.(.).[.]./.<.<.}.5.+ f.9.b.a.a.g.c.e.h.. . ",
". . + + 7 8 H 9 0 a c c f j D p p q v v E E K N N S W +.;.;.>.).[.]./._.<.}.5.+ f.9.b.a.a.g.c.e.h.h.. . ",
". . + + 8 8 9 0 a a c f j D n p q v v R E K N N S W +.;.;.>.).[.]./._.<.}.5.+ f.9.b.a.a.g.c.c.h.h.i.. . ",
". . + + 8 9 0 a a c f j D n p q v v R E K N N S W +.;.;.>.).[.]./._.<.}.5.+ f.9.b.a.a.g.c.c.h.h.j.k.. . ",
". . + + 9 0 a a c f j D n p ..v v R E K N N S W +.;.;.>.).).]./._.<.}.5.+ f.9.b.a.a.g.c.c.h.h.j.k.k.. . ",
". . + + 0 a a c f j j n p ..v v R E K N N S W +.&.;.>.).).]./._.<.}.5.+ f.9.b.a.a.g.c.c.h.h.j.k.k.l.. . "};
