/* XPM */
static char * menu_active_xpm[] = {
"52 48 148 2",
"  	c None",
". 	c #000000",
"+ 	c #010101",
"@ 	c #121212",
"# 	c #5E5D5D",
"$ 	c #A6A5A5",
"% 	c #CACAC9",
"& 	c #E5E4E3",
"* 	c #EFEEED",
"= 	c #393E5F",
"- 	c #0A0A0A",
"; 	c #757574",
"> 	c #E2E1E0",
", 	c #171717",
"' 	c #A9A7A6",
") 	c #D4D3D1",
"! 	c #D5D3D1",
"~ 	c #D6D4D2",
"{ 	c #D6D4D3",
"] 	c #D7D5D3",
"^ 	c #D7D6D4",
"/ 	c #D8D6D4",
"( 	c #D8D6D5",
"_ 	c #D8D7D5",
": 	c #D9D7D5",
"< 	c #D9D8D6",
"[ 	c #DAD8D6",
"} 	c #DAD8D7",
"| 	c #DAD9D7",
"1 	c #DBD9D7",
"2 	c #DBDAD8",
"3 	c #DCDAD9",
"4 	c #DCDBD9",
"5 	c #DDDBD9",
"6 	c #DDDBDA",
"7 	c #DDDCDA",
"8 	c #DEDCDB",
"9 	c #DEDDDB",
"0 	c #DFDDDC",
"a 	c #DFDEDC",
"b 	c #DFDEDD",
"c 	c #E0DFDD",
"d 	c #E1DFDE",
"e 	c #E1E0DE",
"f 	c #E1E0DF",
"g 	c #E2E1DF",
"h 	c #E3E2E0",
"i 	c #E3E2E1",
"j 	c #E4E3E1",
"k 	c #191919",
"l 	c #BEBDBB",
"m 	c #E2E0DF",
"n 	c #E4E3E2",
"o 	c #ABAAA8",
"p 	c #DBD9D8",
"q 	c #E0DFDE",
"r 	c #E5E4E2",
"s 	c #D4D2D1",
"t 	c #131313",
"u 	c #D5D4D2",
"v 	c #E4E4E2",
"w 	c #DCDAD8",
"x 	c #DEDCDA",
"y 	c #E0DEDD",
"z 	c #E6E5E3",
"A 	c #A5A4A4",
"B 	c #D9D7D6",
"C 	c #E6E5E4",
"D 	c #CDCCCC",
"E 	c #E7E6E4",
"F 	c #E7E6E5",
"G 	c #D7D5D4",
"H 	c #E7E7E5",
"I 	c #E5E5E3",
"J 	c #E8E7E6",
"K 	c #E3E1E0",
"L 	c #E8E8E6",
"M 	c #C4C3C8",
"N 	c #9597A4",
"O 	c #9697A4",
"P 	c #C5C5C8",
"Q 	c #DEDDDC",
"R 	c #CACACE",
"S 	c #9A9BA8",
"T 	c #9A9BA9",
"U 	c #CBCBCF",
"V 	c #E9E8E7",
"W 	c #989AA7",
"X 	c #3B4061",
"Y 	c #9697A5",
"Z 	c #9A9BAA",
"` 	c #3C4162",
" .	c #9EA0AD",
"..	c #9394A3",
"+.	c #9697A6",
"@.	c #CDCDD0",
"#.	c #E8E7E5",
"$.	c #E9E9E7",
"%.	c #9496A4",
"&.	c #9495A3",
"*.	c #EAE9E8",
"=.	c #9596A4",
"-.	c #9496A3",
";.	c #9A9CAA",
">.	c #EAEAE8",
",.	c #CDCED2",
"'.	c #EAEAE9",
").	c #9596A5",
"!.	c #9C9EAC",
"~.	c #EBEAE9",
"{.	c #9193A1",
"].	c #9799A6",
"^.	c #9496A5",
"/.	c #EBEBE9",
"(.	c #9597A5",
"_.	c #9194A2",
":.	c #ECEBEA",
"<.	c #9899A8",
"[.	c #ECECEB",
"}.	c #EDECEB",
"|.	c #9798A6",
"1.	c #EBEBEA",
"2.	c #EDEDEB",
"3.	c #EDEDEC",
"4.	c #9799A7",
"5.	c #ECECEA",
"6.	c #EEEDEC",
"7.	c #E9E8E6",
"8.	c #EEEEEC",
"9.	c #999AA8",
"0.	c #EEEEED",
"a.	c #999BA8",
"b.	c #9899A7",
"c.	c #EFEFEE",
"d.	c #F0F0EE",
"e.	c #F0F0EF",
"f.	c #F0EFEE",
"g.	c #F1F1F0",
"h.	c #E9E9E8",
"i.	c #F2F1F0",
"j.	c #EFEFED",
"k.	c #F1F1EF",
"l.	c #F2F2F1",
"m.	c #F3F3F1",
"n.	c #F3F2F1",
"o.	c #F3F3F2",
"p.	c #E6E6E4",
"q.	c #F4F4F3",
"          . + + @ # $ % & * * * * * * * * * * * * * * * * * * * * * * * * * * * * * * * * * * * * * = = ",
"        . + - ; > * * * * * * * * * * * * * * * * * * * * * * * * * * * * * * * * * * * * * * * * * = = ",
"      . + , ' ) ! ! ~ ~ { ] ] ^ / ( _ : < [ } | 1 2 2 3 4 5 6 7 8 9 9 0 a b c c d e f g g > h i i j = = ",
"    . + k l ) ! ! ~ ~ { ] ] ^ / ( _ : < [ } | 1 2 2 3 4 4 6 7 8 9 9 0 a b c c d e f m g > h i i j n = = ",
"    . - o ) ! ! ~ ~ { ] ] ^ / ( _ : < [ } | 1 p 2 3 4 4 6 7 8 9 9 0 a b c c q e f m g > h i i j n r = = ",
"  . + ; s ! ! ~ ~ { ] ] ^ / ( _ : < [ } | 1 p 2 3 4 4 6 7 8 9 9 0 a b c c q e f m g > h i i j n r r = = ",
"  . t > ! ! u ~ { ] ] ^ / ( _ : < [ } | 1 p 2 3 4 4 6 7 8 9 9 0 a a c c q e e m g > h h i j n v r & = = ",
". + # * ! u ~ { ] ] ^ / ( _ : < [ [ | 1 p 2 w 4 4 6 7 x 9 9 0 a a y c q e e m g > h h i j n v r & z = = ",
". + A * u ~ ~ ] ] ^ / / _ : B < [ | 1 p 2 w 4 4 6 7 x 9 9 0 a a y c q e e m g > h h i j n v r & z C = = ",
". + D * ~ ~ ] ] ^ / / _ : B < [ | 1 p 2 w 4 4 6 7 x 9 9 0 a a y c q e e m g > h h i j n v r & z C C = = ",
". + n * ~ ] ] ^ / / _ : B < [ | 1 p 2 w 4 4 6 7 7 9 9 0 a a y c q e e m g > h h i j n n r & z C C E = = ",
"+ + * * ] ] ^ / / _ : B < [ | 1 p 2 w 4 4 6 7 7 8 9 0 a a y c q e e f g > h h i j n n r & z C C E F = = ",
"+ + * * ] G / / _ : B < [ | 1 p 2 w 4 4 6 7 7 8 9 0 a a y c q e e f g > h h i j n n r & z C C E F H = = ",
"+ + * * G / / _ : B < [ | 1 p 2 w 4 4 6 7 7 8 9 0 a a y c q e e f g > h h i j n n r & I C C E F H J = = ",
"+ + * * / / _ : B < [ | 1 p 2 w 4 4 6 7 7 8 9 0 a a y c q e e f g > K h i j n n r & I C C E F H J J = = ",
"+ + * * / _ : B < [ | | p 2 w 3 4 6 7 7 8 9 0 a a y c q e e f g > K h i j n n r & I C C E F H J J L = = ",
"+ + * * _ : B < [ | | p 2 w M N O P 7 8 9 Q a a y c q e e f g > K h R S T U r & I C C E F H J J L V = = ",
"+ + * * : B < [ | | p 2 w W X = = X Y 9 Q a a y c q e e f g > K h Z ` = = `  .I C C E F F J J L V V = = ",
"+ + * * B < [ | | p 2 w M X = = = = = ..a a y c q d e f g > > h +.= = = = = ` @.C E F F #.J L V V $.= = ",
"+ + * * < [ } | p 2 w 3 %.= = = = = = = &.y c c d e f g g > h +.= = = = = = = Z E F F #.J L V V $.*.= = ",
"+ + * * [ } | 1 2 w 3 4 =.= = = = = = = = -.c d e f g g > h +.= = = = = = = = ;.F F #.J L V V $.*.>.= = ",
"+ + * * } | 1 2 w 3 4 5 P X = = = = = = = = =.e f g g > h +.= = = = = = = = ` ,.F #.J L V V $.*.>.'.= = ",
"+ + * * | 1 2 2 3 4 5 7 7 ).= = = = = = = = = ).g g > h +.= = = = = = = = = !.F #.J L V V $.*.>.'.~.= = ",
"+ + * * 1 2 2 3 4 5 7 7 8 9 =.= = = = = = = = = {.> h ].= = = = = = = = = ^.F #.J L V V $.*.>.'.~./.= = ",
"+ + * * 2 2 3 4 5 7 7 8 9 9 0 (.= = = = = = = = = _.].= = = = = = = = = ^.F #.J L V V $.*.*.'.~./.:.= = ",
"+ + * * 2 3 4 5 7 7 8 9 9 0 a b -.= = = = = = = = = = = = = = = = = = <.F #.J L V V $.*.*.'.~./.:.:.= = ",
"+ + * * 3 4 5 6 7 8 9 9 0 a b c c +.= = = = = = = = = = = = = = = = ^.F #.J L V V $.*.*.'.~./.:.:.[.= = ",
"+ + * * 4 5 6 7 8 9 9 0 a b c c d e ).= = = = = = = = = = = = = = <.F H J L V V $.*.*.'.~./.:.:.[.}.= = ",
"+ + * * 5 6 7 8 9 9 0 a b c c d e f g |.= = = = = = = = = = = = ^.F H J J V V $.*.*.'.~./.1.:.[.}.2.= = ",
"+ + * * 6 7 8 9 9 0 a b c c d e f m g > Y = = = = = = = = = = <.F H J J V V $.*.*.'.~./.1.:.[.}.2.3.= = ",
"+ + * * 7 8 9 9 0 a b c c q e f m g > h i 4.= = = = = = = = ^.F H J J V V $.*.*.>.~./.1.:.5.}.2.3.6.= = ",
"+ + * * 8 9 9 0 a b c c q e f m g > h i i j <.= = = = = = ^.F H J J 7.V $.*.*.>.~./.1.:.5.}.}.3.6.8.= = ",
"+ + * * 9 9 0 a a c c q e e m g > h h i j n v 9.= = = = ^.F H J J 7.V $.*.*.>.~./.1.:.5.}.}.3.6.8.0.= = ",
"+ + * * 9 0 a a y c q e e m g > h h i j n v r & a.= = ^.F H J J L V $.*.*.>.~./.1.:.5.}.}.3.6.8.0.* = = ",
"+ + * * 0 a a y c q e e m g > h h i j n v r & z C 4.b.F H J J L V $.*.*.>.~./.1.:.5.}.}.3.6.8.0.* c.= = ",
"+ + * * a a y c q e e m g > h h i j n v r & z C C E F H J J L V $.*.*.>.~.~.1.:.5.[.}.3.6.8.0.* c.c.= = ",
"+ + * * a y c q e e m g > h h i j n n r & z C C E F H J J L V $.*.*.>.~.~.1.:.5.[.}.3.6.8.0.* c.c.d.= = ",
"+ + * * y c q e e f g > h h i j n n r & z C C E F H J J L V $.*.*.>.~.~.1.:.5.[.}.3.6.8.0.* c.c.d.e.= = ",
"+ + * * c q e e f g > h h i j n n r & z C C E F H J J L V $.*.*.>.~.~.1.:.5.[.}.3.6.8.0.* c.c.f.e.e.= = ",
"+ + * * q e e f g > h h i j n n r & I C C E F H J J L V V *.*.>.~.~.1.:.5.[.}.3.6.8.0.* c.c.f.e.e.g.= = ",
"+ + * * e e f g > K h i j n n r & I C C E F H J J L V V h.*.>.~.~.1.:.5.[.}.3.6.8.0.* c.c.f.e.e.g.g.= = ",
"+ + * * e f g > K h i j n n r & I C C E F H J J L V V h.*.>.~.~.1.:.5.[.}.3.6.8.0.* c.c.f.e.e.g.g.i.= = ",
"+ + * * f g > K h i j n n r & I C C E F H J J L V V h.*.>.~.~.1.:.5.[.}.3.3.6.0.* j.c.f.e.e.k.g.i.l.= = ",
"+ + * * g > K h i j n n r & I C C E F F J J L V V $.*.>.~.~./.:.5.[.}.2.3.6.0.* j.c.f.e.e.k.g.i.l.l.= = ",
"+ + * * > > h i j j n r & I z C E F F #.J L V V $.*.>.~.~./.:.5.[.}.2.3.6.0.* j.c.f.e.e.k.g.g.l.l.m.= = ",
"+ + * * > h i j j n r & I z C E F F #.J L V V $.*.>.~.~./.:.5.[.}.2.3.6.0.* j.c.f.e.e.k.g.g.l.l.n.o.= = ",
"+ + * * h i j j n r & I z C p.F F #.J L V V $.*.>.~.~./.:.:.[.}.2.3.6.0.* j.c.f.e.e.k.g.g.l.l.n.o.o.= = ",
"+ + * * i j j n r & & z C p.F F #.J L V V $.*.>.'.~./.:.:.[.}.2.3.6.0.* j.c.f.e.e.k.g.g.l.l.n.o.o.q.= = "};
