/* XPM */
static char * stick_toggled_prelight_xpm[] = {
"52 48 144 2",
"  	c None",
". 	c #393E5F",
"+ 	c #EFEEED",
"@ 	c #D3D1CF",
"# 	c #D4D2D0",
"$ 	c #D4D3D1",
"% 	c #D5D3D1",
"& 	c #D6D4D2",
"* 	c #D6D4D3",
"= 	c #D7D5D3",
"- 	c #D7D6D4",
"; 	c #D8D6D4",
"> 	c #D8D6D5",
", 	c #D8D7D5",
"' 	c #D9D7D5",
") 	c #D9D8D6",
"! 	c #DAD8D6",
"~ 	c #DAD8D7",
"{ 	c #DAD9D7",
"] 	c #DBD9D7",
"^ 	c #DBDAD8",
"/ 	c #DCDAD9",
"( 	c #DCDBD9",
"_ 	c #DDDBD9",
": 	c #DDDBDA",
"< 	c #DDDCDA",
"[ 	c #DEDCDB",
"} 	c #DEDDDB",
"| 	c #DFDDDC",
"1 	c #DFDEDC",
"2 	c #DFDEDD",
"3 	c #E0DFDD",
"4 	c #E1DFDE",
"5 	c #E1E0DE",
"6 	c #E1E0DF",
"7 	c #E2E1DF",
"8 	c #E2E1E0",
"9 	c #E3E2E0",
"0 	c #E3E2E1",
"a 	c #E4E3E1",
"b 	c #E2E0DF",
"c 	c #E4E3E2",
"d 	c #DBD9D8",
"e 	c #E0DFDE",
"f 	c #E5E4E2",
"g 	c #D4D2D1",
"h 	c #D5D4D2",
"i 	c #E4E4E2",
"j 	c #E5E4E3",
"k 	c #DCDAD8",
"l 	c #DEDCDA",
"m 	c #E0DEDD",
"n 	c #E6E5E3",
"o 	c #D9D7D6",
"p 	c #E6E5E4",
"q 	c #E7E6E4",
"r 	c #E7E6E5",
"s 	c #D7D5D4",
"t 	c #CACBD4",
"u 	c #A4A8C9",
"v 	c #8991C1",
"w 	c #7E86BD",
"x 	c #7983BC",
"y 	c #7E87BE",
"z 	c #8B93C1",
"A 	c #A6ACCB",
"B 	c #CECFD9",
"C 	c #E7E7E5",
"D 	c #D9D8D7",
"E 	c #A1A6C8",
"F 	c #7A84BD",
"G 	c #A4AACB",
"H 	c #E0E0DF",
"I 	c #E5E5E3",
"J 	c #E8E7E6",
"K 	c #9199C4",
"L 	c #949BC5",
"M 	c #E0E0E0",
"N 	c #A6ABCC",
"O 	c #E8E8E6",
"P 	c #7B84BD",
"Q 	c #D2D3DB",
"R 	c #E9E8E7",
"S 	c #A3A9C9",
"T 	c #A9ADCC",
"U 	c #979DC6",
"V 	c #D4D4D9",
"W 	c #D6D6DC",
"X 	c #989FC6",
"Y 	c #8C93C2",
"Z 	c #E8E7E5",
"` 	c #E9E9E7",
" .	c #7E87BD",
"..	c #D7D7DC",
"+.	c #7F88BE",
"@.	c #EAE9E8",
"#.	c #9098C3",
"$.	c #9299C4",
"%.	c #E6E6E4",
"&.	c #EAEAE8",
"*.	c #EAEAE9",
"=.	c #EBEAE9",
"-.	c #EBEBE9",
";.	c #ECEBEA",
">.	c #ECECEB",
",.	c #939AC5",
"'.	c #EDECEB",
").	c #DADBDF",
"!.	c #EBEBEA",
"~.	c #EDEDEB",
"{.	c #8A92C2",
"].	c #D7D7DD",
"^.	c #989FC8",
"/.	c #8C94C4",
"(.	c #EDEDEC",
"_.	c #ABB0CF",
":.	c #ECECEA",
"<.	c #EEEDEC",
"[.	c #D7D8E1",
"}.	c #EEEEEC",
"|.	c #A9AFCE",
"1.	c #EEEEED",
"2.	c #DFDFDF",
"3.	c #969DC7",
"4.	c #E7E7E7",
"5.	c #A5ABCC",
"6.	c #EFEFEE",
"7.	c #A8ADCC",
"8.	c #7E88BE",
"9.	c #AAB0CF",
"0.	c #F0F0EE",
"a.	c #F0F0EF",
"b.	c #F0EFEE",
"c.	c #F1F1F0",
"d.	c #E3E1E0",
"e.	c #E9E9E8",
"f.	c #F2F1F0",
"g.	c #EFEFED",
"h.	c #F1F1EF",
"i.	c #F2F2F1",
"j.	c #F3F3F1",
"k.	c #F3F2F1",
"l.	c #F3F3F2",
"m.	c #F4F4F3",
". . + + + + + + + + + + + + + + + + + + + + + + + + + + + + + + + + + + + + + + + + + + + + + + + + . . ",
". . + + + + + + + + + + + + + + + + + + + + + + + + + + + + + + + + + + + + + + + + + + + + + + + + . . ",
". . + + @ # # $ % % & & * = = - ; > , ' ) ! ~ { ] ^ ^ / ( _ : < [ } } | 1 2 3 3 4 5 6 7 7 8 9 0 0 a . . ",
". . + + # # $ % % & & * = = - ; > , ' ) ! ~ { ] ^ ^ / ( ( : < [ } } | 1 2 3 3 4 5 6 b 7 8 9 0 0 a c . . ",
". . + + # $ % % & & * = = - ; > , ' ) ! ~ { ] d ^ / ( ( : < [ } } | 1 2 3 3 e 5 6 b 7 8 9 0 0 a c f . . ",
". . + + g % % & & * = = - ; > , ' ) ! ~ { ] d ^ / ( ( : < [ } } | 1 2 3 3 e 5 6 b 7 8 9 0 0 a c f f . . ",
". . + + % % h & * = = - ; > , ' ) ! ~ { ] d ^ / ( ( : < [ } } | 1 1 3 3 e 5 5 b 7 8 9 9 0 a c i f j . . ",
". . + + % h & * = = - ; > , ' ) ! ! { ] d ^ k ( ( : < l } } | 1 1 m 3 e 5 5 b 7 8 9 9 0 a c i f j n . . ",
". . + + h & & = = - ; ; , ' o ) ! { ] d ^ k ( ( : < l } } | 1 1 m 3 e 5 5 b 7 8 9 9 0 a c i f j n p . . ",
". . + + & & = = - ; ; , ' o ) ! { ] d ^ k ( ( : < l } } | 1 1 m 3 e 5 5 b 7 8 9 9 0 a c i f j n p p . . ",
". . + + & = = - ; ; , ' o ) ! { ] d ^ k ( ( : < < } } | 1 1 m 3 e 5 5 b 7 8 9 9 0 a c c f j n p p q . . ",
". . + + = = - ; ; , ' o ) ! { ] d ^ k ( ( : < < [ } | 1 1 m 3 e 5 5 6 7 8 9 9 0 a c c f j n p p q r . . ",
". . + + = s ; ; , ' o ) ! { ] d ^ k t u v w x x x x x x x x y z A B 7 8 9 9 0 a c c f j n p p q r C . . ",
". . + + s ; ; , ' o ) ! { ] d ^ D E F x x x x x x x x x x x x x x F G H 9 0 a c c f j I p p q r C J . . ",
". . + + ; ; , ' o ) ! { ] d ^ D K x x x x x x x x x x x x x x x x x x L M a c c f j I p p q r C J J . . ",
". . + + ; , ' o ) ! { { d ^ k E x x x x x x x x x x x x x x x x x x x x N c c f j I p p q r C J J O . . ",
". . + + , ' o ) ! { { d ^ k t F x x x x x x x x x x x x x x x x x x x x P Q f j I p p q r C J J O R . . ",
". . + + ' o ) ! { { d ^ k / S x x x x x x x x x x x x x x x x x x x x x x T j I p p q r r J J O R R . . ",
". . + + o ) ! { { d ^ k / ( v x x x x x U V m 3 e 4 5 6 7 8 W X x x x x x Y I n p q r r Z J O R R ` . . ",
". . + + ) ! ~ { d ^ k / ( :  .x x x x x V m 3 3 4 5 6 7 7 8 9 ..x x x x x +.n p q r r Z J O R R ` @.. . ",
". . + + ! ~ { ] ^ k / ( _ < x x x x x x m 3 #.x x x x x x $.0 a x x x x x x p %.r r Z J O R R ` @.&.. . ",
". . + + ~ { ] ^ k / ( _ < < x x x x x x 3 3 x x x x x x x x a a x x x x x x %.r r Z J O R R ` @.&.*.. . ",
". . + + { ] ^ ^ / ( _ < < [ x x x x x x 3 4 x x x x x x x x a c x x x x x x r r Z J O R R ` @.&.*.=.. . ",
". . + + ] ^ ^ / ( _ < < [ } x x x x x x 4 5 x x x x x x x x c f x x x x x x r Z J O R R ` @.&.*.=.-.. . ",
". . + + ^ ^ / ( _ < < [ } } x x x x x x 5 6 x x x x x x x x f j x x x x x x Z J O R R ` @.@.*.=.-.;.. . ",
". . + + ^ / ( _ < < [ } } | x x x x x x 6 7 x x x x x x x x j j x x x x x x J O R R ` @.@.*.=.-.;.;.. . ",
". . + + / ( _ : < [ } } | 1 x x x x x x 7 7 x x x x x x x x j n x x x x x x O R R ` @.@.*.=.-.;.;.>.. . ",
". . + + ( _ : < [ } } | 1 2 x x x x x x 7 8 $.x x x x x x ,.n p x x x x x x R R ` @.@.*.=.-.;.;.>.'.. . ",
". . + + _ : < [ } } | 1 2 3  .x x x x x W 9 0 0 a c f j j n p ).x x x x x +.R ` @.@.*.=.-.!.;.>.'.~.. . ",
". . + + : < [ } } | 1 2 3 3 {.x x x x x X ].0 a c f j j n p ).^.x x x x x /.` @.@.*.=.-.!.;.>.'.~.(.. . ",
". . + + < [ } } | 1 2 3 3 e A x x x x x x x x x x x x x x x x x x x x x x _.@.@.&.=.-.!.;.:.'.~.(.<.. . ",
". . + + [ } } | 1 2 3 3 e 5 B F x x x x x x x x x x x x x x x x x x x x P [.@.&.=.-.!.;.:.'.'.(.<.}.. . ",
". . + + } } | 1 1 3 3 e 5 5 b G x x x x x x x x x x x x x x x x x x x x |.@.&.=.-.!.;.:.'.'.(.<.}.1.. . ",
". . + + } | 1 1 m 3 e 5 5 b 7 2.L x x x x x x x x x x x x x x x x x x 3.4.&.=.-.!.;.:.'.'.(.<.}.1.+ . . ",
". . + + | 1 1 m 3 e 5 5 b 7 8 9 H 5.P x x x x x x x x x x x x x x P |.4.&.=.-.!.;.:.'.'.(.<.}.1.+ 6.. . ",
". . + + 1 1 m 3 e 5 5 b 7 8 9 9 0 a Q 7.Y 8.x x x x x x x x 8./.9.[.@.&.=.=.!.;.:.>.'.(.<.}.1.+ 6.6.. . ",
". . + + 1 m 3 e 5 5 b 7 8 9 9 0 a c c f j n p p q r C J J O R ` @.@.&.=.=.!.;.:.>.'.(.<.}.1.+ 6.6.0.. . ",
". . + + m 3 e 5 5 6 7 8 9 9 0 a c c f j n p p q r C J J O R ` @.@.&.=.=.!.;.:.>.'.(.<.}.1.+ 6.6.0.a.. . ",
". . + + 3 e 5 5 6 7 8 9 9 0 a c c f j n p p q r C J J O R ` @.@.&.=.=.!.;.:.>.'.(.<.}.1.+ 6.6.b.a.a.. . ",
". . + + e 5 5 6 7 8 9 9 0 a c c f j I p p q r C J J O R R @.@.&.=.=.!.;.:.>.'.(.<.}.1.+ 6.6.b.a.a.c.. . ",
". . + + 5 5 6 7 8 d.9 0 a c c f j I p p q r C J J O R R e.@.&.=.=.!.;.:.>.'.(.<.}.1.+ 6.6.b.a.a.c.c.. . ",
". . + + 5 6 7 8 d.9 0 a c c f j I p p q r C J J O R R e.@.&.=.=.!.;.:.>.'.(.<.}.1.+ 6.6.b.a.a.c.c.f.. . ",
". . + + 6 7 8 d.9 0 a c c f j I p p q r C J J O R R e.@.&.=.=.!.;.:.>.'.(.(.<.1.+ g.6.b.a.a.h.c.f.i.. . ",
". . + + 7 8 d.9 0 a c c f j I p p q r r J J O R R ` @.&.=.=.-.;.:.>.'.~.(.<.1.+ g.6.b.a.a.h.c.f.i.i.. . ",
". . + + 8 8 9 0 a a c f j I n p q r r Z J O R R ` @.&.=.=.-.;.:.>.'.~.(.<.1.+ g.6.b.a.a.h.c.c.i.i.j.. . ",
". . + + 8 9 0 a a c f j I n p q r r Z J O R R ` @.&.=.=.-.;.:.>.'.~.(.<.1.+ g.6.b.a.a.h.c.c.i.i.k.l.. . ",
". . + + 9 0 a a c f j I n p %.r r Z J O R R ` @.&.=.=.-.;.;.>.'.~.(.<.1.+ g.6.b.a.a.h.c.c.i.i.k.l.l.. . ",
". . + + 0 a a c f j j n p %.r r Z J O R R ` @.&.*.=.-.;.;.>.'.~.(.<.1.+ g.6.b.a.a.h.c.c.i.i.k.l.l.m.. . "};
