/* XPM */
static char * close_prelight_xpm[] = {
"38 38 283 2",
"  	c None",
". 	c #393734",
"+ 	c #383734",
"@ 	c #383735",
"# 	c #373734",
"$ 	c #383833",
"% 	c #383634",
"& 	c #3A3835",
"* 	c #6B5950",
"= 	c #AA7F71",
"- 	c #D49988",
"; 	c #ECA996",
"> 	c #F8B09C",
", 	c #A97F70",
"' 	c #6B5850",
") 	c #413D39",
"! 	c #9A7265",
"~ 	c #ECA691",
"{ 	c #FAAE98",
"] 	c #FAAD95",
"^ 	c #FAAB94",
"/ 	c #FAAB93",
"( 	c #FAAA92",
"_ 	c #EBA690",
": 	c #987264",
"< 	c #403C38",
"[ 	c #7F6056",
"} 	c #E7A18D",
"| 	c #F9AA93",
"1 	c #F9A890",
"2 	c #F9A68D",
"3 	c #F9A48B",
"4 	c #F9A289",
"5 	c #F9A288",
"6 	c #F9A187",
"7 	c #E6A08C",
"8 	c #7E6055",
"9 	c #383635",
"0 	c #373733",
"a 	c #393835",
"b 	c #9F7466",
"c 	c #F8A78F",
"d 	c #F99F85",
"e 	c #F99D83",
"f 	c #F99E84",
"g 	c #F9A188",
"h 	c #A57768",
"i 	c #BC8370",
"j 	c #F8A48A",
"k 	c #F8A085",
"l 	c #F89C81",
"m 	c #F89A7E",
"n 	c #BB826F",
"o 	c #A37262",
"p 	c #F7A186",
"q 	c #F79C81",
"r 	c #F7987C",
"s 	c #F7977A",
"t 	c #A17161",
"u 	c #7C5C4F",
"v 	c #F79D82",
"w 	c #F7997D",
"x 	c #F79477",
"y 	c #F79375",
"z 	c #F69C82",
"A 	c #7A5B4F",
"B 	c #3F3A36",
"C 	c #E29076",
"D 	c #F6977A",
"E 	c #F69274",
"F 	c #F69071",
"G 	c #E49177",
"H 	c #403B36",
"I 	c #976857",
"J 	c #F59578",
"K 	c #F59173",
"L 	c #F58D6D",
"M 	c #956756",
"N 	c #3A3834",
"O 	c #E88D70",
"P 	c #F59070",
"Q 	c #F58A6A",
"R 	c #F58968",
"S 	c #D1795D",
"T 	c #60453B",
"U 	c #E28163",
"V 	c #E58263",
"W 	c #61463C",
"X 	c #CD775C",
"Y 	c #E68C71",
"Z 	c #6A4E44",
"` 	c #F48F70",
" .	c #F48A69",
"..	c #F48664",
"+.	c #62463C",
"@.	c #32312E",
"#.	c #534037",
"$.	c #E37E5F",
"%.	c #E47F60",
"&.	c #61463B",
"*.	c #684E44",
"=.	c #A46954",
"-.	c #F38A68",
";.	c #F38663",
">.	c #F3835F",
",.	c #E48263",
"'.	c #54433C",
").	c #503E36",
"!.	c #E07B5B",
"~.	c #E37C5B",
"{.	c #543F37",
"].	c #50413B",
"^.	c #E18162",
"/.	c #A16854",
"(.	c #383733",
"_.	c #CF785C",
":.	c #F38562",
"<.	c #F3815D",
"[.	c #F37F5B",
"}.	c #F5977A",
"|.	c #E6967D",
"1.	c #503D35",
"2.	c #E07857",
"3.	c #E37958",
"4.	c #543E36",
"5.	c #E3947C",
"6.	c #F38563",
"7.	c #CD785C",
"8.	c #383834",
"9.	c #E58160",
"0.	c #F2815E",
"a.	c #F27D58",
"b.	c #F27C57",
"c.	c #F27F5A",
"d.	c #E5947A",
"e.	c #4D3C34",
"f.	c #513D35",
"g.	c #50413A",
"h.	c #E29379",
"i.	c #F5987B",
"j.	c #F27F5B",
"k.	c #E37E5E",
"l.	c #EE815D",
"m.	c #F17E58",
"n.	c #F17952",
"o.	c #F17C55",
"p.	c #F49576",
"q.	c #E59277",
"r.	c #51413A",
"s.	c #4D3F39",
"t.	c #E29176",
"u.	c #F49577",
"v.	c #F17C56",
"w.	c #EE825D",
"x.	c #ED7C58",
"y.	c #F07A54",
"z.	c #F0764E",
"A.	c #F07952",
"B.	c #E38A6E",
"C.	c #51413B",
"D.	c #E0896D",
"E.	c #ED7D58",
"F.	c #E27753",
"G.	c #F07852",
"H.	c #EF744C",
"I.	c #EF734B",
"J.	c #DF6E49",
"K.	c #533D34",
"L.	c #4D4039",
"M.	c #4F3C33",
"N.	c #DD6D49",
"O.	c #E07653",
"P.	c #C86A4A",
"Q.	c #EE754D",
"R.	c #EE7148",
"S.	c #EE7047",
"T.	c #DE6B45",
"U.	c #533C33",
"V.	c #503F38",
"W.	c #DF8A6F",
"X.	c #E28C6F",
"Y.	c #544139",
"Z.	c #4F3B32",
"`.	c #DC6A45",
" +	c #C6694B",
".+	c #9F5B42",
"++	c #ED744B",
"@+	c #ED7046",
"#+	c #ED6E44",
"$+	c #DD6942",
"%+	c #533B32",
"&+	c #DF896D",
"*+	c #F18C6B",
"=+	c #E28A6E",
"-+	c #4F3A32",
";+	c #DB6842",
">+	c #ED7047",
",+	c #9C5942",
"'+	c #654639",
")+	c #EC7148",
"!+	c #EC6E44",
"~+	c #EC6B40",
"{+	c #603F33",
"]+	c #524038",
"^+	c #E0886A",
"/+	c #F08A68",
"(+	c #524138",
"_+	c #5F3F33",
":+	c #634439",
"<+	c #3A3734",
"[+	c #DE6A44",
"}+	c #EB6C42",
"|+	c #EB693E",
"1+	c #EB683D",
"2+	c #C8613F",
"3+	c #60463C",
"4+	c #DF8669",
"5+	c #EF8765",
"6+	c #DD6A44",
"7+	c #8C4F3A",
"8+	c #EA6B3F",
"9+	c #EA683C",
"0+	c #EA6639",
"a+	c #EE835E",
"b+	c #EF8C6B",
"c+	c #EE8662",
"d+	c #EA6A3E",
"e+	c #8B4E3B",
"f+	c #3D3834",
"g+	c #D7623B",
"h+	c #E96639",
"i+	c #E96437",
"j+	c #E96335",
"k+	c #EA6A3F",
"l+	c #ED805B",
"m+	c #EA673A",
"n+	c #D7633B",
"o+	c #3E3834",
"p+	c #744735",
"q+	c #E76437",
"r+	c #E86235",
"s+	c #E86133",
"t+	c #E86032",
"u+	c #724635",
"v+	c #954D35",
"w+	c #E76132",
"x+	c #E76030",
"y+	c #E75F2F",
"z+	c #E75E2E",
"A+	c #E76232",
"B+	c #934D34",
"C+	c #AD5132",
"D+	c #E65E2F",
"E+	c #E65C2D",
"F+	c #E65C2C",
"G+	c #E65B2B",
"H+	c #AC5132",
"I+	c #8F4930",
"J+	c #E45A2B",
"K+	c #E55929",
"L+	c #E55928",
"M+	c #E55827",
"N+	c #E55A2A",
"O+	c #944B2F",
"P+	c #714230",
"Q+	c #D05428",
"R+	c #E45826",
"S+	c #E45725",
"T+	c #E45624",
"U+	c #6F422F",
"V+	c #3D3833",
"W+	c #86452C",
"X+	c #D45324",
"Y+	c #E35522",
"Z+	c #E35421",
"`+	c #603D2F",
" @	c #944528",
".@	c #BC4B22",
"+@	c #D34E1F",
"@@	c #DE501E",
"#@	c #944428",
"$@	c #5F3D2F",
"%@	c #383835",
"                                                                            ",
"                                                                            ",
"                              . + + + + + @ #                               ",
"                        $ + + + + + + + + + + + + $                         ",
"                    % + + & * = - ; > > ; - , ' & + + +                     ",
"                  + + ) ! ~ { ] ^ / ( ( / ^ ] { _ : < + +                   ",
"                + + [ } | 1 2 3 4 5 6 6 5 4 3 2 1 | 7 8 + + 9               ",
"            0 + a b c 3 4 d e e e e e e e e e e f g 3 c h & +               ",
"            + & i j k l m m m m m m m m m m m m m m l k j n & +             ",
"          + + o p q r s s s s s s s s s s s s s s s s r q p t + +           ",
"        % + u v w x y y y y y y y y y y y y y y y y y y x w z A + .         ",
"        + B C D E F F F F F F F F F F F F F F F F F F F F E D G H +         ",
"      . + I J K L L L L L L L L L L L L L L L L L L L L L L K J M + %       ",
"      + N O P Q R R R R R S T U R R R R R R V W X R R R R R Q P Y N +       ",
"      + Z `  .............+.@.#.$.........%.#.@.&............. .` *.+       ",
"    . + =.-.;.>.>.>.>.>.>.,.'.@.).!.>.>.~.{.@.].^.>.>.>.>.>.>.;.-./.+ (.    ",
"    + + _.:.<.[.[.[.[.[.[.}.|.'.@.1.2.3.4.@.].5.}.[.[.[.[.[.[.<.6.7.+ 8.    ",
"    + + 9.0.a.b.b.b.b.b.b.c.}.d.'.@.e.f.@.g.h.i.j.b.b.b.b.b.b.a.0.k.+ %     ",
"    + + l.m.n.n.n.n.n.n.n.n.o.p.q.r.@.@.s.t.u.v.n.n.n.n.n.n.n.n.m.w.+ %     ",
"    + + x.y.z.z.z.z.z.z.z.z.z.A.B.C.@.@.s.D.A.z.z.z.z.z.z.z.z.z.y.E.+ %     ",
"    + + F.G.H.I.I.I.I.I.I.I.I.J.K.@.L.r.@.M.N.I.I.I.I.I.I.I.I.H.G.O.+ %     ",
"    + + P.Q.R.S.S.S.S.S.S.S.T.U.@.V.W.X.Y.@.Z.`.S.S.S.S.S.S.S.R.Q. ++ 8.    ",
"    # + .+++@+#+#+#+#+#+#+$+%+@.V.&+*+*+=+Y.@.-+;+#+#+#+#+#+#+>+++,++ (.    ",
"      + '+)+!+~+~+~+~+~+~+{+@.]+^+/+!+!+/+^+(+@._+~+~+~+~+~+~+!+)+:++       ",
"      + <+[+}+|+1+1+1+1+1+2+3+4+5+}+1+1+}+5+4+3+2+1+1+1+1+1+|+}+6+N +       ",
"      $ + 7+8+9+0+0+0+0+0+a+b+c+d+0+0+0+0+d+c+b+a+0+0+0+0+0+9+8+e++ +       ",
"        + f+g+h+i+j+j+j+j+k+l+m+j+j+j+j+j+j+m+l+k+j+j+j+j+i+h+n+o++         ",
"        + + p+q+r+s+t+t+t+t+t+t+t+t+t+t+t+t+t+t+t+t+t+t+s+r+q+u++ %         ",
"          + + v+w+x+y+z+z+z+z+z+z+z+z+z+z+z+z+z+z+z+z+y+x+A+B++ +           ",
"            + N C+D+E+F+G+G+G+G+G+G+G+G+G+G+G+G+G+G+F+E+D+H+N +             ",
"            % + . I+J+K+K+L+M+M+M+M+M+M+M+M+M+M+L+K+N+J+O+N +               ",
"                + + P+Q+R+S+S+S+T+T+T+T+T+T+S+S+S+R+Q+U++ + 9               ",
"                  + + V+W+X+Y+Y+Z+Z+Z+Z+Z+Z+Y+Y+X+W+V++ +                   ",
"                    . + + N `+ @.@+@@@@@+@.@#@$@N + + %                     ",
"                        + + + + + + + + + + + + + .                         ",
"                              %@. + + + + 8.(.                              ",
"                                                                            ",
"                                                                            "};
