/* XPM */
static char * close_active_xpm[] = {
"38 38 276 2",
"  	c None",
". 	c #393734",
"+ 	c #383734",
"@ 	c #383735",
"# 	c #373734",
"$ 	c #383833",
"% 	c #383634",
"& 	c #3A3834",
"* 	c #695247",
"= 	c #A6705F",
"- 	c #D0866F",
"; 	c #E79278",
"> 	c #F2977D",
", 	c #A56F5E",
"' 	c #695148",
") 	c #413C38",
"! 	c #966557",
"~ 	c #E78F74",
"{ 	c #F59578",
"] 	c #F49375",
"^ 	c #F49173",
"/ 	c #F49072",
"( 	c #F48F72",
"_ 	c #E68F74",
": 	c #946556",
"< 	c #403B37",
"[ 	c #7D574C",
"} 	c #E28B70",
"| 	c #F39174",
"1 	c #F38E6F",
"2 	c #F38B6C",
"3 	c #F28969",
"4 	c #F28766",
"5 	c #F28665",
"6 	c #F28565",
"7 	c #E08A70",
"8 	c #7C574C",
"9 	c #383635",
"0 	c #373733",
"a 	c #393834",
"b 	c #9B6655",
"c 	c #F28E71",
"d 	c #F28A6B",
"e 	c #F28867",
"f 	c #F18462",
"g 	c #F18260",
"h 	c #F18362",
"i 	c #F28767",
"j 	c #A16956",
"k 	c #3A3835",
"l 	c #B8715A",
"m 	c #F28B6B",
"n 	c #F18665",
"o 	c #F0825F",
"p 	c #F07F5B",
"q 	c #B7715A",
"r 	c #9F6450",
"s 	c #F18866",
"t 	c #F08360",
"u 	c #EF7E59",
"v 	c #EF7C57",
"w 	c #9D6450",
"x 	c #795344",
"y 	c #F08563",
"z 	c #EF805D",
"A 	c #EE7B55",
"B 	c #EE7953",
"C 	c #EF8563",
"D 	c #775244",
"E 	c #3E3935",
"F 	c #DC7A5B",
"G 	c #EE7E5A",
"H 	c #ED7852",
"I 	c #ED754F",
"J 	c #DE7B5C",
"K 	c #3F3A35",
"L 	c #935B48",
"M 	c #EE7D58",
"N 	c #EC724B",
"O 	c #915B48",
"P 	c #3A3734",
"Q 	c #DF7755",
"R 	c #EC7751",
"S 	c #EB7149",
"T 	c #EB6F47",
"U 	c #C96442",
"V 	c #5D3F34",
"W 	c #D96945",
"X 	c #DC6A45",
"Y 	c #5E4034",
"Z 	c #C56242",
"` 	c #DE7655",
" .	c #68483C",
"..	c #EB714A",
"+.	c #EA6C43",
"@.	c #604034",
"#.	c #32312E",
"$.	c #513C32",
"%.	c #DA6741",
"&.	c #DB6741",
"*.	c #5F3F33",
"=.	c #66473C",
"-.	c #9F5A44",
";.	c #EA724A",
">.	c #EA6D43",
",.	c #E9693E",
"'.	c #DB6B45",
").	c #534037",
"!.	c #4F3931",
"~.	c #D7643D",
"{.	c #DA643D",
"].	c #523B31",
"^.	c #4F3E37",
"/.	c #D86B46",
"(.	c #9C5A44",
"_.	c #383733",
":.	c #C66644",
"<.	c #E96D43",
"[.	c #E8683C",
"}.	c #E8663A",
"|.	c #EC835F",
"1.	c #DE8466",
"2.	c #4E3930",
"3.	c #D66139",
"4.	c #D96239",
"5.	c #523A30",
"6.	c #DC8366",
"7.	c #E96E44",
"8.	c #C46645",
"9.	c #383834",
"0.	c #DB6B44",
"a.	c #E86A3E",
"b.	c #E76437",
"c.	c #E76336",
"d.	c #E7663A",
"e.	c #EC8360",
"f.	c #DD8363",
"g.	c #533F37",
"h.	c #4C382F",
"i.	c #4F3830",
"j.	c #4F3E36",
"k.	c #DB8163",
"l.	c #EC8461",
"m.	c #E8673B",
"n.	c #D96942",
"o.	c #E46A40",
"p.	c #E76639",
"q.	c #E66032",
"r.	c #E66336",
"s.	c #EB815D",
"t.	c #DD8161",
"u.	c #503E36",
"v.	c #4C3C36",
"w.	c #DA8060",
"x.	c #EB825D",
"y.	c #E3663C",
"z.	c #E66236",
"A.	c #E55D2F",
"B.	c #E66134",
"C.	c #DB7957",
"D.	c #503F36",
"E.	c #4C3D36",
"F.	c #D87856",
"G.	c #D8623A",
"H.	c #E56236",
"I.	c #E45D2F",
"J.	c #E45C2E",
"K.	c #D5582E",
"L.	c #51392F",
"M.	c #4E382F",
"N.	c #D3582E",
"O.	c #D6623B",
"P.	c #C15A36",
"Q.	c #E56134",
"R.	c #E45B2C",
"S.	c #D5582C",
"T.	c #51382E",
"U.	c #4F3D35",
"V.	c #D97C5C",
"W.	c #DC7D5D",
"X.	c #523E36",
"Y.	c #4E372E",
"Z.	c #D3572D",
"`.	c #BE5936",
" +	c #9A5035",
".+	c #E46133",
"++	c #E35C2D",
"@+	c #E35A2B",
"#+	c #D4572B",
"$+	c #4F3C35",
"%+	c #D87B5C",
"&+	c #E97C57",
"*+	c #DB7C5C",
"=+	c #523E35",
"-+	c #D2562C",
";+	c #E35D2E",
">+	c #974E34",
",+	c #634134",
"'+	c #E56032",
")+	c #E45C2D",
"!+	c #E35929",
"~+	c #5E3B2D",
"{+	c #513E34",
"]+	c #DA7C5B",
"^+	c #E97C56",
"/+	c #E45D2E",
"(+	c #E97C55",
"_+	c #513E35",
":+	c #5D3B2D",
"<+	c #614033",
"[+	c #3A3733",
"}+	c #D65A31",
"|+	c #E35B2D",
"1+	c #E25829",
"2+	c #E25728",
"3+	c #C1532E",
"4+	c #5E4338",
"5+	c #D97A5A",
"6+	c #E87A55",
"7+	c #D55A31",
"8+	c #894832",
"9+	c #E25929",
"0+	c #E25626",
"a+	c #E7764F",
"b+	c #E9805C",
"c+	c #E87953",
"d+	c #874732",
"e+	c #3D3833",
"f+	c #D0572C",
"g+	c #E15928",
"h+	c #E15626",
"i+	c #E15524",
"j+	c #E25D2E",
"k+	c #E7754D",
"l+	c #D0582C",
"m+	c #3E3833",
"n+	c #724331",
"o+	c #E05929",
"p+	c #E15726",
"q+	c #E15423",
"r+	c #6F4330",
"s+	c #92472E",
"t+	c #E15422",
"u+	c #E15321",
"v+	c #E15727",
"w+	c #90472E",
"x+	c #A94A2B",
"y+	c #E05425",
"z+	c #E05222",
"A+	c #E05221",
"B+	c #E05120",
"C+	c #A84A2B",
"D+	c #8C452B",
"E+	c #DF5222",
"F+	c #E0511F",
"G+	c #E0501E",
"H+	c #91472A",
"I+	c #70402D",
"J+	c #CC4E22",
"K+	c #DF511F",
"L+	c #DF501E",
"M+	c #DF4F1D",
"N+	c #6E402D",
"O+	c #3D3733",
"P+	c #844329",
"Q+	c #D04E20",
"R+	c #DF501D",
"S+	c #DF4F1C",
"T+	c #844229",
"U+	c #5F3C2E",
"V+	c #924326",
"W+	c #B94820",
"X+	c #CF4B1D",
"Y+	c #DA4D1B",
"Z+	c #5E3C2E",
"`+	c #383835",
"                                                                            ",
"                                                                            ",
"                              . + + + + + @ #                               ",
"                        $ + + + + + + + + + + + + $                         ",
"                    % + + & * = - ; > > ; - , ' & + + +                     ",
"                  + + ) ! ~ { ] ^ / ( ( / ^ ] { _ : < + +                   ",
"                + + [ } | 1 2 3 4 5 6 6 5 4 3 2 1 | 7 8 + + 9               ",
"            0 + a b c d e f g g g g g g g g g g h i d c j k +               ",
"            + k l m n o p p p p p p p p p p p p p p o n m q k +             ",
"          + + r s t u v v v v v v v v v v v v v v v v u t s w + +           ",
"        % + x y z A B B B B B B B B B B B B B B B B B B A z C D + .         ",
"        + E F G H I I I I I I I I I I I I I I I I I I I I H G J K +         ",
"      . + L M H N N N N N N N N N N N N N N N N N N N N N N H M O + %       ",
"      + P Q R S T T T T T U V W T T T T T T X Y Z T T T T T S R ` P +       ",
"      +  .R ..+.+.+.+.+.+.@.#.$.%.+.+.+.+.&.$.#.*.+.+.+.+.+.+...R =.+       ",
"    . + -.;.>.,.,.,.,.,.,.'.).#.!.~.,.,.{.].#.^./.,.,.,.,.,.,.>.;.(.+ _.    ",
"    + + :.<.[.}.}.}.}.}.}.|.1.).#.2.3.4.5.#.^.6.|.}.}.}.}.}.}.[.7.8.+ 9.    ",
"    + + 0.a.b.c.c.c.c.c.c.d.e.f.g.#.h.i.#.j.k.l.m.c.c.c.c.c.c.b.a.n.+ %     ",
"    + + o.p.q.q.q.q.q.q.q.q.r.s.t.u.#.#.v.w.x.b.q.q.q.q.q.q.q.q.p.o.+ %     ",
"    + + y.z.A.A.A.A.A.A.A.A.A.B.C.D.#.#.E.F.B.A.A.A.A.A.A.A.A.A.z.y.+ %     ",
"    + + G.H.I.J.J.J.J.J.J.J.J.K.L.#.E.j.#.M.N.J.J.J.J.J.J.J.J.I.H.O.+ %     ",
"    + + P.Q.J.R.R.R.R.R.R.R.S.T.#.U.V.W.X.#.Y.Z.R.R.R.R.R.R.R.J.Q.`.+ 9.    ",
"    # +  +.+++@+@+@+@+@+@+#+T.#.$+%+&+&+*+=+#.Y.-+@+@+@+@+@+@+;+.+>++ _.    ",
"      + ,+'+)+!+!+!+!+!+!+~+#.{+]+^+/+)+(+]+_+#.:+!+!+!+!+!+!+)+'+<++       ",
"      + [+}+|+1+2+2+2+2+2+3+4+5+6+|+2+2+|+6+5+4+3+2+2+2+2+2+1+|+7+& +       ",
"      $ + 8+|+9+0+0+0+0+0+a+b+c+@+0+0+0+0+@+c+b+a+0+0+0+0+0+9+|+d++ +       ",
"        + e+f+g+h+i+i+i+i+j+k+9+i+i+i+i+i+i+9+k+j+i+i+i+i+h+g+l+m++         ",
"        + + n+o+p+i+q+q+q+q+q+q+q+q+q+q+q+q+q+q+q+q+q+q+i+p+o+r++ %         ",
"          + + s+h+i+t+u+u+u+u+u+u+u+u+u+u+u+u+u+u+u+u+t+i+v+w++ +           ",
"            + & x+y+z+A+B+B+B+B+B+B+B+B+B+B+B+B+B+B+A+z+y+C+& +             ",
"            % + . D+E+B+B+F+G+G+G+G+G+G+G+G+G+G+F+B+A+E+H+& +               ",
"                + + I+J+K+L+L+L+M+M+M+M+M+M+L+L+L+K+J+N++ + 9               ",
"                  + + O+P+Q+R+R+S+S+S+S+S+S+R+R+Q+T+O++ +                   ",
"                    . + + & U+V+W+X+Y+Y+X+W+V+Z+& + + %                     ",
"                        + + + + + + + + + + + + + .                         ",
"                              `+. + + + + 9._.                              ",
"                                                                            ",
"                                                                            "};
