/* XPM */
static char * close_pressed_xpm[] = {
"38 38 195 2",
"  	c None",
". 	c #393734",
"+ 	c #383734",
"@ 	c #383735",
"# 	c #373734",
"$ 	c #383833",
"% 	c #383634",
"& 	c #3A3734",
"* 	c #604235",
"= 	c #915037",
"- 	c #B25A3A",
"; 	c #C65F39",
"> 	c #CE603B",
", 	c #905037",
"' 	c #604236",
") 	c #3E3934",
"! 	c #854B39",
"~ 	c #C9613C",
"{ 	c #D4633D",
"] 	c #D8653E",
"^ 	c #DA663E",
"/ 	c #DB663F",
"( 	c #DC673F",
"_ 	c #C8613B",
": 	c #834C38",
"< 	c #6F4636",
"[ 	c #C5603C",
"} 	c #D7653E",
"| 	c #DF683F",
"1 	c #E36940",
"2 	c #E46A40",
"3 	c #E56A40",
"4 	c #E66B41",
"5 	c #C35F3C",
"6 	c #6E4636",
"7 	c #383635",
"8 	c #373733",
"9 	c #8C4F3B",
"0 	c #D5643E",
"a 	c #DC663F",
"b 	c #E0683F",
"c 	c #E86B41",
"d 	c #E16840",
"e 	c #DB663E",
"f 	c #91513B",
"g 	c #3A3835",
"h 	c #A5563B",
"i 	c #D8653F",
"j 	c #DE6840",
"k 	c #E46A41",
"l 	c #A4553B",
"m 	c #90513B",
"n 	c #D96741",
"o 	c #E06941",
"p 	c #E66C42",
"q 	c #E86C42",
"r 	c #8F513B",
"s 	c #714838",
"t 	c #D96841",
"u 	c #DF6A42",
"v 	c #D86841",
"w 	c #704838",
"x 	c #C86440",
"y 	c #E46B42",
"z 	c #DE6A42",
"A 	c #C96541",
"B 	c #3F3935",
"C 	c #89503C",
"D 	c #DB6942",
"E 	c #E36B43",
"F 	c #87503D",
"G 	c #CF6641",
"H 	c #E16B43",
"I 	c #E76C42",
"J 	c #E96C42",
"K 	c #C7613E",
"L 	c #5D3E33",
"M 	c #D76641",
"N 	c #DA6741",
"O 	c #5E3F33",
"P 	c #C3603E",
"Q 	c #CD6541",
"R 	c #644437",
"S 	c #DC6A43",
"T 	c #E36B42",
"U 	c #604033",
"V 	c #32312E",
"W 	c #513C31",
"X 	c #D96740",
"Y 	c #5F3F33",
"Z 	c #E46C43",
"` 	c #624338",
" .	c #99563E",
"..	c #E06B44",
"+.	c #E66B42",
"@.	c #523B32",
"#.	c #4F3A31",
"$.	c #94543E",
"%.	c #383733",
"&.	c #BD6343",
"*.	c #E16C44",
"=.	c #BB6243",
"-.	c #383834",
";.	c #D36945",
">.	c #E26C44",
",.	c #4C3931",
"'.	c #4F3A32",
").	c #D16945",
"!.	c #DB6C47",
"~.	c #E36D45",
"{.	c #DB6D47",
"].	c #DB6D48",
"^.	c #E46E46",
"/.	c #E96D43",
"(.	c #EA6D43",
"_.	c #DB6841",
":.	c #D86741",
"<.	c #DC6E48",
"[.	c #D66B47",
"}.	c #E56F47",
"|.	c #4C3932",
"1.	c #D46B48",
"2.	c #BF6545",
"3.	c #E57048",
"4.	c #E96E44",
"5.	c #BD6545",
"6.	c #995940",
"7.	c #E57049",
"8.	c #E86E45",
"9.	c #985842",
"0.	c #65463A",
"a.	c #E4724B",
"b.	c #E87047",
"c.	c #604034",
"d.	c #513B31",
"e.	c #DA6841",
"f.	c #513C32",
"g.	c #624539",
"h.	c #D76D49",
"i.	c #E67048",
"j.	c #C7613F",
"k.	c #D66D4A",
"l.	c #8D5441",
"m.	c #E8734D",
"n.	c #E97047",
"o.	c #EB6D43",
"p.	c #8B5341",
"q.	c #3D3834",
"r.	c #D46D4B",
"s.	c #E8724A",
"t.	c #EA6F46",
"u.	c #D76F4C",
"v.	c #754D3D",
"w.	c #E7754E",
"x.	c #E9724A",
"y.	c #EA6E44",
"z.	c #734D3C",
"A.	c #985943",
"B.	c #E9754E",
"C.	c #EA7149",
"D.	c #965943",
"E.	c #B16349",
"F.	c #EA7750",
"G.	c #EA744C",
"H.	c #EA7047",
"I.	c #EB6E44",
"J.	c #965843",
"K.	c #E97751",
"L.	c #EA754D",
"M.	c #EA7249",
"N.	c #EB7046",
"O.	c #EA7852",
"P.	c #9A5C44",
"Q.	c #764E3E",
"R.	c #D97250",
"S.	c #EC7751",
"T.	c #EC754D",
"U.	c #EC734A",
"V.	c #EC7148",
"W.	c #EC7046",
"X.	c #EC6F45",
"Y.	c #DA7350",
"Z.	c #734D3D",
"`.	c #8E5643",
" +	c #DD7351",
".+	c #EC7852",
"++	c #EC7750",
"@+	c #EC764E",
"#+	c #67483C",
"$+	c #9E5D46",
"%+	c #C76D4E",
"&+	c #DF7553",
"*+	c #E97A54",
"=+	c #66473C",
"-+	c #383835",
"                                                                            ",
"                                                                            ",
"                              . + + + + + @ #                               ",
"                        $ + + + + + + + + + + + + $                         ",
"                    % + + & * = - ; > > ; - , ' & + + +                     ",
"                  + + ) ! ~ { ] ^ / ( ( / ^ ] { _ : ) + +                   ",
"                + + < [ } / | 1 2 3 4 4 3 2 1 | / } 5 6 + + 7               ",
"            8 + . 9 0 a b 3 c c c c c c c c c c 3 d e 0 f g +               ",
"            + g h i j k c c c c c c c c c c c c c c k j i l g +             ",
"          + + m n o p q q q q q q q q q q q q q q q q p o n r + +           ",
"        % + s t u p q q q q q q q q q q q q q q q q q q p u v w + .         ",
"        + ) x u y q q q q q q q q q q q q q q q q q q q q y z A B +         ",
"      . + C D E q q q q q q q q q q q q q q q q q q q q q q E D F + %       ",
"      + & G H I J J J J J K L M J J J J J J N O P J J J J J I H Q & +       ",
"      + R S T J J J J J J U V W X J J J J N W V Y J J J J J J Z S ` +       ",
"    . +  ...+.J J J J J J N @.V #.M J J N @.V #.M J J J J J J +...$.+ %.    ",
"    + + &.*.I J J J J J J J N @.V #.M N @.V #.M J J J J J J J I *.=.+ -.    ",
"    + + ;.>.q J J J J J J J J N @.V ,.'.V #.M J J J J J J J J q >.).+ %     ",
"    + + !.~.q J J J J J J J J J N #.V V ,.M J J J J J J J J J q ~.{.+ %     ",
"    + + ].^./.(.(.(.(.(.(.(.(.(._.'.V V ,.:.(.(.(.(.(.(.(.(.(./.^.<.+ %     ",
"    + + [.}./.(.(.(.(.(.(.(.(._.@.V |.#.V '.:.(.(.(.(.(.(.(.(./.}.1.+ %     ",
"    + + 2.3.4.(.(.(.(.(.(.(._.@.V '.:._.@.V '.:.(.(.(.(.(.(.(.4.3.5.+ -.    ",
"    # + 6.7.8.(.(.(.(.(.(._.@.V '.:.(.(._.@.V '.:.(.(.(.(.(.(.8.7.9.+ %.    ",
"      + 0.a.b.(.(.(.(.(.(.c.V d.e.(.(.(.(.e.f.V Y (.(.(.(.(.(.b.a.g.+       ",
"      + & h.i.4.(.(.(.(.(.j.Y e.(.(.(.(.(.(.e.Y j.(.(.(.(.(.4.i.k.g +       ",
"      $ + l.m.n.o.o.o.o.o.o.o.o.o.o.o.o.o.o.o.o.o.o.o.o.o.o.n.m.p.+ +       ",
"        + q.r.s.t.o.o.o.o.o.o.o.o.o.o.o.o.o.o.o.o.o.o.o.o.t.s.u.) +         ",
"        + + v.w.x.y.o.o.o.o.o.o.o.o.o.o.o.o.o.o.o.o.o.o.y.x.w.z.+ %         ",
"          + + A.B.C.y.o.o.o.o.o.o.o.o.o.o.o.o.o.o.o.o.y.C.B.D.+ +           ",
"            + g E.F.G.H.I.I.I.I.I.I.I.I.I.I.I.I.I.I.H.G.F.E.g +             ",
"            % + . J.K.L.M.N.I.I.I.I.I.I.I.I.I.I.N.M.L.O.P.g +               ",
"                + + Q.R.S.T.U.V.W.X.X.X.X.W.V.U.T.S.Y.Z.+ + 7               ",
"                  + + q.`. +.+++@+T.T.T.T.@+++.+ +`.q.+ +                   ",
"                    . + + g #+$+%+&+*+*+&+%+$+=+g + + %                     ",
"                        + + + + + + + + + + + + + .                         ",
"                              -+. + + + + -.%.                              ",
"                                                                            ",
"                                                                            "};
