/* XPM */
static char * close_inactive_xpm[] = {
"38 38 106 2",
"  	c None",
". 	c #393734",
"+ 	c #383734",
"@ 	c #383735",
"# 	c #373734",
"$ 	c #383833",
"% 	c #383634",
"& 	c #3F3F3B",
"* 	c #494943",
"= 	c #4F4E4A",
"- 	c #54534D",
"; 	c #56554F",
"> 	c #494843",
", 	c #3F3F3C",
"' 	c #393835",
") 	c #474542",
"! 	c #55544D",
"~ 	c #575650",
"{ 	c #585751",
"] 	c #595852",
"^ 	c #464641",
"/ 	c #42403E",
"( 	c #55544F",
"_ 	c #5A5953",
": 	c #5B5A54",
"< 	c #55544E",
"[ 	c #42413F",
"} 	c #383635",
"| 	c #373733",
"1 	c #484743",
"2 	c #595953",
"3 	c #5A5A54",
"4 	c #5C5B55",
"5 	c #4E4D4A",
"6 	c #4B4A45",
"7 	c #5B5B55",
"8 	c #585752",
"9 	c #3A3935",
"0 	c #5C5B56",
"a 	c #5D5C56",
"b 	c #45443E",
"c 	c #5A5954",
"d 	c #44443F",
"e 	c #41403E",
"f 	c #3D3C37",
"g 	c #42423D",
"h 	c #45433F",
"i 	c #4D4B47",
"j 	c #5D5C57",
"k 	c #42413C",
"l 	c #42413B",
"m 	c #4C4B47",
"n 	c #383733",
"o 	c #383834",
"p 	c #41413B",
"q 	c #5C5C57",
"r 	c #42413A",
"s 	c #5F5E5A",
"t 	c #5F5E59",
"u 	c #5E5D57",
"v 	c #5B5A55",
"w 	c #5B5A53",
"x 	c #5F5E58",
"y 	c #605F5A",
"z 	c #43413C",
"A 	c #42423C",
"B 	c #575751",
"C 	c #575651",
"D 	c #4F4E49",
"E 	c #4F4D49",
"F 	c #41403F",
"G 	c #62615C",
"H 	c #605F59",
"I 	c #43423D",
"J 	c #45443F",
"K 	c #40403E",
"L 	c #5F5E57",
"M 	c #61605B",
"N 	c #61605A",
"O 	c #4C4A47",
"P 	c #615F5A",
"Q 	c #474642",
"R 	c #64635E",
"S 	c #464642",
"T 	c #514F4B",
"U 	c #4F4F4A",
"V 	c #565551",
"W 	c #555551",
"X 	c #504E4A",
"Y 	c #65645F",
"Z 	c #62615B",
"` 	c #51504B",
" .	c #63625D",
"..	c #63625C",
"+.	c #61615B",
"@.	c #64625D",
"#.	c #4E4E49",
"$.	c #676661",
"%.	c #666560",
"&.	c #656460",
"*.	c #4F4D48",
"=.	c #444241",
"-.	c #53534F",
";.	c #54524E",
">.	c #434241",
",.	c #383835",
"                                                                            ",
"                                                                            ",
"                              . + + + + + @ #                               ",
"                        $ + + + + + + + + + + + + $                         ",
"                    % + + + & * = - ; ; - = > , + + + +                     ",
"                  + + ' ) ! ~ { { ] ] ] ] { { ~ - ^ ' + +                   ",
"                + + / ( { _ ] _ _ : : : : _ _ ] _ { < [ + + }               ",
"            | + + 1 2 3 : : 4 4 4 4 4 4 4 4 4 4 : : 2 2 * ' +               ",
"            + ' 5 2 3 : 4 4 4 4 4 4 4 4 4 4 4 4 4 4 : 3 2 5 ' +             ",
"          + + 6 2 3 : 4 4 4 4 4 4 4 4 4 4 4 4 4 4 4 4 : 3 2 6 + +           ",
"        % + [ 3 3 : 4 4 4 4 4 4 4 4 4 4 4 4 4 4 4 4 4 4 : 3 3 [ + .         ",
"        + ' { 7 4 4 4 4 4 4 4 4 4 4 4 4 4 4 4 4 4 4 4 4 4 4 3 8 9 +         ",
"      . + > 3 4 4 4 4 4 4 4 4 4 4 4 4 4 4 4 4 4 4 4 4 4 4 4 4 3 > + %       ",
"      + + _ 0 a a a a a a ~ b _ a a a a a a c d ; a a a a a a 0 _ + +       ",
"      + e 0 a a a a a a a b f g c a a a a c g f h a a a a a a a 0 e +       ",
"    . + i j a a a a a a a c k f l _ a a c k f l _ a a a a a a a j m + n     ",
"    + + < j a a a a a a a a c k f l _ c k f l _ a a a a a a a a j < + o     ",
"    + + 4 j a a a a a a a a a c k f p l f l _ a a a a a a a a a j 4 + %     ",
"    + + q j a a a a a a a a a a c k f f r _ a a a a a a a a a a j q + %     ",
"    + + s t u u u u u u u u u u v k f f p w u u u u u u u u u u t s + %     ",
"    + + x y x u u u u u u u u v z f A k f A w u u u u u u u u x y a + %     ",
"    + + B t u u u u u u u u v z f A w v z f A w u u u u u u u u t C + o     ",
"    # + D y x u u u u u u v z f A w u u v z f A w u u u u u u x y E + n     ",
"      + F G H u u u u u u b f I : u u u u : g f J u u u u u u H G K +       ",
"      + + L M u u u u u u C J : u u u u u u : J C u u u u u u M x ' +       ",
"      $ + m G N x x x x x x x x x x x x x x x x x x x x x x N G O + +       ",
"        + ' P M H x x x x x x x x x x x x x x x x x x x x H M N ' +         ",
"        + + Q R M x x x x x x x x x x x x x x x x x x x x M R S + %         ",
"          + + T R M x x x x x x x x x x x x x x x x x x M R U + +           ",
"            + ' V R G H x x x x x x x x x x x x x x N G R W ' +             ",
"            % + + X Y G Z H x x x x x x x x x x H Z G Y ` ' +               ",
"                + + Q  .Y R ..+.N N H H N N +...R Y @.S + + }               ",
"                  + + ' #.R $.%.Y Y R R Y Y &.$.R *.' + +                   ",
"                    . + + ' =.-.j R $.$.R j ;.>.' + + %                     ",
"                        + + + + + + + + + + + + + .                         ",
"                              ,.. + + + + o n                               ",
"                                                                            ",
"                                                                            "};
