/* XPM */
static char * hide_pressed_xpm[] = {
"38 38 118 2",
"  	c None",
". 	c #393734",
"+ 	c #383734",
"@ 	c #383735",
"# 	c #373734",
"$ 	c #383833",
"% 	c #383634",
"& 	c #44443F",
"* 	c #55554F",
"= 	c #605F59",
"- 	c #65645F",
"; 	c #696861",
"> 	c #55544E",
", 	c #454440",
"' 	c #3A3936",
") 	c #514F4B",
"! 	c #676761",
"~ 	c #6C6B64",
"{ 	c #6D6C66",
"] 	c #6F6E67",
"^ 	c #706F68",
"/ 	c #676661",
"( 	c #504F4A",
"_ 	c #4A4944",
": 	c #666561",
"< 	c #6D6D66",
"[ 	c #706F69",
"} 	c #72716A",
"| 	c #73726B",
"1 	c #74736C",
"2 	c #656560",
"3 	c #4A4945",
"4 	c #383635",
"5 	c #373733",
"6 	c #54534E",
"7 	c #6D6C65",
"8 	c #717069",
"9 	c #565550",
"0 	c #393835",
"a 	c #5C5B56",
"b 	c #6E6D66",
"c 	c #5B5B55",
"d 	c #6F6F68",
"e 	c #75746D",
"f 	c #56554F",
"g 	c #4C4B47",
"h 	c #707069",
"i 	c #72726B",
"j 	c #4C4B46",
"k 	c #6A6965",
"l 	c #6B6A65",
"m 	c #3B3A36",
"n 	c #55544F",
"o 	c #70706A",
"p 	c #54544E",
"q 	c #6C6B66",
"r 	c #73736C",
"s 	c #6B6B66",
"t 	c #474642",
"u 	c #71716B",
"v 	c #73726C",
"w 	c #74736D",
"x 	c #474542",
"y 	c #595853",
"z 	c #383733",
"A 	c #686762",
"B 	c #74746D",
"C 	c #676762",
"D 	c #383834",
"E 	c #6F6F69",
"F 	c #75756E",
"G 	c #3D3C37",
"H 	c #75756D",
"I 	c #76756F",
"J 	c #76756E",
"K 	c #777670",
"L 	c #72716B",
"M 	c #787771",
"N 	c #77766F",
"O 	c #5D5D57",
"P 	c #5D5C57",
"Q 	c #494844",
"R 	c #797873",
"S 	c #484743",
"T 	c #7B7A74",
"U 	c #585753",
"V 	c #3A3935",
"W 	c #75736E",
"X 	c #7A7973",
"Y 	c #787770",
"Z 	c #767670",
"` 	c #51504B",
" .	c #7C7B76",
"..	c #4F4F4A",
"+.	c #5F5D58",
"@.	c #7D7C76",
"#.	c #7A7972",
"$.	c #696963",
"%.	c #7F7E78",
"&.	c #7C7B75",
"*.	c #797871",
"=.	c #696863",
"-.	c #5E5C58",
";.	c #807F79",
">.	c #60605A",
",.	c #52504C",
"'.	c #797973",
").	c #7A7874",
"!.	c #5B5A55",
"~.	c #7E7D77",
"{.	c #5B5A54",
"].	c #4B4A46",
"^.	c #62615D",
"/.	c #73726D",
"(.	c #81817B",
"_.	c #62615C",
":.	c #4B4946",
"<.	c #383835",
"                                                                            ",
"                                                                            ",
"                              . + + + + + @ #                               ",
"                        $ + + + + + + + + + + + + $                         ",
"                    % + + + & * = - ; ; - = > , + + + +                     ",
"                  + + ' ) ! ~ { ] ] ^ ^ ] ] { ~ / ( ' + +                   ",
"                + + _ : < ] [ } | | 1 1 | | } [ ] < 2 3 + + 4               ",
"            5 + + 6 7 ] [ | 1 1 1 1 1 1 1 1 1 1 | 8 ] 7 9 0 +               ",
"            + 0 a b 8 | 1 1 1 1 1 1 1 1 1 1 1 1 1 1 | 8 b c 0 +             ",
"          + + 9 d } e e e e e e e e e e e e e e e e e e } d f + +           ",
"        % + g h i e e e e e e e e e e e e e e e e e e e e i h j + .         ",
"        + ' k i 1 e e e e e e e e e e e e e e e e e e e e 1 i l m +         ",
"      . + n o 1 e e e e e e e e e e e e e e e e e e e e e e 1 o p + %       ",
"      + + q r e e e e e e e e e e e e e e e e e e e e e e e e r s + +       ",
"      + t u v e e e e e e e e e e e e e e e e e e e e e e e e w u x +       ",
"    . + a r 1 e e e e e e e e e e e e e e e e e e e e e e e e 1 r y + z     ",
"    + + A B e e e e e e e e e e e e e e e e e e e e e e e e e e B C + D     ",
"    + + [ B e e e e e e e e e e e e e e e e e e e e e e e e e e B E + %     ",
"    + + e F e e e e e e G G G G G G G G G G G G G G e e e e e e F H + %     ",
"    + + F I J J J J J J G G G G G G G G G G G G G G J J J J J J I F + %     ",
"    + + | K J J J J J J J J J J J J J J J J J J J J J J J J J J K L + %     ",
"    + + k M N J J J J J J J J J J J J J J J J J J J J J J J J N M k + D     ",
"    # + O M N J J J J J J J J J J J J J J J J J J J J J J J J N M P + z     ",
"      + Q R M J J J J J J J J J J J J J J J J J J J J J J J J M R S +       ",
"      + + e M N J J J J J J J J J J J J J J J J J J J J J J N M w 0 +       ",
"      $ + y T M J J J J J J J J J J J J J J J J J J J J J J M T U + +       ",
"        + V W X Y J J J J J J J J J J J J J J J J J J J J Y X Z ' +         ",
"        + + `  .X N J J J J J J J J J J J J J J J J J J N X  ...+ %         ",
"          + + +.@.#.N J J J J J J J J J J J J J J J J N #.@.O + +           ",
"            + 0 $.%.&.*.N N N N N N N N N N N N N N *.&.%.=.0 +             ",
"            % + + -.%.@.X *.N N N N N N N N N N *.X @.;.>.0 +               ",
"                + + ,.'.%.@.T #.*.Y Y Y Y *.#.T @.%.).( + + 4               ",
"                  + + V !.T ;.%.~.@.@.@.@.~.%.;.T {.V + +                   ",
"                    . + + 0 ].^./.@.(.(.@./._.:.0 + + %                     ",
"                        + + + + + + + + + + + + + .                         ",
"                              <.. + + + + D z                               ",
"                                                                            ",
"                                                                            "};
