/* XPM */
static char * hide_inactive_xpm[] = {
"38 38 91 1",
" 	c None",
".	c #393734",
"+	c #383734",
"@	c #383735",
"#	c #373734",
"$	c #383833",
"%	c #383634",
"&	c #3F3F3B",
"*	c #494943",
"=	c #4F4E4A",
"-	c #54534D",
";	c #56554F",
">	c #494843",
",	c #3F3F3C",
"'	c #393835",
")	c #474542",
"!	c #55544D",
"~	c #575650",
"{	c #585751",
"]	c #595852",
"^	c #464641",
"/	c #42403E",
"(	c #55544F",
"_	c #5A5953",
":	c #5B5A54",
"<	c #55544E",
"[	c #42413F",
"}	c #383635",
"|	c #373733",
"1	c #484743",
"2	c #595953",
"3	c #5A5A54",
"4	c #5C5B55",
"5	c #4E4D4A",
"6	c #4B4A45",
"7	c #5B5B55",
"8	c #585752",
"9	c #3A3935",
"0	c #5C5B56",
"a	c #5D5C56",
"b	c #41403E",
"c	c #4D4B47",
"d	c #5D5C57",
"e	c #4C4B47",
"f	c #383733",
"g	c #383834",
"h	c #5C5C57",
"i	c #3D3C37",
"j	c #5F5E5A",
"k	c #5F5E59",
"l	c #5E5D57",
"m	c #5F5E58",
"n	c #605F5A",
"o	c #575751",
"p	c #575651",
"q	c #4F4E49",
"r	c #4F4D49",
"s	c #41403F",
"t	c #62615C",
"u	c #605F59",
"v	c #40403E",
"w	c #5F5E57",
"x	c #61605B",
"y	c #61605A",
"z	c #4C4A47",
"A	c #615F5A",
"B	c #474642",
"C	c #64635E",
"D	c #464642",
"E	c #514F4B",
"F	c #4F4F4A",
"G	c #565551",
"H	c #555551",
"I	c #504E4A",
"J	c #65645F",
"K	c #62615B",
"L	c #51504B",
"M	c #63625D",
"N	c #63625C",
"O	c #61615B",
"P	c #64625D",
"Q	c #4E4E49",
"R	c #676661",
"S	c #666560",
"T	c #656460",
"U	c #4F4D48",
"V	c #444241",
"W	c #53534F",
"X	c #54524E",
"Y	c #434241",
"Z	c #383835",
"                                      ",
"                                      ",
"               .+++++@#               ",
"            $++++++++++++$            ",
"          %+++&*=-;;-=>,++++          ",
"         ++')!~{{]]]]{{~-^'++         ",
"        ++/({_]__::::__]_{<[++}       ",
"      |++123::4444444444::22*'+       ",
"      +'523:44444444444444:325'+      ",
"     ++623:4444444444444444:326++     ",
"    %+[33:444444444444444444:33[+.    ",
"    +'{74444444444444444444444389+    ",
"   .+>34444444444444444444444443>+%   ",
"   ++_0aaaaaaaaaaaaaaaaaaaaaaaa0_++   ",
"   +b0aaaaaaaaaaaaaaaaaaaaaaaaaa0b+   ",
"  .+cdaaaaaaaaaaaaaaaaaaaaaaaaaade+f  ",
"  ++<daaaaaaaaaaaaaaaaaaaaaaaaaad<+g  ",
"  ++4daaaaaaaaaaaaaaaaaaaaaaaaaad4+%  ",
"  ++hdaaaaaaiiiiiiiiiiiiiiaaaaaadh+%  ",
"  ++jklllllliiiiiiiiiiiiiillllllkj+%  ",
"  ++mnmllllllllllllllllllllllllmna+%  ",
"  ++okllllllllllllllllllllllllllkp+g  ",
"  #+qnmllllllllllllllllllllllllmnr+f  ",
"   +stullllllllllllllllllllllllutv+   ",
"   ++wxllllllllllllllllllllllllxm'+   ",
"   $+etymmmmmmmmmmmmmmmmmmmmmmytz++   ",
"    +'Axummmmmmmmmmmmmmmmmmmmuxy'+    ",
"    ++BCxmmmmmmmmmmmmmmmmmmmmxCD+%    ",
"     ++ECxmmmmmmmmmmmmmmmmmmxCF++     ",
"      +'GCtummmmmmmmmmmmmmytCH'+      ",
"      %++IJtKummmmmmmmmmuKtJL'+       ",
"        ++BMJCNOyyuuyyONCJPD++}       ",
"         ++'QCRSJJCCJJTRCU'++         ",
"          .++'VWdCRRCdXY'++%          ",
"            +++++++++++++.            ",
"               Z.++++gf               ",
"                                      ",
"                                      "};
