/* XPM */
static char * hide_active_xpm[] = {
"38 38 156 2",
"  	c None",
". 	c #393734",
"+ 	c #383734",
"@ 	c #383735",
"# 	c #373734",
"$ 	c #383833",
"% 	c #383634",
"& 	c #393835",
"* 	c #52524E",
"= 	c #71706D",
"- 	c #878682",
"; 	c #94938E",
"> 	c #999894",
", 	c #70706C",
"' 	c #53514E",
") 	c #3D3C39",
"! 	c #676664",
"~ 	c #92918D",
"{ 	c #989793",
"] 	c #959491",
"^ 	c #94938F",
"/ 	c #93928E",
"( 	c #91908D",
"_ 	c #666663",
": 	c #3C3B38",
"< 	c #5A5854",
"[ 	c #8F8E89",
"} 	c #959490",
"| 	c #92918C",
"1 	c #908F89",
"2 	c #8E8D87",
"3 	c #8C8B85",
"4 	c #8B8A84",
"5 	c #8A8983",
"6 	c #8E8D88",
"7 	c #595854",
"8 	c #383635",
"9 	c #373733",
"0 	c #6A6965",
"a 	c #908F8A",
"b 	c #8A8984",
"c 	c #888782",
"d 	c #898883",
"e 	c #8D8C87",
"f 	c #6D6C67",
"g 	c #767571",
"h 	c #868580",
"i 	c #757570",
"j 	c #686864",
"k 	c #91908A",
"l 	c #8B8A85",
"m 	c #85847E",
"n 	c #686763",
"o 	c #575652",
"p 	c #84837E",
"q 	c #83827C",
"r 	c #8D8C88",
"s 	c #575551",
"t 	c #3B3A36",
"u 	c #83827D",
"v 	c #81807A",
"w 	c #85847F",
"x 	c #3B3A37",
"y 	c #62615C",
"z 	c #807F79",
"A 	c #61615C",
"B 	c #85847D",
"C 	c #7E7D77",
"D 	c #4D4B48",
"E 	c #7C7B75",
"F 	c #4C4B48",
"G 	c #65645F",
"H 	c #82827B",
"I 	c #7E7D76",
"J 	c #7B7A73",
"K 	c #64645F",
"L 	c #383733",
"M 	c #74746E",
"N 	c #7F7E78",
"O 	c #797871",
"P 	c #74746D",
"Q 	c #383834",
"R 	c #7D7C76",
"S 	c #787771",
"T 	c #777670",
"U 	c #797874",
"V 	c #76756E",
"W 	c #3D3C37",
"X 	c #7F7E76",
"Y 	c #7A7974",
"Z 	c #74736C",
"` 	c #7B7A74",
" .	c #777671",
"..	c #73726C",
"+.	c #72716B",
"@.	c #807F7A",
"#.	c #75746E",
"$.	c #6A6A64",
"%.	c #71706A",
"&.	c #706F69",
"*.	c #7E7D78",
"=.	c #696863",
"-.	c #5C5B56",
";.	c #75746D",
">.	c #717069",
",.	c #6F6E67",
"'.	c #5B5954",
").	c #474642",
"!.	c #73726D",
"~.	c #6D6C66",
"{.	c #464541",
"].	c #6D6C65",
"^.	c #6F6E68",
"/.	c #6C6B65",
"(.	c #6B6A64",
"_.	c #6C6B66",
":.	c #51504C",
"<.	c #6E6D68",
"[.	c #6B6A65",
"}.	c #504F4C",
"|.	c #666462",
"1.	c #6A6964",
"2.	c #686762",
"3.	c #676661",
"4.	c #666562",
"5.	c #3A3935",
"6.	c #4A4844",
"7.	c #676660",
"8.	c #66655F",
"9.	c #484843",
"0.	c #666560",
"a.	c #64635E",
"b.	c #504F4B",
"c.	c #565551",
"d.	c #63625D",
"e.	c #555550",
"f.	c #4E4D4A",
"g.	c #62615D",
"h.	c #61605C",
"i.	c #605F5B",
"j.	c #4F4F4B",
"k.	c #464441",
"l.	c #5B5A57",
"m.	c #5F5E5A",
"n.	c #5E5D59",
"o.	c #5C5A57",
"p.	c #454540",
"q.	c #4A4945",
"r.	c #5F5E59",
"s.	c #5E5D58",
"t.	c #403F3C",
"u.	c #4B4A47",
"v.	c #53534E",
"w.	c #585753",
"x.	c #5B5A56",
"y.	c #383835",
"                                                                            ",
"                                                                            ",
"                              . + + + + + @ #                               ",
"                        $ + + + + + + + + + + + + $                         ",
"                    % + + & * = - ; > > ; - , ' & + + +                     ",
"                  + + ) ! ~ { ] ^ / ~ ~ / ^ ] { ( _ : + +                   ",
"                + + < [ } | 1 2 3 4 5 5 4 3 2 1 | } 6 7 + + 8               ",
"            9 + & 0 ; a 6 b c c c c c c c c c c d e a ; f & +               ",
"            + & g | e d h h h h h h h h h h h h h h d e | i & +             ",
"          + + j k l h m m m m m m m m m m m m m m m m h l k n + +           ",
"        % + o 6 d p q q q q q q q q q q q q q q q q q q p d r s + .         ",
"        + t p c u v v v v v v v v v v v v v v v v v v v v u c w x +         ",
"      . + y 5 m z z z z z z z z z z z z z z z z z z z z z z m 5 A + %       ",
"      + + B m z C C C C C C C C C C C C C C C C C C C C C C z m q + +       ",
"      + D h v E E E E E E E E E E E E E E E E E E E E E E E E v h F +       ",
"    . + G H I J J J J J J J J J J J J J J J J J J J J J J J J I H K + L     ",
"    + + M N J O O O O O O O O O O O O O O O O O O O O O O O O J z P + Q     ",
"    + + E R S T T T T T T T T T T T T T T T T T T T T T T T T S R U + %     ",
"    + + I J V V V V V V W W W W W W W W W W W W W W V V V V V V J X + %     ",
"    + + Y S Z Z Z Z Z Z W W W W W W W W W W W W W W Z Z Z Z Z Z S ` + %     ",
"    + + V  ...+.+.+.+.+.@.@.@.@.@.@.@.@.@.@.@.@.@.@.+.+.+.+.+... .#.+ %     ",
"    + + $.#.%.&.&.&.&.&.*.*.*.*.*.*.*.*.*.*.*.*.*.*.&.&.&.&.&.%.#.=.+ Q     ",
"    # + -.;.>.,.,.,.,.,.,.,.,.,.,.,.,.,.,.,.,.,.,.,.,.,.,.,.,.>.;.'.+ L     ",
"      + ).!.&.~.~.~.~.~.~.~.~.~.~.~.~.~.~.~.~.~.~.~.~.~.~.~.~.&.!.{.+       ",
"      + + ].^./.(.(.(.(.(.(.(.(.(.(.(.(.(.(.(.(.(.(.(.(.(.(./.^._.& +       ",
"      $ + :.<.[.=.=.=.=.=.=.=.=.=.=.=.=.=.=.=.=.=.=.=.=.=.=.[.<.}.+ +       ",
"        + & |.1.2.3.3.3.3.3.3.3.3.3.3.3.3.3.3.3.3.3.3.3.3.2.1.4.5.+         ",
"        + + 6.1.2.7.8.8.8.8.8.8.8.8.8.8.8.8.8.8.8.8.8.8.7.2.1.9.+ %         ",
"          + + :.3.0.G a.a.a.a.a.a.a.a.a.a.a.a.a.a.a.a.G 0.2.b.+ +           ",
"            + & c.G d.d.y y y y y y y y y y y y y y d.d.G e.& +             ",
"            % + + f.g.h.h.h.i.i.i.i.i.i.i.i.i.i.h.h.g.g.j.& +               ",
"                + + k.l.i.m.m.m.n.n.n.n.n.n.m.m.m.i.o.p.+ + 8               ",
"                  + + & q.-.r.r.s.s.s.s.s.s.r.r.-.q.& + +                   ",
"                    . + + & t.u.v.w.x.x.w.v.u.t.& + + %                     ",
"                        + + + + + + + + + + + + + .                         ",
"                              y.. + + + + Q L                               ",
"                                                                            ",
"                                                                            "};
