/* XPM */
static char * maximize_prelight_xpm[] = {
"38 38 123 2",
"  	c None",
". 	c #393734",
"+ 	c #383734",
"@ 	c #383735",
"# 	c #373734",
"$ 	c #383833",
"% 	c #383634",
"& 	c #393835",
"* 	c #61615E",
"= 	c #91918F",
"- 	c #B2B2B1",
"; 	c #C6C6C5",
"> 	c #CECECE",
", 	c #90908E",
"' 	c #61605E",
") 	c #3F3E3B",
"! 	c #848383",
"~ 	c #C4C4C3",
"{ 	c #CFCFCF",
"] 	c #CDCDCD",
"^ 	c #CCCCCC",
"/ 	c #838381",
"( 	c #3E3D3A",
"_ 	c #6E6D6B",
": 	c #C1C1C1",
"< 	c #CBCBCB",
"[ 	c #CACACA",
"} 	c #C9C9C9",
"| 	c #C8C8C8",
"1 	c #BFBFBF",
"2 	c #383635",
"3 	c #373733",
"4 	c #888786",
"5 	c #C7C7C7",
"6 	c #8C8C8A",
"7 	c #3A3936",
"8 	c #9E9E9D",
"9 	c #C6C6C6",
"0 	c #9D9D9C",
"a 	c #888886",
"b 	c #C5C5C5",
"c 	c #878786",
"d 	c #6B6A68",
"e 	c #C4C4C4",
"f 	c #6A6967",
"g 	c #3D3C39",
"h 	c #B9B9B9",
"i 	c #C3C3C3",
"j 	c #BABABA",
"k 	c #80807E",
"l 	c #51504B",
"m 	c #7E7E7C",
"n 	c #BDBDBC",
"o 	c #C2C2C2",
"p 	c #BCBCBC",
"q 	c #5E5D5B",
"r 	c #5C5B59",
"s 	c #8A8988",
"t 	c #C0C0C0",
"u 	c #888887",
"v 	c #383733",
"w 	c #A8A8A7",
"x 	c #A7A7A6",
"y 	c #383834",
"z 	c #B9B9B8",
"A 	c #BEBEBE",
"B 	c #B6B6B6",
"C 	c #BDBDBD",
"D 	c #BEBEBD",
"E 	c #B3B3B2",
"F 	c #BBBBBB",
"G 	c #B1B1B1",
"H 	c #B7B7B7",
"I 	c #B5B5B5",
"J 	c #B4B4B4",
"K 	c #7F7E7D",
"L 	c #575654",
"M 	c #B3B3B3",
"N 	c #555452",
"O 	c #A9A9A8",
"P 	c #AFAFAF",
"Q 	c #A8A8A8",
"R 	c #70706E",
"S 	c #ADADAD",
"T 	c #ACACAC",
"U 	c #6F6E6D",
"V 	c #3B3A37",
"W 	c #A09F9F",
"X 	c #AAAAAA",
"Y 	c #A9A9A9",
"Z 	c #A0A0A0",
"` 	c #3C3B38",
" .	c #5F5E5C",
"..	c #A7A7A7",
"+.	c #5D5D5A",
"@.	c #737271",
"#.	c #A6A6A6",
"$.	c #A5A5A5",
"%.	c #A4A4A4",
"&.	c #71716F",
"*.	c #80807F",
"=.	c #A3A3A3",
"-.	c #A2A2A2",
";.	c #7F7F7E",
">.	c #6E6D6C",
",.	c #9F9F9F",
"'.	c #5A5957",
").	c #909090",
"!.	c #9C9C9C",
"~.	c #919090",
"{.	c #595956",
"].	c #666664",
"^.	c #919191",
"/.	c #9A9A9A",
"(.	c #666563",
"_.	c #4F4E4C",
":.	c #6B6B6A",
"<.	c #828281",
"[.	c #8E8E8E",
"}.	c #949494",
"|.	c #6C6B6A",
"1.	c #4E4D4B",
"2.	c #383835",
"                                                                            ",
"                                                                            ",
"                              . + + + + + @ #                               ",
"                        $ + + + + + + + + + + + + $                         ",
"                    % + + & * = - ; > > ; - , ' & + + +                     ",
"                  + + ) ! ~ { > ] ^ ^ ^ ^ ] > { ~ / ( + +                   ",
"                + + _ : ] < < [ } | | | | } [ < < ] 1 _ + + 2               ",
"            3 + & 4 ^ < [ | 5 5 5 5 5 5 5 5 5 5 | } < ^ 6 7 +               ",
"            + 7 8 < } 5 9 9 9 9 9 9 9 9 9 9 9 9 9 9 5 } < 0 7 +             ",
"          + + a [ | 9 b b b b b b b b b b b b b b b b 9 | [ c + +           ",
"        % + d } 5 b e e e e e e e e e e e e e e e e e e b 5 | f + .         ",
"        + g h 5 e i i i i i i i i i i i i i i i i i i i i e 5 j ( +         ",
"      . + k | b i i i i l l l l l l l l l l l l l l i i i i b | m + %       ",
"      + & n b i o o o o l l l l l l l l l l l l l l o o o o i b p & +       ",
"      + q 9 i : : : : : l l [ [ [ [ [ [ [ [ [ [ l l : : : : : i 9 r +       ",
"    . + s i : t t t t t l l } } } } } } } } } } l l t t t t t : i u + v     ",
"    + + w o t 1 1 1 1 1 l l 1 1 1 1 1 1 1 1 1 1 l l 1 1 1 1 1 t i x + y     ",
"    + + z t A A A A A A l l A A A A A A A A A A l l A A A A A A t B + %     ",
"    + + A 1 C C C C C C l l C C C C C C C C C C l l C C C C C C 1 D + %     ",
"    + + C A p p p p p p l l p p p p p p p p p p l l p p p p p p A n + %     ",
"    + + E F h h h h h h l l h h h h h h h h h h l l h h h h h h F G + %     ",
"    + + 8 h H B B B B B l l B B B B B B B B B B l l B B B B B H h 0 + y     ",
"    # + k H I J J J J J l l J J J J J J J J J J l l J J J J J I H K + v     ",
"      + L J M G G G G G l l G G G G G G G G G G l l G G G G G M J N +       ",
"      + & O G P P P P P l l l l l l l l l l l l l l P P P P P G Q & +       ",
"      $ + R P S T T T T l l l l l l l l l l l l l l T T T T S P U + +       ",
"        + V W X X Y Y Y B B B B B B B B B B B B B B Y Y Y X X Z ` +         ",
"        + +  .Q Q ......J J J J J J J J J J J J J J ......Q Q +.+ %         ",
"          + + @.#.$.%.%.%.%.%.%.%.%.%.%.%.%.%.%.%.%.%.%.$.#.&.+ +           ",
"            + & *.%.=.-.-.-.-.-.-.-.-.-.-.-.-.-.-.-.-.=.%.;.& +             ",
"            % + & >.Z Z Z ,.,.,.,.,.,.,.,.,.,.,.,.Z Z Z &.& +               ",
"                + + '.).!.!.!.!.!.!.!.!.!.!.!.!.!.!.~.{.+ + 2               ",
"                  + + V ].^././././././././././.^.(.V + +                   ",
"                    . + + & _.:.<.[.}.}.[.<.|.1.& + + %                     ",
"                        + + + + + + + + + + + + + .                         ",
"                              2.. + + + + y v                               ",
"                                                                            ",
"                                                                            "};
