/* XPM */
static char * maximize_toggled_active_xpm[] = {
"38 38 157 2",
"  	c None",
". 	c #393734",
"+ 	c #383734",
"@ 	c #383735",
"# 	c #373734",
"$ 	c #383833",
"% 	c #383634",
"& 	c #393835",
"* 	c #52524E",
"= 	c #71706D",
"- 	c #878682",
"; 	c #94938E",
"> 	c #999894",
", 	c #70706C",
"' 	c #53514E",
") 	c #3D3C39",
"! 	c #676664",
"~ 	c #92918D",
"{ 	c #989793",
"] 	c #959491",
"^ 	c #94938F",
"/ 	c #93928E",
"( 	c #91908D",
"_ 	c #666663",
": 	c #3C3B38",
"< 	c #5A5854",
"[ 	c #8F8E89",
"} 	c #959490",
"| 	c #92918C",
"1 	c #908F89",
"2 	c #8E8D87",
"3 	c #8C8B85",
"4 	c #8B8A84",
"5 	c #8A8983",
"6 	c #8E8D88",
"7 	c #595854",
"8 	c #383635",
"9 	c #373733",
"0 	c #6A6965",
"a 	c #908F8A",
"b 	c #8A8984",
"c 	c #888782",
"d 	c #898883",
"e 	c #8D8C87",
"f 	c #6D6C67",
"g 	c #767571",
"h 	c #868580",
"i 	c #757570",
"j 	c #686864",
"k 	c #91908A",
"l 	c #8B8A85",
"m 	c #85847E",
"n 	c #686763",
"o 	c #575652",
"p 	c #84837E",
"q 	c #83827C",
"r 	c #8D8C88",
"s 	c #575551",
"t 	c #3B3A36",
"u 	c #83827D",
"v 	c #81807A",
"w 	c #85847F",
"x 	c #3B3A37",
"y 	c #62615C",
"z 	c #807F79",
"A 	c #61615C",
"B 	c #85847D",
"C 	c #7E7D77",
"D 	c #4D4B48",
"E 	c #7C7B75",
"F 	c #3D3C37",
"G 	c #4C4B48",
"H 	c #65645F",
"I 	c #82827B",
"J 	c #7E7D76",
"K 	c #7B7A73",
"L 	c #64645F",
"M 	c #383733",
"N 	c #74746E",
"O 	c #7F7E78",
"P 	c #797871",
"Q 	c #86857F",
"R 	c #74746D",
"S 	c #383834",
"T 	c #7D7C76",
"U 	c #787771",
"V 	c #777670",
"W 	c #797874",
"X 	c #76756E",
"Y 	c #7F7E76",
"Z 	c #7A7974",
"` 	c #74736C",
" .	c #7B7A74",
"..	c #777671",
"+.	c #73726C",
"@.	c #72716B",
"#.	c #75746E",
"$.	c #6A6A64",
"%.	c #71706A",
"&.	c #706F69",
"*.	c #696863",
"=.	c #5C5B56",
"-.	c #75746D",
";.	c #717069",
">.	c #6F6E67",
",.	c #5B5954",
"'.	c #474642",
").	c #73726D",
"!.	c #6D6C66",
"~.	c #464541",
"{.	c #6D6C65",
"].	c #6F6E68",
"^.	c #6C6B65",
"/.	c #6B6A64",
"(.	c #7A7973",
"_.	c #6C6B66",
":.	c #51504C",
"<.	c #6E6D68",
"[.	c #6B6A65",
"}.	c #787772",
"|.	c #504F4C",
"1.	c #666462",
"2.	c #6A6964",
"3.	c #686762",
"4.	c #676661",
"5.	c #666562",
"6.	c #3A3935",
"7.	c #4A4844",
"8.	c #676660",
"9.	c #66655F",
"0.	c #484843",
"a.	c #666560",
"b.	c #64635E",
"c.	c #504F4B",
"d.	c #565551",
"e.	c #63625D",
"f.	c #555550",
"g.	c #4E4D4A",
"h.	c #62615D",
"i.	c #61605C",
"j.	c #605F5B",
"k.	c #4F4F4B",
"l.	c #464441",
"m.	c #5B5A57",
"n.	c #5F5E5A",
"o.	c #5E5D59",
"p.	c #5C5A57",
"q.	c #454540",
"r.	c #4A4945",
"s.	c #5F5E59",
"t.	c #5E5D58",
"u.	c #403F3C",
"v.	c #4B4A47",
"w.	c #53534E",
"x.	c #585753",
"y.	c #5B5A56",
"z.	c #383835",
"                                                                            ",
"                                                                            ",
"                              . + + + + + @ #                               ",
"                        $ + + + + + + + + + + + + $                         ",
"                    % + + & * = - ; > > ; - , ' & + + +                     ",
"                  + + ) ! ~ { ] ^ / ~ ~ / ^ ] { ( _ : + +                   ",
"                + + < [ } | 1 2 3 4 5 5 4 3 2 1 | } 6 7 + + 8               ",
"            9 + & 0 ; a 6 b c c c c c c c c c c d e a ; f & +               ",
"            + & g | e d h h h h h h h h h h h h h h d e | i & +             ",
"          + + j k l h m m m m m m m m m m m m m m m m h l k n + +           ",
"        % + o 6 d p q q q q q q q q q q q q q q q q q q p d r s + .         ",
"        + t p c u v v v v v v v v v v v v v v v v v v v v u c w x +         ",
"      . + y 5 m z z z z z z z z z z z z z z z z z z z z z z m 5 A + %       ",
"      + + B m z C C C C C C C C C C C C C C C C C C C C C C z m q + +       ",
"      + D h v E E E E E F F F F F F F F F F F F F F E E E E E v h G +       ",
"    . + H I J K K K K K F F F F F F F F F F F F F F K K K K K J I L + M     ",
"    + + N O K P P P P P F F Q Q Q Q Q Q Q Q Q Q F F P P P P P K z R + S     ",
"    + + E T U V V V V V F F p p p p p p p p p p F F V V V V V U T W + %     ",
"    + + J K X X X X X X F F X X X X X X X X X X F F X X X X X X K Y + %     ",
"    + + Z U ` ` ` ` ` ` F F ` ` ` ` ` ` ` ` ` ` F F ` ` ` ` ` ` U  .+ %     ",
"    + + X ..+.@.@.@.@.@.F F @.@.@.@.@.@.@.@.@.@.F F @.@.@.@.@.+...#.+ %     ",
"    + + $.#.%.&.&.&.&.&.F F &.&.&.&.&.&.&.&.&.&.F F &.&.&.&.&.%.#.*.+ S     ",
"    # + =.-.;.>.>.>.>.>.F F F F F F F F F F F F F F >.>.>.>.>.;.-.,.+ M     ",
"      + '.).&.!.!.!.!.!.F F F F F F F F F F F F F F !.!.!.!.!.&.).~.+       ",
"      + + {.].^././././.(.(.(.(.(.(.(.(.(.(.(.(.(.(././././.^.]._.& +       ",
"      $ + :.<.[.*.*.*.*.}.}.}.}.}.}.}.}.}.}.}.}.}.}.*.*.*.*.[.<.|.+ +       ",
"        + & 1.2.3.4.4.4.4.4.4.4.4.4.4.4.4.4.4.4.4.4.4.4.4.3.2.5.6.+         ",
"        + + 7.2.3.8.9.9.9.9.9.9.9.9.9.9.9.9.9.9.9.9.9.9.8.3.2.0.+ %         ",
"          + + :.4.a.H b.b.b.b.b.b.b.b.b.b.b.b.b.b.b.b.H a.3.c.+ +           ",
"            + & d.H e.e.y y y y y y y y y y y y y y e.e.H f.& +             ",
"            % + + g.h.i.i.i.j.j.j.j.j.j.j.j.j.j.i.i.h.h.k.& +               ",
"                + + l.m.j.n.n.n.o.o.o.o.o.o.n.n.n.j.p.q.+ + 8               ",
"                  + + & r.=.s.s.t.t.t.t.t.t.s.s.=.r.& + +                   ",
"                    . + + & u.v.w.x.y.y.x.w.v.u.& + + %                     ",
"                        + + + + + + + + + + + + + .                         ",
"                              z.. + + + + S M                               ",
"                                                                            ",
"                                                                            "};
