/* XPM */
static char * top_left_inactive_xpm[] = {
"20 58 27 1",
" 	c None",
".	c #45443E",
"+	c #46443F",
"@	c #454440",
"#	c #4A4843",
"$	c #4E4D48",
"%	c #51504B",
"&	c #52514C",
"*	c #53524D",
"=	c #494843",
"-	c #484641",
";	c #494844",
">	c #464540",
",	c #484743",
"'	c #474742",
")	c #464440",
"!	c #464541",
"~	c #47443F",
"{	c #44433F",
"]	c #43423E",
"^	c #42413D",
"/	c #41403C",
"(	c #403F3B",
"_	c #3F3E3A",
":	c #3E3D39",
"<	c #3D3C38",
"[	c #3C3B37",
"         .++++++++++",
"      @+++++++++++++",
"     +++#$%&********",
"    ++=%************",
"   ++-;;;;;;;;;;;;;;",
"  ++-;;;;;;;;;;;;;;;",
" .+>,,,,,,,,,,,,,,,,",
" ++',,,,,,,,,,,,,,,,",
" +)!!!!!!!!!!!!!!!!!",
".+>!!!!!!!!!!!!!!!!!",
"~+@@@@@@@@@@@@@@@@@@",
"++@@@@@@@@@@@@@@@@@@",
"++{{{{{{{{{{{{{{{{{{",
"++{{{{{{{{{{{{{{{{{{",
"++]]]]]]]]]]]]]]]]]]",
"++]]]]]]]]]]]]]]]]]]",
"++^^^^^^^^^^^^^^^^^^",
"++^^^^^^^^^^^^^^^^^^",
"++//////////////////",
"++//////////////////",
"++((((((((((((((((((",
"++((((((((((((((((((",
"++__________________",
"++__________________",
"++::::::::::::::::::",
"++::::::::::::::::::",
"++<<<<<<<<<<<<<<<<<<",
"++<<<<<<<<<<<<<<<<<<",
"++[[[[[[[[[[[[[[[[[[",
"++[[[[[[[[[[[[[[[[[[",
"++[[[[[[[[[[[[[[[[[[",
"++[[[[[[[[[[[[[[[[[[",
"++[[[[[[[[[[[[[[[[[[",
"++[[[[[[[[[[[[[[[[[[",
"++[[[[[[[[[[[[[[[[[[",
"++[[[[[[[[[[[[[[[[[[",
"++[[[[[[[[[[[[[[[[[[",
"++[[[[[[[[[[[[[[[[[[",
"++[[[[[[[[[[[[[[[[[[",
"++[[[[[[[[[[[[[[[[[[",
"++[[[[[[[[[[[[[[[[[[",
"++[[[[[[[[[[[[[[[[[[",
"++[[[[[[[[[[[[[[[[[[",
"++[[[[[[[[[[[[[[[[[[",
"++[[[[[[[[[[[[[[[[[[",
"++[[[[[[[[[[[[[[[[[[",
"++[[[[[[[[[[[[[[[[[[",
"++[[[[[[[[[[[[[[[[[[",
"++[[[[[[[[[[[[[[[[[[",
"++[[[[[[[[[[[[[[[[[[",
"++[[[[[[[[[[[[[[[[[[",
"++[[[[[[[[[[[[[[[[[[",
"++[[[[[[[[[[[[[[[[[[",
"++[[[[[[[[[[[[[[[[[[",
"++[[[[[[[[[[[[[[[[[[",
"++[[[[[[[[[[[[[[[[[[",
"++[[[[[[[[[[[[[[[[[[",
"++[[[[[[[[[[[[[[[[[["};
