/* XPM */
static char * top_right_active_xpm[] = {
"20 58 31 1",
" 	c None",
".	c #484741",
"+	c #484841",
"@	c #65645E",
"#	c #63625D",
"$	c #615F59",
"%	c #5B5953",
"&	c #51504A",
"*	c #494841",
"=	c #514F4A",
"-	c #575651",
";	c #504E49",
">	c #55544F",
",	c #4C4B45",
"'	c #494740",
")	c #53514C",
"!	c #53524D",
"~	c #4B4A44",
"{	c #4F4E49",
"]	c #504F4B",
"^	c #4E4E49",
"/	c #504F4A",
"(	c #4E4D48",
"_	c #4C4B46",
":	c #4A4844",
"<	c #474642",
"[	c #454440",
"}	c #43423D",
"|	c #403F3B",
"1	c #3E3D39",
"2	c #3C3B37",
"...........         ",
".............+      ",
"@@@@@@@@#$%&*..     ",
"@@@@@@@@@@@@$=..    ",
"--------------;..   ",
"---------------;..  ",
">>>>>>>>>>>>>>>>,.' ",
">>>>>>>>>>>>>>>>).. ",
"!!!!!!!!!!!!!!!!!~. ",
"!!!!!!!!!!!!!!!!!{..",
"]]]]]]]]]]]]]]]]]^..",
"]]]]]]]]]]]]]]]]]/..",
"((((((((((((((((((..",
"((((((((((((((((((..",
"__________________..",
"__________________..",
"::::::::::::::::::..",
"::::::::::::::::::..",
"<<<<<<<<<<<<<<<<<<..",
"<<<<<<<<<<<<<<<<<<..",
"[[[[[[[[[[[[[[[[[[..",
"[[[[[[[[[[[[[[[[[[..",
"}}}}}}}}}}}}}}}}}}..",
"}}}}}}}}}}}}}}}}}}..",
"||||||||||||||||||..",
"||||||||||||||||||..",
"111111111111111111..",
"111111111111111111..",
"222222222222222222..",
"222222222222222222..",
"222222222222222222..",
"222222222222222222..",
"222222222222222222..",
"222222222222222222..",
"222222222222222222..",
"222222222222222222..",
"222222222222222222..",
"222222222222222222..",
"222222222222222222..",
"222222222222222222..",
"222222222222222222..",
"222222222222222222..",
"222222222222222222..",
"222222222222222222..",
"222222222222222222..",
"222222222222222222..",
"222222222222222222..",
"222222222222222222..",
"222222222222222222..",
"222222222222222222..",
"222222222222222222..",
"222222222222222222..",
"222222222222222222..",
"222222222222222222..",
"222222222222222222..",
"222222222222222222..",
"222222222222222222..",
"222222222222222222.."};
