/* XPM */
static char * bottom_left_active_xpm[] = {
"8 8 9 1",
" 	c None",
".	c #20476E",
"+	c #66A4E2",
"@	c #418EDC",
"#	c #65A3E0",
"$	c #3472B0",
"%	c #5892CC",
"&	c #65A4E1",
"*	c #21476E",
"..++@@@@",
"..++@@@@",
"..++@@@@",
"..++@@@@",
"..#+$$$$",
"..%&$$$$",
"*.......",
" *......"};
