/* XPM */
static char * bottom_right_active_xpm[] = {
"8 8 8 1",
" 	c None",
".	c #418EDC",
"+	c #3472B0",
"@	c #20476E",
"#	c #3372AF",
"$	c #306AA3",
"%	c #1F476D",
"&	c #21476E",
"....++@@",
"....++@@",
"....++@@",
"....++@@",
"+++++#@@",
"+++++$@@",
"@@@@@@@%",
"@@@@@@& "};
