/* XPM */
static char * close_inactive_xpm[] = {
"38 38 50 1",
" 	c None",
".	c #7F8A96",
"+	c #808996",
"@	c #7F8996",
"#	c #808A97",
"$	c #97A1AF",
"%	c #A6B1BD",
"&	c #A9B3C0",
"*	c #97A1AE",
"=	c #A6B0BD",
"-	c #B9C0C9",
";	c #D7D8DA",
">	c #BAC1CA",
",	c #D8D9DA",
"'	c #DDDDDD",
")	c #BAC1C9",
"!	c #DCDCDC",
"~	c #AEB4BB",
"{	c #D2D3D4",
"]	c #747B83",
"^	c #98A1AC",
"/	c #ADB3BA",
"(	c #91969B",
"_	c #6E757C",
":	c #747C83",
"<	c #DBDBDB",
"[	c #AFB5BB",
"}	c #BBC1CA",
"|	c #969A9F",
"1	c #6F767D",
"2	c #969FAA",
"3	c #ADB4BB",
"4	c #949DA7",
"5	c #969B9F",
"6	c #979BA0",
"7	c #AFB4BB",
"8	c #93979C",
"9	c #93989D",
"0	c #ABB0B9",
"a	c #D2D2D3",
"b	c #949CA8",
"c	c #959EA8",
"d	c #D2D3D3",
"e	c #92979C",
"f	c #ACB2B9",
"g	c #D1D2D3",
"h	c #8F9499",
"i	c #7F8896",
"j	c #959FAC",
"k	c #808A96",
"   .+@@@@@@@@@@@@@@@@@@@@@@@@@@@@++   ",
" +@@@@@@@@@@@@@@@@@@@@@@@@@@@@@@@@@@+ ",
" @#$%&&&&&&&&&&&&&&&&&&&&&&&&&&&&%*#@ ",
".@$&&&&&&&&&&&&&&&&&&&&&&&&&&&&&&&&*@+",
"@@%&&&&&&&&&&&&&&&&&&&&&&&&&&&&&&&&=@+",
"@@&&&&&&&&&&&&&&&&&&&&&&&&&&&&&&&&&&@@",
"@@&&&&&&&&&&&&&&&&&&&&&&&&&&&&&&&&&&@@",
"@@&&&&&&&&&&&&&&&&&&&&&&&&&&&&&&&&&&@@",
"@@&&&&&&&&&&&&&&&&&&&&&&&&&&&&&&&&&&@@",
"@@&&&&&&&&&&&&&&&&&&&&&&&&&&&&&&&&&&@@",
"@@&&&&&&&&-;;>&&&&&&&&&&-;;-&&&&&&&&@@",
"@@&&&&&&&&,''')&&&&&&&&)''',&&&&&&&&@@",
"@@&&&&&&&&,'''!~&&&&&&)''''{]^&&&&&&@@",
"@@&&&&&&&&>''''!/&&&&)''''!(_:&&&&&&@@",
"@@&&&&&&&&&>!'''<[&&}''''<|__:&&&&&&@@",
"@@&&&&&&&&&&~!'''<[}''''<|__12&&&&&&@@",
"@@&&&&&&&&&&&3!'''!''''<|__14&&&&&&&@@",
"@@&&&&&&&&&&&&3!''''''<|__14&&&&&&&&@@",
"@@&&&&&&&&&&&&&3'''''!|__14&&&&&&&&&@@",
"@@&&&&&&&&&&&&&}'''''!5_14&&&&&&&&&&@@",
"@@&&&&&&&&&&&&}'''''''<64&&&&&&&&&&&@@",
"@@&&&&&&&&&&&}''''!!'''<7&&&&&&&&&&&@@",
"@@&&&&&&&&&&}''''<|8!'''<7&&&&&&&&&&@@",
"@@&&&&&&&&&}''''<|__9!'''<7&&&&&&&&&@@",
"@@&&&&&&&&>''''!9__143!'''!0&&&&&&&&@@",
"@@&&&&&&&&,'''!9__14&&3!'''ab&&&&&&&@@",
"@@&&&&&&&&,''!9__1c&&&&/!''a12&&&&&&@@",
"@@&&&&&&&&-;de__1c&&&&&&fggh_:&&&&&&@@",
"@@&&&&&&&&&&:__1c&&&&&&&&c1__:&&&&&&@@",
"@@&&&&&&&&&&^]]2&&&&&&&&&&2]]^&&&&&&@@",
"@@&&&&&&&&&&&&&&&&&&&&&&&&&&&&&&&&&&@@",
"@@&&&&&&&&&&&&&&&&&&&&&&&&&&&&&&&&&&@@",
"@@&&&&&&&&&&&&&&&&&&&&&&&&&&&&&&&&&&@@",
"+@%&&&&&&&&&&&&&&&&&&&&&&&&&&&&&&&&=@i",
".@*&&&&&&&&&&&&&&&&&&&&&&&&&&&&&&&&j@.",
" @#*=&&&&&&&&&&&&&&&&&&&&&&&&&&&&=jk@ ",
" +@@@@@@@@@@@@@@@@@@@@@@@@@@@@@@@@@@  ",
"   .@@@@@@@@@@@@@@@@@@@@@@@@@@@@@+.   "};
