/* XPM */
static char * close_active_xpm[] = {
"38 38 52 1",
" 	c None",
".	c #306BA6",
"+	c #316BA7",
"@	c #316CA6",
"#	c #4883BD",
"$	c #5893CC",
"%	c #5B95CF",
"&	c #4983BE",
"*	c #5892CC",
"=	c #8CB5DD",
"-	c #EEF4FA",
";	c #90B7DF",
">	c #8FB7DE",
",	c #FFFFFF",
"'	c #FCFDFE",
")	c #93B9DF",
"!	c #FCFDFD",
"~	c #8DAFD2",
"{	c #EBEFF4",
"]	c #426C96",
"^	c #5388BC",
"/	c #8DAFD1",
"(	c #7D98B3",
"_	c #406890",
":	c #436D97",
"<	c #91B8DF",
"[	c #FDFDFE",
"}	c #90B1D2",
"|	c #92B8DF",
"1	c #849EB8",
"2	c #8BAED1",
"3	c #406891",
"4	c #5287BB",
"5	c #FEFEFE",
"6	c #FDFEFE",
"7	c #406990",
"8	c #5285B8",
"9	c #859EB8",
"0	c #859FB8",
"a	c #7F9AB5",
"b	c #819CB6",
"c	c #88ACCF",
"d	c #EBEFF3",
"e	c #5185B8",
"f	c #5285B9",
"g	c #ECF0F4",
"h	c #7E99B4",
"i	c #89ACCF",
"j	c #7995B1",
"k	c #5286BB",
"l	c #4781BB",
"m	c #316BA6",
"   ................................   ",
" +................................... ",
" .@#$%%%%%%%%%%%%%%%%%%%%%%%%%%%%$&@. ",
"..#%%%%%%%%%%%%%%%%%%%%%%%%%%%%%%%%&..",
"..$%%%%%%%%%%%%%%%%%%%%%%%%%%%%%%%%*..",
"..%%%%%%%%%%%%%%%%%%%%%%%%%%%%%%%%%%..",
"..%%%%%%%%%%%%%%%%%%%%%%%%%%%%%%%%%%..",
"..%%%%%%%%%%%%%%%%%%%%%%%%%%%%%%%%%%..",
"..%%%%%%%%%%%%%%%%%%%%%%%%%%%%%%%%%%..",
"..%%%%%%%%%%%%%%%%%%%%%%%%%%%%%%%%%%..",
"..%%%%%%%%=--;%%%%%%%%%%>--=%%%%%%%%..",
"..%%%%%%%%-,,')%%%%%%%%)',,-%%%%%%%%..",
"..%%%%%%%%-,,,!~%%%%%%)',,,{]^%%%%%%..",
"..%%%%%%%%;',,,!/%%%%)',,,!(_:%%%%%%..",
"..%%%%%%%%%<!,,,[}%%|',,,[1__:%%%%%%..",
"..%%%%%%%%%%2!,,,[}|',,,[1__34%%%%%%..",
"..%%%%%%%%%%%2!,,,56,,,[1__78%%%%%%%..",
"..%%%%%%%%%%%%2!,,,,,,[1__78%%%%%%%%..",
"..%%%%%%%%%%%%%26,,,,51__78%%%%%%%%%..",
"..%%%%%%%%%%%%%|6,,,,59_78%%%%%%%%%%..",
"..%%%%%%%%%%%%|',,,,,,[08%%%%%%%%%%%..",
"..%%%%%%%%%%%|',,,66,,,[}%%%%%%%%%%%..",
"..%%%%%%%%%%|',,,[1a!,,,[}%%%%%%%%%%..",
"..%%%%%%%%%|',,,[1__a!,,,[}%%%%%%%%%..",
"..%%%%%%%%;',,,!b__78~!,,,!c%%%%%%%%..",
"..%%%%%%%%-,,,!b__78%%~!,,,de%%%%%%%..",
"..%%%%%%%%-,,!b__3f%%%%/!,,d34%%%%%%..",
"..%%%%%%%%=-gh__3f%%%%%%iggj_:%%%%%%..",
"..%%%%%%%%%%:__3f%%%%%%%%f3__:%%%%%%..",
"..%%%%%%%%%%^]]k%%%%%%%%%%4]]^%%%%%%..",
"..%%%%%%%%%%%%%%%%%%%%%%%%%%%%%%%%%%..",
"..%%%%%%%%%%%%%%%%%%%%%%%%%%%%%%%%%%..",
"..%%%%%%%%%%%%%%%%%%%%%%%%%%%%%%%%%%..",
"..$%%%%%%%%%%%%%%%%%%%%%%%%%%%%%%%%*..",
"..&%%%%%%%%%%%%%%%%%%%%%%%%%%%%%%%%l.m",
" .@&*%%%%%%%%%%%%%%%%%%%%%%%%%%%%*l+. ",
" ...................................  ",
"   m..............................m   "};
