/* XPM */
static char * close_prelight_xpm[] = {
"38 38 53 1",
" 	c None",
".	c #636788",
"+	c #636789",
"@	c #636787",
"#	c #767A9A",
"$	c #8285A6",
"%	c #8487A7",
"&	c #76799A",
"*	c #8284A5",
"=	c #A9ABC1",
"-	c #F2F3F6",
";	c #ACAEC4",
">	c #ABADC3",
",	c #F2F2F6",
"'	c #FFFFFF",
")	c #FDFDFE",
"!	c #AEB0C5",
"~	c #FCFCFD",
"{	c #A5A6B9",
"]	c #EEEEF0",
"^	c #5F5F74",
"/	c #787A96",
"(	c #8F8E9C",
"_	c #5B5A6E",
":	c #5F5E74",
"<	c #ADAFC4",
"[	c #FDFDFD",
"}	c #A7A9BB",
"|	c #9695A2",
"1	c #A4A4B8",
"2	c #5C5B6F",
"3	c #777995",
"4	c #A4A5B7",
"5	c #FEFEFE",
"6	c #757792",
"7	c #9696A2",
"8	c #9696A3",
"9	c #A7A7BA",
"0	c #91909E",
"a	c #93929F",
"b	c #A5A7B9",
"c	c #A1A2B5",
"d	c #757693",
"e	c #767894",
"f	c #EFEFF1",
"g	c #90909D",
"h	c #A2A3B6",
"i	c #8C8B99",
"j	c #777895",
"k	c #747898",
"l	c #626788",
"m	c #8285A5",
"n	c #646889",
"   ................................   ",
" +..................................@ ",
" ..#$%%%%%%%%%%%%%%%%%%%%%%%%%%%%$&.. ",
"..#%%%%%%%%%%%%%%%%%%%%%%%%%%%%%%%%&..",
"..$%%%%%%%%%%%%%%%%%%%%%%%%%%%%%%%%*..",
"..%%%%%%%%%%%%%%%%%%%%%%%%%%%%%%%%%%..",
"..%%%%%%%%%%%%%%%%%%%%%%%%%%%%%%%%%%..",
"..%%%%%%%%%%%%%%%%%%%%%%%%%%%%%%%%%%..",
"..%%%%%%%%%%%%%%%%%%%%%%%%%%%%%%%%%%..",
"..%%%%%%%%%%%%%%%%%%%%%%%%%%%%%%%%%%..",
"..%%%%%%%%=--;%%%%%%%%%%>--=%%%%%%%%..",
"..%%%%%%%%,'')!%%%%%%%%!)'',%%%%%%%%..",
"..%%%%%%%%,'''~{%%%%%%!)''']^/%%%%%%..",
"..%%%%%%%%;)'''~{%%%%!)'''~(_:%%%%%%..",
"..%%%%%%%%%<~'''[}%%<)'''[|__:%%%%%%..",
"..%%%%%%%%%%1~'''[}<)'''[|__23%%%%%%..",
"..%%%%%%%%%%%4~'''55'''[|__26%%%%%%%..",
"..%%%%%%%%%%%%4~''''''[|__26%%%%%%%%..",
"..%%%%%%%%%%%%%4)''''5|__26%%%%%%%%%..",
"..%%%%%%%%%%%%%<5''''57_26%%%%%%%%%%..",
"..%%%%%%%%%%%%<)''''''[86%%%%%%%%%%%..",
"..%%%%%%%%%%%<)'''5)'''[9%%%%%%%%%%%..",
"..%%%%%%%%%%<)'''[|0~'''[9%%%%%%%%%%..",
"..%%%%%%%%%<)'''[|__0~'''[9%%%%%%%%%..",
"..%%%%%%%%;)'''~a__26b~'''~c%%%%%%%%..",
"..%%%%%%%%,'''~a__26%%b~''']d%%%%%%%..",
"..%%%%%%%%,''~a__2e%%%%{~'']23%%%%%%..",
"..%%%%%%%%=-fg__2e%%%%%%h]]i_:%%%%%%..",
"..%%%%%%%%%%:__2e%%%%%%%%e2__:%%%%%%..",
"..%%%%%%%%%%/^^j%%%%%%%%%%3^^/%%%%%%..",
"..%%%%%%%%%%%%%%%%%%%%%%%%%%%%%%%%%%..",
"..%%%%%%%%%%%%%%%%%%%%%%%%%%%%%%%%%%..",
"..%%%%%%%%%%%%%%%%%%%%%%%%%%%%%%%%%%..",
"..$%%%%%%%%%%%%%%%%%%%%%%%%%%%%%%%%*..",
"..&%%%%%%%%%%%%%%%%%%%%%%%%%%%%%%%%k.l",
" ..&m%%%%%%%%%%%%%%%%%%%%%%%%%%%%*kn. ",
" @..................................  ",
"   l..............................l   "};
