/* XPM */
static char * close_pressed_xpm[] = {
"38 38 28 1",
" 	c None",
".	c #4D5069",
"+	c #4D506A",
"@	c #4D516A",
"#	c #4D516B",
"$	c #4C506B",
"%	c #4E516A",
"&	c #5C5F77",
"*	c #666780",
"=	c #676981",
"-	c #65687F",
";	c #9496A7",
">	c #EFF0F2",
",	c #989AAA",
"'	c #9799A9",
")	c #EFEFF2",
"!	c #FFFFFF",
"~	c #FDFDFD",
"{	c #9B9CAC",
"]	c #999AAB",
"^	c #FDFDFE",
"/	c #9E9FAE",
"(	c #9A9BAB",
"_	c #9D9FAE",
":	c #FEFEFE",
"<	c #5B5D76",
"[	c #4D506B",
"}	c #65677F",
"   .++++++++++++++++++++++++++++++@   ",
" #++++++++++++++++++++++++++++++++++$ ",
" +%&*============================*&%+ ",
".+&================================&+@",
"++*================================-++",
"++==================================++",
"++==================================++",
"++==================================++",
"++==================================++",
"++==================================++",
"++==================================++",
"++==================================++",
"++========;>>,=========='>>;========++",
"++========)!!~{========{~!!)========++",
"++========)!!!~{======{~!!!)========++",
"++========,~!!!~{===={~!!!~'========++",
"++=========]~!!!^/==(~!!!^_=========++",
"++==========]~!!!^/(~!!!^_==========++",
"++===========]~!!!:^!!!^_===========++",
"++============]~!!!!!!^_============++",
"++=============]:!!!!:_=============++",
"++=============(^!!!!:/=============++",
"++============(~!!!!!!^/============++",
"++===========(~!!!::!!!^/===========++",
"++==========(~!!!^_]~!!!^/==========++",
"++=========(~!!!^_==]~!!!^/=========++",
"++========,~!!!~{===={~!!!~'========++",
"++========)!!!~{======{~!!!)========++",
"++========)!!~{========{~!!)========++",
"++========;>>,=========='>>;========++",
"++==================================++",
"++==================================++",
"++==================================++",
"++*================================-++",
".+&================================<+[",
" +%&}============================-<[+ ",
" $++++++++++++++++++++++++++++++++++  ",
"   [++++++++++++++++++++++++++++++[   "};
