/* XPM */
static char * hide_inactive_xpm[] = {
"38 38 13 1",
" 	c None",
".	c #7D8894",
"+	c #7E8994",
"@	c #7E8794",
"#	c #7E8995",
"$	c #96A1AD",
"%	c #A5B0BB",
"&	c #A8B2BE",
"*	c #96A0AC",
"=	c #A5AFBB",
"-	c #DDDDDD",
";	c #6E757C",
">	c #949EAA",
"   ................................   ",
" +..................................@ ",
" .#$%&&&&&&&&&&&&&&&&&&&&&&&&&&&&%*#. ",
"..$&&&&&&&&&&&&&&&&&&&&&&&&&&&&&&&&*..",
"..%&&&&&&&&&&&&&&&&&&&&&&&&&&&&&&&&=..",
"..&&&&&&&&&&&&&&&&&&&&&&&&&&&&&&&&&&..",
"..&&&&&&&&&&&&&&&&&&&&&&&&&&&&&&&&&&..",
"..&&&&&&&&&&&&&&&&&&&&&&&&&&&&&&&&&&..",
"..&&&&&&&&&&&&&&&&&&&&&&&&&&&&&&&&&&..",
"..&&&&&&&&&&&&&&&&&&&&&&&&&&&&&&&&&&..",
"..&&&&&&&&&&&&&&&&&&&&&&&&&&&&&&&&&&..",
"..&&&&&&&&&&&&&&&&&&&&&&&&&&&&&&&&&&..",
"..&&&&&&&&&&&&&&&&&&&&&&&&&&&&&&&&&&..",
"..&&&&&&&&&&&&&&&&&&&&&&&&&&&&&&&&&&..",
"..&&&&&&&&&&&&&&&&&&&&&&&&&&&&&&&&&&..",
"..&&&&&&&&&&&&&&&&&&&&&&&&&&&&&&&&&&..",
"..&&&&&&&&&&&&&&&&&&&&&&&&&&&&&&&&&&..",
"..&&&&&&&&&&&&&&&&&&&&&&&&&&&&&&&&&&..",
"..&&&&&&&&&&&&&&&&&&&&&&&&&&&&&&&&&&..",
"..&&&&&&&&&&&&&&&&&&&&&&&&&&&&&&&&&&..",
"..&&&&&&&&&&&&&&&&&&&&&&&&&&&&&&&&&&..",
"..&&&&&&&&&&&&&&&&&&&&&&&&&&&&&&&&&&..",
"..&&&&&&&&&&&&&&&&&&&&&&&&&&&&&&&&&&..",
"..&&&&&&&&&&&&&&&&&&&&&&&&&&&&&&&&&&..",
"..&&&&&&&&------------------&&&&&&&&..",
"..&&&&&&&&------------------&&&&&&&&..",
"..&&&&&&&&------------------;;&&&&&&..",
"..&&&&&&&&------------------;;&&&&&&..",
"..&&&&&&&&&&;;;;;;;;;;;;;;;;;;&&&&&&..",
"..&&&&&&&&&&;;;;;;;;;;;;;;;;;;&&&&&&..",
"..&&&&&&&&&&&&&&&&&&&&&&&&&&&&&&&&&&..",
"..&&&&&&&&&&&&&&&&&&&&&&&&&&&&&&&&&&..",
"..&&&&&&&&&&&&&&&&&&&&&&&&&&&&&&&&&&..",
"..%&&&&&&&&&&&&&&&&&&&&&&&&&&&&&&&&=..",
"..*&&&&&&&&&&&&&&&&&&&&&&&&&&&&&&&&>..",
" .#*=&&&&&&&&&&&&&&&&&&&&&&&&&&&&=>#. ",
" @..................................  ",
"   ................................   "};
