/* XPM */
static char * hide_active_xpm[] = {
"38 38 14 1",
" 	c None",
".	c #3370AF",
"+	c #336FAE",
"@	c #3371AE",
"#	c #3471B0",
"$	c #4C88C7",
"%	c #5B97D5",
"&	c #5E9AD8",
"*	c #4B88C6",
"=	c #FFFFFF",
"-	c #406890",
";	c #4A86C5",
">	c #5B97D6",
",	c #3470B0",
"   ...............................+   ",
" @................................... ",
" .#$%&&&&&&&&&&&&&&&&&&&&&&&&&&&&%*#. ",
"..$&&&&&&&&&&&&&&&&&&&&&&&&&&&&&&&&*.+",
"..%&&&&&&&&&&&&&&&&&&&&&&&&&&&&&&&&%..",
"..&&&&&&&&&&&&&&&&&&&&&&&&&&&&&&&&&&..",
"..&&&&&&&&&&&&&&&&&&&&&&&&&&&&&&&&&&..",
"..&&&&&&&&&&&&&&&&&&&&&&&&&&&&&&&&&&..",
"..&&&&&&&&&&&&&&&&&&&&&&&&&&&&&&&&&&..",
"..&&&&&&&&&&&&&&&&&&&&&&&&&&&&&&&&&&..",
"..&&&&&&&&&&&&&&&&&&&&&&&&&&&&&&&&&&..",
"..&&&&&&&&&&&&&&&&&&&&&&&&&&&&&&&&&&..",
"..&&&&&&&&&&&&&&&&&&&&&&&&&&&&&&&&&&..",
"..&&&&&&&&&&&&&&&&&&&&&&&&&&&&&&&&&&..",
"..&&&&&&&&&&&&&&&&&&&&&&&&&&&&&&&&&&..",
"..&&&&&&&&&&&&&&&&&&&&&&&&&&&&&&&&&&..",
"..&&&&&&&&&&&&&&&&&&&&&&&&&&&&&&&&&&..",
"..&&&&&&&&&&&&&&&&&&&&&&&&&&&&&&&&&&..",
"..&&&&&&&&&&&&&&&&&&&&&&&&&&&&&&&&&&..",
"..&&&&&&&&&&&&&&&&&&&&&&&&&&&&&&&&&&..",
"..&&&&&&&&&&&&&&&&&&&&&&&&&&&&&&&&&&..",
"..&&&&&&&&&&&&&&&&&&&&&&&&&&&&&&&&&&..",
"..&&&&&&&&&&&&&&&&&&&&&&&&&&&&&&&&&&..",
"..&&&&&&&&&&&&&&&&&&&&&&&&&&&&&&&&&&..",
"..&&&&&&&&==================&&&&&&&&..",
"..&&&&&&&&==================&&&&&&&&..",
"..&&&&&&&&==================--&&&&&&..",
"..&&&&&&&&==================--&&&&&&..",
"..&&&&&&&&&&------------------&&&&&&..",
"..&&&&&&&&&&------------------&&&&&&..",
"..&&&&&&&&&&&&&&&&&&&&&&&&&&&&&&&&&&..",
"..&&&&&&&&&&&&&&&&&&&&&&&&&&&&&&&&&&..",
"..&&&&&&&&&&&&&&&&&&&&&&&&&&&&&&&&&&..",
"..%&&&&&&&&&&&&&&&&&&&&&&&&&&&&&&&&%..",
"..*&&&&&&&&&&&&&&&&&&&&&&&&&&&&&&&&;..",
" .#*>&&&&&&&&&&&&&&&&&&&&&&&&&&&&%;,. ",
" ...................................  ",
"   ................................   "};
