/* XPM */
static char * hide_prelight_xpm[] = {
"38 38 15 1",
" 	c None",
".	c #6394C6",
"+	c #6394C4",
"@	c #6394C5",
"#	c #6395C6",
"$	c #76A7D6",
"%	c #82B2E2",
"&	c #84B4E4",
"*	c #76A6D7",
"=	c #82B1E2",
"-	c #FFFFFF",
";	c #5B7A98",
">	c #74A5D6",
",	c #6294C5",
"'	c #6495C5",
"   .+@@@@@@@@@@@@@@@@@@@@@@@@@@@@+@   ",
" @@@@@@@@@@@@@@@@@@@@@@@@@@@@@@@@@@@. ",
" @#$%&&&&&&&&&&&&&&&&&&&&&&&&&&&&%*#@ ",
".@$&&&&&&&&&&&&&&&&&&&&&&&&&&&&&&&&*@@",
"@@%&&&&&&&&&&&&&&&&&&&&&&&&&&&&&&&&=@@",
"@@&&&&&&&&&&&&&&&&&&&&&&&&&&&&&&&&&&@@",
"@@&&&&&&&&&&&&&&&&&&&&&&&&&&&&&&&&&&@@",
"@@&&&&&&&&&&&&&&&&&&&&&&&&&&&&&&&&&&@@",
"@@&&&&&&&&&&&&&&&&&&&&&&&&&&&&&&&&&&@@",
"@@&&&&&&&&&&&&&&&&&&&&&&&&&&&&&&&&&&@@",
"@@&&&&&&&&&&&&&&&&&&&&&&&&&&&&&&&&&&@@",
"@@&&&&&&&&&&&&&&&&&&&&&&&&&&&&&&&&&&@@",
"@@&&&&&&&&&&&&&&&&&&&&&&&&&&&&&&&&&&@@",
"@@&&&&&&&&&&&&&&&&&&&&&&&&&&&&&&&&&&@@",
"@@&&&&&&&&&&&&&&&&&&&&&&&&&&&&&&&&&&@@",
"@@&&&&&&&&&&&&&&&&&&&&&&&&&&&&&&&&&&@@",
"@@&&&&&&&&&&&&&&&&&&&&&&&&&&&&&&&&&&@@",
"@@&&&&&&&&&&&&&&&&&&&&&&&&&&&&&&&&&&@@",
"@@&&&&&&&&&&&&&&&&&&&&&&&&&&&&&&&&&&@@",
"@@&&&&&&&&&&&&&&&&&&&&&&&&&&&&&&&&&&@@",
"@@&&&&&&&&&&&&&&&&&&&&&&&&&&&&&&&&&&@@",
"@@&&&&&&&&&&&&&&&&&&&&&&&&&&&&&&&&&&@@",
"@@&&&&&&&&&&&&&&&&&&&&&&&&&&&&&&&&&&@@",
"@@&&&&&&&&&&&&&&&&&&&&&&&&&&&&&&&&&&@@",
"@@&&&&&&&&------------------&&&&&&&&@@",
"@@&&&&&&&&------------------&&&&&&&&@@",
"@@&&&&&&&&------------------;;&&&&&&@@",
"@@&&&&&&&&------------------;;&&&&&&@@",
"@@&&&&&&&&&&;;;;;;;;;;;;;;;;;;&&&&&&@@",
"@@&&&&&&&&&&;;;;;;;;;;;;;;;;;;&&&&&&@@",
"@@&&&&&&&&&&&&&&&&&&&&&&&&&&&&&&&&&&@@",
"@@&&&&&&&&&&&&&&&&&&&&&&&&&&&&&&&&&&@@",
"@@&&&&&&&&&&&&&&&&&&&&&&&&&&&&&&&&&&@@",
"@@%&&&&&&&&&&&&&&&&&&&&&&&&&&&&&&&&=@@",
".@*&&&&&&&&&&&&&&&&&&&&&&&&&&&&&&&&>@,",
" @#*%&&&&&&&&&&&&&&&&&&&&&&&&&&&&=>'@ ",
" .@@@@@@@@@@@@@@@@@@@@@@@@@@@@@@@@@@  ",
"   ,@@@@@@@@@@@@@@@@@@@@@@@@@@@@@@,   "};
