/* XPM */
static char * hide_pressed_xpm[] = {
"38 38 13 1",
" 	c None",
".	c #4D7398",
"+	c #4D7298",
"@	c #4C7298",
"#	c #4E7499",
"$	c #5C82A5",
"%	c #668AAF",
"&	c #678CB0",
"*	c #5C82A6",
"=	c #658AAF",
"-	c #FFFFFF",
";	c #5B81A5",
">	c #658BAE",
"   ................................   ",
" +..................................@ ",
" .#$%&&&&&&&&&&&&&&&&&&&&&&&&&&&&%*#. ",
"..$&&&&&&&&&&&&&&&&&&&&&&&&&&&&&&&&*..",
"..%&&&&&&&&&&&&&&&&&&&&&&&&&&&&&&&&=..",
"..&&&&&&&&&&&&&&&&&&&&&&&&&&&&&&&&&&..",
"..&&&&&&&&&&&&&&&&&&&&&&&&&&&&&&&&&&..",
"..&&&&&&&&&&&&&&&&&&&&&&&&&&&&&&&&&&..",
"..&&&&&&&&&&&&&&&&&&&&&&&&&&&&&&&&&&..",
"..&&&&&&&&&&&&&&&&&&&&&&&&&&&&&&&&&&..",
"..&&&&&&&&&&&&&&&&&&&&&&&&&&&&&&&&&&..",
"..&&&&&&&&&&&&&&&&&&&&&&&&&&&&&&&&&&..",
"..&&&&&&&&&&&&&&&&&&&&&&&&&&&&&&&&&&..",
"..&&&&&&&&&&&&&&&&&&&&&&&&&&&&&&&&&&..",
"..&&&&&&&&&&&&&&&&&&&&&&&&&&&&&&&&&&..",
"..&&&&&&&&&&&&&&&&&&&&&&&&&&&&&&&&&&..",
"..&&&&&&&&&&&&&&&&&&&&&&&&&&&&&&&&&&..",
"..&&&&&&&&&&&&&&&&&&&&&&&&&&&&&&&&&&..",
"..&&&&&&&&&&&&&&&&&&&&&&&&&&&&&&&&&&..",
"..&&&&&&&&&&&&&&&&&&&&&&&&&&&&&&&&&&..",
"..&&&&&&&&&&&&&&&&&&&&&&&&&&&&&&&&&&..",
"..&&&&&&&&&&&&&&&&&&&&&&&&&&&&&&&&&&..",
"..&&&&&&&&&&&&&&&&&&&&&&&&&&&&&&&&&&..",
"..&&&&&&&&&&&&&&&&&&&&&&&&&&&&&&&&&&..",
"..&&&&&&&&&&&&&&&&&&&&&&&&&&&&&&&&&&..",
"..&&&&&&&&&&&&&&&&&&&&&&&&&&&&&&&&&&..",
"..&&&&&&&&------------------&&&&&&&&..",
"..&&&&&&&&------------------&&&&&&&&..",
"..&&&&&&&&------------------&&&&&&&&..",
"..&&&&&&&&------------------&&&&&&&&..",
"..&&&&&&&&&&&&&&&&&&&&&&&&&&&&&&&&&&..",
"..&&&&&&&&&&&&&&&&&&&&&&&&&&&&&&&&&&..",
"..&&&&&&&&&&&&&&&&&&&&&&&&&&&&&&&&&&..",
"..%&&&&&&&&&&&&&&&&&&&&&&&&&&&&&&&&=..",
"..*&&&&&&&&&&&&&&&&&&&&&&&&&&&&&&&&;..",
" .#*>&&&&&&&&&&&&&&&&&&&&&&&&&&&&=;.. ",
" @..................................  ",
"   ................................   "};
