/* XPM */
static char * left_active_xpm[] = {
"8 20 5 1",
" 	c None",
".	c #20476E",
"+	c #66A4E2",
"@	c #418EDC",
"#	c #3B81C8",
"..++@@##",
"..++@@##",
"..++@@##",
"..++@@##",
"..++@@##",
"..++@@##",
"..++@@##",
"..++@@##",
"..++@@##",
"..++@@##",
"..++@@##",
"..++@@##",
"..++@@##",
"..++@@##",
"..++@@##",
"..++@@##",
"..++@@##",
"..++@@##",
"..++@@##",
"..++@@##"};
