/* XPM */
static char * left_inactive_xpm[] = {
"8 20 5 1",
" 	c None",
".	c #4E555D",
"+	c #ACB7C4",
"@	c #9DAABA",
"#	c #8E9AA9",
"..++@@##",
"..++@@##",
"..++@@##",
"..++@@##",
"..++@@##",
"..++@@##",
"..++@@##",
"..++@@##",
"..++@@##",
"..++@@##",
"..++@@##",
"..++@@##",
"..++@@##",
"..++@@##",
"..++@@##",
"..++@@##",
"..++@@##",
"..++@@##",
"..++@@##",
"..++@@##"};
