/* XPM */
static char * maximize_toggled_active_xpm[] = {
"38 38 15 1",
" 	c None",
".	c #3371B2",
"+	c #3372B1",
"@	c #3372B0",
"#	c #3473B2",
"$	c #4D8AC9",
"%	c #5C99D7",
"&	c #5F9CDA",
"*	c #4C8AC8",
"=	c #FFFFFF",
"-	c #406890",
";	c #4B88C7",
">	c #3371B1",
",	c #5C9AD7",
"'	c #3472B2",
"   .+++++++++++++++++++++++++++++++   ",
" @+++++++++++++++++++++++++++++++++++ ",
" +#$%&&&&&&&&&&&&&&&&&&&&&&&&&&&&%*#+ ",
".+$&&&&&&&&&&&&&&&&&&&&&&&&&&&&&&&&*++",
"++%&&&&&&&&&&&&&&&&&&&&&&&&&&&&&&&&%++",
"++&&&&&&&&&&&&&&&&&&&&&&&&&&&&&&&&&&++",
"++&&&&&&&&&&&&&&&&&&&&&&&&&&&&&&&&&&++",
"++&&&&&&&&&&&&&&&&&&&&&&&&&&&&&&&&&&++",
"++&&&&&&&&&&&&&&&&&&&&&&&&&&&&&&&&&&++",
"++&&&&&&&&&&&&&&&&&&&&&&&&&&&&&&&&&&++",
"++&&&&&&&&&&&&==============&&&&&&&&++",
"++&&&&&&&&&&&&==============&&&&&&&&++",
"++&&&&&&&&&&&&==----------==--&&&&&&++",
"++&&&&&&&&&&&&==----------==--&&&&&&++",
"++&&&&&&&&==============&&==--&&&&&&++",
"++&&&&&&&&==============&&==--&&&&&&++",
"++&&&&&&&&==============--==--&&&&&&++",
"++&&&&&&&&==============--==--&&&&&&++",
"++&&&&&&&&==----------==--==--&&&&&&++",
"++&&&&&&&&==----------==--==--&&&&&&++",
"++&&&&&&&&==--&&&&&&&&==--==--&&&&&&++",
"++&&&&&&&&==--&&&&&&&&==--==--&&&&&&++",
"++&&&&&&&&==--&&&&&&&&======--&&&&&&++",
"++&&&&&&&&==--&&&&&&&&======--&&&&&&++",
"++&&&&&&&&==--&&&&&&&&==------&&&&&&++",
"++&&&&&&&&==--&&&&&&&&==------&&&&&&++",
"++&&&&&&&&==============--&&&&&&&&&&++",
"++&&&&&&&&==============--&&&&&&&&&&++",
"++&&&&&&&&&&--------------&&&&&&&&&&++",
"++&&&&&&&&&&--------------&&&&&&&&&&++",
"++&&&&&&&&&&&&&&&&&&&&&&&&&&&&&&&&&&++",
"++&&&&&&&&&&&&&&&&&&&&&&&&&&&&&&&&&&++",
"++&&&&&&&&&&&&&&&&&&&&&&&&&&&&&&&&&&++",
"++%&&&&&&&&&&&&&&&&&&&&&&&&&&&&&&&&%++",
".+*&&&&&&&&&&&&&&&&&&&&&&&&&&&&&&&&;+>",
" +#*,&&&&&&&&&&&&&&&&&&&&&&&&&&&&%;'+ ",
" +++++++++++++++++++++++++++++++++++  ",
"   >++++++++++++++++++++++++++++++>   "};
