/* XPM */
static char * maximize_active_xpm[] = {
"38 38 17 1",
" 	c None",
".	c #3170AE",
"+	c #3270AD",
"@	c #326FAD",
"#	c #3371AD",
"$	c #3170AD",
"%	c #3371AE",
"&	c #4B88C4",
"*	c #5B97D4",
"=	c #5E9AD6",
"-	c #4B88C5",
";	c #5B97D3",
">	c #FFFFFF",
",	c #406890",
"'	c #3270AC",
")	c #4986C3",
"!	c #3370AE",
"   .++++++++++++++++++++++++++++++@   ",
" #++++++++++++++++++++++++++++++++++$ ",
" +%&*============================*-%+ ",
".+&================================-+@",
"++*================================;++",
"++==================================++",
"++==================================++",
"++==================================++",
"++==================================++",
"++==================================++",
"++========>>>>>>>>>>>>>>>>>>========++",
"++========>>>>>>>>>>>>>>>>>>========++",
"++========>>>>>>>>>>>>>>>>>>,,======++",
"++========>>>>>>>>>>>>>>>>>>,,======++",
"++========>>,,,,,,,,,,,,,,>>,,======++",
"++========>>,,,,,,,,,,,,,,>>,,======++",
"++========>>,,============>>,,======++",
"++========>>,,============>>,,======++",
"++========>>,,============>>,,======++",
"++========>>,,============>>,,======++",
"++========>>,,============>>,,======++",
"++========>>,,============>>,,======++",
"++========>>,,============>>,,======++",
"++========>>,,============>>,,======++",
"++========>>,,============>>,,======++",
"++========>>,,============>>,,======++",
"++========>>>>>>>>>>>>>>>>>>,,======++",
"++========>>>>>>>>>>>>>>>>>>,,======++",
"++==========,,,,,,,,,,,,,,,,,,======++",
"++==========,,,,,,,,,,,,,,,,,,======++",
"++==================================++",
"++==================================++",
"++==================================++",
"++*================================;+'",
".+-================================)++",
" +%-*============================;)!+ ",
" $++++++++++++++++++++++++++++++++++  ",
"   ++++++++++++++++++++++++++++++++   "};
