/* XPM */
static char * maximize_toggled_pressed_xpm[] = {
"38 38 14 1",
" 	c None",
".	c #4D739A",
"+	c #4D7399",
"@	c #4D729A",
"#	c #4C7298",
"$	c #4E749A",
"%	c #5C82A6",
"&	c #668AAF",
"*	c #678CB0",
"=	c #658AAF",
"-	c #FFFFFF",
";	c #5B81A5",
">	c #4D7398",
",	c #658BAE",
"   .+++++++++++++++++++++++++++++++   ",
" @++++++++++++++++++++++++++++++++++# ",
" +$%&****************************&%$+ ",
".+%********************************%++",
"++&********************************=++",
"++**********************************++",
"++**********************************++",
"++**********************************++",
"++**********************************++",
"++**********************************++",
"++**********************************++",
"++**********************************++",
"++************--------------********++",
"++************--------------********++",
"++************--**********--********++",
"++************--**********--********++",
"++********--------------**--********++",
"++********--------------**--********++",
"++********--------------**--********++",
"++********--------------**--********++",
"++********--**********--**--********++",
"++********--**********--**--********++",
"++********--**********--**--********++",
"++********--**********--**--********++",
"++********--**********------********++",
"++********--**********------********++",
"++********--**********--************++",
"++********--**********--************++",
"++********--------------************++",
"++********--------------************++",
"++**********************************++",
"++**********************************++",
"++**********************************++",
"++&********************************=++",
".+%********************************;+>",
" +$%,****************************=;++ ",
" #++++++++++++++++++++++++++++++++++  ",
"   >++++++++++++++++++++++++++++++>   "};
