/* XPM */
static char * maximize_inactive_xpm[] = {
"38 38 15 1",
" 	c None",
".	c #7F8A96",
"+	c #808996",
"@	c #7F8996",
"#	c #808A97",
"$	c #97A1AF",
"%	c #A6B1BD",
"&	c #A9B3C0",
"*	c #97A1AE",
"=	c #A6B0BD",
"-	c #DDDDDD",
";	c #6E757C",
">	c #7F8896",
",	c #959FAC",
"'	c #808A96",
"   .+@@@@@@@@@@@@@@@@@@@@@@@@@@@@++   ",
" +@@@@@@@@@@@@@@@@@@@@@@@@@@@@@@@@@@+ ",
" @#$%&&&&&&&&&&&&&&&&&&&&&&&&&&&&%*#@ ",
".@$&&&&&&&&&&&&&&&&&&&&&&&&&&&&&&&&*@+",
"@@%&&&&&&&&&&&&&&&&&&&&&&&&&&&&&&&&=@+",
"@@&&&&&&&&&&&&&&&&&&&&&&&&&&&&&&&&&&@@",
"@@&&&&&&&&&&&&&&&&&&&&&&&&&&&&&&&&&&@@",
"@@&&&&&&&&&&&&&&&&&&&&&&&&&&&&&&&&&&@@",
"@@&&&&&&&&&&&&&&&&&&&&&&&&&&&&&&&&&&@@",
"@@&&&&&&&&&&&&&&&&&&&&&&&&&&&&&&&&&&@@",
"@@&&&&&&&&------------------&&&&&&&&@@",
"@@&&&&&&&&------------------&&&&&&&&@@",
"@@&&&&&&&&------------------;;&&&&&&@@",
"@@&&&&&&&&------------------;;&&&&&&@@",
"@@&&&&&&&&--;;;;;;;;;;;;;;--;;&&&&&&@@",
"@@&&&&&&&&--;;;;;;;;;;;;;;--;;&&&&&&@@",
"@@&&&&&&&&--;;&&&&&&&&&&&&--;;&&&&&&@@",
"@@&&&&&&&&--;;&&&&&&&&&&&&--;;&&&&&&@@",
"@@&&&&&&&&--;;&&&&&&&&&&&&--;;&&&&&&@@",
"@@&&&&&&&&--;;&&&&&&&&&&&&--;;&&&&&&@@",
"@@&&&&&&&&--;;&&&&&&&&&&&&--;;&&&&&&@@",
"@@&&&&&&&&--;;&&&&&&&&&&&&--;;&&&&&&@@",
"@@&&&&&&&&--;;&&&&&&&&&&&&--;;&&&&&&@@",
"@@&&&&&&&&--;;&&&&&&&&&&&&--;;&&&&&&@@",
"@@&&&&&&&&--;;&&&&&&&&&&&&--;;&&&&&&@@",
"@@&&&&&&&&--;;&&&&&&&&&&&&--;;&&&&&&@@",
"@@&&&&&&&&------------------;;&&&&&&@@",
"@@&&&&&&&&------------------;;&&&&&&@@",
"@@&&&&&&&&&&;;;;;;;;;;;;;;;;;;&&&&&&@@",
"@@&&&&&&&&&&;;;;;;;;;;;;;;;;;;&&&&&&@@",
"@@&&&&&&&&&&&&&&&&&&&&&&&&&&&&&&&&&&@@",
"@@&&&&&&&&&&&&&&&&&&&&&&&&&&&&&&&&&&@@",
"@@&&&&&&&&&&&&&&&&&&&&&&&&&&&&&&&&&&@@",
"+@%&&&&&&&&&&&&&&&&&&&&&&&&&&&&&&&&=@>",
".@*&&&&&&&&&&&&&&&&&&&&&&&&&&&&&&&&,@.",
" @#*=&&&&&&&&&&&&&&&&&&&&&&&&&&&&=,'@ ",
" +@@@@@@@@@@@@@@@@@@@@@@@@@@@@@@@@@@  ",
"   .@@@@@@@@@@@@@@@@@@@@@@@@@@@@@+.   "};
