/* XPM */
static char * maximize_toggled_prelight_xpm[] = {
"38 38 15 1",
" 	c None",
".	c #6393C3",
"+	c #6394C3",
"@	c #6392C3",
"#	c #6393C2",
"$	c #6394C4",
"%	c #76A5D5",
"&	c #82B1E0",
"*	c #84B3E2",
"=	c #82B0E0",
"-	c #FFFFFF",
";	c #5B7A98",
">	c #74A4D4",
",	c #6293C4",
"'	c #6494C3",
"   ...............................+   ",
" @..................................# ",
" .$%&****************************&%$. ",
"..%********************************%.+",
"..&********************************=.+",
"..**********************************..",
"..**********************************..",
"..**********************************..",
"..**********************************..",
"..**********************************..",
"..************--------------********..",
"..************--------------********..",
"..************--;;;;;;;;;;--;;******..",
"..************--;;;;;;;;;;--;;******..",
"..********--------------**--;;******..",
"..********--------------**--;;******..",
"..********--------------;;--;;******..",
"..********--------------;;--;;******..",
"..********--;;;;;;;;;;--;;--;;******..",
"..********--;;;;;;;;;;--;;--;;******..",
"..********--;;********--;;--;;******..",
"..********--;;********--;;--;;******..",
"..********--;;********------;;******..",
"..********--;;********------;;******..",
"..********--;;********--;;;;;;******..",
"..********--;;********--;;;;;;******..",
"..********--------------;;**********..",
"..********--------------;;**********..",
"..**********;;;;;;;;;;;;;;**********..",
"..**********;;;;;;;;;;;;;;**********..",
"..**********************************..",
"..**********************************..",
"..**********************************..",
"+.&********************************=..",
"..%********************************>.,",
" .$%&****************************=>'. ",
" #..................................  ",
"   ,.............................+,   "};
