/* XPM */
static char * menu_inactive_xpm[] = {
"32 50 25 1",
" 	c None",
".	c #4E555D",
"+	c #ACB7C4",
"@	c #A3AEBB",
"#	c #9AA5B2",
"$	c #919CA9",
"%	c #8893A1",
"&	c #8994A2",
"*	c #8A95A3",
"=	c #8B96A5",
"-	c #8C98A6",
";	c #8D99A7",
">	c #8E9AA9",
",	c #909BAA",
"'	c #919DAC",
")	c #929EAD",
"!	c #939FAE",
"~	c #94A1B0",
"{	c #95A2B1",
"]	c #97A3B3",
"^	c #98A4B4",
"/	c #99A6B5",
"(	c #9AA7B7",
"_	c #9BA8B8",
":	c #9CA9B9",
"................................",
"................................",
"++++++++++++++++++++++++++++++++",
"++++++++++++++++++++++++++++++++",
"@@@@@@@@@@@@@@@@@@@@@@@@@@@@@@@@",
"@@@@@@@@@@@@@@@@@@@@@@@@@@@@@@@@",
"################################",
"################################",
"$$$$$$$$$$$$$$$$$$$$$$$$$$$$$$$$",
"$$$$$$$$$$$$$$$$$$$$$$$$$$$$$$$$",
"%%%%%%%%%%%%%%%%%%%%%%%%%%%%%%%%",
"%%%%%%%%%%%%%%%%%%%%%%%%%%%%%%%%",
"&&&&&&&&&&&&&&&&&&&&&&&&&&&&&&&&",
"&&&&&&&&&&&&&&&&&&&&&&&&&&&&&&&&",
"********************************",
"********************************",
"================================",
"================================",
"--------------------------------",
"--------------------------------",
";;;;;;;;;;;;;;;;;;;;;;;;;;;;;;;;",
";;;;;;;;;;;;;;;;;;;;;;;;;;;;;;;;",
">>>>>>>>>>>>>>>>>>>>>>>>>>>>>>>>",
">>>>>>>>>>>>>>>>>>>>>>>>>>>>>>>>",
",,,,,,,,,,,,,,,,,,,,,,,,,,,,,,,,",
",,,,,,,,,,,,,,,,,,,,,,,,,,,,,,,,",
"''''''''''''''''''''''''''''''''",
"''''''''''''''''''''''''''''''''",
"))))))))))))))))))))))))))))))))",
"))))))))))))))))))))))))))))))))",
"!!!!!!!!!!!!!!!!!!!!!!!!!!!!!!!!",
"!!!!!!!!!!!!!!!!!!!!!!!!!!!!!!!!",
"~~~~~~~~~~~~~~~~~~~~~~~~~~~~~~~~",
"~~~~~~~~~~~~~~~~~~~~~~~~~~~~~~~~",
"{{{{{{{{{{{{{{{{{{{{{{{{{{{{{{{{",
"{{{{{{{{{{{{{{{{{{{{{{{{{{{{{{{{",
"]]]]]]]]]]]]]]]]]]]]]]]]]]]]]]]]",
"]]]]]]]]]]]]]]]]]]]]]]]]]]]]]]]]",
"^^^^^^^^^^^^^^^^^^^^^^^^^^^^^^^^",
"^^^^^^^^^^^^^^^^^^^^^^^^^^^^^^^^",
"////////////////////////////////",
"////////////////////////////////",
"((((((((((((((((((((((((((((((((",
"((((((((((((((((((((((((((((((((",
"________________________________",
"________________________________",
"::::::::::::::::::::::::::::::::",
"::::::::::::::::::::::::::::::::",
">>>>>>>>>>>>>>>>>>>>>>>>>>>>>>>>",
">>>>>>>>>>>>>>>>>>>>>>>>>>>>>>>>"};
