/* XPM */
static char * menu_active_xpm[] = {
"32 50 26 1",
" 	c None",
".	c #20476E",
"+	c #66A4E2",
"@	c #4892DD",
"#	c #438BD4",
"$	c #3E84CB",
"%	c #397EC3",
"&	c #397EC4",
"*	c #397FC5",
"=	c #3A80C7",
"-	c #3A81C8",
";	c #3B82C9",
">	c #3B83CB",
",	c #3C84CC",
"'	c #3C85CE",
")	c #3C85CF",
"!	c #3D86D0",
"~	c #3D87D2",
"{	c #3E88D3",
"]	c #3E89D5",
"^	c #3F8AD6",
"/	c #3F8BD7",
"(	c #408CD9",
"_	c #408DDA",
":	c #408DDB",
"<	c #3B81C8",
"................................",
"................................",
"++++++++++++++++++++++++++++++++",
"++++++++++++++++++++++++++++++++",
"@@@@@@@@@@@@@@@@@@@@@@@@@@@@@@@@",
"@@@@@@@@@@@@@@@@@@@@@@@@@@@@@@@@",
"################################",
"################################",
"$$$$$$$$$$$$$$$$$$$$$$$$$$$$$$$$",
"$$$$$$$$$$$$$$$$$$$$$$$$$$$$$$$$",
"%%%%%%%%%%%%%%%%%%%%%%%%%%%%%%%%",
"%%%%%%%%%%%%%%%%%%%%%%%%%%%%%%%%",
"&&&&&&&&&&&&&&&&&&&&&&&&&&&&&&&&",
"&&&&&&&&&&&&&&&&&&&&&&&&&&&&&&&&",
"********************************",
"********************************",
"================================",
"================================",
"--------------------------------",
"--------------------------------",
";;;;;;;;;;;;;;;;;;;;;;;;;;;;;;;;",
";;;;;;;;;;;;;;;;;;;;;;;;;;;;;;;;",
">>>>>>>>>>>>>>>>>>>>>>>>>>>>>>>>",
">>>>>>>>>>>>>>>>>>>>>>>>>>>>>>>>",
",,,,,,,,,,,,,,,,,,,,,,,,,,,,,,,,",
",,,,,,,,,,,,,,,,,,,,,,,,,,,,,,,,",
"''''''''''''''''''''''''''''''''",
"''''''''''''''''''''''''''''''''",
"))))))))))))))))))))))))))))))))",
"))))))))))))))))))))))))))))))))",
"!!!!!!!!!!!!!!!!!!!!!!!!!!!!!!!!",
"!!!!!!!!!!!!!!!!!!!!!!!!!!!!!!!!",
"~~~~~~~~~~~~~~~~~~~~~~~~~~~~~~~~",
"~~~~~~~~~~~~~~~~~~~~~~~~~~~~~~~~",
"{{{{{{{{{{{{{{{{{{{{{{{{{{{{{{{{",
"{{{{{{{{{{{{{{{{{{{{{{{{{{{{{{{{",
"]]]]]]]]]]]]]]]]]]]]]]]]]]]]]]]]",
"]]]]]]]]]]]]]]]]]]]]]]]]]]]]]]]]",
"^^^^^^^^^^^^^^^^^^^^^^^^^^^^^^^^",
"^^^^^^^^^^^^^^^^^^^^^^^^^^^^^^^^",
"////////////////////////////////",
"////////////////////////////////",
"((((((((((((((((((((((((((((((((",
"((((((((((((((((((((((((((((((((",
"________________________________",
"________________________________",
"::::::::::::::::::::::::::::::::",
"::::::::::::::::::::::::::::::::",
"<<<<<<<<<<<<<<<<<<<<<<<<<<<<<<<<",
"<<<<<<<<<<<<<<<<<<<<<<<<<<<<<<<<"};
