/* XPM */
static char * right_active_xpm[] = {
"8 20 5 1",
" 	c None",
".	c #3B81C8",
"+	c #418EDC",
"@	c #3472B0",
"#	c #20476E",
"..++@@##",
"..++@@##",
"..++@@##",
"..++@@##",
"..++@@##",
"..++@@##",
"..++@@##",
"..++@@##",
"..++@@##",
"..++@@##",
"..++@@##",
"..++@@##",
"..++@@##",
"..++@@##",
"..++@@##",
"..++@@##",
"..++@@##",
"..++@@##",
"..++@@##",
"..++@@##"};
