/* XPM */
static char * right_inactive_xpm[] = {
"8 20 5 1",
" 	c None",
".	c #8E9AA9",
"+	c #9DAABA",
"@	c #848F9C",
"#	c #4E555D",
"..++@@##",
"..++@@##",
"..++@@##",
"..++@@##",
"..++@@##",
"..++@@##",
"..++@@##",
"..++@@##",
"..++@@##",
"..++@@##",
"..++@@##",
"..++@@##",
"..++@@##",
"..++@@##",
"..++@@##",
"..++@@##",
"..++@@##",
"..++@@##",
"..++@@##",
"..++@@##"};
