/* XPM */
static char * title_1_active_xpm[] = {
"8 50 32 1",
" 	c None",
".	c #20476D",
"+	c #20476E",
"@	c #66A4E2",
"#	c #4892DD",
"$	c #438BD4",
"%	c #3E84CB",
"&	c #3A7EC3",
"*	c #397EC3",
"=	c #3A7EC4",
"-	c #397EC4",
";	c #3A80C5",
">	c #397FC5",
",	c #3A80C7",
"'	c #3A81C8",
")	c #3B82C9",
"!	c #3B83CB",
"~	c #3C84CC",
"{	c #3C85CE",
"]	c #3C85CF",
"^	c #3D86D0",
"/	c #3D87D2",
"(	c #3E89D3",
"_	c #3E88D3",
":	c #3E89D5",
"<	c #3F8AD6",
"[	c #3F8BD8",
"}	c #3F8BD7",
"|	c #408CD9",
"1	c #408DDA",
"2	c #408DDB",
"3	c #3B81C8",
".+++++++",
".+++++++",
"@@@@@@@@",
"@@@@@@@@",
"########",
"########",
"$$$$$$$$",
"$$$$$$$$",
"%%%%%%%%",
"%%%%%%%%",
"&*******",
"&*******",
"=-------",
"=-------",
";>>>>>>>",
";>>>>>>>",
",,,,,,,,",
",,,,,,,,",
"''''''''",
"''''''''",
"))))))))",
"))))))))",
"!!!!!!!!",
"!!!!!!!!",
"~~~~~~~~",
"~~~~~~~~",
"{{{{{{{{",
"{{{{{{{{",
"{]]]]]]]",
"{]]]]]]]",
"^^^^^^^^",
"^^^^^^^^",
"////////",
"////////",
"(_______",
"(_______",
"::::::::",
"::::::::",
"<<<<<<<<",
"<<<<<<<<",
"[}}}}}}}",
"[}}}}}}}",
"||||||||",
"||||||||",
"11111111",
"11111111",
"22222222",
"22222222",
"33333333",
"33333333"};
