/* XPM */
static char * title_1_inactive_xpm[] = {
"8 50 35 1",
" 	c None",
".	c #4E555D",
"+	c #ACB7C4",
"@	c #A2AEBB",
"#	c #A3AEBB",
"$	c #99A5B2",
"%	c #9AA5B2",
"&	c #929CA9",
"*	c #919CA9",
"=	c #8993A1",
"-	c #8893A1",
";	c #8994A2",
">	c #8A95A2",
",	c #8A95A3",
"'	c #8B96A5",
")	c #8C98A6",
"!	c #8D99A7",
"~	c #8E99A9",
"{	c #8E9AA9",
"]	c #909BAA",
"^	c #929DAC",
"/	c #919DAC",
"(	c #929EAD",
"_	c #939FAE",
":	c #94A1B0",
"<	c #95A2B1",
"[	c #97A2B3",
"}	c #97A3B3",
"|	c #98A4B5",
"1	c #98A4B4",
"2	c #99A6B5",
"3	c #99A7B7",
"4	c #9AA7B7",
"5	c #9BA8B8",
"6	c #9CA9B9",
"........",
"........",
"++++++++",
"++++++++",
"@#######",
"@#######",
"$%%%%%%%",
"$%%%%%%%",
"&*******",
"&*******",
"=-------",
"=-------",
";;;;;;;;",
";;;;;;;;",
">,,,,,,,",
">,,,,,,,",
"''''''''",
"''''''''",
"))))))))",
"))))))))",
"!!!!!!!!",
"!!!!!!!!",
"~{{{{{{{",
"~{{{{{{{",
"]]]]]]]]",
"]]]]]]]]",
"^///////",
"^///////",
"((((((((",
"((((((((",
"________",
"________",
"::::::::",
"::::::::",
"<<<<<<<<",
"<<<<<<<<",
"[}}}}}}}",
"[}}}}}}}",
"|1111111",
"|1111111",
"22222222",
"22222222",
"34444444",
"34444444",
"55555555",
"55555555",
"66666666",
"66666666",
"~{{{{{{{",
"~{{{{{{{"};
