/* XPM */
static char * top_right_active_xpm[] = {
"8 50 41 1",
" 	c None",
".	c #20476E",
"+	c #1F476E",
"@	c #21486F",
"#	c #21476D",
"$	c #65A2E0",
"%	c #609CD7",
"&	c #548BC3",
"*	c #3D6E9E",
"=	c #214970",
"-	c #66A4E2",
";	c #2F679F",
">	c #20486F",
",	c #4892DD",
"'	c #3472B0",
")	c #285889",
"!	c #2F679E",
"~	c #438BD4",
"{	c #326EA9",
"]	c #20476F",
"^	c #3471AE",
"/	c #3E84CB",
"(	c #397EC3",
"_	c #397EC4",
":	c #397FC5",
"<	c #3A80C7",
"[	c #3A81C8",
"}	c #3B82C9",
"|	c #3B83CB",
"1	c #3C84CC",
"2	c #3C85CE",
"3	c #3C85CF",
"4	c #3D86D0",
"5	c #3D87D2",
"6	c #3E88D3",
"7	c #3E89D5",
"8	c #3F8AD6",
"9	c #3F8BD7",
"0	c #408CD9",
"a	c #408DDA",
"b	c #408DDB",
".+@.    ",
".....#  ",
"$%&*=.# ",
"----;>. ",
",,,,')..",
",,,,'!.+",
"~~~~'{.]",
"~~~~'^..",
"////''..",
"////''..",
"((((''..",
"((((''..",
"____''..",
"____''..",
"::::''..",
"::::''..",
"<<<<''..",
"<<<<''..",
"[[[[''..",
"[[[[''..",
"}}}}''..",
"}}}}''..",
"||||''..",
"||||''..",
"1111''..",
"1111''..",
"2222''..",
"2222''..",
"3333''..",
"3333''..",
"4444''..",
"4444''..",
"5555''..",
"5555''..",
"6666''..",
"6666''..",
"7777''..",
"7777''..",
"8888''..",
"8888''..",
"9999''..",
"9999''..",
"0000''..",
"0000''..",
"aaaa''..",
"aaaa''..",
"bbbb''..",
"bbbb''..",
"bbbb''..",
"bbbb''.."};
