/* XPM */
static char * top_left_active_xpm[] = {
"8 50 42 1",
" 	c None",
".	c #20476E",
"+	c #21486F",
"@	c #1F476E",
"#	c #20466E",
"$	c #21476D",
"%	c #1F476F",
"&	c #366391",
"*	c #5289C0",
"=	c #5F9BD7",
"-	c #65A2E0",
";	c #538BC3",
">	c #66A4E2",
",	c #386B9D",
"'	c #5C9EE0",
")	c #4D95DE",
"!	c #4992DD",
"~	c #4892DD",
"{	c #518AC4",
"]	c #5F9AD7",
"^	c #458CD5",
"/	c #438BD4",
"(	c #3E84CB",
"_	c #397EC3",
":	c #397EC4",
"<	c #397FC5",
"[	c #3A80C7",
"}	c #3A81C8",
"|	c #3B82C9",
"1	c #3B83CB",
"2	c #3C84CC",
"3	c #3C85CE",
"4	c #3C85CF",
"5	c #3D86D0",
"6	c #3D87D2",
"7	c #3E88D3",
"8	c #3E89D5",
"9	c #3F8AD6",
"0	c #3F8BD7",
"a	c #408CD9",
"b	c #408DDA",
"c	c #408DDB",
"    .+@.",
"  #.....",
" $.%&*=-",
" .%;>>>>",
"..,>')!~",
"+.{>)~~~",
"..]>^///",
"..->////",
"..>>((((",
"..>>((((",
"..>>____",
"..>>____",
"..>>::::",
"..>>::::",
"..>><<<<",
"..>><<<<",
"..>>[[[[",
"..>>[[[[",
"..>>}}}}",
"..>>}}}}",
"..>>||||",
"..>>||||",
"..>>1111",
"..>>1111",
"..>>2222",
"..>>2222",
"..>>3333",
"..>>3333",
"..>>4444",
"..>>4444",
"..>>5555",
"..>>5555",
"..>>6666",
"..>>6666",
"..>>7777",
"..>>7777",
"..>>8888",
"..>>8888",
"..>>9999",
"..>>9999",
"..>>0000",
"..>>0000",
"..>>aaaa",
"..>>aaaa",
"..>>bbbb",
"..>>bbbb",
"..>>cccc",
"..>>cccc",
"..>>cccc",
"..>>cccc"};
