/* XPM */
static char * top_left_inactive_xpm[] = {
"8 50 37 1",
" 	c None",
".	c #4E565D",
"+	c #4E555C",
"@	c #4E555D",
"#	c #4F545E",
"$	c #4F575F",
"%	c #757D88",
"&	c #939DA9",
"*	c #A4AEBB",
"=	c #AAB5C1",
"-	c #949EAA",
";	c #ACB7C4",
">	c #A3AEBB",
",	c #939DA8",
"'	c #A3AEBA",
")	c #9AA5B2",
"!	c #919CA9",
"~	c #8893A1",
"{	c #8994A2",
"]	c #8A95A3",
"^	c #8B96A5",
"/	c #8C98A6",
"(	c #8D99A7",
"_	c #8E9AA9",
":	c #909BAA",
"<	c #919DAC",
"[	c #929EAD",
"}	c #939FAE",
"|	c #94A1B0",
"1	c #95A2B1",
"2	c #97A3B3",
"3	c #98A4B4",
"4	c #99A6B5",
"5	c #9AA7B7",
"6	c #9BA8B8",
"7	c #9CA9B9",
"8	c #9DAABA",
"    .+@@",
"  .@@@@@",
" #@$%&*=",
" @$-;;;;",
".@%;>>>>",
"+@,;>>>>",
"@@';))))",
"@@=;))))",
"@@;;!!!!",
"@@;;!!!!",
"@@;;~~~~",
"@@;;~~~~",
"@@;;{{{{",
"@@;;{{{{",
"@@;;]]]]",
"@@;;]]]]",
"@@;;^^^^",
"@@;;^^^^",
"@@;;////",
"@@;;////",
"@@;;((((",
"@@;;((((",
"@@;;____",
"@@;;____",
"@@;;::::",
"@@;;::::",
"@@;;<<<<",
"@@;;<<<<",
"@@;;[[[[",
"@@;;[[[[",
"@@;;}}}}",
"@@;;}}}}",
"@@;;||||",
"@@;;||||",
"@@;;1111",
"@@;;1111",
"@@;;2222",
"@@;;2222",
"@@;;3333",
"@@;;3333",
"@@;;4444",
"@@;;4444",
"@@;;5555",
"@@;;5555",
"@@;;6666",
"@@;;6666",
"@@;;7777",
"@@;;7777",
"@@;;8888",
"@@;;8888"};
