/* XPM */
static char * top_right_inactive_xpm[] = {
"8 50 40 1",
" 	c None",
".	c #4E555D",
"+	c #4E555C",
"@	c #4E565D",
"#	c #4F545E",
"$	c #AAB5C1",
"%	c #A4AEBB",
"&	c #939DA9",
"*	c #757D88",
"=	c #4F565E",
"-	c #ACB7C4",
";	c #76818C",
">	c #A3AEBB",
",	c #848F9C",
"'	c #646C77",
")	c #76808B",
"!	c #9AA5B2",
"~	c #7F8A96",
"{	c #828D9B",
"]	c #919CA9",
"^	c #8893A1",
"/	c #8994A2",
"(	c #8A95A3",
"_	c #8B96A5",
":	c #8C98A6",
"<	c #8D99A7",
"[	c #8E9AA9",
"}	c #909BAA",
"|	c #919DAC",
"1	c #929EAD",
"2	c #939FAE",
"3	c #94A1B0",
"4	c #95A2B1",
"5	c #97A3B3",
"6	c #98A4B4",
"7	c #99A6B5",
"8	c #9AA7B7",
"9	c #9BA8B8",
"0	c #9CA9B9",
"a	c #9DAABA",
"..+@    ",
".....#  ",
"$%&*=.# ",
"----;=. ",
">>>>,'.@",
">>>>,)..",
"!!!!,~..",
"!!!!,{..",
"]]]],,..",
"]]]],,..",
"^^^^,,..",
"^^^^,,..",
"////,,..",
"////,,..",
"((((,,..",
"((((,,..",
"____,,..",
"____,,..",
"::::,,..",
"::::,,..",
"<<<<,,..",
"<<<<,,..",
"[[[[,,..",
"[[[[,,..",
"}}}},,..",
"}}}},,..",
"||||,,..",
"||||,,..",
"1111,,..",
"1111,,..",
"2222,,..",
"2222,,..",
"3333,,..",
"3333,,..",
"4444,,..",
"4444,,..",
"5555,,..",
"5555,,..",
"6666,,..",
"6666,,..",
"7777,,..",
"7777,,..",
"8888,,..",
"8888,,..",
"9999,,..",
"9999,,..",
"0000,,..",
"0000,,..",
"aaaa,,..",
"aaaa,,.."};
