/* XPM */
static char * bottom_left_active_xpm[] = {
"26 26 2 1",
" 	c None",
".	c #0A4ABA s active_color_1",
"........                  ",
"........                  ",
"........                  ",
"........                  ",
"........                  ",
"........                  ",
"........                  ",
"........                  ",
"........                  ",
"........                  ",
"........                  ",
"........                  ",
"........                  ",
"........                  ",
"........                  ",
"........                  ",
"........                  ",
"........                  ",
"..........................",
"..........................",
"..........................",
"..........................",
"..........................",
"..........................",
"..........................",
".........................."};
