/* XPM */
static char * bottom_right_inactive_xpm[] = {
"26 26 2 1",
" 	c None",
".	c #0A4ABA s inactive_color_1",
"                  ........",
"                  ........",
"                  ........",
"                  ........",
"                  ........",
"                  ........",
"                  ........",
"                  ........",
"                  ........",
"                  ........",
"                  ........",
"                  ........",
"                  ........",
"                  ........",
"                  ........",
"                  ........",
"                  ........",
"                  ........",
"..........................",
"..........................",
"..........................",
"..........................",
"..........................",
"..........................",
"..........................",
".........................."};
