/* XPM */
static char * close_inactive_xpm[] = {
"40 44 4 1",
" 	c None",
"@	c #FFFFFF s inactive_text_color",
".	c #FF9F7F",
"+	c #FFFFFF",
"                                        ",
"                                        ",
"                                        ",
"                                        ",
"    @@@@@@@@@@@@@@@@@@@@@@@@@@@@@@@@    ",
"  @@@@@@@@@@@@@@@@@@@@@@@@@@@@@@@@@@@@  ",
" @@@................................@@@ ",
" @@..................................@@ ",
"@@....................................@@",
"@@....................................@@",
"@@....................................@@",
"@@....................................@@",
"@@....................................@@",
"@@....................................@@",
"@@.........+++............+++.........@@",
"@@........+++++..........+++++........@@",
"@@........++++++........++++++........@@",
"@@........+++++++......+++++++........@@",
"@@.........+++++++....+++++++.........@@",
"@@..........+++++++..+++++++..........@@",
"@@...........++++++++++++++...........@@",
"@@............++++++++++++............@@",
"@@.............++++++++++.............@@",
"@@..............++++++++..............@@",
"@@..............++++++++..............@@",
"@@.............++++++++++.............@@",
"@@............++++++++++++............@@",
"@@...........++++++++++++++...........@@",
"@@..........+++++++..+++++++..........@@",
"@@.........+++++++....+++++++.........@@",
"@@........+++++++......+++++++........@@",
"@@........++++++........++++++........@@",
"@@........+++++..........+++++........@@",
"@@.........+++............+++.........@@",
"@@....................................@@",
"@@....................................@@",
"@@....................................@@",
"@@....................................@@",
"@@....................................@@",
"@@....................................@@",
" @@..................................@@ ",
" @@@................................@@@ ",
"  @@@@@@@@@@@@@@@@@@@@@@@@@@@@@@@@@@@@  ",
"    @@@@@@@@@@@@@@@@@@@@@@@@@@@@@@@@    "};
