/* XPM */
static char * top_right_inactive_xpm[] = {
"16 60 2 1",
" 	c None",
".	c #0A4ABA s inactive_color_1",
"......          ",
".........       ",
"...........     ",
"............    ",
".............   ",
"..............  ",
"..............  ",
"............... ",
"............... ",
"............... ",
"................",
"................",
"................",
"................",
"................",
"................",
"................",
"................",
"................",
"................",
"................",
"................",
"................",
"................",
"................",
"................",
"................",
"................",
"................",
"................",
"................",
"................",
"................",
"................",
"................",
"................",
"................",
"................",
"................",
"................",
"................",
"................",
"................",
"................",
"................",
"................",
"................",
"................",
"................",
"................",
"................",
"................",
"................",
"................",
"................",
"................",
"................",
"................",
"................",
"................"};
