/* XPM */
static char * top_left_active_xpm[] = {
"16 60 2 1",
" 	c None",
".	c #0A4ABA s active_color_1",
"          ......",
"       .........",
"      ..........",
"    ............",
"   .............",
"   .............",
"  ..............",
"  ..............",
" ...............",
" ...............",
" ...............",
"................",
"................",
"................",
"................",
"................",
"................",
"................",
"................",
"................",
"................",
"................",
"................",
"................",
"................",
"................",
"................",
"................",
"................",
"................",
"................",
"................",
"................",
"................",
"................",
"................",
"................",
"................",
"................",
"................",
"................",
"................",
"................",
"................",
"................",
"................",
"................",
"................",
"................",
"................",
"................",
"................",
"................",
"................",
"................",
"................",
"................",
"................",
"................",
"................"};
