/* XPM */
static char * bottom_active_xpm[] = {
"10 4 3 1",
" 	c None",
".	c #5F9BD9",
"+	c #385B80",
"..........",
"..........",
"++++++++++",
"++++++++++"};
