/* XPM */
static char * bottom_left_active_xpm[] = {
"4 4 3 1",
" 	c None",
".	c #385B80",
"+	c #5F9BD9",
"..++",
"..++",
"....",
"...."};
