/* XPM */
static char * close_inactive_xpm[] = {
"30 30 138 2",
"  	c None",
". 	c #6C90B4",
"+ 	c #6C90B5",
"@ 	c #6C8FB5",
"# 	c #6A8FB4",
"$ 	c #6A8EB4",
"% 	c #6B8FB4",
"& 	c #6B8EB4",
"* 	c #7195B8",
"= 	c #7FA0C0",
"- 	c #8BA9C7",
"; 	c #8FADC9",
"> 	c #93B0CC",
", 	c #92AFCB",
"' 	c #8EACC9",
") 	c #89A8C5",
"! 	c #7C9DBE",
"~ 	c #6F91B6",
"{ 	c #6F92B6",
"] 	c #89A7C5",
"^ 	c #95B1CC",
"/ 	c #81A2C1",
"( 	c #6B90B5",
"_ 	c #698EB3",
": 	c #698DB3",
"< 	c #789ABC",
"[ 	c #8DABC8",
"} 	c #7294B8",
"| 	c #86A5C4",
"1 	c #94B0CC",
"2 	c #7F9FC0",
"3 	c #678DB2",
"4 	c #678CB2",
"5 	c #94B1CC",
"6 	c #7A9CBD",
"7 	c #7799BB",
"8 	c #6D91B6",
"9 	c #658BB1",
"0 	c #668BB1",
"a 	c #91AECA",
"b 	c #85A5C5",
"c 	c #608AB3",
"d 	c #638CB5",
"e 	c #82A3C3",
"f 	c #81A2C3",
"g 	c #5E87B3",
"h 	c #638BB6",
"i 	c #88A7C6",
"j 	c #658BB2",
"k 	c #638BB4",
"l 	c #5380AD",
"m 	c #5481AD",
"n 	c #7FA0C2",
"o 	c #5581AF",
"p 	c #5480AF",
"q 	c #618AB5",
"r 	c #7A9BBC",
"s 	c #648AB1",
"t 	c #6C91B5",
"u 	c #5D87B2",
"v 	c #7EA0C2",
"w 	c #638CB6",
"x 	c #648AB0",
"y 	c #638AB1",
"z 	c #7B9CBD",
"A 	c #80A2C3",
"B 	c #81A3C4",
"C 	c #6D92B6",
"D 	c #6288B0",
"E 	c #87A6C5",
"F 	c #5481AE",
"G 	c #799BBD",
"H 	c #6289B0",
"I 	c #8CAAC8",
"J 	c #5480AE",
"K 	c #6187AF",
"L 	c #90AECA",
"M 	c #92B0CC",
"N 	c #92B0CB",
"O 	c #93B0CB",
"P 	c #7EA0C1",
"Q 	c #83A3C3",
"R 	c #6087AF",
"S 	c #7DA0C1",
"T 	c #5F86AF",
"U 	c #7D9EC0",
"V 	c #5E86AF",
"W 	c #85A5C4",
"X 	c #7699BC",
"Y 	c #5D85AE",
"Z 	c #7FA1C2",
"` 	c #688DB4",
" .	c #5D84AE",
"..	c #668CB3",
"+.	c #5C87B1",
"@.	c #5C84AD",
"#.	c #82A2C2",
"$.	c #91AFCB",
"%.	c #608AB5",
"&.	c #628BB4",
"*.	c #7396BA",
"=.	c #5B83AD",
"-.	c #6188B0",
";.	c #83A4C5",
">.	c #5D87B3",
",.	c #80A1C3",
"'.	c #84A4C4",
").	c #84A4C3",
"!.	c #5A82AC",
"~.	c #6D93B7",
"{.	c #91AECB",
"].	c #8EADC9",
"^.	c #6189B0",
"/.	c #5983AC",
"(.	c #7FA1C1",
"_.	c #7196B9",
":.	c #5881AB",
"<.	c #5881AC",
"[.	c #5882AB",
"}.	c #5C85AD",
"|.	c #7EA0C0",
"1.	c #90ADCA",
"2.	c #7598BB",
"3.	c #6C92B6",
"4.	c #87A7C5",
"5.	c #638AB2",
"6.	c #5680AB",
"7.	c #5680AA",
"8.	c #5C85AE",
"9.	c #6088B0",
"0.	c #7397BB",
"a.	c #89A8C6",
"b.	c #8DABC9",
"c.	c #6E93B8",
"d.	c #5C84AE",
"e.	c #557EAA",
"f.	c #557FAB",
"g.	c #557FAA",
". . . . + + + + @ @ . . . . + + + + @ @ . . . . + + . . + + ",
". . . . + + + + @ @ . . . . + + + + @ @ . . . . + + . . + + ",
"# # # # $ $ % % & & * = - ; > , ' ) ! ~ # # # # $ $ # # $ $ ",
"# # # # $ $ % % { ] ^ ^ ^ ^ ^ ^ ^ ^ ^ ^ / ( # # $ $ # # $ $ ",
"_ _ : : : : : < , ^ ^ ^ ^ ^ ^ ^ ^ ^ ^ ^ ^ [ } : : : : : : : ",
"_ _ : : : @ | ^ ^ ^ ^ ^ ^ ^ ^ ^ ^ ^ ^ ^ ^ ^ 1 2 : : : : : : ",
"3 3 4 4 4 | 5 5 5 5 5 5 5 5 5 5 5 5 5 5 5 5 5 5 6 4 4 4 4 4 ",
"3 3 4 4 7 5 5 5 5 5 5 5 5 5 5 5 5 5 5 5 5 5 5 5 , 8 4 4 4 4 ",
"9 9 0 # a 1 1 1 b c d e 1 1 1 1 1 1 f g h b 1 1 1 i 0 0 j j ",
"9 9 0 | 1 1 1 1 k l l m n 1 1 1 1 n o p p q 1 1 1 1 r 0 j j ",
"s s t > > > > > u l l l m v > > v o p p p w > > > > ' x y y ",
"s s z > > > > > A m l l l m v v o p p p o B > > > > > C y y ",
"D D E > > > > > > v m l l l m F p p p o v > > > > > > G H H ",
"D D I > > > > > > > v m l l l l J p o v > > > > > > > 2 H H ",
"K K L M N N N N N N O P m l l l l F v N O O M M N N M Q R R ",
"K K L M N N N N N N O v F l l l l m S N O O M M N N M Q R R ",
"T T - , , , , , N N v o p J l l l l m S , , , , , , , U V V ",
"T T W , , , , , N v o p p p F m l l l m S , , , , , , X V V ",
"Y Y X , , , , , f o p p p o v S m l l l m Z , , , , , `  . .",
"Y Y .., , , , , h p p p o v , , S m l l l +., , , , I Y  . .",
"@.@.@.#.$.$.$.$.%.p p o v , $.$.$.S m l l &., , $.$.*.@.=.=.",
"@.@.@.-.' $.$.$.;.h >.,., , $.$.$.$.A &.c '., , $.).@.@.=.=.",
"!.!.!.!.~.$.$.$.$.$.{.{.{.{.$.$.$.$.$.$.{.{.{.{.].^.!.!././.",
"!.!.!.!./.(.$.$.$.$.{.{.{.{.$.$.$.$.$.$.{.{.{.{._./.!.!././.",
":.:.<.<.[.}.|.a a a a a {.{.a a a a a a a a 1.2.[.[.<.<.[.[.",
":.:.<.<.[.[.[.3.[ a a a {.{.a a a a a a a 4.5.<.[.[.<.<.[.[.",
"6.6.7.7.6.6.6.6.8.(.L L L L L L L L L L X <.7.7.6.6.7.7.6.6.",
"6.6.7.7.6.6.6.6.6.6.9.0.e a.' b.4.(.c.d.6.6.7.7.6.6.7.7.6.6.",
"e.e.f.f.g.g.g.g.g.g.e.e.f.f.g.g.g.g.g.g.e.e.f.f.g.g.f.f.g.g.",
"e.e.f.f.g.g.g.g.g.g.e.e.f.f.g.g.g.g.g.g.e.e.f.f.g.g.f.f.g.g."};
