/* XPM */
static char * close_pressed_xpm[] = {
"30 30 110 2",
"  	c None",
". 	c #5A87B5",
"+ 	c #5986B5",
"@ 	c #5986B4",
"# 	c #5885B3",
"$ 	c #5985B3",
"% 	c #5886B4",
"& 	c #5985B4",
"* 	c #5885B4",
"= 	c #4B76A1",
"- 	c #31577F",
"; 	c #1C3F63",
"> 	c #143558",
", 	c #0C2D4E",
"' 	c #0E2F51",
") 	c #16385B",
"! 	c #204469",
"~ 	c #375F88",
"{ 	c #507CAA",
"] 	c #507CA9",
"^ 	c #09294A",
"/ 	c #0A2A4B",
"( 	c #2D547A",
"_ 	c #5683B1",
": 	c #5884B3",
"< 	c #3C648E",
"[ 	c #0F2F51",
"} 	c #16385C",
"| 	c #48729E",
"1 	c #537FAC",
"2 	c #23476C",
"3 	c #0B2B4C",
"4 	c #30567E",
"5 	c #5884B2",
"6 	c #5883B2",
"7 	c #22466B",
"8 	c #365D86",
"9 	c #3C638D",
"0 	c #0D2D4F",
"a 	c #4D78A5",
"b 	c #5783B2",
"c 	c #5783B1",
"d 	c #4F7AA7",
"e 	c #415A73",
"f 	c #CDD3DA",
"g 	c #C3CBD3",
"h 	c #4D657C",
"i 	c #51687F",
"j 	c #DADFE4",
"k 	c #C4CCD4",
"l 	c #1D4064",
"m 	c #FFFFFF",
"n 	c #FBFCFC",
"o 	c #5A6F86",
"p 	c #5682B1",
"q 	c #49749F",
"r 	c #123356",
"s 	c #315880",
"t 	c #47709C",
"u 	c #5582B0",
"v 	c #1C4064",
"w 	c #FCFDFD",
"x 	c #325981",
"y 	c #143659",
"z 	c #284E74",
"A 	c #5581AF",
"B 	c #5580AF",
"C 	c #143658",
"D 	c #284D74",
"E 	c #5481AE",
"F 	c #325880",
"G 	c #5380AE",
"H 	c #2F567E",
"I 	c #446F9A",
"J 	c #46719D",
"K 	c #113355",
"L 	c #537FAD",
"M 	c #5380AD",
"N 	c #1F4367",
"O 	c #335A83",
"P 	c #4C78A3",
"Q 	c #537EAD",
"R 	c #527FAD",
"S 	c #386089",
"T 	c #0C2D4F",
"U 	c #49739F",
"V 	c #527FAC",
"W 	c #204569",
"X 	c #527DAB",
"Y 	c #527DAC",
"Z 	c #527EAB",
"` 	c #21456A",
" .	c #0A2B4C",
"..	c #2D537B",
"+.	c #527EAC",
"@.	c #38608A",
"#.	c #15375A",
"$.	c #436D98",
"%.	c #517DAB",
"&.	c #4A74A1",
"*.	c #1E4166",
"=.	c #2A4F76",
"-.	c #507BA8",
";.	c #456F9B",
">.	c #1A3D61",
",.	c #133457",
"'.	c #0C2C4E",
").	c #0E2E50",
"!.	c #15365A",
"~.	c #4A75A2",
". . . . . . + + + + . . . . . . + + + + . . + + + + . . . . ",
". . . . . . + + + + . . . . . . + + + + . . + + + + . . . . ",
"@ @ @ @ + + + + @ @ @ @ @ @ + + + + @ @ + + + + @ @ @ @ @ @ ",
"@ @ @ @ + + + + @ @ @ @ @ @ + + + + @ @ + + + + @ @ @ @ @ @ ",
"# # $ $ % % & & * * = - ; > , ' ) ! ~ { % % & & * * # # $ $ ",
"# # $ $ % % & & ] ! ^ ^ ^ ^ ^ ^ ^ ^ ^ / ( _ & & * * # # $ $ ",
"# # : : # # : < [ ^ ^ ^ ^ ^ ^ ^ ^ ^ ^ ^ ^ } | : : : # # : : ",
"# # : : # 1 2 ^ ^ ^ ^ ^ ^ ^ ^ ^ ^ ^ ^ ^ ^ ^ 3 4 : : # # : : ",
"5 5 : : 6 7 ^ ^ ^ ^ ^ ^ ^ ^ ^ ^ ^ ^ ^ ^ ^ ^ ^ ^ 8 : 5 5 : : ",
"5 5 : : 9 ^ ^ ^ ^ ^ ^ ^ ^ ^ ^ ^ ^ ^ ^ ^ ^ ^ ^ ^ 0 a 5 5 : : ",
"b b c d ' ^ ^ ^ e f g h ^ ^ ^ ^ ^ ^ i j k e ^ ^ ^ l b b c c ",
"b b c ! ^ ^ ^ ^ k m m n o ^ ^ ^ ^ o n m m f ^ ^ ^ ^ 8 b c c ",
"p p q ^ ^ ^ ^ ^ j m m m n o ^ ^ o n m m m g ^ ^ ^ ^ r p _ _ ",
"p p s ^ ^ ^ ^ ^ i n m m m n o o n m m m n h ^ ^ ^ ^ ^ t _ _ ",
"u u v ^ ^ ^ ^ ^ ^ o n m m m w w m m m n o ^ ^ ^ ^ ^ ^ x u u ",
"u u y ^ ^ ^ ^ ^ ^ ^ o n m m m m m m n o ^ ^ ^ ^ ^ ^ ^ z u u ",
"A A 0 ^ ^ ^ ^ ^ ^ ^ ^ o w m m m m w o ^ ^ ^ ^ ^ ^ ^ ^ ! A A ",
"A A 0 ^ ^ ^ ^ ^ ^ ^ ^ o w m m m m w o ^ ^ ^ ^ ^ ^ ^ ^ ! A A ",
"B B C ^ ^ ^ ^ ^ ^ ^ o n m m m m m m n o ^ ^ ^ ^ ^ ^ ^ D E E ",
"B B ; ^ ^ ^ ^ ^ ^ o n m m m w w m m m n o ^ ^ ^ ^ ^ ^ F E E ",
"G G H ^ ^ ^ ^ ^ h n m m m n o o n m m m n i ^ ^ ^ ^ ^ I G G ",
"G G J ^ ^ ^ ^ ^ g m m m n o ^ ^ o n m m m j ^ ^ ^ ^ K G G G ",
"L L M N ^ ^ ^ ^ f m m n o ^ ^ ^ ^ o n m m k ^ ^ ^ ^ O L M M ",
"L L M P ' ^ ^ ^ e k j i ^ ^ ^ ^ ^ ^ h g f e ^ ^ ^ ; L L M M ",
"Q Q R R S ^ ^ ^ ^ ^ ^ ^ ^ ^ ^ ^ ^ ^ ^ ^ ^ ^ ^ ^ T U Q Q R R ",
"Q Q R R V W ^ ^ ^ ^ ^ ^ ^ ^ ^ ^ ^ ^ ^ ^ ^ ^ ^ ^ O L Q Q R R ",
"X X Y Y Z a ` ^ ^ ^ ^ ^ ^ ^ ^ ^ ^ ^ ^ ^ ^ ^  ...Z Z X X Y Y ",
"X X Y Y Z Z +.@.' ^ ^ ^ ^ ^ ^ ^ ^ ^ ^ ^ ^ #.$.+.Z Z X X Y Y ",
"%.%.%.%.X X %.%.&.*.^ ^ ^ ^ ^ ^ ^ ^ ^ / =.-.%.%.%.%.%.%.%.%.",
"%.%.%.%.X X %.%.%.%.;...>.,.'.).!.*.O ~.X X %.%.%.%.%.%.%.%."};
