/* XPM */
static char * close_prelight_xpm[] = {
"30 30 106 2",
"  	c None",
". 	c #5A87B5",
"+ 	c #5986B5",
"@ 	c #5986B4",
"# 	c #4C76A2",
"$ 	c #31587F",
"% 	c #1C3F63",
"& 	c #143558",
"* 	c #0C2D4E",
"= 	c #0E2F51",
"- 	c #16385B",
"; 	c #204469",
"> 	c #385F88",
", 	c #517DAA",
"' 	c #517DA9",
") 	c #09294A",
"! 	c #0A2A4B",
"~ 	c #2E547B",
"{ 	c #5783B2",
"] 	c #5885B3",
"^ 	c #5985B3",
"/ 	c #5886B4",
"( 	c #5985B4",
"_ 	c #3D658F",
": 	c #0F2F51",
"< 	c #16395C",
"[ 	c #49739F",
"} 	c #5885B4",
"| 	c #5380AD",
"1 	c #23476D",
"2 	c #0B2B4C",
"3 	c #31577F",
"4 	c #5884B3",
"5 	c #22466C",
"6 	c #365D86",
"7 	c #3C648E",
"8 	c #0D2D4F",
"9 	c #4D78A5",
"0 	c #5884B2",
"a 	c #507BA9",
"b 	c #415A73",
"c 	c #CDD3DA",
"d 	c #C3CBD3",
"e 	c #4D657C",
"f 	c #51687F",
"g 	c #DADFE4",
"h 	c #C4CCD4",
"i 	c #1D4064",
"j 	c #FFFFFF",
"k 	c #FBFCFC",
"l 	c #5A6F86",
"m 	c #4A749F",
"n 	c #123356",
"o 	c #5783B1",
"p 	c #325880",
"q 	c #47719D",
"r 	c #5682B1",
"s 	c #FCFDFD",
"t 	c #325981",
"u 	c #5683B1",
"v 	c #143659",
"w 	c #294E75",
"x 	c #5582B0",
"y 	c #0D2E4F",
"z 	c #5581AF",
"A 	c #284D74",
"B 	c #1C3F64",
"C 	c #5580AF",
"D 	c #30577E",
"E 	c #466F9B",
"F 	c #5481AE",
"G 	c #47729D",
"H 	c #123355",
"I 	c #5380AE",
"J 	c #1F4368",
"K 	c #335B83",
"L 	c #4C78A4",
"M 	c #537FAD",
"N 	c #39608A",
"O 	c #0C2D4F",
"P 	c #49749F",
"Q 	c #547FAD",
"R 	c #21456A",
"S 	c #537EAD",
"T 	c #527FAD",
"U 	c #527FAC",
"V 	c #4D79A5",
"W 	c #0A2B4C",
"X 	c #2E537B",
"Y 	c #15375A",
"Z 	c #446D99",
"` 	c #527DAB",
" .	c #527DAC",
"..	c #527EAB",
"+.	c #527EAC",
"@.	c #4B75A1",
"#.	c #1E4266",
"$.	c #2A5076",
"%.	c #507CA8",
"&.	c #1A3D61",
"*.	c #133457",
"=.	c #0C2C4E",
"-.	c #0E2E50",
";.	c #345B83",
">.	c #4B76A2",
",.	c #517DAB",
". . . . . . + + + + . . . . . . + + + + . . + + + + . . . . ",
". . . . . . + + + + . . . . . . + + + + . . + + + + . . . . ",
"@ @ @ @ + + + + @ @ # $ % & * = - ; > , + + + + @ @ @ @ @ @ ",
"@ @ @ @ + + + + ' ; ) ) ) ) ) ) ) ) ) ! ~ { + + @ @ @ @ @ @ ",
"] ] ^ ^ / / ( _ : ) ) ) ) ) ) ) ) ) ) ) ) < [ ( } } ] ] ^ ^ ",
"] ] ^ ^ / | 1 ) ) ) ) ) ) ) ) ) ) ) ) ) ) ) 2 3 } } ] ] ^ ^ ",
"] ] 4 4 ] 5 ) ) ) ) ) ) ) ) ) ) ) ) ) ) ) ) ) ) 6 4 ] ] 4 4 ",
"] ] 4 4 7 ) ) ) ) ) ) ) ) ) ) ) ) ) ) ) ) ) ) ) 8 9 ] ] 4 4 ",
"0 0 4 a : ) ) ) b c d e ) ) ) ) ) ) f g h b ) ) ) i 0 0 4 4 ",
"0 0 4 ; ) ) ) ) h j j k l ) ) ) ) l k j j c ) ) ) ) 6 0 4 4 ",
"{ { m ) ) ) ) ) g j j j k l ) ) l k j j j d ) ) ) ) n { o o ",
"{ { p ) ) ) ) ) f k j j j k l l k j j j k e ) ) ) ) ) q o o ",
"r r i ) ) ) ) ) ) l k j j j s s j j j k l ) ) ) ) ) ) t u u ",
"r r v ) ) ) ) ) ) ) l k j j j j j j k l ) ) ) ) ) ) ) w u u ",
"x x y ) ) ) ) ) ) ) ) l s j j j j s l ) ) ) ) ) ) ) ) ; x x ",
"x x y ) ) ) ) ) ) ) ) l s j j j j s l ) ) ) ) ) ) ) ) ; x x ",
"z z v ) ) ) ) ) ) ) l k j j j j j j k l ) ) ) ) ) ) ) A z z ",
"z z B ) ) ) ) ) ) l k j j j s s j j j k l ) ) ) ) ) ) p z z ",
"C C D ) ) ) ) ) e k j j j k l l k j j j k f ) ) ) ) ) E F F ",
"C C G ) ) ) ) ) d j j j k l ) ) l k j j j g ) ) ) ) H C F F ",
"I I I J ) ) ) ) c j j k l ) ) ) ) l k j j h ) ) ) ) K I I I ",
"I I I L = ) ) ) b h g f ) ) ) ) ) ) e d c b ) ) ) % I I I I ",
"M M | | N ) ) ) ) ) ) ) ) ) ) ) ) ) ) ) ) ) ) ) O P M M | | ",
"M M | | Q R ) ) ) ) ) ) ) ) ) ) ) ) ) ) ) ) ) ) K | M M | | ",
"S S T T U V R ) ) ) ) ) ) ) ) ) ) ) ) ) ) ) W X M M S S T T ",
"S S T T U U S N = ) ) ) ) ) ) ) ) ) ) ) ) Y Z S M M S S T T ",
"` `  . .....+.+.@.#.) ) ) ) ) ) ) ) ) ! $.%.+.+.....` `  . .",
"` `  . .....+.+.....E X &.*.=.-.Y #.;.>.....+.+.....` `  . .",
",.,.,.,.` ` ,.,.,.,.,.,.,.,.` ` ,.,.,.,.` ` ,.,.,.,.,.,.,.,.",
",.,.,.,.` ` ,.,.,.,.,.,.,.,.` ` ,.,.,.,.` ` ,.,.,.,.,.,.,.,."};
