/* XPM */
static char * close_active_xpm[] = {
"30 30 129 2",
"  	c None",
". 	c #5A87B5",
"+ 	c #5986B5",
"@ 	c #5986B4",
"# 	c #759AC1",
"$ 	c #ACC2D9",
"% 	c #D8E3ED",
"& 	c #EAEFF5",
"* 	c #F9FBFC",
"= 	c #F5F8FB",
"- 	c #E5ECF3",
"; 	c #CFDCEA",
"> 	c #9EB8D3",
", 	c #6992BB",
"' 	c #6A92BC",
") 	c #FFFFFF",
"! 	c #FEFEFE",
"~ 	c #B3C8DD",
"{ 	c #5E89B7",
"] 	c #5885B3",
"^ 	c #5985B3",
"/ 	c #5886B4",
"( 	c #5985B4",
"_ 	c #94B0CE",
": 	c #F4F7FA",
"< 	c #E3EBF3",
"[ 	c #7A9DC3",
"} 	c #5885B4",
"| 	c #638EB9",
"1 	c #C9D7E7",
"2 	c #FCFDFE",
"3 	c #ADC3DA",
"4 	c #5884B3",
"5 	c #CAD8E7",
"6 	c #9FB9D3",
"7 	c #94B1CE",
"8 	c #F8FAFC",
"9 	c #6F95BD",
"0 	c #5884B2",
"a 	c #6890BA",
"b 	c #D8E2ED",
"c 	c #789ABF",
"d 	c #7E9FC2",
"e 	c #D0DCE9",
"f 	c #CCDAE7",
"g 	c #6D93B9",
"h 	c #7C9EC1",
"i 	c #D8E2EC",
"j 	c #D6E1EC",
"k 	c #5984B2",
"l 	c #CEDBE9",
"m 	c #7E9EC2",
"n 	c #5580AF",
"o 	c #5882B0",
"p 	c #C7D5E5",
"q 	c #C6D5E4",
"r 	c #5682AE",
"s 	c #5380AD",
"t 	c #769ABE",
"u 	c #5783B2",
"v 	c #7498BE",
"w 	c #6E93BB",
"x 	c #7D9FC1",
"y 	c #EDF1F7",
"z 	c #5783B1",
"A 	c #A8BFD7",
"B 	c #CDDAE7",
"C 	c #CFDCE8",
"D 	c #799CC1",
"E 	c #5682B1",
"F 	c #D5E0EB",
"G 	c #5781B0",
"H 	c #5681AE",
"I 	c #A5BCD5",
"J 	c #5683B1",
"K 	c #E7EDF4",
"L 	c #5480AE",
"M 	c #B9CCDF",
"N 	c #5582B0",
"O 	c #F7F9FB",
"P 	c #CCD9E7",
"Q 	c #5581AF",
"R 	c #B9CBDE",
"S 	c #D4DFEB",
"T 	c #A4BCD4",
"U 	c #A6BED5",
"V 	c #7799BF",
"W 	c #5481AE",
"X 	c #7297BC",
"Y 	c #ECF1F6",
"Z 	c #5380AE",
"` 	c #9DB6D1",
" .	c #648CB6",
"..	c #D5DFEB",
"+.	c #537FAD",
"@.	c #91ADCA",
"#.	c #F8FAFB",
"$.	c #6B91B8",
"%.	c #547FAD",
"&.	c #C9D6E5",
"*.	c #9DB6D0",
"=.	c #537EAD",
"-.	c #527FAD",
";.	c #527FAC",
">.	c #5E88B2",
",.	c #C7D5E4",
"'.	c #AABFD6",
").	c #5480AD",
"!.	c #90ACCA",
"~.	c #F4F6FA",
"{.	c #E3EAF1",
"].	c #7598BD",
"^.	c #527DAB",
"/.	c #527DAC",
"(.	c #527EAB",
"_.	c #527EAC",
":.	c #648BB4",
"<.	c #B0C4D9",
"[.	c #5782AD",
"}.	c #6F93B9",
"|.	c #A8BED5",
"1.	c #D6E0EB",
"2.	c #E9EEF4",
"3.	c #F9FAFC",
"4.	c #F5F7FA",
"5.	c #E4EBF2",
"6.	c #9AB4CE",
"7.	c #638BB3",
"8.	c #517DAB",
". . . . . . + + + + . . . . . . + + + + . . + + + + . . . . ",
". . . . . . + + + + . . . . . . + + + + . . + + + + . . . . ",
"@ @ @ @ + + + + @ @ # $ % & * = - ; > , + + + + @ @ @ @ @ @ ",
"@ @ @ @ + + + + ' ; ) ) ) ) ) ) ) ) ) ! ~ { + + @ @ @ @ @ @ ",
"] ] ^ ^ / / ( _ : ) ) ) ) ) ) ) ) ) ) ) ) < [ ( } } ] ] ^ ^ ",
"] ] ^ ^ / | 1 ) ) ) ) ) ) ) ) ) ) ) ) ) ) ) 2 3 ( } ] ] ^ ^ ",
"] ] 4 4 ] 5 ) ) ) ) ) ) ) ) ) ) ) ) ) ) ) ) ) ) 6 4 ] ] 4 4 ",
"] ] 4 4 7 ) ) ) ) ) ) ) ) ) ) ) ) ) ) ) ) ) ) ) 8 9 ] ] 4 4 ",
"0 0 4 a : ) ) ) b c d e ) ) ) ) ) ) f g h i ) ) ) j k 0 4 4 ",
"0 0 4 l ) ) ) ) m n n o p ) ) ) ) q r s s t ) ) ) ) 6 0 4 4 ",
"u u v ) ) ) ) ) w n n n o p ) ) q r s s s x ) ) ) ) y u z z ",
"u u A ) ) ) ) ) B o n n n o p q r s s s r C ) ) ) ) ) D z z ",
"E E F ) ) ) ) ) ) p o n n n G H s s s r q ) ) ) ) ) ) I J J ",
"E E K ) ) ) ) ) ) ) p o n n n n L s r q ) ) ) ) ) ) ) M J J ",
"N N O ) ) ) ) ) ) ) ) p G n n n n H q ) ) ) ) ) ) ) ) P N N ",
"N N O ) ) ) ) ) ) ) ) q H n n n n G p ) ) ) ) ) ) ) ) P N N ",
"Q Q K ) ) ) ) ) ) ) q r s L n n n n o p ) ) ) ) ) ) ) R Q Q ",
"Q Q S ) ) ) ) ) ) q r s s s H G n n n o p ) ) ) ) ) ) T Q Q ",
"n n U ) ) ) ) ) C r s s s r q p o n n n o B ) ) ) ) ) V W W ",
"n n X ) ) ) ) ) x s s s r q ) ) p o n n n w ) ) ) ) Y n W W ",
"Z Z Z f ) ) ) ) t s s r q ) ) ) ) p o n n m ) ) ) ) ` Z Z Z ",
"Z Z Z  .: ) ) ) i h g f ) ) ) ) ) ) e d c b ) ) ) ..L Z Z Z ",
"+.+.s s @.) ) ) ) ) ) ) ) ) ) ) ) ) ) ) ) ) ) ) #.$.+.+.s s ",
"+.+.s s %.&.) ) ) ) ) ) ) ) ) ) ) ) ) ) ) ) ) ) *.s +.+.s s ",
"=.=.-.-.;.>.,.) ) ) ) ) ) ) ) ) ) ) ) ) ) ) 2 '.).+.=.=.-.-.",
"=.=.-.-.;.;.=.!.~.) ) ) ) ) ) ) ) ) ) ) ) {.].=.+.+.=.=.-.-.",
"^.^././.(.(._._.:.B ) ) ) ) ) ) ) ) ) ! <.[._._.(.(.^.^././.",
"^.^././.(.(._._.(.(.}.|.1.2.3.4.5.B 6.7.(.(._._.(.(.^.^././.",
"8.8.8.8.^.^.8.8.8.8.8.8.8.8.^.^.8.8.8.8.^.^.8.8.8.8.8.8.8.8.",
"8.8.8.8.^.^.8.8.8.8.8.8.8.8.^.^.8.8.8.8.^.^.8.8.8.8.8.8.8.8."};
