/* XPM */
static char * hide_active_xpm[] = {
"28 30 42 1",
" 	c None",
".	c #5A87B5",
"+	c #5986B5",
"@	c #5986B4",
"#	c #5885B3",
"$	c #5985B3",
"%	c #5886B4",
"&	c #5985B4",
"*	c #5885B4",
"=	c #5884B3",
"-	c #5884B2",
";	c #5883B2",
">	c #5784B3",
",	c #5783B2",
"'	c #5783B1",
")	c #5682B1",
"!	c #5683B1",
"~	c #5682B0",
"{	c #5582B0",
"]	c #FFFFFF",
"^	c #5581AF",
"/	c #5581B0",
"(	c #5580AF",
"_	c #5481AE",
":	c #5480AF",
"<	c #5581AE",
"[	c #5481AF",
"}	c #5380AE",
"|	c #5480AE",
"1	c #547FAE",
"2	c #537FAD",
"3	c #5380AD",
"4	c #547FAD",
"5	c #5480AD",
"6	c #537EAD",
"7	c #527FAD",
"8	c #527FAC",
"9	c #527DAB",
"0	c #527DAC",
"a	c #527EAB",
"b	c #527EAC",
"c	c #517DAB",
"......+++......++++..+++....",
"......+++......++++..+++....",
"@@@@++++@@@@@++++@@++++@@@@@",
"@@@@++++@@@@@++++@@++++@@@@@",
"##$$%%&&**#$$@%&&**%%&&**#$$",
"##$$%%&&**#$$@%&&**%%&&**#$$",
"##==##===###=##====##===###=",
"##==##===###=##====##===###=",
"--==;;>===-===;>>==;;>===-==",
"--==;;>===-===;>>==;;>===-==",
",,''''''',,,'''''''''''',,,'",
",,''''''',,,'''''''''''',,,'",
"))!!~~!!)))!!!~!!))~~!!)))!!",
"))!!~~!!)))!!!~!!))~~!!)))!!",
"{{{{~~]]]]]]]]]]]]]]]]~~~{{{",
"{{{{~~]]]]]]]]]]]]]]]]~~~{{{",
"^^^^^^]]]]]]]]]]]]]]]]/^^^^^",
"^^^^^^]]]]]]]]]]]]]]]]/^^^^^",
"((__::<^:((^_[:<<::::<^:((^_",
"((__::<^:((^_[:<<::::<^:((^_",
"}}}}}}}|1|}}}}}}}11}}}|1|}}}",
"}}}}}}}|1|}}}}}}}11}}}|1|}}}",
"2233442333233542233442333233",
"2233442333233542233442333233",
"6677886222627786622886222627",
"6677886222627786622886222627",
"9900aabbaa900babbaaaabbaa900",
"9900aabbaa900babbaaaabbaa900",
"cccc99ccccccc99cccc99ccccccc",
"cccc99ccccccc99cccc99ccccccc"};
