/* XPM */
static char * menu_pressed_xpm[] = {
"30 30 48 1",
" 	c None",
".	c #5A87B5",
"+	c #5986B5",
"@	c #5986B4",
"#	c #5885B3",
"$	c #5985B3",
"%	c #5886B4",
"&	c #5985B4",
"*	c #5885B4",
"=	c #5884B3",
"-	c #5884B2",
";	c #5883B2",
">	c #06355B",
",	c #5783B2",
"'	c #5783B1",
")	c #5682B1",
"!	c #5683B1",
"~	c #5682B0",
"{	c #6D8FB3",
"]	c #5582B0",
"^	c #5581AF",
"/	c #2D5B86",
"(	c #2D5B85",
"_	c #5581B0",
":	c #5580AF",
"<	c #5481AE",
"[	c #5480AF",
"}	c #6188B1",
"|	c #396287",
"1	c #5581AE",
"2	c #5380AE",
"3	c #6187B1",
"4	c #6088B1",
"5	c #547FAE",
"6	c #537FAD",
"7	c #5380AD",
"8	c #547FAD",
"9	c #6087B0",
"0	c #6088B0",
"a	c #537EAD",
"b	c #527FAD",
"c	c #527FAC",
"d	c #527DAB",
"e	c #527DAC",
"f	c #527EAB",
"g	c #527EAC",
"h	c #6087AF",
"i	c #517DAB",
"......++++......++++..++++....",
"......++++......++++..++++....",
"@@@@++++@@@@@@++++@@++++@@@@@@",
"@@@@++++@@@@@@++++@@++++@@@@@@",
"##$$%%&&**##$$%%&&**%%&&**##$$",
"##$$%%&&**##$$%%&&**%%&&**##$$",
"##==##====##==##====##====##==",
"##==##====##==##====##====##==",
"--==;;>>>>>>>>>>>>>>>>>>==--==",
"--==;;>>>>>>>>>>>>>>>>>>==--==",
",,''''>>>>>>>>>>>>>>>>>>'',,''",
",,''''>>>>>>>>>>>>>>>>>>'',,''",
"))!!~~{{{{{{{{{{{{{{{{{{))))!!",
"))!!~~{{{{{{{{{{{{{{{{{{))))!!",
"]]]]~~]]~~]]]]~~]]~~~~]]~~]]]]",
"]]]]~~]]~~]]]]~~]]~~~~]]~~]]]]",
"^^^^^^/>>>>(^^^^__(>>>>/^^^^^^",
"^^^^^^_/>>>>(^^^_/>>>>/_^^^^^^",
"::<<[[}{|>>>>([[(>>>>|{}[[::<<",
"::<<[[1}{|>>>>((>>>>|{}1[[::<<",
"222222223{|>>>>>>>>|{422552222",
"2222222253{|>>>>>>|{4222552222",
"66778866779{|>>>>|{08866776677",
"667788667769{|>>|{078866776677",
"aabbccaa66aa9{||{966ccaa66aabb",
"aabbccaa66aab9{{9a66ccaa66aabb",
"ddeeffggffddeehhggffffggffddee",
"ddeeffggffddeeffggffffggffddee",
"iiiiddiiiiiiiiddiiiiddiiiiiiii",
"iiiiddiiiiiiiiddiiiiddiiiiiiii"};
