/* XPM */
static char * menu_prelight_xpm[] = {
"30 30 50 1",
" 	c None",
".	c #5A87B5",
"+	c #5986B5",
"@	c #5986B4",
"#	c #5885B3",
"$	c #5985B3",
"%	c #5886B4",
"&	c #5985B4",
"*	c #5885B4",
"=	c #5884B3",
"-	c #06355B",
";	c #5884B2",
">	c #5883B2",
",	c #5783B2",
"'	c #5783B1",
")	c #6D8FB3",
"!	c #5682B1",
"~	c #5683B1",
"{	c #5682B0",
"]	c #5582B0",
"^	c #2D5C86",
"/	c #2E5C86",
"(	c #5581AF",
"_	c #6188B2",
":	c #396287",
"<	c #2D5B85",
"[	c #2D5B86",
"}	c #5581B0",
"|	c #5580AF",
"1	c #5481AE",
"2	c #5480AF",
"3	c #5581AE",
"4	c #6188B1",
"5	c #5380AE",
"6	c #547FAE",
"7	c #6088B1",
"8	c #6187B1",
"9	c #537FAD",
"0	c #5380AD",
"a	c #547FAD",
"b	c #6088B0",
"c	c #6087B0",
"d	c #537EAD",
"e	c #527FAD",
"f	c #527FAC",
"g	c #527DAB",
"h	c #527DAC",
"i	c #527EAB",
"j	c #527EAC",
"k	c #517DAB",
"......++++......++++..++++....",
"......++++......++++..++++....",
"@@@@++++@@@@@@++++@@++++@@@@@@",
"@@@@++++@@@@@@++++@@++++@@@@@@",
"##$$%%&&**##$$%%&&**%%&&**##$$",
"##$$%%&&**##$$%%&&**%%&&**##$$",
"##==##------------------==##==",
"##==##------------------==##==",
";;==>>------------------==;;==",
";;==>>------------------==;;==",
",,''''))))))))))))))))))'',,''",
",,''''))))))))))))))))))'',,''",
"!!~~{{~~!!!!~~{{~~!!{{~~!!!!~~",
"!!~~{{~~!!!!~~{{~~!!{{~~!!!!~~",
"]]]]{{^----^]]{{]]/----^{{]]]]",
"]]]]{{]^----^]{{]^----^]{{]]]]",
"((((((_):----<(([----:)_((((((",
"((((((}_):----<<----:)_}((((((",
"||1122334):--------:)43322||11",
"||11223324):------:)423322||11",
"55555555667):----:)85555665555",
"555555556657):--:)865555665555",
"9900aa990099b)::)c00aa99009900",
"9900aa9900990b))c900aa99009900",
"ddeeffdd99ddeeccdd99ffdd99ddee",
"ddeeffdd99ddeeffdd99ffdd99ddee",
"gghhiijjiigghhiijjiiiijjiigghh",
"gghhiijjiigghhiijjiiiijjiigghh",
"kkkkggkkkkkkkkggkkkkggkkkkkkkk",
"kkkkggkkkkkkkkggkkkkggkkkkkkkk"};
