/* XPM */
static char * menu_inactive_xpm[] = {
"30 30 54 1",
" 	c None",
".	c #6C90B4",
"+	c #6C90B5",
"@	c #6C8FB5",
"#	c #6A8FB4",
"$	c #6A8EB4",
"%	c #6B8FB4",
"&	c #6B8EB4",
"*	c #698EB3",
"=	c #698DB3",
"-	c #678DB2",
";	c #678CB2",
">	c #93ADC9",
",	c #658BB1",
"'	c #668BB1",
")	c #658BB2",
"!	c #648AB1",
"~	c #648AB0",
"{	c #638AB1",
"]	c #6288B0",
"^	c #6289B0",
"/	c #6187AF",
"(	c #6087B0",
"_	c #6087AF",
":	c #7A9BBC",
"<	c #7A9ABC",
"[	c #6088AF",
"}	c #7A9ABD",
"|	c #5F86AF",
"1	c #5E86AF",
"2	c #799ABC",
"3	c #5F87AF",
"4	c #5D85AE",
"5	c #5D84AE",
"6	c #5D85AD",
"7	c #7899BC",
"8	c #7899BB",
"9	c #5C84AD",
"0	c #5B83AD",
"a	c #5B84AD",
"b	c #7799BB",
"c	c #5A82AC",
"d	c #5983AC",
"e	c #5A83AD",
"f	c #5A83AC",
"g	c #7698BB",
"h	c #5881AB",
"i	c #5881AC",
"j	c #5882AB",
"k	c #5680AB",
"l	c #5680AA",
"m	c #557EAA",
"n	c #557FAB",
"o	c #557FAA",
"....++++@@....++++@@....++..++",
"....++++@@....++++@@....++..++",
"####$$%%&&####$$%%&&####$$##$$",
"####$$%%&&####$$%%&&####$$##$$",
"**========**========**========",
"**========**========**========",
"--;;;;>>>>>>>>>>>>>>>>>>;;;;;;",
"--;;;;>>>>>>>>>>>>>>>>>>;;;;;;",
",,''))>>>>>>>>>>>>>>>>>>))''))",
",,''))>>>>>>>>>>>>>>>>>>))''))",
"!!~~{{~~!!!!~~{{~~!!!!~~{{~~{{",
"!!~~{{~~!!!!~~{{~~!!!!~~{{~~{{",
"]]]]^^^^^^]]]]^^^^^^]]]]^^]]^^",
"]]]]^^^^^^]]]]^^^^^^]]]]^^]]^^",
"//((__:>>>><((__[[:>>>>}__((__",
"//((__[:>>>>}(__[:>>>>}(__((__",
"||1111112>>>>2112>>>>211111111",
"||11111132>>>>22>>>>2|11111111",
"44445544667>>>>>>>>84444554455",
"444455446647>>>>>>864444554455",
"999900aaaa998>>>>baa9999009900",
"999900aaaa9998>>baaa9999009900",
"ccccddeeffccccggeeffccccddccdd",
"ccccddeeffccccddeeffccccddccdd",
"hhiijjjjhhhhiijjjjhhhhiijjiijj",
"hhiijjjjhhhhiijjjjhhhhiijjiijj",
"kkllkkkkkkkkllkkkkkkkkllkkllkk",
"kkllkkkkkkkkllkkkkkkkkllkkllkk",
"mmnnoooooommnnoooooommnnoonnoo",
"mmnnoooooommnnoooooommnnoonnoo"};
