/* XPM */
static char * menu_active_xpm[] = {
"30 30 44 1",
" 	c None",
".	c #5A87B5",
"+	c #5986B5",
"@	c #5986B4",
"#	c #5885B3",
"$	c #5985B3",
"%	c #5886B4",
"&	c #5985B4",
"*	c #5885B4",
"=	c #5884B3",
"-	c #FFFFFF",
";	c #5884B2",
">	c #5883B2",
",	c #5783B2",
"'	c #5783B1",
")	c #5682B1",
"!	c #5683B1",
"~	c #5682B0",
"{	c #5582B0",
"]	c #AAC1D8",
"^	c #ABC1D8",
"/	c #5581AF",
"(	c #5581B0",
"_	c #AAC0D7",
":	c #AAC0D8",
"<	c #5580AF",
"[	c #5481AE",
"}	c #5480AF",
"|	c #5581AE",
"1	c #5380AE",
"2	c #547FAE",
"3	c #A9C0D7",
"4	c #537FAD",
"5	c #5380AD",
"6	c #547FAD",
"7	c #AABFD6",
"8	c #537EAD",
"9	c #527FAD",
"0	c #527FAC",
"a	c #527DAB",
"b	c #527DAC",
"c	c #527EAB",
"d	c #527EAC",
"e	c #517DAB",
"......++++......++++..++++....",
"......++++......++++..++++....",
"@@@@++++@@@@@@++++@@++++@@@@@@",
"@@@@++++@@@@@@++++@@++++@@@@@@",
"##$$%%&&**##$$%%&&**%%&&**##$$",
"##$$%%&&**##$$%%&&**%%&&**##$$",
"##==##------------------==##==",
"##==##------------------==##==",
";;==>>------------------==;;==",
";;==>>------------------==;;==",
",,'''''''',,'''''''''''''',,''",
",,'''''''',,'''''''''''''',,''",
"))!!~~!!))))!!~~!!))~~!!))))!!",
"))!!~~!!))))!!~~!!))~~!!))))!!",
"{{{{~~]----]{{~~{{^----]~~{{{{",
"{{{{~~{]----]{~~{]----]{~~{{{{",
"//////((_----_//:----_((//////",
"//////((/_----__----_/((//////",
"<<[[}}||}}_--------_}}||}}<<[[",
"<<[[}}||}}<_------_}}}||}}<<[[",
"1111111122113----3221111221111",
"11111111221113--31221111221111",
"445566445544557744556644554455",
"445566445544556644556644554455",
"889900884488990088440088448899",
"889900884488990088440088448899",
"aabbccddccaabbccddccccddccaabb",
"aabbccddccaabbccddccccddccaabb",
"eeeeaaeeeeeeeeaaeeeeaaeeeeeeee",
"eeeeaaeeeeeeeeaaeeeeaaeeeeeeee"};
