/* XPM */
static char * right_inactive_xpm[] = {
"4 10 3 1",
" 	c None",
".	c #4E7AA7",
"+	c #385B80",
"..++",
"..++",
"..++",
"..++",
"..++",
"..++",
"..++",
"..++",
"..++",
"..++"};
