/* XPM */
static char * shade_prelight_xpm[] = {
"30 30 47 1",
" 	c None",
".	c #5A87B5",
"+	c #5986B5",
"@	c #5986B4",
"#	c #5885B3",
"$	c #5985B3",
"%	c #5886B4",
"&	c #5985B4",
"*	c #5885B4",
"=	c #5884B3",
"-	c #5884B2",
";	c #5883B2",
">	c #5784B3",
",	c #5783B2",
"'	c #5783B1",
")	c #2E5C86",
"!	c #5682B1",
"~	c #5683B1",
"{	c #5682B0",
"]	c #06355B",
"^	c #5582B0",
"/	c #2D5C86",
"(	c #5581AF",
"_	c #5581B0",
":	c #2D5B85",
"<	c #396287",
"[	c #6D8FB3",
"}	c #5580AF",
"|	c #5481AE",
"1	c #5480AF",
"2	c #5581AE",
"3	c #6188B1",
"4	c #5380AE",
"5	c #6088B1",
"6	c #547FAE",
"7	c #6187B1",
"8	c #537FAD",
"9	c #5380AD",
"0	c #547FAD",
"a	c #537EAD",
"b	c #527FAD",
"c	c #527FAC",
"d	c #527DAB",
"e	c #527DAC",
"f	c #527EAB",
"g	c #527EAC",
"h	c #517DAB",
"......++++......++++..++++....",
"......++++......++++..++++....",
"@@@@++++@@@@@@++++@@++++@@@@@@",
"@@@@++++@@@@@@++++@@++++@@@@@@",
"##$$%%&&**##$$%%&&**%%&&**##$$",
"##$$%%&&**##$$%%&&**%%&&**##$$",
"##==##====##==##====##====##==",
"##==##====##==##====##====##==",
"--==;;>>==--==;;>>==;;>>==--==",
"--==;;>>==--==;;>>==;;>>==--==",
",,'''''''',,'''''''''''''',,''",
",,'''''''',,''))'''''''''',,''",
"!!~~{{~~!!!!~)]])~!!{{~~!!!!~~",
"!!~~{{~~!!!!)]]]])!!{{~~!!!!~~",
"^^^^{{^^{{^/]]]]]]){{{^^{{^^^^",
"^^^^{{^^{{/]]]]]]]]){{^^{{^^^^",
"((((((__(:]]]]<<]]]]:(__((((((",
"((((((__:]]]]<[[<]]]]:__((((((",
"}}||112:]]]]<[33[<]]]]:211}}||",
"}}||11:]]]]<[3113[<]]]]:11}}||",
"44444445[[[[544445[[[[54664444",
"4444445[[[[54444447[[[[5664444",
"889900889988990088990088998899",
"889900889988990088990088998899",
"aabbccaa88aabbccaa88ccaa88aabb",
"aabbccaa88aabbccaa88ccaa88aabb",
"ddeeffggffddeeffggffffggffddee",
"ddeeffggffddeeffggffffggffddee",
"hhhhddhhhhhhhhddhhhhddhhhhhhhh",
"hhhhddhhhhhhhhddhhhhddhhhhhhhh"};
