/* XPM */
static char * shade_toggled_active_xpm[] = {
"30 30 43 1",
" 	c None",
".	c #5A87B5",
"+	c #5986B5",
"@	c #5986B4",
"#	c #5885B3",
"$	c #5985B3",
"%	c #5886B4",
"&	c #5985B4",
"*	c #5885B4",
"=	c #5884B3",
"-	c #5884B2",
";	c #5883B2",
">	c #5784B3",
",	c #5783B2",
"'	c #5783B1",
")	c #5682B1",
"!	c #5683B1",
"~	c #5682B0",
"{	c #ABC1D8",
"]	c #FFFFFF",
"^	c #5582B0",
"/	c #AAC1D8",
"(	c #5581AF",
"_	c #5581B0",
":	c #AAC0D7",
"<	c #5580AF",
"[	c #5481AE",
"}	c #5480AF",
"|	c #5581AE",
"1	c #5380AE",
"2	c #547FAE",
"3	c #A9C0D7",
"4	c #537FAD",
"5	c #5380AD",
"6	c #547FAD",
"7	c #537EAD",
"8	c #527FAD",
"9	c #527FAC",
"0	c #527DAB",
"a	c #527DAC",
"b	c #527EAB",
"c	c #527EAC",
"d	c #517DAB",
"......++++......++++..++++....",
"......++++......++++..++++....",
"@@@@++++@@@@@@++++@@++++@@@@@@",
"@@@@++++@@@@@@++++@@++++@@@@@@",
"##$$%%&&**##$$%%&&**%%&&**##$$",
"##$$%%&&**##$$%%&&**%%&&**##$$",
"##==##====##==##====##====##==",
"##==##====##==##====##====##==",
"--==;;>>==--==;;>>==;;>>==--==",
"--==;;>>==--==;;>>==;;>>==--==",
",,'''''''',,'''''''''''''',,''",
",,'''''''',,'''''''''''''',,''",
"))!!~~{]]]]{!!~~!!{]]]]{))))!!",
"))!!~~!{]]]]{!~~!{]]]]{!))))!!",
"^^^^~~^^{]]]]/~~/]]]]{^^~~^^^^",
"^^^^~~^^~{]]]]{{]]]]{~^^~~^^^^",
"((((((__((:]]]]]]]]:((__((((((",
"((((((__(((:]]]]]]:(((__((((((",
"<<[[}}||}}<<:]]]]:}}}}||}}<<[[",
"<<[[}}||}}<<[:]]:|}}}}||}}<<[[",
"111111112211113311221111221111",
"111111112211111111221111221111",
"445566445544556644556644554455",
"445566445544556644556644554455",
"778899774477889977449977447788",
"778899774477889977449977447788",
"00aabbccbb00aabbccbbbbccbb00aa",
"00aabbccbb00aabbccbbbbccbb00aa",
"dddd00dddddddd00dddd00dddddddd",
"dddd00dddddddd00dddd00dddddddd"};
