/* XPM */
static char * shade_toggled_prelight_xpm[] = {
"30 30 47 1",
" 	c None",
".	c #5A87B5",
"+	c #5986B5",
"@	c #5986B4",
"#	c #5885B3",
"$	c #5985B3",
"%	c #5886B4",
"&	c #5985B4",
"*	c #5885B4",
"=	c #5884B3",
"-	c #5884B2",
";	c #5883B2",
">	c #5784B3",
",	c #5783B2",
"'	c #5783B1",
")	c #5682B1",
"!	c #5683B1",
"~	c #5682B0",
"{	c #2E5C86",
"]	c #06355B",
"^	c #5582B0",
"/	c #6189B2",
"(	c #6D8FB3",
"_	c #396287",
":	c #2D5C86",
"<	c #5581AF",
"[	c #5581B0",
"}	c #6188B1",
"|	c #5580AF",
"1	c #5481AE",
"2	c #5480AF",
"3	c #5581AE",
"4	c #5380AE",
"5	c #547FAE",
"6	c #6088B1",
"7	c #537FAD",
"8	c #5380AD",
"9	c #547FAD",
"0	c #6187B0",
"a	c #537EAD",
"b	c #527FAD",
"c	c #527FAC",
"d	c #527DAB",
"e	c #527DAC",
"f	c #527EAB",
"g	c #527EAC",
"h	c #517DAB",
"......++++......++++..++++....",
"......++++......++++..++++....",
"@@@@++++@@@@@@++++@@++++@@@@@@",
"@@@@++++@@@@@@++++@@++++@@@@@@",
"##$$%%&&**##$$%%&&**%%&&**##$$",
"##$$%%&&**##$$%%&&**%%&&**##$$",
"##==##====##==##====##====##==",
"##==##====##==##====##====##==",
"--==;;>>==--==;;>>==;;>>==--==",
"--==;;>>==--==;;>>==;;>>==--==",
",,'''''''',,'''''''''''''',,''",
",,'''''''',,'''''''''''''',,''",
"))!!~~{]]]]{!!~~!!{]]]]{))))!!",
"))!!~~!{]]]]{!~~!{]]]]{!))))!!",
"^^^^~~/(_]]]]:~~:]]]]_(/~~^^^^",
"^^^^~~^/(_]]]]{{]]]]_(/^~~^^^^",
"<<<<<<[[}(_]]]]]]]]_(}[[<<<<<<",
"<<<<<<[[<}(_]]]]]]_(}<[[<<<<<<",
"||11223322}(_]]]]_(}223322||11",
"||11223322|}(_]]_(}2223322||11",
"4444444455446(__(6554444554444",
"44444444554446((64554444554444",
"778899778877880077889977887788",
"778899778877889977889977887788",
"aabbccaa77aabbccaa77ccaa77aabb",
"aabbccaa77aabbccaa77ccaa77aabb",
"ddeeffggffddeeffggffffggffddee",
"ddeeffggffddeeffggffffggffddee",
"hhhhddhhhhhhhhddhhhhddhhhhhhhh",
"hhhhddhhhhhhhhddhhhhddhhhhhhhh"};
