/* XPM */
static char * shade_inactive_xpm[] = {
"30 30 52 1",
" 	c None",
".	c #6C90B4",
"+	c #6C90B5",
"@	c #6C8FB5",
"#	c #6A8FB4",
"$	c #6A8EB4",
"%	c #6B8FB4",
"&	c #6B8EB4",
"*	c #698EB3",
"=	c #698DB3",
"-	c #678DB2",
";	c #678CB2",
">	c #658BB1",
",	c #668BB1",
"'	c #658BB2",
")	c #648AB1",
"!	c #648AB0",
"~	c #638AB1",
"{	c #7B9CBD",
"]	c #6288B0",
"^	c #6289B0",
"/	c #7B9BBD",
"(	c #93ADC9",
"_	c #6187AF",
":	c #6087B0",
"<	c #6087AF",
"[	c #6088AF",
"}	c #7A9ABC",
"|	c #7A9BBC",
"1	c #5F86AF",
"2	c #5E86AF",
"3	c #5F87AF",
"4	c #799ABC",
"5	c #5D85AE",
"6	c #5D84AE",
"7	c #7899BC",
"8	c #7899BB",
"9	c #5C84AD",
"0	c #5B83AD",
"a	c #5B84AD",
"b	c #5A82AC",
"c	c #5983AC",
"d	c #5A83AD",
"e	c #5A83AC",
"f	c #5881AB",
"g	c #5881AC",
"h	c #5882AB",
"i	c #5680AB",
"j	c #5680AA",
"k	c #557EAA",
"l	c #557FAB",
"m	c #557FAA",
"....++++@@....++++@@....++..++",
"....++++@@....++++@@....++..++",
"####$$%%&&####$$%%&&####$$##$$",
"####$$%%&&####$$%%&&####$$##$$",
"**========**========**========",
"**========**========**========",
"--;;;;--;;--;;;;--;;--;;;;;;;;",
"--;;;;--;;--;;;;--;;--;;;;;;;;",
">>,,''>>>>>>,,''>>>>>>,,'',,''",
">>,,''>>>>>>,,''>>>>>>,,'',,''",
"))!!~~!!))))!!~~!!))))!!~~!!~~",
"))!!~~!!))))!!{{!!))))!!~~!!~~",
"]]]]^^^^^^]]]/((/^^^]]]]^^]]^^",
"]]]]^^^^^^]]/((((/^^]]]]^^]]^^",
"__::<<[[[[_}((((((|[__::<<::<<",
"__::<<[[[[}((((((((|__::<<::<<",
"1122222234((((44((((4122222222",
"112222224((((4224((((422222222",
"55556657((((756657((((75665566",
"5555667((((75566558((((7665566",
"999900aaaa999900aaaa9999009900",
"999900aaaa999900aaaa9999009900",
"bbbbccddeebbbbccddeebbbbccbbcc",
"bbbbccddeebbbbccddeebbbbccbbcc",
"ffgghhhhffffgghhhhffffgghhgghh",
"ffgghhhhffffgghhhhffffgghhgghh",
"iijjiiiiiiiijjiiiiiiiijjiijjii",
"iijjiiiiiiiijjiiiiiiiijjiijjii",
"kkllmmmmmmkkllmmmmmmkkllmmllmm",
"kkllmmmmmmkkllmmmmmmkkllmmllmm"};
