/* XPM */
static char * shade_toggled_pressed_xpm[] = {
"30 30 51 1",
" 	c None",
".	c #5A87B5",
"+	c #5986B5",
"@	c #5986B4",
"#	c #5885B3",
"$	c #5985B3",
"%	c #5886B4",
"&	c #5985B4",
"*	c #5885B4",
"=	c #5884B3",
"-	c #5884B2",
";	c #5883B2",
">	c #5784B3",
",	c #5783B2",
"'	c #5783B1",
")	c #5682B1",
"!	c #5683B1",
"~	c #5682B0",
"{	c #5582B0",
"]	c #2D5C86",
"^	c #06355B",
"/	c #2E5C86",
"(	c #5581AF",
"_	c #6188B2",
":	c #6D8FB3",
"<	c #396287",
"[	c #2D5B85",
"}	c #2D5B86",
"|	c #5581B0",
"1	c #5580AF",
"2	c #5481AE",
"3	c #5480AF",
"4	c #5581AE",
"5	c #6188B1",
"6	c #5380AE",
"7	c #547FAE",
"8	c #6088B1",
"9	c #6187B1",
"0	c #537FAD",
"a	c #5380AD",
"b	c #547FAD",
"c	c #6088B0",
"d	c #6087B0",
"e	c #537EAD",
"f	c #527FAD",
"g	c #527FAC",
"h	c #527DAB",
"i	c #527DAC",
"j	c #527EAB",
"k	c #527EAC",
"l	c #517DAB",
"......++++......++++..++++....",
"......++++......++++..++++....",
"@@@@++++@@@@@@++++@@++++@@@@@@",
"@@@@++++@@@@@@++++@@++++@@@@@@",
"##$$%%&&**##$$%%&&**%%&&**##$$",
"##$$%%&&**##$$%%&&**%%&&**##$$",
"##==##====##==##====##====##==",
"##==##====##==##====##====##==",
"--==;;>>==--==;;>>==;;>>==--==",
"--==;;>>==--==;;>>==;;>>==--==",
",,'''''''',,'''''''''''''',,''",
",,'''''''',,'''''''''''''',,''",
"))!!~~!!))))!!~~!!))~~!!))))!!",
"))!!~~!!))))!!~~!!))~~!!))))!!",
"{{{{~~]^^^^]{{~~{{/^^^^]~~{{{{",
"{{{{~~{]^^^^]{~~{]^^^^]{~~{{{{",
"((((((_:<^^^^[((}^^^^<:_((((((",
"((((((|_:<^^^^[[^^^^<:_|((((((",
"112233445:<^^^^^^^^<:544331122",
"1122334435:<^^^^^^<:5344331122",
"66666666778:<^^^^<:96666776666",
"666666667768:<^^<:976666776666",
"00aabb00aa00c:<<:daabb00aa00aa",
"00aabb00aa00ac::d0aabb00aa00aa",
"eeffggee00eeffddee00ggee00eeff",
"eeffggee00eeffggee00ggee00eeff",
"hhiijjkkjjhhiijjkkjjjjkkjjhhii",
"hhiijjkkjjhhiijjkkjjjjkkjjhhii",
"llllhhllllllllhhllllhhllllllll",
"llllhhllllllllhhllllhhllllllll"};
