/* XPM */
static char * shade_toggled_inactive_xpm[] = {
"30 30 53 1",
" 	c None",
".	c #6C90B4",
"+	c #6C90B5",
"@	c #6C8FB5",
"#	c #6A8FB4",
"$	c #6A8EB4",
"%	c #6B8FB4",
"&	c #6B8EB4",
"*	c #698EB3",
"=	c #698DB3",
"-	c #678DB2",
";	c #678CB2",
">	c #658BB1",
",	c #668BB1",
"'	c #658BB2",
")	c #648AB1",
"!	c #648AB0",
"~	c #638AB1",
"{	c #6288B0",
"]	c #6289B0",
"^	c #7B9BBD",
"/	c #93ADC9",
"(	c #6187AF",
"_	c #6087B0",
":	c #6087AF",
"<	c #6088AF",
"[	c #7A9BBC",
"}	c #7A9ABD",
"|	c #7A9ABC",
"1	c #5F86AF",
"2	c #5E86AF",
"3	c #5F87AF",
"4	c #799ABC",
"5	c #5D85AE",
"6	c #5D84AE",
"7	c #5D85AD",
"8	c #7899BC",
"9	c #5C84AD",
"0	c #5B83AD",
"a	c #5B84AD",
"b	c #7798BB",
"c	c #5A82AC",
"d	c #5983AC",
"e	c #5A83AD",
"f	c #5A83AC",
"g	c #5881AB",
"h	c #5881AC",
"i	c #5882AB",
"j	c #5680AB",
"k	c #5680AA",
"l	c #557EAA",
"m	c #557FAB",
"n	c #557FAA",
"....++++@@....++++@@....++..++",
"....++++@@....++++@@....++..++",
"####$$%%&&####$$%%&&####$$##$$",
"####$$%%&&####$$%%&&####$$##$$",
"**========**========**========",
"**========**========**========",
"--;;;;--;;--;;;;--;;--;;;;;;;;",
"--;;;;--;;--;;;;--;;--;;;;;;;;",
">>,,''>>>>>>,,''>>>>>>,,'',,''",
">>,,''>>>>>>,,''>>>>>>,,'',,''",
"))!!~~!!))))!!~~!!))))!!~~!!~~",
"))!!~~!!))))!!~~!!))))!!~~!!~~",
"{{{{]]^////^{{]]]]^////^]]{{]]",
"{{{{]]]^////^{]]]^////^{]]{{]]",
"((__::<<[////}::[////|__::__::",
"((__::<<<[////||////|(__::__::",
"11222222334////////41122222222",
"112222223314//////431122222222",
"5555665577558////8775555665566",
"55556655775558//85775555665566",
"999900aaaa9999bbaaaa9999009900",
"999900aaaa999900aaaa9999009900",
"ccccddeeffccccddeeffccccddccdd",
"ccccddeeffccccddeeffccccddccdd",
"gghhiiiigggghhiiiigggghhiihhii",
"gghhiiiigggghhiiiigggghhiihhii",
"jjkkjjjjjjjjkkjjjjjjjjkkjjkkjj",
"jjkkjjjjjjjjkkjjjjjjjjkkjjkkjj",
"llmmnnnnnnllmmnnnnnnllmmnnmmnn",
"llmmnnnnnnllmmnnnnnnllmmnnmmnn"};
