/* XPM */
static char * shade_pressed_xpm[] = {
"30 30 48 1",
" 	c None",
".	c #5A87B5",
"+	c #5986B5",
"@	c #5986B4",
"#	c #5885B3",
"$	c #5985B3",
"%	c #5886B4",
"&	c #5985B4",
"*	c #5885B4",
"=	c #5884B3",
"-	c #5884B2",
";	c #5883B2",
">	c #5784B3",
",	c #5783B2",
"'	c #5783B1",
")	c #5682B1",
"!	c #5683B1",
"~	c #5682B0",
"{	c #2E5C86",
"]	c #5582B0",
"^	c #2D5C86",
"/	c #06355B",
"(	c #5581AF",
"_	c #5581B0",
":	c #2D5B85",
"<	c #5580AF",
"[	c #5481AE",
"}	c #5480AF",
"|	c #5581AE",
"1	c #396287",
"2	c #6D8FB3",
"3	c #5380AE",
"4	c #2C5B85",
"5	c #6088B1",
"6	c #547FAE",
"7	c #537FAD",
"8	c #5380AD",
"9	c #547FAD",
"0	c #6087B0",
"a	c #6088B0",
"b	c #537EAD",
"c	c #527FAD",
"d	c #527FAC",
"e	c #527DAB",
"f	c #527DAC",
"g	c #527EAB",
"h	c #527EAC",
"i	c #517DAB",
"......++++......++++..++++....",
"......++++......++++..++++....",
"@@@@++++@@@@@@++++@@++++@@@@@@",
"@@@@++++@@@@@@++++@@++++@@@@@@",
"##$$%%&&**##$$%%&&**%%&&**##$$",
"##$$%%&&**##$$%%&&**%%&&**##$$",
"##==##====##==##====##====##==",
"##==##====##==##====##====##==",
"--==;;>>==--==;;>>==;;>>==--==",
"--==;;>>==--==;;>>==;;>>==--==",
",,'''''''',,'''''''''''''',,''",
",,'''''''',,'''''''''''''',,''",
"))!!~~!!))))!!~~!!))~~!!))))!!",
"))!!~~!!))))!!{{!!))~~!!))))!!",
"]]]]~~]]~~]]]^//^]~~~~]]~~]]]]",
"]]]]~~]]~~]]^////^~~~~]]~~]]]]",
"((((((__(((://////:(((__((((((",
"((((((__((:////////:((__((((((",
"<<[[}}||}:////11////:}||}}<<[[",
"<<[[}}||:////1221////:||}}<<[[",
"33333334////125521////43663333",
"3333334////12533521////4663333",
"778899702222a89970222207887788",
"778899022220889977a22220887788",
"bbccddbb77bbccddbb77ddbb77bbcc",
"bbccddbb77bbccddbb77ddbb77bbcc",
"eeffgghhggeeffgghhgggghhggeeff",
"eeffgghhggeeffgghhgggghhggeeff",
"iiiieeiiiiiiiieeiiiieeiiiiiiii",
"iiiieeiiiiiiiieeiiiieeiiiiiiii"};
