/* XPM */
static char * stick_active_xpm[] = {
"28 30 100 2",
"  	c None",
". 	c #5A87B5",
"+ 	c #5986B5",
"@ 	c #5986B4",
"# 	c #5885B3",
"$ 	c #5985B3",
"% 	c #5886B4",
"& 	c #5985B4",
"* 	c #5885B4",
"= 	c #5884B3",
"- 	c #658FB9",
"; 	c #8CABCB",
"> 	c #AEC4DA",
", 	c #D1DDEA",
"' 	c #658EB9",
") 	c #5884B2",
"! 	c #5883B2",
"~ 	c #5784B3",
"{ 	c #96B2CF",
"] 	c #F5F8FA",
"^ 	c #FFFFFF",
"/ 	c #F5F8FB",
"( 	c #618AB7",
"_ 	c #CBD9E7",
": 	c #6189B6",
"< 	c #5783B2",
"[ 	c #5783B1",
"} 	c #BECFE1",
"| 	c #F1F4F8",
"1 	c #88A7C8",
"2 	c #6A91BA",
"3 	c #5682B1",
"4 	c #5683B1",
"5 	c #5682B0",
"6 	c #EBF0F6",
"7 	c #9CB5D1",
"8 	c #6990B9",
"9 	c #CCD9E7",
"0 	c #6991BA",
"a 	c #5582B0",
"b 	c #8CAAC9",
"c 	c #8AA9C8",
"d 	c #8BA9C9",
"e 	c #ADC2D9",
"f 	c #6B92BA",
"g 	c #6B91BA",
"h 	c #5581AF",
"i 	c #9CB6D1",
"j 	c #799CC0",
"k 	c #5581B0",
"l 	c #7A9CC0",
"m 	c #A1B9D3",
"n 	c #7A9CC1",
"o 	c #5580AF",
"p 	c #5481AE",
"q 	c #5480AF",
"r 	c #5984B2",
"s 	c #FCFDFE",
"t 	c #F4F7FA",
"u 	c #678DB7",
"v 	c #5481AF",
"w 	c #5581AE",
"x 	c #668DB7",
"y 	c #5A85B2",
"z 	c #C0D1E1",
"A 	c #DEE7F0",
"B 	c #6F94BB",
"C 	c #6F94BA",
"D 	c #5380AE",
"E 	c #5E88B3",
"F 	c #ECF1F6",
"G 	c #F9FBFC",
"H 	c #BDCEE0",
"I 	c #9AB4CF",
"J 	c #5480AE",
"K 	c #547FAE",
"L 	c #83A3C4",
"M 	c #82A3C4",
"N 	c #537FAD",
"O 	c #5380AD",
"P 	c #547FAD",
"Q 	c #779ABE",
"R 	c #E3EBF2",
"S 	c #789ABE",
"T 	c #5884B0",
"U 	c #ADC2D8",
"V 	c #DFE8F0",
"W 	c #DFE7F0",
"X 	c #537EAD",
"Y 	c #527FAD",
"Z 	c #527FAC",
"` 	c #5783B0",
" .	c #789BBF",
"..	c #789BBE",
"+.	c #5882B0",
"@.	c #527DAB",
"#.	c #527DAC",
"$.	c #527EAB",
"%.	c #527EAC",
"&.	c #517DAB",
". . . . . . + + + . . . . . . + + + + . . + + + . . . . ",
". . . . . . + + + . . . . . . + + + + . . + + + . . . . ",
"@ @ @ @ + + + + @ @ @ @ @ + + + + @ @ + + + + @ @ @ @ @ ",
"@ @ @ @ + + + + @ @ @ @ @ + + + + @ @ + + + + @ @ @ @ @ ",
"# # $ $ % % & & * * # $ $ @ % & & * * % % & & * * # $ $ ",
"# # $ $ % % & & * * # $ $ @ % & & * * % % & & * * # $ $ ",
"# # = = # # = = = # # # = # # = = = = # # = = = # # # = ",
"# # = = # # = = = # - ; > , , > ; ' = # # = = = # # # = ",
") ) = = ! ! ~ = = { ] ^ ^ ^ ^ ^ ^ / { ! ! ~ = = = ) = = ",
") ) = = ! ! ~ ( _ ^ ^ ^ ^ ^ ^ ^ ^ ^ ^ _ : ~ = = = ) = = ",
"< < [ [ [ [ [ } ^ ^ ^ ^ ^ | | ^ ^ ^ ^ ^ } [ [ [ < < < [ ",
"< < [ [ [ [ 1 ^ ^ ^ ^ } 2 [ [ 2 } ^ ^ ^ ^ 1 [ [ < < < [ ",
"3 3 4 4 5 5 6 ^ ^ ^ 7 4 4 4 5 4 4 7 ^ ^ ^ 6 4 3 3 3 4 4 ",
"3 3 4 4 5 8 ^ ^ ^ 9 3 4 4 4 5 4 4 3 9 ^ ^ ^ 0 3 3 3 4 4 ",
"a a a a 5 b ^ ^ ^ c a a a 5 5 a a 5 d ^ ^ ^ b 5 5 a a a ",
"a a a a 5 e ^ ^ ^ f a a a 5 5 a a 5 g ^ ^ ^ e 5 5 a a a ",
"h h h h h i ^ ^ ^ j h h h h h k k h j ^ ^ ^ i h h h h h ",
"h h h h h l ^ ^ ^ m h h h h h k k h m ^ ^ ^ n h h h h h ",
"o o p p q r s ^ ^ t u h p v q w w x t ^ ^ s y q o o h p ",
"o o p p q q z ^ ^ ^ A B p v q w C A ^ ^ ^ z h q o o h p ",
"D D D D D D E F ^ ^ ^ G H I I H G ^ ^ ^ F E J K J D D D ",
"D D D D D D D L s ^ ^ ^ ^ ^ ^ ^ ^ ^ ^ s M D J K J D D D ",
"N N O O P P N O Q R ^ ^ ^ ^ ^ ^ ^ ^ R S P N O O O N O O ",
"N N O O P P N O O T U V s ^ ^ s W U T P P N O O O N O O ",
"X X Y Y Z Z X N N N X N `  ...+.X N N Z Z X N N N X N Y ",
"X X Y Y Z Z X N N N X N Y Y Z X X N N Z Z X N N N X N Y ",
"@.@.#.#.$.$.%.%.$.$.@.#.#.%.$.%.%.$.$.$.$.%.%.$.$.@.#.#.",
"@.@.#.#.$.$.%.%.$.$.@.#.#.%.$.%.%.$.$.$.$.%.%.$.$.@.#.#.",
"&.&.&.&.@.@.&.&.&.&.&.&.&.@.@.&.&.&.&.@.@.&.&.&.&.&.&.&.",
"&.&.&.&.@.@.&.&.&.&.&.&.&.@.@.&.&.&.&.@.@.&.&.&.&.&.&.&."};
