/* XPM */
static char * stick_inactive_xpm[] = {
"28 30 91 1",
" 	c None",
".	c #6C90B4",
"+	c #6C90B5",
"@	c #6C8FB5",
"#	c #6A8FB4",
"$	c #6A8EB4",
"%	c #6B8FB4",
"&	c #6B8EB4",
"*	c #698EB3",
"=	c #698DB3",
"-	c #678DB2",
";	c #678CB2",
">	c #6B90B4",
",	c #7597B9",
"'	c #7E9EBE",
")	c #87A4C3",
"!	c #658BB1",
"~	c #668BB1",
"{	c #658BB2",
"]	c #7697BA",
"^	c #90ABC7",
"/	c #93ADC9",
"(	c #668BB2",
"_	c #84A2C2",
":	c #648AB1",
"<	c #648AB0",
"[	c #638AB1",
"}	c #81A0C0",
"|	c #8FAAC7",
"1	c #7294B7",
"2	c #6A8EB3",
"3	c #6288B0",
"4	c #6289B0",
"5	c #8EA9C6",
"6	c #7797BB",
"7	c #7798BB",
"8	c #688DB3",
"9	c #85A2C1",
"0	c #6187AF",
"a	c #6087B0",
"b	c #6087AF",
"c	c #7193B7",
"d	c #7194B7",
"e	c #6187B0",
"f	c #6088AF",
"g	c #7093B7",
"h	c #7193B8",
"i	c #7B9BBC",
"j	c #668CB2",
"k	c #7B9BBD",
"l	c #5F86AF",
"m	c #5E86AF",
"n	c #7597BA",
"o	c #6A8FB5",
"p	c #5F87AF",
"q	c #5D85AE",
"r	c #5D84AE",
"s	c #5F85AF",
"t	c #92ACC9",
"u	c #8FAAC8",
"v	c #6389B1",
"w	c #6389B0",
"x	c #7F9EBF",
"y	c #89A6C3",
"z	c #5C84AD",
"A	c #5B83AD",
"B	c #5E87AF",
"C	c #8DA8C6",
"D	c #91ACC8",
"E	c #7395B9",
"F	c #7394B9",
"G	c #5B84AD",
"H	c #6B8FB5",
"I	c #5A82AC",
"J	c #5983AC",
"K	c #5A83AD",
"L	c #89A6C5",
"M	c #5A83AC",
"N	c #7898BB",
"O	c #89A5C4",
"P	c #7899BB",
"Q	c #5881AB",
"R	c #5881AC",
"S	c #5882AB",
"T	c #5A82AD",
"U	c #5882AC",
"V	c #5680AB",
"W	c #5680AA",
"X	c #557EAA",
"Y	c #557FAB",
"Z	c #557FAA",
"....++++@+...++++@@...+++.++",
"....++++@+...++++@@...+++.++",
"####$$%%&%####$%%&&####$###$",
"####$$%%&%####$%%&&####$###$",
"**=======***=======**=======",
"**=======***=======**=======",
"--;;;;--;---;;;--;;--;;;;;;;",
"--;;;;--;->,'))',%;--;;;;;;;",
"!!~~{{!!!]^//////^]!!~({(~({",
"!!~~{{!-_//////////_-~({(~({",
"::<<[[<}/////||/////}<:[:<:[",
"::<<[[1////}2:[2}////1:[:<:[",
"3333445///63344447///5444344",
"333348///9333444449///844344",
"00aabc///d0eaabfffg///hbaaab",
"00aabi///-0eaabfffj///kbaaab",
"llmmmn///ollmmmmmpo///nmmmmm",
"llmmm$///7llmmmmmp7///$mmmmm",
"qqqqrst//uvqqqrqqwu//tlrqqqr",
"qqqqrrx///y{qqrq{y///xqrqqqr",
"zzzzAABC///D'EF'D///CpzAzzzA",
"zzzzAAGot//////////tHzzAzzzA",
"IIIIJJKKjL////////L(IIMJMIMJ",
"IIIIJJKKMzNOt//tOPzIIIMJMIMJ",
"QQRRSSSSQQQRT{!MSQQQQRUSURUS",
"QQRRSSSSQQQRRUSSSQQQQRUSURUS",
"VVWWVVVVVVVVWVVVVVVVVWVVVWVV",
"VVWWVVVVVVVVWVVVVVVVVWVVVWVV",
"XXYYZZZZZZXYYYZZZZZXXYYZYYYZ",
"XXYYZZZZZZXYYYZZZZZXXYYZYYYZ"};
