/* XPM */
static char * stick_toggled_active_xpm[] = {
"28 30 121 2",
"  	c None",
". 	c #5A87B5",
"+ 	c #5986B5",
"@ 	c #5986B4",
"# 	c #5885B3",
"$ 	c #5985B3",
"% 	c #5886B4",
"& 	c #5985B4",
"* 	c #5885B4",
"= 	c #5884B3",
"- 	c #799DC2",
"; 	c #ACC2D9",
"> 	c #658FB9",
", 	c #8CABCB",
"' 	c #AEC4DA",
") 	c #D1DDEA",
"! 	c #6C94BC",
"~ 	c #BCCEE1",
"{ 	c #FFFFFF",
"] 	c #5884B2",
"^ 	c #5883B2",
"/ 	c #5784B3",
"( 	c #96B2CF",
"_ 	c #F5F8FA",
": 	c #6F94BD",
"< 	c #5F8AB7",
"[ 	c #F7F9FB",
"} 	c #ACC1D9",
"| 	c #618AB7",
"1 	c #CBD9E7",
"2 	c #9AB5D1",
"3 	c #ABC2D9",
"4 	c #5783B2",
"5 	c #5783B1",
"6 	c #BECFE1",
"7 	c #F0F4F8",
"8 	c #7B9DC2",
"9 	c #DDE6EF",
"0 	c #ABC1D8",
"a 	c #88A7C8",
"b 	c #6A91BA",
"c 	c #799CC1",
"d 	c #5682B1",
"e 	c #5683B1",
"f 	c #5682B0",
"g 	c #EBF0F6",
"h 	c #9CB5D1",
"i 	c #BBCDE0",
"j 	c #789BC1",
"k 	c #6990B9",
"l 	c #CCD9E7",
"m 	c #5E88B4",
"n 	c #9AB4D0",
"o 	c #5E89B5",
"p 	c #5582B0",
"q 	c #8CAAC9",
"r 	c #8AA9C8",
"s 	c #BBCDDF",
"t 	c #789BC0",
"u 	c #ADC2D9",
"v 	c #6B92BA",
"w 	c #99B4D0",
"x 	c #5D88B4",
"y 	c #5B86B2",
"z 	c #AAC0D7",
"A 	c #668FB8",
"B 	c #5581AF",
"C 	c #9CB6D1",
"D 	c #799CC0",
"E 	c #5581B0",
"F 	c #7A9CC0",
"G 	c #98B2CF",
"H 	c #A1B9D3",
"I 	c #7A9CC1",
"J 	c #5580AF",
"K 	c #5481AE",
"L 	c #5480AF",
"M 	c #5984B2",
"N 	c #FCFDFE",
"O 	c #F4F7FA",
"P 	c #678DB7",
"Q 	c #5481AF",
"R 	c #5581AE",
"S 	c #668DB7",
"T 	c #5A85B2",
"U 	c #C0D1E1",
"V 	c #DEE7F0",
"W 	c #6F94BB",
"X 	c #6F94BA",
"Y 	c #5380AE",
"Z 	c #5E88B3",
"` 	c #ECF1F6",
" .	c #F9FBFC",
"..	c #BDCEE0",
"+.	c #9AB4CF",
"@.	c #5480AE",
"#.	c #547FAE",
"$.	c #83A3C4",
"%.	c #82A3C4",
"&.	c #537FAD",
"*.	c #5380AD",
"=.	c #547FAD",
"-.	c #779ABE",
";.	c #E3EBF2",
">.	c #789ABE",
",.	c #5884B0",
"'.	c #ADC2D8",
").	c #DFE8F0",
"!.	c #DFE7F0",
"~.	c #537EAD",
"{.	c #527FAD",
"].	c #527FAC",
"^.	c #5783B0",
"/.	c #789BBF",
"(.	c #789BBE",
"_.	c #5882B0",
":.	c #527DAB",
"<.	c #527DAC",
"[.	c #527EAB",
"}.	c #527EAC",
"|.	c #517DAB",
". . . . . . + + + . . . . . . + + + + . . + + + . . . . ",
". . . . . . + + + . . . . . . + + + + . . + + + . . . . ",
"@ @ @ @ + + + + @ @ @ @ @ + + + + @ @ + + + + @ @ @ @ @ ",
"@ @ @ @ + + + + @ @ @ @ @ + + + + @ @ + + + + @ @ @ @ @ ",
"# # $ $ % % & & * * # $ $ @ % & & * * % % & & * * # $ $ ",
"# # $ $ % % & & * * # $ $ @ % & & * * % % & & * * # $ $ ",
"# # = = # # = = = # # # = # # = = - ; # # = = = # # # = ",
"# # = = # # = = = # > , ' ) ! = = ~ { ; # = = = # # # = ",
"] ] = = ^ ^ / = = ( _ { { { : / < [ { { } / = = = ] = = ",
"] ] = = ^ ^ / | 1 { { { { { : / 2 { { { { 3 = = = ] = = ",
"4 4 5 5 5 5 5 6 { { { { { 7 8 5 9 { { { { { 0 5 4 4 4 5 ",
"4 4 5 5 5 5 a { { { { 6 b 5 5 c { { { { { { { 0 4 4 4 5 ",
"d d e e f f g { { { h e e e f i { { { { { [ i j d d e e ",
"d d e e f k { { { l d e e e m [ { { { 9 n o e d d d e e ",
"p p p p f q { { { r p p p f n { [ s t f f p f f f p p p ",
"p p p p f u { { { v p p p f s w x f y z a A f f f p p p ",
"B B B B B C { { { D B B B B B E E B F { { { G B B B B B ",
"B B B B B F { { { H B B B B B E E B H { { { I B B B B B ",
"J J K K L M N { { O P B K Q L R R S O { { N T L J J B K ",
"J J K K L L U { { { V W K Q L R X V { { { U B L J J B K ",
"Y Y Y Y Y Y Z ` { { {  ...+.+... .{ { { ` Z @.#.@.Y Y Y ",
"Y Y Y Y Y Y Y $.N { { { { { { { { { { N %.Y @.#.@.Y Y Y ",
"&.&.*.*.=.=.&.*.-.;.{ { { { { { { { ;.>.=.&.*.*.*.&.*.*.",
"&.&.*.*.=.=.&.*.*.,.'.).N { { N !.'.,.=.=.&.*.*.*.&.*.*.",
"~.~.{.{.].].~.&.&.&.~.&.^./.(._.~.&.&.].].~.&.&.&.~.&.{.",
"~.~.{.{.].].~.&.&.&.~.&.{.{.].~.~.&.&.].].~.&.&.&.~.&.{.",
":.:.<.<.[.[.}.}.[.[.:.<.<.}.[.}.}.[.[.[.[.}.}.[.[.:.<.<.",
":.:.<.<.[.[.}.}.[.[.:.<.<.}.[.}.}.[.[.[.[.}.}.[.[.:.<.<.",
"|.|.|.|.:.:.|.|.|.|.|.|.|.:.:.|.|.|.|.:.:.|.|.|.|.|.|.|.",
"|.|.|.|.:.:.|.|.|.|.|.|.|.:.:.|.|.|.|.:.:.|.|.|.|.|.|.|."};
