/* XPM */
static char * stick_toggled_pressed_xpm[] = {
"28 30 143 2",
"  	c None",
". 	c #5A87B5",
"+ 	c #5986B5",
"@ 	c #5986B4",
"# 	c #5885B3",
"$ 	c #5985B3",
"% 	c #5886B4",
"& 	c #5985B4",
"* 	c #5885B4",
"= 	c #5884B3",
"- 	c #5884B2",
"; 	c #5883B2",
"> 	c #5784B3",
", 	c #5480AF",
"' 	c #4E7AA8",
") 	c #5582B0",
"! 	c #4673A0",
"~ 	c #547FAE",
"{ 	c #37658F",
"] 	c #103F66",
"^ 	c #4E7AA7",
"/ 	c #5783B2",
"( 	c #5783B1",
"_ 	c #5481AF",
": 	c #2D5B84",
"< 	c #15436B",
"[ 	c #07365D",
"} 	c #06355B",
"| 	c #4B78A4",
"1 	c #18456D",
"2 	c #4D7AA6",
"3 	c #46739F",
"4 	c #134169",
"5 	c #4E79A5",
"6 	c #4774A0",
"7 	c #5682B1",
"8 	c #5683B1",
"9 	c #5682B0",
"0 	c #406E99",
"a 	c #4975A0",
"b 	c #28567E",
"c 	c #4C7AA6",
"d 	c #517EAC",
"e 	c #0F3D64",
"f 	c #0A385E",
"g 	c #2E587D",
"h 	c #436B8F",
"i 	c #527DA9",
"j 	c #527FAD",
"k 	c #0B395F",
"l 	c #4C79A6",
"m 	c #23517A",
"n 	c #1A466C",
"o 	c #5D81A6",
"p 	c #6D8FB3",
"q 	c #6B8EB3",
"r 	c #5B84B1",
"s 	c #36648E",
"t 	c #07365C",
"u 	c #29577F",
"v 	c #5380AD",
"w 	c #0D3B61",
"x 	c #6286AA",
"y 	c #648AB2",
"z 	c #5783B0",
"A 	c #113F65",
"B 	c #396287",
"C 	c #6285A9",
"D 	c #6389B2",
"E 	c #5581AF",
"F 	c #44709D",
"G 	c #3F678C",
"H 	c #5F87B1",
"I 	c #45729E",
"J 	c #245075",
"K 	c #4F7499",
"L 	c #698CB1",
"M 	c #6188B2",
"N 	c #5883B1",
"O 	c #35618C",
"P 	c #51799F",
"Q 	c #28557D",
"R 	c #668AB2",
"S 	c #5A84AF",
"T 	c #5581B0",
"U 	c #5580AF",
"V 	c #5481AE",
"W 	c #305B85",
"X 	c #527AA5",
"Y 	c #4C749B",
"Z 	c #6188B1",
"` 	c #5782B0",
" .	c #4B77A5",
"..	c #08375D",
"+.	c #16446C",
"@.	c #26537C",
"#.	c #44719D",
"$.	c #446D96",
"%.	c #3F6A95",
"&.	c #5A83B0",
"*.	c #5581AE",
"=.	c #3C6996",
"-.	c #3C6994",
";.	c #5380AE",
">.	c #547DA6",
",.	c #1F4D75",
"'.	c #5480AE",
").	c #5983AF",
"!.	c #124065",
"~.	c #33618B",
"{.	c #5A83AF",
"].	c #537FAD",
"^.	c #547FAD",
"/.	c #4E7599",
"(.	c #24527A",
"_.	c #4B77A3",
":.	c #5480AD",
"<.	c #6489B1",
"[.	c #0C3B62",
"}.	c #537EAD",
"|.	c #527FAC",
"1.	c #557FAD",
"2.	c #6589AE",
"3.	c #265176",
"4.	c #6C8FB3",
"5.	c #466E92",
"6.	c #0C3A61",
"7.	c #5983AE",
"8.	c #527DAB",
"9.	c #527DAC",
"0.	c #527EAB",
"a.	c #527EAC",
"b.	c #5882AC",
"c.	c #688CB1",
"d.	c #6488AC",
"e.	c #4D7398",
"f.	c #386085",
"g.	c #224E74",
"h.	c #6087AF",
"i.	c #688CB2",
"j.	c #517DAB",
"k.	c #517DAC",
"l.	c #5881AC",
". . . . . . + + + . . . . . . + + + + . . + + + . . . . ",
". . . . . . + + + . . . . . . + + + + . . + + + . . . . ",
"@ @ @ @ + + + + @ @ @ @ @ + + + + @ @ + + + + @ @ @ @ @ ",
"@ @ @ @ + + + + @ @ @ @ @ + + + + @ @ + + + + @ @ @ @ @ ",
"# # $ $ % % & & * * # $ $ @ % & & * * % % & & * * # $ $ ",
"# # $ $ % % & & * * # $ $ @ % & & * * % % & & * * # $ $ ",
"# # = = # # = = = # # # = # # = = = = # # = = = # # # = ",
"# # = = # # = = = # # # = # # = = = = # # = = = # # # = ",
"- - = = ; ; > = = = - = = = ; > > , ' ; ; > = = = - = = ",
"- - = = ; ; > = = = - = ) ! ~ > > { ] ^ ; > = = = - = = ",
"/ / ( ( ( ( ( ( ( _ : < [ } | ( ( 1 } ] 2 ( ( ( / / / ( ",
"/ / ( ( ( ( ( ( 3 4 } } } } 5 ( 6 } } } ] 2 ( ( / / / ( ",
"7 7 8 8 9 9 8 0 [ } } } } } a 8 b } } } } ] c 7 7 7 8 8 ",
"7 7 8 8 9 9 d e } } } f g h i j k } } } } } ] l 7 7 8 8 ",
") ) ) ) 9 9 m } } } n o p q r s } } } } } } t u 9 ) ) ) ",
") ) ) ) 9 v [ } } w x y z 9 9 1 } } } } A B C D 9 ) ) ) ",
"E E E E E F } } } G H E E E I } } t J K L M N E E E E E ",
"E E E E E O } } } P E E E E Q A B C R S E T T E E E E E ",
"U U V V , W } } } X U E V _ Y L Z `  ...+.@.#., U U E V ",
"U U V V , $.} } } %.U E V _ &.*.*., =.} } } -., U U E V ",
";.;.;.;.;.>.} } } ,.;.;.;.;.;.;.;.~ ,.} } } >.~ '.;.;.;.",
";.;.;.;.;.).!.} } } ~.;.;.;.;.;.;.~.} } } !.{.~ '.;.;.;.",
"].].v v ^.~ /.} } } } (._.:.^._.(.} } } } /.;.v v ].v v ",
"].].v v ^.^.<.g } } } } } [.[.} } } } } g <.v v v ].v v ",
"}.}.j j |.|.1.2.3.} } } } } } } } } } 3.2.1.].].].}.].j ",
"}.}.j j |.|.}.{.4.5.6.} } } } } } 6.5.4.7.}.].].].}.].j ",
"8.8.9.9.0.0.a.a.b.c.d.e.f.g.g.f.e.d.c.b.0.a.a.0.0.8.9.9.",
"8.8.9.9.0.0.a.a.0.a.h.i.4.p p 4.i.h.a.0.0.a.a.0.0.8.9.9.",
"j.j.j.j.8.8.j.j.j.j.j.j.k.l.l.k.j.j.j.8.8.j.j.j.j.j.j.j.",
"j.j.j.j.8.8.j.j.j.j.j.j.j.8.8.j.j.j.j.8.8.j.j.j.j.j.j.j."};
