/* XPM */
static char * stick_toggled_prelight_xpm[] = {
"28 30 151 2",
"  	c None",
". 	c #5A87B5",
"+ 	c #5986B5",
"@ 	c #5986B4",
"# 	c #5885B3",
"$ 	c #5985B3",
"% 	c #5886B4",
"& 	c #5985B4",
"* 	c #5885B4",
"= 	c #5884B3",
"- 	c #4775A1",
"; 	c #2F5D87",
"> 	c #517FAC",
", 	c #3E6C98",
"' 	c #2D5B85",
") 	c #1D4B74",
"! 	c #4E7BA8",
"~ 	c #29567F",
"{ 	c #06355B",
"] 	c #5884B2",
"^ 	c #5883B2",
"/ 	c #5784B3",
"( 	c #396792",
"_ 	c #0B3A60",
": 	c #4E79A6",
"< 	c #5380AF",
"[ 	c #0B3A5F",
"} 	c #2F5C87",
"| 	c #5480AF",
"1 	c #1F4E76",
"2 	c #507AA6",
"3 	c #37658F",
"4 	c #2E5D87",
"5 	c #5783B2",
"6 	c #5783B1",
"7 	c #26537D",
"8 	c #0F3D63",
"9 	c #48749F",
"0 	c #18456D",
"a 	c #2E5C86",
"b 	c #3F6C98",
"c 	c #2E587D",
"d 	c #6285A9",
"e 	c #6D8FB3",
"f 	c #5B85B1",
"g 	c #4774A0",
"h 	c #5682B1",
"i 	c #5683B1",
"j 	c #5682B0",
"k 	c #0F3F65",
"l 	c #426A8E",
"m 	c #6C8FB3",
"n 	c #648AB2",
"o 	c #5F88B2",
"p 	c #5883B0",
"q 	c #28567E",
"r 	c #30597F",
"s 	c #4F79A0",
"t 	c #4D79A6",
"u 	c #255076",
"v 	c #698DB3",
"w 	c #5A85B1",
"x 	c #527EAC",
"y 	c #0B395F",
"z 	c #1B476D",
"A 	c #436B8F",
"B 	c #6789AF",
"C 	c #638AB2",
"D 	c #5B85B2",
"E 	c #5582B0",
"F 	c #3D6A95",
"G 	c #4D7298",
"H 	c #36648E",
"I 	c #587DA1",
"J 	c #688CB2",
"K 	c #6087B2",
"L 	c #5683B0",
"M 	c #2F5C85",
"N 	c #567EA6",
"O 	c #2A567E",
"P 	c #638AB1",
"Q 	c #5883AE",
"R 	c #2F5C86",
"S 	c #3E6B97",
"T 	c #4D7AA7",
"U 	c #5581AF",
"V 	c #3A648D",
"W 	c #48739E",
"X 	c #5F86B2",
"Y 	c #44709D",
"Z 	c #36638F",
"` 	c #4D769F",
" .	c #34608A",
"..	c #5581B0",
"+.	c #33608A",
"@.	c #48739F",
"#.	c #5580AF",
"$.	c #5481AE",
"%.	c #5982AD",
"&.	c #08365D",
"*.	c #0C3A61",
"=.	c #4D78A6",
"-.	c #5481AF",
";.	c #5581AE",
">.	c #4C78A6",
",.	c #5A83AD",
"'.	c #5681AF",
").	c #2C567B",
"!.	c #15446C",
"~.	c #4975A2",
"{.	c #4975A1",
"].	c #5782AF",
"^.	c #5380AE",
"/.	c #6387AD",
"(.	c #113F65",
"_.	c #09385E",
":.	c #24527B",
"<.	c #33618B",
"[.	c #5480AE",
"}.	c #547FAE",
"|.	c #5B84B0",
"1.	c #51779B",
"2.	c #537FAD",
"3.	c #5380AD",
"4.	c #547FAD",
"5.	c #6389B1",
"6.	c #577CA1",
"7.	c #174369",
"8.	c #6488B1",
"9.	c #5580AD",
"0.	c #658BB2",
"a.	c #6A8DB0",
"b.	c #376085",
"c.	c #19456B",
"d.	c #658AB2",
"e.	c #5680AD",
"f.	c #537EAD",
"g.	c #527FAD",
"h.	c #527FAC",
"i.	c #5D85B0",
"j.	c #6C8EB2",
"k.	c #567CA0",
"l.	c #557FAD",
"m.	c #5B84AF",
"n.	c #6087B0",
"o.	c #668AB1",
"p.	c #5B83AF",
"q.	c #527DAB",
"r.	c #527DAC",
"s.	c #527EAB",
"t.	c #517DAB",
". . . . . . + + + . . . . . . + + + + . . + + + . . . . ",
". . . . . . + + + . . . . . . + + + + . . + + + . . . . ",
"@ @ @ @ + + + + @ @ @ @ @ + + + + @ @ + + + + @ @ @ @ @ ",
"@ @ @ @ + + + + @ @ @ @ @ + + + + @ @ + + + + @ @ @ @ @ ",
"# # $ $ % % & & * * # $ $ @ % & & * * % % & & * * # $ $ ",
"# # $ $ % % & & * * # $ $ @ % & & * * % % & & * * # $ $ ",
"# # = = # # = = = # # # = # # = = - ; # # = = = # # # = ",
"# # = = # # = = = # > , ' ) ! = = ~ { ; # = = = # # # = ",
"] ] = = ^ ^ / = = ( _ { { { : / < [ { { } / = = = ] = = ",
"] ] = = ^ ^ / | 1 { { { { { 2 / 3 { { { { 4 = = = ] = = ",
"5 5 6 6 6 6 6 7 { { { { { 8 9 6 0 { { { { { a 6 5 5 5 6 ",
"5 5 6 6 6 6 b { { { { c d e f g { { { { { { { a 5 5 5 6 ",
"h h i i j j k { { { l m n o p q { { { { { [ r s h h i i ",
"h h i i j t { { { u v w i i x y { { { z A B C D h h i i ",
"E E E E j F { { { G p E E j H { [ r I J K L j j j E E E ",
"E E E E j M { { { N E E E j O A B P Q R S T j j j E E E ",
"U U U U U V { { { W U U U U P X j U Y { { { Z U U U U U ",
"U U U U U ` { { {  .U U U U U ....U +.{ { { @.U U U U U ",
"#.#.$.$.| %.&.{ { *.=.U $.-.| ;.;.>.*.{ { &.,.| #.#.U $.",
"#.#.$.$.| '.).{ { { !.~.$.-.| ;.{.!.{ { { ).].| #.#.U $.",
"^.^.^.^.^.^./.(.{ { { _.:.<.<.:._.{ { { (./.[.}.[.^.^.^.",
"^.^.^.^.^.^.|.1.&.{ { { { { { { { { { &.1.|.[.}.[.^.^.^.",
"2.2.3.3.4.4.2.5.6.7.{ { { { { { { { 7.6.8.2.3.3.3.2.3.3.",
"2.2.3.3.4.4.2.9.0.a.b.c.&.{ { &.c.b.a.d.e.2.3.3.3.2.3.3.",
"f.f.g.g.h.h.f.2.2.i.j.e a.k.k.a.e j.i.h.h.f.2.2.2.f.2.g.",
"f.f.g.g.h.h.f.2.2.2.l.m.n.o.o.n.p.9.2.h.h.f.2.2.2.f.2.g.",
"q.q.r.r.s.s.x x s.s.q.r.r.x s.x x s.s.s.s.x x s.s.q.r.r.",
"q.q.r.r.s.s.x x s.s.q.r.r.x s.x x s.s.s.s.x x s.s.q.r.r.",
"t.t.t.t.q.q.t.t.t.t.t.t.t.q.q.t.t.t.t.q.q.t.t.t.t.t.t.t.",
"t.t.t.t.q.q.t.t.t.t.t.t.t.q.q.t.t.t.t.q.q.t.t.t.t.t.t.t."};
