/* XPM */
static char * stick_prelight_xpm[] = {
"28 30 118 2",
"  	c None",
". 	c #5A87B5",
"+ 	c #5986B5",
"@ 	c #5986B4",
"# 	c #5885B3",
"$ 	c #5985B3",
"% 	c #5886B4",
"& 	c #5985B4",
"* 	c #5885B4",
"= 	c #5884B3",
"- 	c #517FAC",
"; 	c #3E6C98",
"> 	c #2D5B85",
", 	c #1D4B74",
"' 	c #517EAC",
") 	c #5884B2",
"! 	c #5883B2",
"~ 	c #5784B3",
"{ 	c #396792",
"] 	c #0B3A60",
"^ 	c #06355B",
"/ 	c #0B3A61",
"( 	c #5480AF",
"_ 	c #1F4E76",
": 	c #547FAE",
"< 	c #5783B2",
"[ 	c #5783B1",
"} 	c #26537D",
"| 	c #0E3C62",
"1 	c #3F6C98",
"2 	c #2E587D",
"3 	c #6285A9",
"4 	c #6D8FB3",
"5 	c #5682B1",
"6 	c #5683B1",
"7 	c #5682B0",
"8 	c #0F3F65",
"9 	c #426A8E",
"0 	c #6C8FB3",
"a 	c #648AB2",
"b 	c #6088B2",
"c 	c #6087B2",
"d 	c #4D79A6",
"e 	c #255076",
"f 	c #698DB3",
"g 	c #5A85B1",
"h 	c #4D7AA7",
"i 	c #5582B0",
"j 	c #3D6A95",
"k 	c #4D7298",
"l 	c #5883B0",
"m 	c #5983B0",
"n 	c #4C7298",
"o 	c #2F5C85",
"p 	c #567EA6",
"q 	c #567DA6",
"r 	c #5581AF",
"s 	c #3A648D",
"t 	c #48739E",
"u 	c #5581B0",
"v 	c #4D769F",
"w 	c #34608A",
"x 	c #4D76A0",
"y 	c #5580AF",
"z 	c #5481AE",
"A 	c #5982AD",
"B 	c #08365D",
"C 	c #0C3A61",
"D 	c #4D78A6",
"E 	c #5481AF",
"F 	c #5581AE",
"G 	c #4C78A6",
"H 	c #5A83AD",
"I 	c #5681AF",
"J 	c #2C567B",
"K 	c #15446C",
"L 	c #4975A2",
"M 	c #4975A1",
"N 	c #5782AF",
"O 	c #5380AE",
"P 	c #6387AD",
"Q 	c #113F65",
"R 	c #09385E",
"S 	c #24527B",
"T 	c #33618B",
"U 	c #5480AE",
"V 	c #5B84B0",
"W 	c #51779B",
"X 	c #537FAD",
"Y 	c #5380AD",
"Z 	c #547FAD",
"` 	c #6389B1",
" .	c #577CA1",
"..	c #174369",
"+.	c #6488B1",
"@.	c #5580AD",
"#.	c #658BB2",
"$.	c #6A8DB0",
"%.	c #376085",
"&.	c #19456B",
"*.	c #658AB2",
"=.	c #5680AD",
"-.	c #537EAD",
";.	c #527FAD",
">.	c #527FAC",
",.	c #5D85B0",
"'.	c #6C8EB2",
").	c #567CA0",
"!.	c #557FAD",
"~.	c #5B84AF",
"{.	c #6087B0",
"].	c #668AB1",
"^.	c #5B83AF",
"/.	c #527DAB",
"(.	c #527DAC",
"_.	c #527EAB",
":.	c #527EAC",
"<.	c #517DAB",
". . . . . . + + + . . . . . . + + + + . . + + + . . . . ",
". . . . . . + + + . . . . . . + + + + . . + + + . . . . ",
"@ @ @ @ + + + + @ @ @ @ @ + + + + @ @ + + + + @ @ @ @ @ ",
"@ @ @ @ + + + + @ @ @ @ @ + + + + @ @ + + + + @ @ @ @ @ ",
"# # $ $ % % & & * * # $ $ @ % & & * * % % & & * * # $ $ ",
"# # $ $ % % & & * * # $ $ @ % & & * * % % & & * * # $ $ ",
"# # = = # # = = = # # # = # # = = = = # # = = = # # # = ",
"# # = = # # = = = # - ; > , , > ; ' = # # = = = # # # = ",
") ) = = ! ! ~ = = { ] ^ ^ ^ ^ ^ ^ / { ! ! ~ = = = ) = = ",
") ) = = ! ! ~ ( _ ^ ^ ^ ^ ^ ^ ^ ^ ^ ^ _ : ~ = = = ) = = ",
"< < [ [ [ [ [ } ^ ^ ^ ^ ^ | | ^ ^ ^ ^ ^ } [ [ [ < < < [ ",
"< < [ [ [ [ 1 ^ ^ ^ ^ 2 3 4 4 3 2 ^ ^ ^ ^ 1 [ [ < < < [ ",
"5 5 6 6 7 7 8 ^ ^ ^ 9 0 a b c a 0 9 ^ ^ ^ 8 6 5 5 5 6 6 ",
"5 5 6 6 7 d ^ ^ ^ e f g 6 6 7 6 g f e ^ ^ ^ h 5 5 5 6 6 ",
"i i i i 7 j ^ ^ ^ k l i i 7 7 i i m n ^ ^ ^ j 7 7 i i i ",
"i i i i 7 o ^ ^ ^ p i i i 7 7 i i 7 q ^ ^ ^ o 7 7 i i i ",
"r r r r r s ^ ^ ^ t r r r r r u u r t ^ ^ ^ s r r r r r ",
"r r r r r v ^ ^ ^ w r r r r r u u r w ^ ^ ^ x r r r r r ",
"y y z z ( A B ^ ^ C D r z E ( F F G C ^ ^ B H ( y y r z ",
"y y z z ( I J ^ ^ ^ K L z E ( F M K ^ ^ ^ J N ( y y r z ",
"O O O O O O P Q ^ ^ ^ R S T T S R ^ ^ ^ Q P U : U O O O ",
"O O O O O O V W B ^ ^ ^ ^ ^ ^ ^ ^ ^ ^ B W V U : U O O O ",
"X X Y Y Z Z X `  ...^ ^ ^ ^ ^ ^ ^ ^ .. .+.X Y Y Y X Y Y ",
"X X Y Y Z Z X @.#.$.%.&.B ^ ^ B &.%.$.*.=.X Y Y Y X Y Y ",
"-.-.;.;.>.>.-.X X ,.'.4 $.).).$.4 '.,.>.>.-.X X X -.X ;.",
"-.-.;.;.>.>.-.X X X !.~.{.].].{.^.@.X >.>.-.X X X -.X ;.",
"/./.(.(._._.:.:._._./.(.(.:._.:.:._._._._.:.:._._./.(.(.",
"/./.(.(._._.:.:._._./.(.(.:._.:.:._._._._.:.:._._./.(.(.",
"<.<.<.<././.<.<.<.<.<.<.<././.<.<.<.<././.<.<.<.<.<.<.<.",
"<.<.<.<././.<.<.<.<.<.<.<././.<.<.<.<././.<.<.<.<.<.<.<."};
