/* XPM */
static char * stick_pressed_xpm[] = {
"28 30 111 2",
"  	c None",
". 	c #5A87B5",
"+ 	c #5986B5",
"@ 	c #5986B4",
"# 	c #5885B3",
"$ 	c #5985B3",
"% 	c #5886B4",
"& 	c #5985B4",
"* 	c #5885B4",
"= 	c #5884B3",
"- 	c #5884B2",
"; 	c #5883B2",
"> 	c #5784B3",
", 	c #5582B0",
"' 	c #4673A0",
") 	c #46729F",
"! 	c #5482B0",
"~ 	c #5783B2",
"{ 	c #5783B1",
"] 	c #5481AF",
"^ 	c #2D5B84",
"/ 	c #15436B",
"( 	c #07365D",
"_ 	c #06355B",
": 	c #5481AE",
"< 	c #46739F",
"[ 	c #134169",
"} 	c #134168",
"| 	c #5682B1",
"1 	c #5683B1",
"2 	c #5682B0",
"3 	c #406E99",
"4 	c #406D99",
"5 	c #517EAC",
"6 	c #0F3D64",
"7 	c #0A385E",
"8 	c #2E587D",
"9 	c #426A8E",
"0 	c #23517A",
"a 	c #1A466C",
"b 	c #5D81A6",
"c 	c #6D8FB3",
"d 	c #6B8EB3",
"e 	c #5380AD",
"f 	c #0D3B61",
"g 	c #6286AA",
"h 	c #648AB2",
"i 	c #5783B0",
"j 	c #5581AF",
"k 	c #44709D",
"l 	c #3F678C",
"m 	c #5F87B1",
"n 	c #5581B0",
"o 	c #44709E",
"p 	c #35618C",
"q 	c #51799F",
"r 	c #5580AF",
"s 	c #5480AF",
"t 	c #305B85",
"u 	c #527AA5",
"v 	c #5581AE",
"w 	c #527BA6",
"x 	c #305C85",
"y 	c #446D96",
"z 	c #3F6A95",
"A 	c #3E6A96",
"B 	c #446E96",
"C 	c #5380AE",
"D 	c #547DA6",
"E 	c #1F4D75",
"F 	c #547FAE",
"G 	c #1F4C75",
"H 	c #557DA6",
"I 	c #5480AE",
"J 	c #5983AF",
"K 	c #124065",
"L 	c #33618B",
"M 	c #5A83AF",
"N 	c #537FAD",
"O 	c #547FAD",
"P 	c #4E7599",
"Q 	c #24527A",
"R 	c #4B77A3",
"S 	c #5480AD",
"T 	c #6489B1",
"U 	c #0C3B62",
"V 	c #537EAD",
"W 	c #527FAD",
"X 	c #527FAC",
"Y 	c #557FAD",
"Z 	c #6589AE",
"` 	c #265176",
" .	c #6C8FB3",
"..	c #466E92",
"+.	c #0C3A61",
"@.	c #5983AE",
"#.	c #527DAB",
"$.	c #527DAC",
"%.	c #527EAB",
"&.	c #527EAC",
"*.	c #5882AC",
"=.	c #688CB1",
"-.	c #6488AC",
";.	c #4D7398",
">.	c #386085",
",.	c #224E74",
"'.	c #6087AF",
").	c #688CB2",
"!.	c #517DAB",
"~.	c #517DAC",
"{.	c #5881AC",
". . . . . . + + + . . . . . . + + + + . . + + + . . . . ",
". . . . . . + + + . . . . . . + + + + . . + + + . . . . ",
"@ @ @ @ + + + + @ @ @ @ @ + + + + @ @ + + + + @ @ @ @ @ ",
"@ @ @ @ + + + + @ @ @ @ @ + + + + @ @ + + + + @ @ @ @ @ ",
"# # $ $ % % & & * * # $ $ @ % & & * * % % & & * * # $ $ ",
"# # $ $ % % & & * * # $ $ @ % & & * * % % & & * * # $ $ ",
"# # = = # # = = = # # # = # # = = = = # # = = = # # # = ",
"# # = = # # = = = # # # = # # = = = = # # = = = # # # = ",
"- - = = ; ; > = = = - = = = ; > > = = ; ; > = = = - = = ",
"- - = = ; ; > = = = - = , ' ) ! > = = ; ; > = = = - = = ",
"~ ~ { { { { { { { ] ^ / ( _ _ ( / ^ : { { { { { ~ ~ ~ { ",
"~ ~ { { { { { { < [ _ _ _ _ _ _ _ _ } < { { { { ~ ~ ~ { ",
"| | 1 1 2 2 1 3 ( _ _ _ _ _ _ _ _ _ _ ( 4 1 1 | | | 1 1 ",
"| | 1 1 2 2 5 6 _ _ _ 7 8 9 9 8 7 _ _ _ 6 5 1 | | | 1 1 ",
", , , , 2 2 0 _ _ _ a b c d d c b a _ _ _ 0 2 2 2 , , , ",
", , , , 2 e ( _ _ f g h i 2 2 i h g f _ _ ( e 2 2 , , , ",
"j j j j j k _ _ _ l m j j j j n n m l _ _ _ o j j j j j ",
"j j j j j p _ _ _ q j j j j j n n j q _ _ _ p j j j j j ",
"r r : : s t _ _ _ u r j : ] s v v s w _ _ _ x s r r j : ",
"r r : : s y _ _ _ z r j : ] s v v s A _ _ _ B s r r j : ",
"C C C C C D _ _ _ E C C C C C C C F G _ _ _ H F I C C C ",
"C C C C C J K _ _ _ L C C C C C C L _ _ _ K M F I C C C ",
"N N e e O F P _ _ _ _ Q R S O R Q _ _ _ _ P C e e N e e ",
"N N e e O O T 8 _ _ _ _ _ U U _ _ _ _ _ 8 T e e e N e e ",
"V V W W X X Y Z ` _ _ _ _ _ _ _ _ _ _ ` Z Y N N N V N W ",
"V V W W X X V M  ...+._ _ _ _ _ _ +... .@.V N N N V N W ",
"#.#.$.$.%.%.&.&.*.=.-.;.>.,.,.>.;.-.=.*.%.&.&.%.%.#.$.$.",
"#.#.$.$.%.%.&.&.%.&.'.). .c c  .).'.&.%.%.&.&.%.%.#.$.$.",
"!.!.!.!.#.#.!.!.!.!.!.!.~.{.{.~.!.!.!.#.#.!.!.!.!.!.!.!.",
"!.!.!.!.#.#.!.!.!.!.!.!.!.#.#.!.!.!.!.#.#.!.!.!.!.!.!.!."};
