/* XPM */
static char * stick_toggled_inactive_xpm[] = {
"28 30 109 2",
"  	c None",
". 	c #6C90B4",
"+ 	c #6C90B5",
"@ 	c #6C8FB5",
"# 	c #6A8FB4",
"$ 	c #6A8EB4",
"% 	c #6B8FB4",
"& 	c #6B8EB4",
"* 	c #698EB3",
"= 	c #698DB3",
"- 	c #678DB2",
"; 	c #678CB2",
"> 	c #6F93B6",
", 	c #7D9DBE",
"' 	c #6B90B4",
") 	c #7597B9",
"! 	c #7E9EBE",
"~ 	c #87A4C3",
"{ 	c #81A0C0",
"] 	c #93ADC9",
"^ 	c #658BB1",
"/ 	c #668BB1",
"( 	c #658BB2",
"_ 	c #7697BA",
": 	c #90ABC7",
"< 	c #6B90B6",
"[ 	c #91ACC8",
"} 	c #7C9CBD",
"| 	c #668BB2",
"1 	c #84A2C2",
"2 	c #7898BA",
"3 	c #7D9CBD",
"4 	c #648AB1",
"5 	c #648AB0",
"6 	c #638AB1",
"7 	c #8FA9C7",
"8 	c #6D92B7",
"9 	c #8AA6C4",
"0 	c #7294B7",
"a 	c #6A8EB3",
"b 	c #6D91B5",
"c 	c #7B9CBD",
"d 	c #6288B0",
"e 	c #6289B0",
"f 	c #8EA9C6",
"g 	c #7797BB",
"h 	c #7F9FBF",
"i 	c #91ABC8",
"j 	c #6B91B5",
"k 	c #688DB3",
"l 	c #85A2C1",
"m 	c #648BB1",
"n 	c #8AA5C4",
"o 	c #6187AF",
"p 	c #6087B0",
"q 	c #6087AF",
"r 	c #7193B7",
"s 	c #7194B7",
"t 	c #6187B0",
"u 	c #7596B9",
"v 	c #7E9EBF",
"w 	c #6A90B4",
"x 	c #7B9BBC",
"y 	c #628AB0",
"z 	c #6088AF",
"A 	c #7A99BC",
"B 	c #7093B7",
"C 	c #5F86AF",
"D 	c #5E86AF",
"E 	c #7597BA",
"F 	c #6A8FB5",
"G 	c #5F87AF",
"H 	c #7395B9",
"I 	c #7798BB",
"J 	c #5D85AE",
"K 	c #5D84AE",
"L 	c #5F85AF",
"M 	c #92ACC9",
"N 	c #8FAAC8",
"O 	c #6389B1",
"P 	c #6389B0",
"Q 	c #7F9EBF",
"R 	c #89A6C3",
"S 	c #5C84AD",
"T 	c #5B83AD",
"U 	c #5E87AF",
"V 	c #8DA8C6",
"W 	c #7394B9",
"X 	c #5B84AD",
"Y 	c #6B8FB5",
"Z 	c #5A82AC",
"` 	c #5983AC",
" .	c #5A83AD",
"..	c #668CB2",
"+.	c #89A6C5",
"@.	c #5A83AC",
"#.	c #7898BB",
"$.	c #89A5C4",
"%.	c #7899BB",
"&.	c #5881AB",
"*.	c #5881AC",
"=.	c #5882AB",
"-.	c #5A82AD",
";.	c #5882AC",
">.	c #5680AB",
",.	c #5680AA",
"'.	c #557EAA",
").	c #557FAB",
"!.	c #557FAA",
". . . . + + + + @ + . . . + + + + @ @ . . . + + + . + + ",
". . . . + + + + @ + . . . + + + + @ @ . . . + + + . + + ",
"# # # # $ $ % % & % # # # # $ % % & & # # # # $ # # # $ ",
"# # # # $ $ % % & % # # # # $ % % & & # # # # $ # # # $ ",
"* * = = = = = = = * * * = = = = = = = * * = = = = = = = ",
"* * = = = = = = = * * * = = = = = = = * * = = = = = = = ",
"- - ; ; ; ; - - ; - - - ; ; ; - - > , - - ; ; ; ; ; ; ; ",
"- - ; ; ; ; - - ; - ' ) ! ~ . - - { ] , - ; ; ; ; ; ; ; ",
"^ ^ / / ( ( ^ ^ ^ _ : ] ] ] < ^ ; [ ] ] } / | ( | / | ( ",
"^ ^ / / ( ( ^ - 1 ] ] ] ] ] < ^ 2 ] ] ] ] 3 | ( | / | ( ",
"4 4 5 5 6 6 5 { ] ] ] ] ] 7 8 5 9 ] ] ] ] ] } 6 4 5 4 6 ",
"4 4 5 5 6 6 0 ] ] ] ] { a 4 6 b ] ] ] ] ] ] ] c 4 5 4 6 ",
"d d d d e e f ] ] ] g d d e e h ] ] ] ] ] i h j e d e e ",
"d d d d e k ] ] ] l d d d e m i ] ] ] n _ 4 e e e d e e ",
"o o p p q r ] ] ] s o t p p u ] i v w o o p p q p p p q ",
"o o p p q x ] ] ] - o t p p v ) y z e A B ( p q p p p q ",
"C C D D D E ] ] ] F C C D D D D D G % ] ] ] H D D D D D ",
"C C D D D $ ] ] ] I C C D D D D D G I ] ] ] $ D D D D D ",
"J J J J K L M ] ] N O J J J K J J P N ] ] M C K J J J K ",
"J J J J K K Q ] ] ] R ( J J K J ( R ] ] ] Q J K J J J K ",
"S S S S T T U V ] ] ] [ ! H W ! [ ] ] ] V G S T S S S T ",
"S S S S T T X F M ] ] ] ] ] ] ] ] ] ] M Y S S T S S S T ",
"Z Z Z Z ` `  . ...+.] ] ] ] ] ] ] ] +.| Z Z @.` @.Z @.` ",
"Z Z Z Z ` `  . .@.S #.$.M ] ] M $.%.S Z Z Z @.` @.Z @.` ",
"&.&.*.*.=.=.=.=.&.&.&.*.-.( ^ @.=.&.&.&.&.*.;.=.;.*.;.=.",
"&.&.*.*.=.=.=.=.&.&.&.*.*.;.=.=.=.&.&.&.&.*.;.=.;.*.;.=.",
">.>.,.,.>.>.>.>.>.>.>.>.,.>.>.>.>.>.>.>.>.,.>.>.>.,.>.>.",
">.>.,.,.>.>.>.>.>.>.>.>.,.>.>.>.>.>.>.>.>.,.>.>.>.,.>.>.",
"'.'.).).!.!.!.!.!.!.'.).).).!.!.!.!.!.'.'.).).!.).).).!.",
"'.'.).).!.!.!.!.!.!.'.).).).!.!.!.!.!.'.'.).).!.).).).!."};
